<svg width="114" height="34" viewBox="0 0 114 34" fill="none" xmlns="http://www.w3.org/2000/svg">
<rect width="114" height="34" rx="3" fill="#2E92B0"/>
<path d="M19.362 18.038C20.062 18.038 20.804 17.604 21.448 16.568L20.566 15.91C20.216 16.568 19.838 16.862 19.39 16.862C18.508 16.862 17.878 15.574 16.618 15.574C15.904 15.574 15.162 15.994 14.532 17.058L15.4 17.688C15.75 17.044 16.142 16.75 16.59 16.75C17.472 16.75 18.102 18.038 19.362 18.038ZM23.8884 18.094L25.9184 15.042C26.2124 14.524 26.4924 14.048 26.7444 13.544H26.8004C26.7724 14.104 26.7304 15 26.7304 15.56V18.094H23.8884ZM26.7304 22H28.2424V19.34H29.5444V18.094H28.2424V11.976H26.3664L22.2644 18.262V19.34H26.7304V22ZM34.3313 22H35.9413V16.54C36.6133 15.854 37.1033 15.49 37.8173 15.49C38.7273 15.49 39.1193 16.022 39.1193 17.352V22H40.7293V17.156C40.7293 15.196 40.0013 14.104 38.3633 14.104C37.3133 14.104 36.5433 14.678 35.8713 15.322L35.9413 13.796V10.842H34.3313V22ZM46.1066 22.182C48.0106 22.182 49.7326 20.712 49.7326 18.15C49.7326 15.588 48.0106 14.104 46.1066 14.104C44.2026 14.104 42.4806 15.588 42.4806 18.15C42.4806 20.712 44.2026 22.182 46.1066 22.182ZM46.1066 20.866C44.9026 20.866 44.1466 19.788 44.1466 18.15C44.1466 16.526 44.9026 15.434 46.1066 15.434C47.3246 15.434 48.0806 16.526 48.0806 18.15C48.0806 19.788 47.3246 20.866 46.1066 20.866ZM53.8942 22.182C54.9442 22.182 55.7002 21.65 56.4002 20.838H56.4422L56.5682 22H57.8842V14.3H56.2742V19.648C55.6302 20.46 55.1402 20.796 54.4262 20.796C53.5162 20.796 53.1382 20.264 53.1382 18.948V14.3H51.5282V19.144C51.5282 21.104 52.2422 22.182 53.8942 22.182ZM60.3078 22H61.9178V17.198C62.3938 15.98 63.1498 15.546 63.7798 15.546C64.0878 15.546 64.2838 15.588 64.5498 15.672L64.8438 14.272C64.6058 14.16 64.3538 14.104 63.9758 14.104C63.1498 14.104 62.3378 14.692 61.7918 15.686H61.7498L61.6238 14.3H60.3078V22ZM68.0403 22.182C69.9443 22.182 70.9663 21.132 70.9663 19.844C70.9663 18.388 69.7763 17.912 68.6983 17.506C67.8583 17.198 67.1023 16.946 67.1023 16.288C67.1023 15.756 67.4943 15.336 68.3483 15.336C68.9783 15.336 69.5243 15.616 70.0563 16.008L70.8123 15.014C70.1963 14.524 69.3423 14.104 68.3203 14.104C66.6123 14.104 65.5763 15.07 65.5763 16.358C65.5763 17.66 66.7103 18.206 67.7463 18.598C68.5723 18.92 69.4403 19.228 69.4403 19.928C69.4403 20.516 69.0063 20.964 68.0823 20.964C67.2563 20.964 66.5843 20.614 65.8983 20.082L65.1423 21.118C65.8983 21.734 66.9763 22.182 68.0403 22.182ZM77.6454 22.182C78.5694 22.182 79.3954 21.72 80.0954 21.118H80.1514L80.2774 22H81.5934V17.366C81.5934 15.322 80.7114 14.104 78.7934 14.104C77.5614 14.104 76.4834 14.608 75.6854 15.112L76.2874 16.204C76.9454 15.784 77.7014 15.42 78.5134 15.42C79.6474 15.42 79.9694 16.204 79.9834 17.1C76.7774 17.45 75.3774 18.304 75.3774 19.956C75.3774 21.314 76.3154 22.182 77.6454 22.182ZM78.1354 20.908C77.4494 20.908 76.9314 20.6 76.9314 19.844C76.9314 18.976 77.7014 18.388 79.9834 18.122V20.012C79.3534 20.586 78.8074 20.908 78.1354 20.908ZM86.5102 25.458C88.9742 25.458 90.5422 24.254 90.5422 22.77C90.5422 21.454 89.5902 20.894 87.7702 20.894H86.3562C85.3762 20.894 85.0682 20.6 85.0682 20.138C85.0682 19.76 85.2362 19.55 85.4882 19.326C85.8242 19.48 86.2162 19.564 86.5662 19.564C88.1762 19.564 89.4502 18.598 89.4502 16.918C89.4502 16.33 89.2402 15.812 88.9462 15.504H90.4162V14.3H87.6862C87.3922 14.188 87.0002 14.104 86.5662 14.104C84.9702 14.104 83.5842 15.126 83.5842 16.862C83.5842 17.786 84.0742 18.514 84.6062 18.92V18.976C84.1722 19.284 83.7382 19.802 83.7382 20.404C83.7382 21.034 84.0462 21.44 84.4382 21.678V21.748C83.7242 22.182 83.3182 22.784 83.3182 23.428C83.3182 24.772 84.6622 25.458 86.5102 25.458ZM86.5662 18.528C85.7682 18.528 85.1102 17.898 85.1102 16.862C85.1102 15.826 85.7542 15.238 86.5662 15.238C87.3782 15.238 88.0222 15.84 88.0222 16.862C88.0222 17.898 87.3642 18.528 86.5662 18.528ZM86.7482 24.394C85.4742 24.394 84.6902 23.946 84.6902 23.19C84.6902 22.798 84.8862 22.406 85.3482 22.07C85.6702 22.14 86.0202 22.182 86.3842 22.182H87.5462C88.4842 22.182 88.9882 22.378 88.9882 23.022C88.9882 23.736 88.0922 24.394 86.7482 24.394ZM94.8195 22.182C96.7235 22.182 98.4455 20.712 98.4455 18.15C98.4455 15.588 96.7235 14.104 94.8195 14.104C92.9155 14.104 91.1935 15.588 91.1935 18.15C91.1935 20.712 92.9155 22.182 94.8195 22.182ZM94.8195 20.866C93.6155 20.866 92.8595 19.788 92.8595 18.15C92.8595 16.526 93.6155 15.434 94.8195 15.434C96.0375 15.434 96.7935 16.526 96.7935 18.15C96.7935 19.788 96.0375 20.866 94.8195 20.866Z" fill="white"/>
</svg>
