<svg width="114" height="34" viewBox="0 0 114 34" fill="none" xmlns="http://www.w3.org/2000/svg">
<rect x="0.25" y="0.25" width="113.5" height="33.5" rx="2.75" fill="white" stroke="#2E92B0" stroke-width="0.5"/>
<path d="M25.568 25.22C27.192 25.22 28.004 24.114 28.606 22.462L31.434 14.3H29.866L28.634 18.262C28.438 18.962 28.228 19.732 28.032 20.432H27.962C27.724 19.718 27.486 18.948 27.262 18.262L25.834 14.3H24.182L27.234 21.944L27.08 22.476C26.8 23.302 26.31 23.918 25.47 23.918C25.274 23.918 25.05 23.848 24.91 23.806L24.602 25.066C24.868 25.164 25.176 25.22 25.568 25.22ZM35.9572 22.182C36.9652 22.182 37.8472 21.846 38.5612 21.37L38.0012 20.348C37.4412 20.712 36.8532 20.922 36.1672 20.922C34.8372 20.922 33.9132 20.04 33.7872 18.57H38.7852C38.8272 18.374 38.8692 18.066 38.8692 17.744C38.8692 15.574 37.7632 14.104 35.7192 14.104C33.9272 14.104 32.2052 15.658 32.2052 18.15C32.2052 20.698 33.8712 22.182 35.9572 22.182ZM33.7732 17.45C33.9272 16.106 34.7812 15.364 35.7472 15.364C36.8672 15.364 37.4692 16.134 37.4692 17.45H33.7732ZM42.7532 22.182C44.6572 22.182 45.6792 21.132 45.6792 19.844C45.6792 18.388 44.4892 17.912 43.4112 17.506C42.5712 17.198 41.8152 16.946 41.8152 16.288C41.8152 15.756 42.2072 15.336 43.0612 15.336C43.6912 15.336 44.2372 15.616 44.7692 16.008L45.5252 15.014C44.9092 14.524 44.0552 14.104 43.0332 14.104C41.3252 14.104 40.2892 15.07 40.2892 16.358C40.2892 17.66 41.4232 18.206 42.4592 18.598C43.2852 18.92 44.1532 19.228 44.1532 19.928C44.1532 20.516 43.7192 20.964 42.7952 20.964C41.9692 20.964 41.2972 20.614 40.6112 20.082L39.8552 21.118C40.6112 21.734 41.6892 22.182 42.7532 22.182ZM49.6693 22.182C50.2293 22.182 50.7473 22.042 51.1813 21.902L50.8873 20.712C50.6633 20.81 50.3273 20.894 50.0613 20.894C49.2633 20.894 48.9413 20.418 48.9413 19.494V15.588H50.9433V14.3H48.9413V12.172H47.5973L47.4153 14.3L46.2113 14.384V15.588H47.3313V19.48C47.3313 21.104 47.9333 22.182 49.6693 22.182ZM55.6037 22.182C56.6117 22.182 57.4937 21.846 58.2077 21.37L57.6477 20.348C57.0877 20.712 56.4997 20.922 55.8137 20.922C54.4837 20.922 53.5597 20.04 53.4337 18.57H58.4317C58.4737 18.374 58.5157 18.066 58.5157 17.744C58.5157 15.574 57.4097 14.104 55.3657 14.104C53.5737 14.104 51.8517 15.658 51.8517 18.15C51.8517 20.698 53.5177 22.182 55.6037 22.182ZM53.4197 17.45C53.5737 16.106 54.4277 15.364 55.3937 15.364C56.5137 15.364 57.1157 16.134 57.1157 17.45H53.4197ZM60.3137 22H61.9237V17.198C62.3997 15.98 63.1557 15.546 63.7857 15.546C64.0937 15.546 64.2897 15.588 64.5557 15.672L64.8497 14.272C64.6117 14.16 64.3597 14.104 63.9817 14.104C63.1557 14.104 62.3437 14.692 61.7977 15.686H61.7557L61.6297 14.3H60.3137V22ZM68.5518 22.182C69.4198 22.182 70.2178 21.72 70.7918 21.132H70.8478L70.9738 22H72.2898V10.842H70.6798V13.698L70.7498 14.972C70.1198 14.44 69.5598 14.104 68.6778 14.104C66.9558 14.104 65.3738 15.658 65.3738 18.15C65.3738 20.712 66.6198 22.182 68.5518 22.182ZM68.9298 20.852C67.7258 20.852 67.0398 19.886 67.0398 18.136C67.0398 16.47 67.9078 15.448 68.9858 15.448C69.5598 15.448 70.1058 15.63 70.6798 16.148V19.914C70.1198 20.558 69.5738 20.852 68.9298 20.852ZM76.5302 22.182C77.4542 22.182 78.2802 21.72 78.9802 21.118H79.0362L79.1622 22H80.4782V17.366C80.4782 15.322 79.5962 14.104 77.6782 14.104C76.4462 14.104 75.3682 14.608 74.5702 15.112L75.1722 16.204C75.8302 15.784 76.5862 15.42 77.3982 15.42C78.5322 15.42 78.8542 16.204 78.8682 17.1C75.6622 17.45 74.2622 18.304 74.2622 19.956C74.2622 21.314 75.2002 22.182 76.5302 22.182ZM77.0202 20.908C76.3342 20.908 75.8162 20.6 75.8162 19.844C75.8162 18.976 76.5862 18.388 78.8682 18.122V20.012C78.2382 20.586 77.6922 20.908 77.0202 20.908ZM83.1129 25.22C84.7369 25.22 85.5489 24.114 86.1509 22.462L88.9789 14.3H87.4109L86.1789 18.262C85.9829 18.962 85.7729 19.732 85.5769 20.432H85.5069C85.2689 19.718 85.0309 18.948 84.8069 18.262L83.3789 14.3H81.7269L84.7789 21.944L84.6249 22.476C84.3449 23.302 83.8549 23.918 83.0149 23.918C82.8189 23.918 82.5949 23.848 82.4549 23.806L82.1469 25.066C82.4129 25.164 82.7209 25.22 83.1129 25.22Z" fill="#2E92B0"/>
</svg>
