<svg width="114" height="34" viewBox="0 0 114 34" fill="none" xmlns="http://www.w3.org/2000/svg">
<rect x="0.25" y="0.25" width="113.5" height="33.5" rx="2.75" fill="white" stroke="#2E92B0" stroke-width="0.5"/>
<path d="M21.362 18.038C22.062 18.038 22.804 17.604 23.448 16.568L22.566 15.91C22.216 16.568 21.838 16.862 21.39 16.862C20.508 16.862 19.878 15.574 18.618 15.574C17.904 15.574 17.162 15.994 16.532 17.058L17.4 17.688C17.75 17.044 18.142 16.75 18.59 16.75C19.472 16.75 20.102 18.038 21.362 18.038ZM27.7364 22.182C29.5424 22.182 31.2084 20.95 31.2084 18.752C31.2084 16.596 29.7944 15.63 28.0724 15.63C27.5124 15.63 27.1064 15.756 26.6584 15.98L26.8964 13.334H30.7184V11.976H25.4964L25.1884 16.876L25.9724 17.38C26.5744 16.988 26.9664 16.792 27.6244 16.792C28.8004 16.792 29.5844 17.534 29.5844 18.808C29.5844 20.082 28.7024 20.866 27.5404 20.866C26.4624 20.866 25.7204 20.348 25.1324 19.76L24.3624 20.81C25.0904 21.524 26.1124 22.182 27.7364 22.182ZM36.3313 22H37.9413V16.54C38.5713 15.84 39.1453 15.49 39.6633 15.49C40.5453 15.49 40.9513 16.022 40.9513 17.352V22H42.5613V16.54C43.2053 15.84 43.7653 15.49 44.2973 15.49C45.1653 15.49 45.5853 16.022 45.5853 17.352V22H47.1953V17.156C47.1953 15.196 46.4393 14.104 44.8293 14.104C43.8633 14.104 43.0793 14.706 42.3233 15.518C41.9873 14.636 41.3433 14.104 40.1953 14.104C39.2433 14.104 38.4733 14.678 37.8153 15.378H37.7733L37.6473 14.3H36.3313V22ZM49.5246 22H51.1346V14.3H49.5246V22ZM50.3226 12.858C50.9106 12.858 51.3306 12.48 51.3306 11.892C51.3306 11.318 50.9106 10.94 50.3226 10.94C49.7346 10.94 49.3286 11.318 49.3286 11.892C49.3286 12.48 49.7346 12.858 50.3226 12.858ZM53.5442 22H55.1542V16.54C55.8262 15.854 56.3162 15.49 57.0302 15.49C57.9402 15.49 58.3322 16.022 58.3322 17.352V22H59.9422V17.156C59.9422 15.196 59.2142 14.104 57.5762 14.104C56.5262 14.104 55.7422 14.678 55.0282 15.364H54.9862L54.8602 14.3H53.5442V22ZM64.3665 22.182C66.2705 22.182 67.2925 21.132 67.2925 19.844C67.2925 18.388 66.1025 17.912 65.0245 17.506C64.1845 17.198 63.4285 16.946 63.4285 16.288C63.4285 15.756 63.8205 15.336 64.6745 15.336C65.3045 15.336 65.8505 15.616 66.3825 16.008L67.1385 15.014C66.5225 14.524 65.6685 14.104 64.6465 14.104C62.9385 14.104 61.9025 15.07 61.9025 16.358C61.9025 17.66 63.0365 18.206 64.0725 18.598C64.8985 18.92 65.7665 19.228 65.7665 19.928C65.7665 20.516 65.3325 20.964 64.4085 20.964C63.5825 20.964 62.9105 20.614 62.2245 20.082L61.4685 21.118C62.2245 21.734 63.3025 22.182 64.3665 22.182ZM73.9716 22.182C74.8956 22.182 75.7216 21.72 76.4216 21.118H76.4776L76.6036 22H77.9196V17.366C77.9196 15.322 77.0376 14.104 75.1196 14.104C73.8876 14.104 72.8096 14.608 72.0116 15.112L72.6136 16.204C73.2716 15.784 74.0276 15.42 74.8396 15.42C75.9736 15.42 76.2956 16.204 76.3096 17.1C73.1036 17.45 71.7036 18.304 71.7036 19.956C71.7036 21.314 72.6416 22.182 73.9716 22.182ZM74.4616 20.908C73.7756 20.908 73.2576 20.6 73.2576 19.844C73.2576 18.976 74.0276 18.388 76.3096 18.122V20.012C75.6796 20.586 75.1336 20.908 74.4616 20.908ZM82.8363 25.458C85.3003 25.458 86.8683 24.254 86.8683 22.77C86.8683 21.454 85.9163 20.894 84.0963 20.894H82.6823C81.7023 20.894 81.3943 20.6 81.3943 20.138C81.3943 19.76 81.5623 19.55 81.8143 19.326C82.1503 19.48 82.5423 19.564 82.8923 19.564C84.5023 19.564 85.7763 18.598 85.7763 16.918C85.7763 16.33 85.5663 15.812 85.2723 15.504H86.7423V14.3H84.0123C83.7183 14.188 83.3263 14.104 82.8923 14.104C81.2963 14.104 79.9103 15.126 79.9103 16.862C79.9103 17.786 80.4003 18.514 80.9323 18.92V18.976C80.4983 19.284 80.0643 19.802 80.0643 20.404C80.0643 21.034 80.3723 21.44 80.7643 21.678V21.748C80.0503 22.182 79.6443 22.784 79.6443 23.428C79.6443 24.772 80.9883 25.458 82.8363 25.458ZM82.8923 18.528C82.0943 18.528 81.4363 17.898 81.4363 16.862C81.4363 15.826 82.0803 15.238 82.8923 15.238C83.7043 15.238 84.3483 15.84 84.3483 16.862C84.3483 17.898 83.6903 18.528 82.8923 18.528ZM83.0743 24.394C81.8003 24.394 81.0163 23.946 81.0163 23.19C81.0163 22.798 81.2123 22.406 81.6743 22.07C81.9963 22.14 82.3463 22.182 82.7103 22.182H83.8723C84.8103 22.182 85.3143 22.378 85.3143 23.022C85.3143 23.736 84.4183 24.394 83.0743 24.394ZM91.1457 22.182C93.0497 22.182 94.7717 20.712 94.7717 18.15C94.7717 15.588 93.0497 14.104 91.1457 14.104C89.2417 14.104 87.5197 15.588 87.5197 18.15C87.5197 20.712 89.2417 22.182 91.1457 22.182ZM91.1457 20.866C89.9417 20.866 89.1857 19.788 89.1857 18.15C89.1857 16.526 89.9417 15.434 91.1457 15.434C92.3637 15.434 93.1197 16.526 93.1197 18.15C93.1197 19.788 92.3637 20.866 91.1457 20.866Z" fill="#2E92B0"/>
</svg>
