<svg width="114" height="34" viewBox="0 0 114 34" fill="none" xmlns="http://www.w3.org/2000/svg">
<rect x="0.25" y="0.25" width="113.5" height="33.5" rx="2.75" fill="white" stroke="#2E92B0" stroke-width="0.5"/>
<path d="M18.362 18.038C19.062 18.038 19.804 17.604 20.448 16.568L19.566 15.91C19.216 16.568 18.838 16.862 18.39 16.862C17.508 16.862 16.878 15.574 15.618 15.574C14.904 15.574 14.162 15.994 13.532 17.058L14.4 17.688C14.75 17.044 15.142 16.75 15.59 16.75C16.472 16.75 17.102 18.038 18.362 18.038ZM24.7364 22.182C26.6264 22.182 28.1804 21.118 28.1804 19.312C28.1804 17.954 27.2424 17.086 26.0524 16.792V16.722C27.1444 16.316 27.8304 15.546 27.8304 14.384C27.8304 12.732 26.5284 11.78 24.6804 11.78C23.4904 11.78 22.5384 12.298 21.7264 13.04L22.5664 14.048C23.1544 13.46 23.8264 13.068 24.6244 13.068C25.6044 13.068 26.2064 13.614 26.2064 14.51C26.2064 15.476 25.5344 16.218 23.5044 16.218V17.408C25.8284 17.408 26.5564 18.122 26.5564 19.228C26.5564 20.236 25.7584 20.866 24.5964 20.866C23.5324 20.866 22.7624 20.348 22.1604 19.732L21.3764 20.768C22.0624 21.538 23.1124 22.182 24.7364 22.182ZM32.9588 22.182C35.0168 22.182 36.2908 20.32 36.2908 16.946C36.2908 13.586 35.0168 11.78 32.9588 11.78C30.9148 11.78 29.6268 13.572 29.6268 16.946C29.6268 20.32 30.9148 22.182 32.9588 22.182ZM32.9588 20.908C31.9088 20.908 31.1668 19.83 31.1668 16.946C31.1668 14.062 31.9088 13.054 32.9588 13.054C34.0088 13.054 34.7508 14.062 34.7508 16.946C34.7508 19.83 34.0088 20.908 32.9588 20.908ZM41.3157 22H42.9257V16.54C43.5557 15.84 44.1297 15.49 44.6477 15.49C45.5297 15.49 45.9357 16.022 45.9357 17.352V22H47.5457V16.54C48.1897 15.84 48.7497 15.49 49.2817 15.49C50.1497 15.49 50.5697 16.022 50.5697 17.352V22H52.1797V17.156C52.1797 15.196 51.4237 14.104 49.8137 14.104C48.8477 14.104 48.0637 14.706 47.3077 15.518C46.9717 14.636 46.3277 14.104 45.1797 14.104C44.2277 14.104 43.4577 14.678 42.7997 15.378H42.7577L42.6317 14.3H41.3157V22ZM54.509 22H56.119V14.3H54.509V22ZM55.307 12.858C55.895 12.858 56.315 12.48 56.315 11.892C56.315 11.318 55.895 10.94 55.307 10.94C54.719 10.94 54.313 11.318 54.313 11.892C54.313 12.48 54.719 12.858 55.307 12.858ZM58.5285 22H60.1385V16.54C60.8105 15.854 61.3005 15.49 62.0145 15.49C62.9245 15.49 63.3165 16.022 63.3165 17.352V22H64.9265V17.156C64.9265 15.196 64.1985 14.104 62.5605 14.104C61.5105 14.104 60.7265 14.678 60.0125 15.364H59.9705L59.8445 14.3H58.5285V22ZM69.3509 22.182C71.2549 22.182 72.2769 21.132 72.2769 19.844C72.2769 18.388 71.0869 17.912 70.0089 17.506C69.1689 17.198 68.4129 16.946 68.4129 16.288C68.4129 15.756 68.8049 15.336 69.6589 15.336C70.2889 15.336 70.8349 15.616 71.3669 16.008L72.1229 15.014C71.5069 14.524 70.6529 14.104 69.6309 14.104C67.9229 14.104 66.8869 15.07 66.8869 16.358C66.8869 17.66 68.0209 18.206 69.0569 18.598C69.8829 18.92 70.7509 19.228 70.7509 19.928C70.7509 20.516 70.3169 20.964 69.3929 20.964C68.5669 20.964 67.8949 20.614 67.2089 20.082L66.4529 21.118C67.2089 21.734 68.2869 22.182 69.3509 22.182ZM78.956 22.182C79.88 22.182 80.706 21.72 81.406 21.118H81.462L81.588 22H82.904V17.366C82.904 15.322 82.022 14.104 80.104 14.104C78.872 14.104 77.794 14.608 76.996 15.112L77.598 16.204C78.256 15.784 79.012 15.42 79.824 15.42C80.958 15.42 81.28 16.204 81.294 17.1C78.088 17.45 76.688 18.304 76.688 19.956C76.688 21.314 77.626 22.182 78.956 22.182ZM79.446 20.908C78.76 20.908 78.242 20.6 78.242 19.844C78.242 18.976 79.012 18.388 81.294 18.122V20.012C80.664 20.586 80.118 20.908 79.446 20.908ZM87.8207 25.458C90.2847 25.458 91.8527 24.254 91.8527 22.77C91.8527 21.454 90.9007 20.894 89.0807 20.894H87.6667C86.6867 20.894 86.3787 20.6 86.3787 20.138C86.3787 19.76 86.5467 19.55 86.7987 19.326C87.1347 19.48 87.5267 19.564 87.8767 19.564C89.4867 19.564 90.7607 18.598 90.7607 16.918C90.7607 16.33 90.5507 15.812 90.2567 15.504H91.7267V14.3H88.9967C88.7027 14.188 88.3107 14.104 87.8767 14.104C86.2807 14.104 84.8947 15.126 84.8947 16.862C84.8947 17.786 85.3847 18.514 85.9167 18.92V18.976C85.4827 19.284 85.0487 19.802 85.0487 20.404C85.0487 21.034 85.3567 21.44 85.7487 21.678V21.748C85.0347 22.182 84.6287 22.784 84.6287 23.428C84.6287 24.772 85.9727 25.458 87.8207 25.458ZM87.8767 18.528C87.0787 18.528 86.4207 17.898 86.4207 16.862C86.4207 15.826 87.0647 15.238 87.8767 15.238C88.6887 15.238 89.3327 15.84 89.3327 16.862C89.3327 17.898 88.6747 18.528 87.8767 18.528ZM88.0587 24.394C86.7847 24.394 86.0007 23.946 86.0007 23.19C86.0007 22.798 86.1967 22.406 86.6587 22.07C86.9807 22.14 87.3307 22.182 87.6947 22.182H88.8567C89.7947 22.182 90.2987 22.378 90.2987 23.022C90.2987 23.736 89.4027 24.394 88.0587 24.394ZM96.13 22.182C98.034 22.182 99.756 20.712 99.756 18.15C99.756 15.588 98.034 14.104 96.13 14.104C94.226 14.104 92.504 15.588 92.504 18.15C92.504 20.712 94.226 22.182 96.13 22.182ZM96.13 20.866C94.926 20.866 94.17 19.788 94.17 18.15C94.17 16.526 94.926 15.434 96.13 15.434C97.348 15.434 98.104 16.526 98.104 18.15C98.104 19.788 97.348 20.866 96.13 20.866Z" fill="#2E92B0"/>
</svg>
