<svg width="114" height="34" viewBox="0 0 114 34" fill="none" xmlns="http://www.w3.org/2000/svg">
<rect x="0.25" y="0.25" width="113.5" height="33.5" rx="2.75" fill="white" stroke="#2E92B0" stroke-width="0.5"/>
<path d="M23.362 18.038C24.062 18.038 24.804 17.604 25.448 16.568L24.566 15.91C24.216 16.568 23.838 16.862 23.39 16.862C22.508 16.862 21.878 15.574 20.618 15.574C19.904 15.574 19.162 15.994 18.532 17.058L19.4 17.688C19.75 17.044 20.142 16.75 20.59 16.75C21.472 16.75 22.102 18.038 23.362 18.038ZM27.1884 22H33.0684V20.67H31.0524V11.976H29.8344C29.2464 12.34 28.5604 12.592 27.5944 12.76V13.782H29.4424V20.67H27.1884V22ZM38.3313 22H39.9413V16.54C40.6133 15.854 41.1033 15.49 41.8173 15.49C42.7273 15.49 43.1193 16.022 43.1193 17.352V22H44.7293V17.156C44.7293 15.196 44.0013 14.104 42.3633 14.104C41.3133 14.104 40.5433 14.678 39.8713 15.322L39.9413 13.796V10.842H38.3313V22ZM50.1066 22.182C52.0106 22.182 53.7326 20.712 53.7326 18.15C53.7326 15.588 52.0106 14.104 50.1066 14.104C48.2026 14.104 46.4806 15.588 46.4806 18.15C46.4806 20.712 48.2026 22.182 50.1066 22.182ZM50.1066 20.866C48.9026 20.866 48.1466 19.788 48.1466 18.15C48.1466 16.526 48.9026 15.434 50.1066 15.434C51.3246 15.434 52.0806 16.526 52.0806 18.15C52.0806 19.788 51.3246 20.866 50.1066 20.866ZM57.8942 22.182C58.9442 22.182 59.7002 21.65 60.4002 20.838H60.4422L60.5682 22H61.8842V14.3H60.2742V19.648C59.6302 20.46 59.1402 20.796 58.4262 20.796C57.5162 20.796 57.1382 20.264 57.1382 18.948V14.3H55.5282V19.144C55.5282 21.104 56.2422 22.182 57.8942 22.182ZM64.3078 22H65.9178V17.198C66.3938 15.98 67.1498 15.546 67.7798 15.546C68.0878 15.546 68.2838 15.588 68.5498 15.672L68.8438 14.272C68.6058 14.16 68.3538 14.104 67.9758 14.104C67.1498 14.104 66.3378 14.692 65.7918 15.686H65.7498L65.6238 14.3H64.3078V22ZM75.0009 22.182C75.9249 22.182 76.7509 21.72 77.4509 21.118H77.5069L77.6329 22H78.9489V17.366C78.9489 15.322 78.0669 14.104 76.1489 14.104C74.9169 14.104 73.8389 14.608 73.0409 15.112L73.6429 16.204C74.3009 15.784 75.0569 15.42 75.8689 15.42C77.0029 15.42 77.3249 16.204 77.3389 17.1C74.1329 17.45 72.7329 18.304 72.7329 19.956C72.7329 21.314 73.6709 22.182 75.0009 22.182ZM75.4909 20.908C74.8049 20.908 74.2869 20.6 74.2869 19.844C74.2869 18.976 75.0569 18.388 77.3389 18.122V20.012C76.7089 20.586 76.1629 20.908 75.4909 20.908ZM83.8656 25.458C86.3296 25.458 87.8976 24.254 87.8976 22.77C87.8976 21.454 86.9456 20.894 85.1256 20.894H83.7116C82.7316 20.894 82.4236 20.6 82.4236 20.138C82.4236 19.76 82.5916 19.55 82.8436 19.326C83.1796 19.48 83.5716 19.564 83.9216 19.564C85.5316 19.564 86.8056 18.598 86.8056 16.918C86.8056 16.33 86.5956 15.812 86.3016 15.504H87.7716V14.3H85.0416C84.7476 14.188 84.3556 14.104 83.9216 14.104C82.3256 14.104 80.9396 15.126 80.9396 16.862C80.9396 17.786 81.4296 18.514 81.9616 18.92V18.976C81.5276 19.284 81.0936 19.802 81.0936 20.404C81.0936 21.034 81.4016 21.44 81.7936 21.678V21.748C81.0796 22.182 80.6736 22.784 80.6736 23.428C80.6736 24.772 82.0176 25.458 83.8656 25.458ZM83.9216 18.528C83.1236 18.528 82.4656 17.898 82.4656 16.862C82.4656 15.826 83.1096 15.238 83.9216 15.238C84.7336 15.238 85.3776 15.84 85.3776 16.862C85.3776 17.898 84.7196 18.528 83.9216 18.528ZM84.1036 24.394C82.8296 24.394 82.0456 23.946 82.0456 23.19C82.0456 22.798 82.2416 22.406 82.7036 22.07C83.0256 22.14 83.3756 22.182 83.7396 22.182H84.9016C85.8396 22.182 86.3436 22.378 86.3436 23.022C86.3436 23.736 85.4476 24.394 84.1036 24.394ZM92.175 22.182C94.079 22.182 95.801 20.712 95.801 18.15C95.801 15.588 94.079 14.104 92.175 14.104C90.271 14.104 88.549 15.588 88.549 18.15C88.549 20.712 90.271 22.182 92.175 22.182ZM92.175 20.866C90.971 20.866 90.215 19.788 90.215 18.15C90.215 16.526 90.971 15.434 92.175 15.434C93.393 15.434 94.149 16.526 94.149 18.15C94.149 19.788 93.393 20.866 92.175 20.866Z" fill="#2E92B0"/>
</svg>
