<svg width="114" height="34" viewBox="0 0 114 34" fill="none" xmlns="http://www.w3.org/2000/svg">
<rect width="114" height="34" rx="3" fill="#2E92B0"/>
<path d="M15.362 18.038C16.062 18.038 16.804 17.604 17.448 16.568L16.566 15.91C16.216 16.568 15.838 16.862 15.39 16.862C14.508 16.862 13.878 15.574 12.618 15.574C11.904 15.574 11.162 15.994 10.532 17.058L11.4 17.688C11.75 17.044 12.142 16.75 12.59 16.75C13.472 16.75 14.102 18.038 15.362 18.038ZM19.1884 22H25.0684V20.67H23.0524V11.976H21.8344C21.2464 12.34 20.5604 12.592 19.5944 12.76V13.782H21.4424V20.67H19.1884V22ZM29.9588 22.182C32.0168 22.182 33.2908 20.32 33.2908 16.946C33.2908 13.586 32.0168 11.78 29.9588 11.78C27.9148 11.78 26.6268 13.572 26.6268 16.946C26.6268 20.32 27.9148 22.182 29.9588 22.182ZM29.9588 20.908C28.9088 20.908 28.1668 19.83 28.1668 16.946C28.1668 14.062 28.9088 13.054 29.9588 13.054C31.0088 13.054 31.7508 14.062 31.7508 16.946C31.7508 19.83 31.0088 20.908 29.9588 20.908ZM38.3157 22H39.9257V16.54C40.5977 15.854 41.0877 15.49 41.8017 15.49C42.7117 15.49 43.1037 16.022 43.1037 17.352V22H44.7137V17.156C44.7137 15.196 43.9857 14.104 42.3477 14.104C41.2977 14.104 40.5277 14.678 39.8557 15.322L39.9257 13.796V10.842H38.3157V22ZM50.091 22.182C51.995 22.182 53.717 20.712 53.717 18.15C53.717 15.588 51.995 14.104 50.091 14.104C48.187 14.104 46.465 15.588 46.465 18.15C46.465 20.712 48.187 22.182 50.091 22.182ZM50.091 20.866C48.887 20.866 48.131 19.788 48.131 18.15C48.131 16.526 48.887 15.434 50.091 15.434C51.309 15.434 52.065 16.526 52.065 18.15C52.065 19.788 51.309 20.866 50.091 20.866ZM57.8786 22.182C58.9286 22.182 59.6846 21.65 60.3846 20.838H60.4266L60.5526 22H61.8686V14.3H60.2586V19.648C59.6146 20.46 59.1246 20.796 58.4106 20.796C57.5006 20.796 57.1226 20.264 57.1226 18.948V14.3H55.5126V19.144C55.5126 21.104 56.2266 22.182 57.8786 22.182ZM64.2922 22H65.9022V17.198C66.3782 15.98 67.1342 15.546 67.7642 15.546C68.0722 15.546 68.2682 15.588 68.5342 15.672L68.8282 14.272C68.5902 14.16 68.3382 14.104 67.9602 14.104C67.1342 14.104 66.3222 14.692 65.7762 15.686H65.7342L65.6082 14.3H64.2922V22ZM72.0247 22.182C73.9287 22.182 74.9507 21.132 74.9507 19.844C74.9507 18.388 73.7607 17.912 72.6827 17.506C71.8427 17.198 71.0867 16.946 71.0867 16.288C71.0867 15.756 71.4787 15.336 72.3327 15.336C72.9627 15.336 73.5087 15.616 74.0407 16.008L74.7967 15.014C74.1807 14.524 73.3267 14.104 72.3047 14.104C70.5967 14.104 69.5607 15.07 69.5607 16.358C69.5607 17.66 70.6947 18.206 71.7307 18.598C72.5567 18.92 73.4247 19.228 73.4247 19.928C73.4247 20.516 72.9907 20.964 72.0667 20.964C71.2407 20.964 70.5687 20.614 69.8827 20.082L69.1267 21.118C69.8827 21.734 70.9607 22.182 72.0247 22.182ZM81.6298 22.182C82.5538 22.182 83.3798 21.72 84.0798 21.118H84.1358L84.2618 22H85.5778V17.366C85.5778 15.322 84.6958 14.104 82.7778 14.104C81.5458 14.104 80.4678 14.608 79.6698 15.112L80.2718 16.204C80.9298 15.784 81.6858 15.42 82.4978 15.42C83.6318 15.42 83.9538 16.204 83.9678 17.1C80.7618 17.45 79.3618 18.304 79.3618 19.956C79.3618 21.314 80.2998 22.182 81.6298 22.182ZM82.1198 20.908C81.4338 20.908 80.9158 20.6 80.9158 19.844C80.9158 18.976 81.6858 18.388 83.9678 18.122V20.012C83.3378 20.586 82.7918 20.908 82.1198 20.908ZM90.4945 25.458C92.9585 25.458 94.5265 24.254 94.5265 22.77C94.5265 21.454 93.5745 20.894 91.7545 20.894H90.3405C89.3605 20.894 89.0525 20.6 89.0525 20.138C89.0525 19.76 89.2205 19.55 89.4725 19.326C89.8085 19.48 90.2005 19.564 90.5505 19.564C92.1605 19.564 93.4345 18.598 93.4345 16.918C93.4345 16.33 93.2245 15.812 92.9305 15.504H94.4005V14.3H91.6705C91.3765 14.188 90.9845 14.104 90.5505 14.104C88.9545 14.104 87.5685 15.126 87.5685 16.862C87.5685 17.786 88.0585 18.514 88.5905 18.92V18.976C88.1565 19.284 87.7225 19.802 87.7225 20.404C87.7225 21.034 88.0305 21.44 88.4225 21.678V21.748C87.7085 22.182 87.3025 22.784 87.3025 23.428C87.3025 24.772 88.6465 25.458 90.4945 25.458ZM90.5505 18.528C89.7525 18.528 89.0945 17.898 89.0945 16.862C89.0945 15.826 89.7385 15.238 90.5505 15.238C91.3625 15.238 92.0065 15.84 92.0065 16.862C92.0065 17.898 91.3485 18.528 90.5505 18.528ZM90.7325 24.394C89.4585 24.394 88.6745 23.946 88.6745 23.19C88.6745 22.798 88.8705 22.406 89.3325 22.07C89.6545 22.14 90.0045 22.182 90.3685 22.182H91.5305C92.4685 22.182 92.9725 22.378 92.9725 23.022C92.9725 23.736 92.0765 24.394 90.7325 24.394ZM98.8039 22.182C100.708 22.182 102.43 20.712 102.43 18.15C102.43 15.588 100.708 14.104 98.8039 14.104C96.8999 14.104 95.1779 15.588 95.1779 18.15C95.1779 20.712 96.8999 22.182 98.8039 22.182ZM98.8039 20.866C97.5999 20.866 96.8439 19.788 96.8439 18.15C96.8439 16.526 97.5999 15.434 98.8039 15.434C100.022 15.434 100.778 16.526 100.778 18.15C100.778 19.788 100.022 20.866 98.8039 20.866Z" fill="white"/>
</svg>
