<svg width="145" height="30" viewBox="0 0 145 30" fill="none" xmlns="http://www.w3.org/2000/svg">
<rect x="0.25" y="0.25" width="144.5" height="29.5" rx="14.75" fill="white" stroke="#4F4F4F" stroke-width="0.5"/>
<path d="M0 15C0 6.71573 6.71573 0 15 0H38V30H15C6.71573 30 0 23.2843 0 15Z" fill="#4F4F4F"/>
<path d="M53.276 20.182C55.068 20.182 56.048 19.16 56.048 17.928C56.048 16.486 54.83 16.038 53.724 15.618C52.87 15.296 52.086 15.03 52.086 14.302C52.086 13.714 52.534 13.21 53.5 13.21C54.172 13.21 54.704 13.49 55.222 13.882L55.838 13.056C55.25 12.594 54.424 12.202 53.486 12.202C51.834 12.202 50.854 13.154 50.854 14.358C50.854 15.646 52.016 16.164 53.08 16.556C53.92 16.878 54.816 17.214 54.816 17.998C54.816 18.656 54.326 19.188 53.318 19.188C52.408 19.188 51.722 18.824 51.064 18.292L50.434 19.132C51.162 19.734 52.198 20.182 53.276 20.182ZM57.8368 23.206H59.1108V20.63L59.0828 19.3C59.7688 19.86 60.4968 20.182 61.1828 20.182C62.9328 20.182 64.4868 18.684 64.4868 16.08C64.4868 13.742 63.4228 12.202 61.4628 12.202C60.5808 12.202 59.7268 12.706 59.0408 13.266H58.9988L58.8868 12.398H57.8368V23.206ZM60.9728 19.118C60.4688 19.118 59.7968 18.908 59.1108 18.32V14.33C59.8528 13.644 60.5108 13.28 61.1548 13.28C62.5968 13.28 63.1568 14.414 63.1568 16.094C63.1568 17.984 62.2328 19.118 60.9728 19.118ZM66.5185 20H67.7925V15.114C68.2965 13.812 69.0805 13.364 69.7105 13.364C70.0185 13.364 70.2005 13.392 70.4525 13.49L70.6905 12.37C70.4525 12.244 70.2145 12.202 69.8785 12.202C69.0245 12.202 68.2545 12.818 67.7225 13.784H67.6805L67.5685 12.398H66.5185V20ZM71.9462 20H73.2202V12.398H71.9462V20ZM72.5902 10.83C73.0942 10.83 73.4442 10.494 73.4442 9.976C73.4442 9.486 73.0942 9.15 72.5902 9.15C72.0862 9.15 71.7362 9.486 71.7362 9.976C71.7362 10.494 72.0862 10.83 72.5902 10.83ZM75.8017 20H77.0757V14.484C77.8457 13.714 78.3777 13.322 79.1617 13.322C80.1697 13.322 80.6037 13.924 80.6037 15.352V20H81.8777V15.184C81.8777 13.238 81.1497 12.202 79.5537 12.202C78.5177 12.202 77.7337 12.776 77.0057 13.49H76.9637L76.8517 12.398H75.8017V20ZM86.9223 23.5C89.2743 23.5 90.7723 22.282 90.7723 20.868C90.7723 19.622 89.8763 19.062 88.1123 19.062H86.6283C85.6063 19.062 85.2983 18.726 85.2983 18.236C85.2983 17.816 85.5083 17.564 85.7883 17.326C86.1243 17.494 86.5443 17.592 86.9223 17.592C88.4623 17.592 89.6943 16.57 89.6943 14.946C89.6943 14.288 89.4423 13.728 89.0783 13.378H90.6323V12.398H87.9863C87.7203 12.3 87.3423 12.202 86.9223 12.202C85.3823 12.202 84.0663 13.252 84.0663 14.918C84.0663 15.828 84.5563 16.556 85.0603 16.962V17.018C84.6683 17.298 84.2063 17.802 84.2063 18.432C84.2063 19.034 84.5003 19.44 84.9063 19.678V19.734C84.1923 20.196 83.7863 20.812 83.7863 21.456C83.7863 22.772 85.0603 23.5 86.9223 23.5ZM86.9223 16.724C86.0403 16.724 85.2983 16.024 85.2983 14.918C85.2983 13.798 86.0263 13.14 86.9223 13.14C87.8183 13.14 88.5463 13.812 88.5463 14.918C88.5463 16.024 87.7903 16.724 86.9223 16.724ZM87.1043 22.632C85.7323 22.632 84.9063 22.1 84.9063 21.288C84.9063 20.84 85.1303 20.392 85.6763 20C86.0123 20.084 86.3763 20.126 86.6563 20.126H87.9723C88.9803 20.126 89.5263 20.364 89.5263 21.064C89.5263 21.862 88.5603 22.632 87.1043 22.632ZM92.3749 20H93.2009L93.5929 16.808H95.6649L95.2869 20H96.1269L96.5049 16.808H97.9469V15.912H96.6169L96.9109 13.588H98.2689V12.706H97.0089L97.3729 9.822H96.5469L96.1689 12.706H94.0969L94.4469 9.822H93.6209L93.2569 12.706H91.8289V13.588H93.1589L92.8649 15.912H91.5209V16.808H92.7529L92.3749 20ZM93.7049 15.912L93.9849 13.588H96.0709L95.7769 15.912H93.7049ZM102.619 20.182C104.607 20.182 105.811 18.32 105.811 14.974C105.811 11.642 104.607 9.836 102.619 9.836C100.631 9.836 99.4126 11.628 99.4126 14.974C99.4126 18.32 100.631 20.182 102.619 20.182ZM102.619 19.16C101.443 19.16 100.659 17.9 100.659 14.974C100.659 12.048 101.443 10.858 102.619 10.858C103.781 10.858 104.565 12.048 104.565 14.974C104.565 17.9 103.781 19.16 102.619 19.16ZM110.384 20.182C112.372 20.182 113.576 18.32 113.576 14.974C113.576 11.642 112.372 9.836 110.384 9.836C108.396 9.836 107.178 11.628 107.178 14.974C107.178 18.32 108.396 20.182 110.384 20.182ZM110.384 19.16C109.208 19.16 108.424 17.9 108.424 14.974C108.424 12.048 109.208 10.858 110.384 10.858C111.546 10.858 112.33 12.048 112.33 14.974C112.33 17.9 111.546 19.16 110.384 19.16ZM117.03 20H118.36C118.514 16.108 119.018 13.826 121.37 10.802V10.018H114.944V11.11H119.914C117.954 13.854 117.198 16.234 117.03 20Z" fill="#333333"/>
<path d="M11.358 21H12.982V17.094H14.536C16.776 17.094 18.414 16.058 18.414 13.804C18.414 11.48 16.776 10.682 14.48 10.682H11.358V21ZM12.982 15.792V11.998H14.326C15.964 11.998 16.818 12.446 16.818 13.804C16.818 15.162 16.034 15.792 14.382 15.792H12.982ZM21.4865 21H23.4465L24.8045 15.274C24.9725 14.462 25.1405 13.692 25.2945 12.908H25.3505C25.4905 13.692 25.6445 14.462 25.8265 15.274L27.2125 21H29.2145L31.2445 10.682H29.6905L28.7105 16.058C28.5425 17.136 28.3605 18.242 28.1925 19.362H28.1225C27.8845 18.242 27.6605 17.136 27.4225 16.058L26.0925 10.682H24.6505L23.3205 16.058C23.0825 17.15 22.8445 18.256 22.6205 19.362H22.5645C22.3825 18.256 22.2005 17.15 22.0185 16.058L21.0525 10.682H19.3865L21.4865 21Z" fill="white"/>
</svg>
