<svg width="145" height="30" viewBox="0 0 145 30" fill="none" xmlns="http://www.w3.org/2000/svg">
<rect x="0.25" y="0.25" width="144.5" height="29.5" rx="14.75" fill="white" stroke="#4F4F4F" stroke-width="0.5"/>
<path d="M0 15C0 6.71573 6.71573 0 15 0H38V30H15C6.71573 30 0 23.2843 0 15Z" fill="#4F4F4F"/>
<path d="M16.358 21H17.982V10.682H16.358V21ZM20.6783 21H23.4363C26.5163 21 28.3223 19.152 28.3223 15.806C28.3223 12.446 26.5163 10.682 23.3523 10.682H20.6783V21ZM22.3023 19.67V12.012H23.2403C25.4523 12.012 26.6423 13.23 26.6423 15.806C26.6423 18.368 25.4523 19.67 23.2403 19.67H22.3023Z" fill="white"/>
<path d="M52.926 20H54.41L57.112 12.398H55.852L54.41 16.724C54.186 17.466 53.948 18.25 53.71 18.964H53.654C53.416 18.25 53.178 17.466 52.94 16.724L51.512 12.398H50.182L52.926 20ZM58.5888 20H59.8628V12.398H58.5888V20ZM59.2328 10.83C59.7368 10.83 60.0868 10.494 60.0868 9.976C60.0868 9.486 59.7368 9.15 59.2328 9.15C58.7288 9.15 58.3788 9.486 58.3788 9.976C58.3788 10.494 58.7288 10.83 59.2328 10.83ZM65.5103 20.182C66.5463 20.182 67.3583 19.832 68.0303 19.398L67.5683 18.558C67.0083 18.936 66.4063 19.16 65.6643 19.16C64.2223 19.16 63.2283 18.124 63.1443 16.5H68.2683C68.2963 16.318 68.3243 16.052 68.3243 15.772C68.3243 13.602 67.2323 12.202 65.3003 12.202C63.5363 12.202 61.8703 13.742 61.8703 16.206C61.8703 18.712 63.4943 20.182 65.5103 20.182ZM63.1303 15.576C63.2843 14.092 64.2363 13.224 65.3143 13.224C66.5043 13.224 67.2043 14.05 67.2043 15.576H63.1303ZM71.4686 20H72.9666L74.0306 15.926C74.2266 15.198 74.3806 14.484 74.5486 13.714H74.6186C74.8006 14.484 74.9406 15.184 75.1366 15.898L76.2426 20H77.7826L79.8266 12.398H78.6226L77.5026 16.794C77.3346 17.522 77.1946 18.208 77.0266 18.922H76.9706C76.7886 18.208 76.6206 17.522 76.4386 16.794L75.2486 12.398H74.0026L72.8266 16.794C72.6306 17.508 72.4766 18.208 72.3086 18.922H72.2386C72.0986 18.208 71.9446 17.522 71.7906 16.794L70.6566 12.398H69.3546L71.4686 20ZM84.5005 20.182C85.5365 20.182 86.3485 19.832 87.0205 19.398L86.5585 18.558C85.9985 18.936 85.3965 19.16 84.6545 19.16C83.2125 19.16 82.2185 18.124 82.1345 16.5H87.2585C87.2865 16.318 87.3145 16.052 87.3145 15.772C87.3145 13.602 86.2225 12.202 84.2905 12.202C82.5265 12.202 80.8605 13.742 80.8605 16.206C80.8605 18.712 82.4845 20.182 84.5005 20.182ZM82.1205 15.576C82.2745 14.092 83.2265 13.224 84.3045 13.224C85.4945 13.224 86.1945 14.05 86.1945 15.576H82.1205ZM89.1864 20H90.4604V15.114C90.9644 13.812 91.7484 13.364 92.3784 13.364C92.6864 13.364 92.8684 13.392 93.1204 13.49L93.3584 12.37C93.1204 12.244 92.8824 12.202 92.5464 12.202C91.6924 12.202 90.9224 12.818 90.3904 13.784H90.3484L90.2364 12.398H89.1864V20Z" fill="#333333"/>
</svg>
