<svg width="153" height="34" viewBox="0 0 153 34" fill="none" xmlns="http://www.w3.org/2000/svg">
<rect x="0.25" y="0.25" width="152.5" height="33.5" fill="white" stroke="#CA4040" stroke-width="0.5"/>
<path d="M14.358 22H20.602V20.628H15.982V17.296H19.762V15.924H15.982V13.054H20.448V11.682H14.358V22ZM22.6125 22H24.2225V16.54C24.8525 15.84 25.4265 15.49 25.9445 15.49C26.8265 15.49 27.2325 16.022 27.2325 17.352V22H28.8425V16.54C29.4865 15.84 30.0465 15.49 30.5785 15.49C31.4465 15.49 31.8665 16.022 31.8665 17.352V22H33.4765V17.156C33.4765 15.196 32.7205 14.104 31.1105 14.104C30.1445 14.104 29.3605 14.706 28.6045 15.518C28.2685 14.636 27.6245 14.104 26.4765 14.104C25.5245 14.104 24.7545 14.678 24.0965 15.378H24.0545L23.9285 14.3H22.6125V22ZM39.0119 22.182C40.0199 22.182 40.9019 21.846 41.6159 21.37L41.0559 20.348C40.4959 20.712 39.9079 20.922 39.2219 20.922C37.8919 20.922 36.9679 20.04 36.8419 18.57H41.8399C41.8819 18.374 41.9239 18.066 41.9239 17.744C41.9239 15.574 40.8179 14.104 38.7739 14.104C36.9819 14.104 35.2599 15.658 35.2599 18.15C35.2599 20.698 36.9259 22.182 39.0119 22.182ZM36.8279 17.45C36.9819 16.106 37.8359 15.364 38.8019 15.364C39.9219 15.364 40.5239 16.134 40.5239 17.45H36.8279ZM43.7219 22H45.3319V17.198C45.8079 15.98 46.5639 15.546 47.1939 15.546C47.5019 15.546 47.6979 15.588 47.9639 15.672L48.2579 14.272C48.0199 14.16 47.7679 14.104 47.3899 14.104C46.5639 14.104 45.7519 14.692 45.2059 15.686H45.1639L45.0379 14.3H43.7219V22ZM51.932 25.458C54.396 25.458 55.964 24.254 55.964 22.77C55.964 21.454 55.012 20.894 53.192 20.894H51.778C50.798 20.894 50.49 20.6 50.49 20.138C50.49 19.76 50.658 19.55 50.91 19.326C51.246 19.48 51.638 19.564 51.988 19.564C53.598 19.564 54.872 18.598 54.872 16.918C54.872 16.33 54.662 15.812 54.368 15.504H55.838V14.3H53.108C52.814 14.188 52.422 14.104 51.988 14.104C50.392 14.104 49.006 15.126 49.006 16.862C49.006 17.786 49.496 18.514 50.028 18.92V18.976C49.594 19.284 49.16 19.802 49.16 20.404C49.16 21.034 49.468 21.44 49.86 21.678V21.748C49.146 22.182 48.74 22.784 48.74 23.428C48.74 24.772 50.084 25.458 51.932 25.458ZM51.988 18.528C51.19 18.528 50.532 17.898 50.532 16.862C50.532 15.826 51.176 15.238 51.988 15.238C52.8 15.238 53.444 15.84 53.444 16.862C53.444 17.898 52.786 18.528 51.988 18.528ZM52.17 24.394C50.896 24.394 50.112 23.946 50.112 23.19C50.112 22.798 50.308 22.406 50.77 22.07C51.092 22.14 51.442 22.182 51.806 22.182H52.968C53.906 22.182 54.41 22.378 54.41 23.022C54.41 23.736 53.514 24.394 52.17 24.394ZM60.3674 22.182C61.3754 22.182 62.2574 21.846 62.9714 21.37L62.4114 20.348C61.8514 20.712 61.2634 20.922 60.5774 20.922C59.2474 20.922 58.3234 20.04 58.1974 18.57H63.1954C63.2374 18.374 63.2794 18.066 63.2794 17.744C63.2794 15.574 62.1734 14.104 60.1294 14.104C58.3374 14.104 56.6154 15.658 56.6154 18.15C56.6154 20.698 58.2814 22.182 60.3674 22.182ZM58.1834 17.45C58.3374 16.106 59.1914 15.364 60.1574 15.364C61.2774 15.364 61.8794 16.134 61.8794 17.45H58.1834ZM65.0774 22H66.6874V16.54C67.3594 15.854 67.8494 15.49 68.5634 15.49C69.4734 15.49 69.8654 16.022 69.8654 17.352V22H71.4754V17.156C71.4754 15.196 70.7474 14.104 69.1094 14.104C68.0594 14.104 67.2754 14.678 66.5614 15.364H66.5194L66.3934 14.3H65.0774V22ZM76.9497 22.182C77.8317 22.182 78.7417 21.86 79.4557 21.23L78.7837 20.166C78.3217 20.558 77.7477 20.866 77.1037 20.866C75.8297 20.866 74.9337 19.788 74.9337 18.15C74.9337 16.526 75.8577 15.434 77.1597 15.434C77.6777 15.434 78.1117 15.658 78.5317 16.036L79.3297 14.986C78.7697 14.496 78.0557 14.104 77.0757 14.104C75.0457 14.104 73.2677 15.588 73.2677 18.15C73.2677 20.712 74.8637 22.182 76.9497 22.182ZM81.4782 25.22C83.1022 25.22 83.9142 24.114 84.5162 22.462L87.3442 14.3H85.7762L84.5442 18.262C84.3482 18.962 84.1382 19.732 83.9422 20.432H83.8722C83.6342 19.718 83.3962 18.948 83.1722 18.262L81.7442 14.3H80.0922L83.1442 21.944L82.9902 22.476C82.7102 23.302 82.2202 23.918 81.3802 23.918C81.1842 23.918 80.9602 23.848 80.8202 23.806L80.5122 25.066C80.7782 25.164 81.0862 25.22 81.4782 25.22ZM96.0459 22.182C97.3759 22.182 98.4259 21.65 99.2519 20.698L98.3839 19.676C97.7679 20.348 97.0539 20.768 96.1019 20.768C94.2819 20.768 93.1339 19.27 93.1339 16.82C93.1339 14.398 94.3659 12.914 96.1439 12.914C96.9839 12.914 97.6279 13.292 98.1599 13.838L99.0419 12.802C98.4119 12.116 97.4039 11.5 96.1159 11.5C93.5119 11.5 91.4679 13.516 91.4679 16.876C91.4679 20.25 93.4559 22.182 96.0459 22.182ZM104.019 22.182C105.923 22.182 107.645 20.712 107.645 18.15C107.645 15.588 105.923 14.104 104.019 14.104C102.115 14.104 100.393 15.588 100.393 18.15C100.393 20.712 102.115 22.182 104.019 22.182ZM104.019 20.866C102.815 20.866 102.059 19.788 102.059 18.15C102.059 16.526 102.815 15.434 104.019 15.434C105.237 15.434 105.993 16.526 105.993 18.15C105.993 19.788 105.237 20.866 104.019 20.866ZM109.538 22H111.148V16.54C111.82 15.854 112.31 15.49 113.024 15.49C113.934 15.49 114.326 16.022 114.326 17.352V22H115.936V17.156C115.936 15.196 115.208 14.104 113.57 14.104C112.52 14.104 111.736 14.678 111.022 15.364H110.98L110.854 14.3H109.538V22ZM120.865 22.182C121.425 22.182 121.943 22.042 122.377 21.902L122.083 20.712C121.859 20.81 121.523 20.894 121.257 20.894C120.459 20.894 120.137 20.418 120.137 19.494V15.588H122.139V14.3H120.137V12.172H118.793L118.611 14.3L117.407 14.384V15.588H118.527V19.48C118.527 21.104 119.129 22.182 120.865 22.182ZM125.304 22.182C126.228 22.182 127.054 21.72 127.754 21.118H127.81L127.936 22H129.252V17.366C129.252 15.322 128.37 14.104 126.452 14.104C125.22 14.104 124.142 14.608 123.344 15.112L123.946 16.204C124.604 15.784 125.36 15.42 126.172 15.42C127.306 15.42 127.628 16.204 127.642 17.1C124.436 17.45 123.036 18.304 123.036 19.956C123.036 21.314 123.974 22.182 125.304 22.182ZM125.794 20.908C125.108 20.908 124.59 20.6 124.59 19.844C124.59 18.976 125.36 18.388 127.642 18.122V20.012C127.012 20.586 126.466 20.908 125.794 20.908ZM134.672 22.182C135.554 22.182 136.464 21.86 137.178 21.23L136.506 20.166C136.044 20.558 135.47 20.866 134.826 20.866C133.552 20.866 132.656 19.788 132.656 18.15C132.656 16.526 133.58 15.434 134.882 15.434C135.4 15.434 135.834 15.658 136.254 16.036L137.052 14.986C136.492 14.496 135.778 14.104 134.798 14.104C132.768 14.104 130.99 15.588 130.99 18.15C130.99 20.712 132.586 22.182 134.672 22.182ZM141.208 22.182C141.768 22.182 142.286 22.042 142.72 21.902L142.426 20.712C142.202 20.81 141.866 20.894 141.6 20.894C140.802 20.894 140.48 20.418 140.48 19.494V15.588H142.482V14.3H140.48V12.172H139.136L138.954 14.3L137.75 14.384V15.588H138.87V19.48C138.87 21.104 139.472 22.182 141.208 22.182Z" fill="#CA4040"/>
</svg>
