<svg width="60" height="60" viewBox="0 0 60 60" fill="none" xmlns="http://www.w3.org/2000/svg">
<g filter="url(#filter0_d)">
<path d="M30.2116 57.5233C15.0467 57.5233 2.69013 45.1531 2.66977 29.9512C2.64942 14.7493 14.9729 2.38574 30.1378 2.38574C45.3027 2.38574 57.6593 14.7559 57.6797 29.9578C57.7 45.1597 45.3766 57.5233 30.2116 57.5233ZM30.143 6.28029C17.1182 6.28029 6.53737 16.9012 6.55485 29.9578C6.57233 43.0144 17.1816 53.6353 30.2064 53.6353C43.2313 53.6353 53.8121 43.0144 53.7946 29.9578C53.7771 16.9012 43.1613 6.28029 30.143 6.28029Z" fill="white"/>
<path d="M30.2116 57.5233C15.0467 57.5233 2.69013 45.1531 2.66977 29.9512C2.64942 14.7493 14.9729 2.38574 30.1378 2.38574C45.3027 2.38574 57.6593 14.7559 57.6797 29.9578C57.7 45.1597 45.3766 57.5233 30.2116 57.5233ZM30.143 6.28029C17.1182 6.28029 6.53737 16.9012 6.55485 29.9578C6.57233 43.0144 17.1816 53.6353 30.2064 53.6353C43.2313 53.6353 53.8121 43.0144 53.7946 29.9578C53.7771 16.9012 43.1613 6.28029 30.143 6.28029Z" stroke="#828282" stroke-width="0.2" stroke-miterlimit="10"/>
</g>
<defs>
<filter id="filter0_d" x="0.569763" y="0.285645" width="59.2099" height="59.3375" filterUnits="userSpaceOnUse" color-interpolation-filters="sRGB">
<feFlood flood-opacity="0" result="BackgroundImageFix"/>
<feColorMatrix in="SourceAlpha" type="matrix" values="0 0 0 0 0 0 0 0 0 0 0 0 0 0 0 0 0 0 127 0"/>
<feOffset/>
<feGaussianBlur stdDeviation="1"/>
<feColorMatrix type="matrix" values="0 0 0 0 0 0 0 0 0 0 0 0 0 0 0 0 0 0 0.25 0"/>
<feBlend mode="normal" in2="BackgroundImageFix" result="effect1_dropShadow"/>
<feBlend mode="normal" in="SourceGraphic" in2="effect1_dropShadow" result="shape"/>
</filter>
</defs>
</svg>
