<svg width="130" height="39" viewBox="0 0 130 39" fill="none" xmlns="http://www.w3.org/2000/svg">
<rect width="130" height="39" rx="3" fill="white"/>
<path d="M38 23.544V21.178H42.018V20.254H34.29V18.224H41.724V14.402H33.128V15.34H40.604V17.3H33.156V21.178H36.838V23.544H31.728V24.482H43.138V23.544H38ZM53.3289 16.068C53.3289 17.622 53.3289 19.498 52.8249 22.06L53.9729 22.186C54.4629 19.47 54.4629 17.664 54.4629 16.068V14.808H45.8529V15.746H53.3289V16.068ZM44.6349 23.25V24.202H55.9889V23.25H44.6349ZM67.8038 13.492H66.6558V22.662H67.8038V13.492ZM58.9138 17.44C58.9138 16.222 59.8378 15.354 61.0558 15.354C62.3018 15.354 63.2258 16.222 63.2258 17.44C63.2258 18.686 62.3018 19.554 61.0558 19.554C59.8378 19.554 58.9138 18.686 58.9138 17.44ZM64.3458 17.44C64.3458 15.634 62.9318 14.36 61.0558 14.36C59.1938 14.36 57.7938 15.634 57.7938 17.44C57.7938 19.26 59.1938 20.548 61.0558 20.548C62.9318 20.548 64.3458 19.26 64.3458 17.44ZM60.8738 24.818V21.724H59.7258V25.756H68.1818V24.818H60.8738ZM80.2156 16.74V17.678H82.6936V20.968H83.8556V13.492H82.6936V16.74H80.2156ZM80.9156 19.596C79.0956 18.952 77.8636 17.37 77.8636 15.76V15.326H80.6216V14.402H73.9156V15.326H76.7156V15.76C76.7156 17.566 75.4276 19.26 73.5516 19.946L74.1536 20.856C75.6236 20.296 76.7856 19.12 77.3176 17.664C77.8636 18.952 78.9416 19.988 80.3416 20.492L80.9156 19.596ZM79.7116 25.14C77.8216 25.14 76.6736 24.608 76.6736 23.698C76.6736 22.788 77.8216 22.242 79.7116 22.242C81.6016 22.242 82.7496 22.788 82.7496 23.698C82.7496 24.608 81.6016 25.14 79.7116 25.14ZM79.7116 21.36C77.1356 21.36 75.5256 22.214 75.5256 23.698C75.5256 25.182 77.1356 26.036 79.7116 26.036C82.2876 26.036 83.8976 25.182 83.8976 23.698C83.8976 22.214 82.2876 21.36 79.7116 21.36ZM88.8665 17.552H95.2785V19.862H88.8665V17.552ZM92.6465 23.488V20.786H96.3985V14.374H95.2785V16.614H88.8665V14.374H87.7325V20.786H91.4845V23.488H86.3885V24.426H97.7705V23.488H92.6465Z" fill="#333333"/>
<path d="M8.00451 24.5C8.00252 24.4999 7.99848 24.4997 7.99265 24.4993C7.9786 24.4983 7.95527 24.4961 7.92595 24.4912C7.86495 24.481 7.79125 24.4616 7.72361 24.4278C7.65792 24.3949 7.60745 24.3535 7.57228 24.3008C7.53919 24.2511 7.5 24.1625 7.5 24C7.5 23.6284 7.70027 22.7568 8.47855 21.9786C9.24218 21.2149 10.6054 20.5 13 20.5C15.3946 20.5 16.7578 21.2149 17.5214 21.9786C18.2997 22.7568 18.5 23.6284 18.5 24C18.5 24.1625 18.4608 24.2511 18.4277 24.3008C18.3926 24.3535 18.3421 24.3949 18.2764 24.4278C18.2088 24.4616 18.1351 24.481 18.0741 24.4912C18.0447 24.4961 18.0214 24.4983 18.0073 24.4993C18.0015 24.4997 17.9975 24.4999 17.9955 24.5H8.00451ZM14.7678 17.7678C14.2989 18.2366 13.663 18.5 13 18.5C12.337 18.5 11.7011 18.2366 11.2322 17.7678C10.7634 17.2989 10.5 16.663 10.5 16C10.5 15.337 10.7634 14.7011 11.2322 14.2322C11.7011 13.7634 12.337 13.5 13 13.5C13.663 13.5 14.2989 13.7634 14.7678 14.2322C15.2366 14.7011 15.5 15.337 15.5 16C15.5 16.663 15.2366 17.2989 14.7678 17.7678Z" stroke="#333333"/>
</svg>
