<svg width="130" height="39" viewBox="0 0 130 39" fill="none" xmlns="http://www.w3.org/2000/svg">
<rect width="130" height="39" rx="3" fill="#E0E0E0"/>
<path d="M40.87 13.478V26.05H42.018V13.478H40.87ZM32.456 14.542V23.012H38.364V14.542H37.23V17.86H33.59V14.542H32.456ZM33.59 18.77H37.23V22.074H33.59V18.77ZM54.9109 13.492H53.7629V19.946H54.9109V13.492ZM50.0249 18.392H46.3989V15.088H50.0249V18.392ZM51.1449 14.178H45.2789V19.302H51.1449V14.178ZM47.9389 24.986V23.6H54.9109V20.576H46.7769V21.472H53.7769V22.746H46.8189V25.896H55.3449V24.986H47.9389ZM62.6518 19.708H59.2638V17.44H62.6518V19.708ZM63.7858 17.958H66.6838V22.774H67.8458V13.478H66.6838V17.02H63.7858V14.318H62.6518V16.53H59.2638V14.318H58.1298V20.632H63.7858V17.958ZM60.9158 24.818V21.864H59.7678V25.756H68.1398V24.818H60.9158ZM81.1307 15.312H76.6367V13.674H75.4887V15.312H70.9387V16.25H81.1307V15.312ZM73.0947 19.484C73.0947 18.56 74.2287 18 76.0627 18C77.8687 18 78.9887 18.56 78.9887 19.484C78.9887 20.422 77.8687 20.982 76.0627 20.982C74.2287 20.982 73.0947 20.422 73.0947 19.484ZM76.6367 23.628V21.864C78.8207 21.724 80.1507 20.884 80.1507 19.484C80.1507 17.972 78.5687 17.104 76.0627 17.104C73.5147 17.104 71.9327 17.972 71.9327 19.484C71.9327 20.884 73.2767 21.738 75.4887 21.864V23.628H70.3787V24.566H81.7607V23.628H76.6367ZM95.5725 16.712V18.49H92.6745V16.712H95.5725ZM91.5405 19.708H88.1525V17.44H91.5405V19.708ZM92.6745 19.428H95.5725V22.774H96.7345V13.492H95.5725V15.788H92.6745V14.318H91.5405V16.53H88.1525V14.318H87.0185V20.632H92.6745V19.428ZM89.8045 24.818V21.864H88.6565V25.756H97.0285V24.818H89.8045ZM108.451 16.726V18.406H105.161V19.344H108.451V20.996H109.613V13.492H108.451V15.788H105.609C105.693 15.354 105.749 14.892 105.749 14.43H100.079V15.354H104.503C104.293 17.524 102.431 19.19 99.4354 20.086L99.8974 20.996C102.599 20.212 104.503 18.742 105.315 16.726H108.451ZM105.511 25.084C103.663 25.084 102.487 24.51 102.487 23.558C102.487 22.62 103.663 22.046 105.511 22.046C107.359 22.046 108.535 22.62 108.535 23.558C108.535 24.51 107.359 25.084 105.511 25.084ZM105.511 21.136C102.977 21.136 101.353 22.046 101.353 23.558C101.353 25.07 102.977 25.98 105.511 25.98C108.045 25.98 109.669 25.07 109.669 23.558C109.669 22.046 108.045 21.136 105.511 21.136Z" fill="#333333"/>
<rect x="7.5" y="18.5" width="11" height="8" rx="1.5" stroke="#333333"/>
<path d="M9.04457 19C8.82482 17 9.30826 13 13 13C16.6917 13 17.1752 17 16.9554 19" stroke="#333333"/>
<circle cx="13" cy="21.5" r="1" fill="#333333"/>
<path d="M12.5 22H13.5V25H12.5V22Z" fill="#333333"/>
</svg>
