<svg width="9" height="26" viewBox="0 0 9 26" fill="none" xmlns="http://www.w3.org/2000/svg">
<path d="M4.50006 0.796143C5.18205 0.796143 5.8361 1.06024 6.31834 1.53034C6.80057 2.00044 7.07149 2.63803 7.07149 3.30285C7.07149 3.96766 6.80057 4.60525 6.31834 5.07535C5.8361 5.54545 5.18205 5.80955 4.50006 5.80955C3.81808 5.80955 3.16402 5.54545 2.68179 5.07535C2.19955 4.60525 1.92863 3.96766 1.92863 3.30285C1.92863 2.63803 2.19955 2.00044 2.68179 1.53034C3.16402 1.06024 3.81808 0.796143 4.50006 0.796143ZM2.57149 7.0629H6.42863C7.11062 7.0629 7.76467 7.327 8.24691 7.7971C8.72914 8.26719 9.00006 8.90478 9.00006 9.5696V16.463H7.07149V25.8632H1.92863V16.463H6.10352e-05V9.5696C6.10352e-05 8.90478 0.270979 8.26719 0.753215 7.7971C1.23545 7.327 1.8895 7.0629 2.57149 7.0629Z" fill="#5C5C5C"/>
<path d="M4.00006 8.5L6.25006 7.20096L6.25006 9.79904L4.00006 8.5Z" fill="white"/>
<path d="M5.00006 8.5L2.75006 9.79904L2.75006 7.20096L5.00006 8.5Z" fill="white"/>
</svg>
