<svg width="51" height="53" viewBox="0 0 51 53" fill="none" xmlns="http://www.w3.org/2000/svg">
<g filter="url(#filter0_d)">
<path d="M10 8C10 5.79086 11.7909 4 14 4H37C39.2091 4 41 5.79086 41 8V34H10V8Z" fill="white"/>
<rect x="4" y="34" width="43" height="11" rx="5" fill="#57AE66"/>
</g>
<path d="M11.835 36.466C12.519 36.466 13.08 36.589 13.518 36.835C13.62 36.889 13.686 36.97 13.716 37.078C13.746 37.18 13.731 37.282 13.671 37.384C13.611 37.492 13.536 37.561 13.446 37.591C13.356 37.615 13.26 37.603 13.158 37.555C12.966 37.459 12.765 37.39 12.555 37.348C12.351 37.3 12.117 37.276 11.853 37.276C11.643 37.276 11.454 37.3 11.286 37.348C11.124 37.396 10.986 37.462 10.872 37.546C10.758 37.63 10.668 37.729 10.602 37.843C10.542 37.951 10.512 38.068 10.512 38.194V38.284C10.512 38.416 10.533 38.533 10.575 38.635C10.617 38.731 10.692 38.821 10.8 38.905C10.908 38.983 11.052 39.055 11.232 39.121C11.418 39.181 11.652 39.241 11.934 39.301C12.33 39.385 12.663 39.481 12.933 39.589C13.203 39.697 13.422 39.826 13.59 39.976C13.758 40.12 13.878 40.288 13.95 40.48C14.022 40.672 14.058 40.888 14.058 41.128V41.254C14.058 41.818 13.86 42.262 13.464 42.586C13.068 42.904 12.498 43.063 11.754 43.063C11.376 43.063 11.01 43.015 10.656 42.919C10.308 42.817 10.011 42.685 9.765 42.523C9.651 42.457 9.585 42.37 9.567 42.262C9.555 42.148 9.582 42.04 9.648 41.938C9.714 41.836 9.795 41.773 9.891 41.749C9.987 41.719 10.086 41.737 10.188 41.803C10.416 41.941 10.665 42.052 10.935 42.136C11.205 42.214 11.493 42.253 11.799 42.253C12.249 42.253 12.588 42.163 12.816 41.983C13.044 41.803 13.158 41.578 13.158 41.308V41.209C13.158 41.059 13.134 40.93 13.086 40.822C13.038 40.708 12.957 40.609 12.843 40.525C12.729 40.441 12.579 40.369 12.393 40.309C12.207 40.243 11.976 40.18 11.7 40.12C11.346 40.048 11.037 39.967 10.773 39.877C10.515 39.781 10.299 39.664 10.125 39.526C9.957 39.388 9.831 39.223 9.747 39.031C9.663 38.833 9.621 38.593 9.621 38.311V38.203C9.621 37.957 9.669 37.729 9.765 37.519C9.867 37.303 10.011 37.117 10.197 36.961C10.389 36.805 10.623 36.685 10.899 36.601C11.175 36.511 11.487 36.466 11.835 36.466ZM17.7497 36.466C18.1637 36.466 18.5207 36.511 18.8207 36.601C19.1267 36.691 19.3847 36.808 19.5947 36.952C19.7027 37.024 19.7627 37.114 19.7747 37.222C19.7867 37.324 19.7597 37.426 19.6937 37.528C19.6277 37.618 19.5467 37.678 19.4507 37.708C19.3547 37.738 19.2557 37.72 19.1537 37.654C18.9497 37.534 18.7397 37.444 18.5237 37.384C18.3077 37.324 18.0437 37.294 17.7317 37.294C17.1557 37.294 16.7207 37.483 16.4267 37.861C16.1387 38.233 15.9947 38.821 15.9947 39.625V39.904C15.9947 40.696 16.1357 41.281 16.4177 41.659C16.6997 42.037 17.1407 42.226 17.7407 42.226C18.0707 42.226 18.3617 42.187 18.6137 42.109C18.8657 42.025 19.0967 41.905 19.3067 41.749C19.4027 41.683 19.5017 41.659 19.6037 41.677C19.7117 41.689 19.8017 41.746 19.8737 41.848C19.9457 41.95 19.9757 42.061 19.9637 42.181C19.9517 42.295 19.8887 42.394 19.7747 42.478C19.5227 42.664 19.2257 42.808 18.8837 42.91C18.5417 43.012 18.1547 43.063 17.7227 43.063C16.8707 43.063 16.2167 42.811 15.7607 42.307C15.3107 41.803 15.0857 41.026 15.0857 39.976V39.553C15.0857 38.503 15.3137 37.726 15.7697 37.222C16.2317 36.718 16.8917 36.466 17.7497 36.466ZM23.7468 36.466C24.1668 36.466 24.5268 36.511 24.8268 36.601C25.1268 36.691 25.3878 36.808 25.6098 36.952C25.7118 37.024 25.7688 37.114 25.7808 37.222C25.7928 37.324 25.7658 37.426 25.6998 37.528C25.6338 37.63 25.5528 37.693 25.4568 37.717C25.3608 37.735 25.2678 37.714 25.1778 37.654C24.9858 37.534 24.7758 37.444 24.5478 37.384C24.3258 37.318 24.0558 37.285 23.7378 37.285C23.4138 37.285 23.1318 37.33 22.8918 37.42C22.6578 37.504 22.4628 37.642 22.3068 37.834C22.1568 38.02 22.0458 38.26 21.9738 38.554C21.9018 38.848 21.8658 39.205 21.8658 39.625V39.904C21.8658 40.324 21.9018 40.684 21.9738 40.984C22.0458 41.278 22.1568 41.518 22.3068 41.704C22.4628 41.89 22.6608 42.028 22.9008 42.118C23.1468 42.202 23.4408 42.244 23.7828 42.244C24.2988 42.244 24.7308 42.157 25.0788 41.983V40.219H23.8638C23.7498 40.219 23.6658 40.18 23.6118 40.102C23.5638 40.024 23.5398 39.934 23.5398 39.832C23.5398 39.73 23.5638 39.643 23.6118 39.571C23.6658 39.493 23.7498 39.454 23.8638 39.454H25.2768C25.5408 39.454 25.7208 39.502 25.8168 39.598C25.9188 39.694 25.9698 39.871 25.9698 40.129V41.974C25.9698 42.172 25.9368 42.328 25.8708 42.442C25.8048 42.55 25.6878 42.643 25.5198 42.721C25.2978 42.823 25.0368 42.907 24.7368 42.973C24.4368 43.033 24.1068 43.063 23.7468 43.063C22.8288 43.063 22.1328 42.82 21.6588 42.334C21.1908 41.842 20.9568 41.056 20.9568 39.976V39.553C20.9568 38.473 21.1908 37.69 21.6588 37.204C22.1328 36.712 22.8288 36.466 23.7468 36.466ZM29.2792 36.466C30.0892 36.466 30.6742 36.73 31.0342 37.258C31.4002 37.786 31.5832 38.548 31.5832 39.544V39.985C31.5832 40.981 31.4002 41.743 31.0342 42.271C30.6742 42.799 30.0892 43.063 29.2792 43.063C28.4692 43.063 27.8812 42.799 27.5152 42.271C27.1552 41.743 26.9752 40.981 26.9752 39.985V39.544C26.9752 38.548 27.1552 37.786 27.5152 37.258C27.8812 36.73 28.4692 36.466 29.2792 36.466ZM29.2792 37.312C29.0152 37.312 28.7932 37.357 28.6132 37.447C28.4332 37.537 28.2892 37.678 28.1812 37.87C28.0732 38.056 27.9952 38.293 27.9472 38.581C27.9052 38.869 27.8842 39.214 27.8842 39.616V39.913C27.8842 40.315 27.9052 40.66 27.9472 40.948C27.9952 41.236 28.0732 41.476 28.1812 41.668C28.2892 41.854 28.4332 41.992 28.6132 42.082C28.7932 42.172 29.0152 42.217 29.2792 42.217C29.5432 42.217 29.7652 42.172 29.9452 42.082C30.1252 41.992 30.2692 41.854 30.3772 41.668C30.4852 41.476 30.5602 41.236 30.6022 40.948C30.6502 40.66 30.6742 40.315 30.6742 39.913V39.616C30.6742 39.214 30.6502 38.869 30.6022 38.581C30.5602 38.293 30.4852 38.056 30.3772 37.87C30.2692 37.678 30.1252 37.537 29.9452 37.447C29.7652 37.357 29.5432 37.312 29.2792 37.312ZM34.7723 36.466C35.5823 36.466 36.1673 36.73 36.5273 37.258C36.8933 37.786 37.0763 38.548 37.0763 39.544V39.985C37.0763 40.981 36.8933 41.743 36.5273 42.271C36.1673 42.799 35.5823 43.063 34.7723 43.063C33.9623 43.063 33.3743 42.799 33.0083 42.271C32.6483 41.743 32.4683 40.981 32.4683 39.985V39.544C32.4683 38.548 32.6483 37.786 33.0083 37.258C33.3743 36.73 33.9623 36.466 34.7723 36.466ZM34.7723 37.312C34.5083 37.312 34.2863 37.357 34.1063 37.447C33.9263 37.537 33.7823 37.678 33.6743 37.87C33.5663 38.056 33.4883 38.293 33.4403 38.581C33.3983 38.869 33.3773 39.214 33.3773 39.616V39.913C33.3773 40.315 33.3983 40.66 33.4403 40.948C33.4883 41.236 33.5663 41.476 33.6743 41.668C33.7823 41.854 33.9263 41.992 34.1063 42.082C34.2863 42.172 34.5083 42.217 34.7723 42.217C35.0363 42.217 35.2583 42.172 35.4383 42.082C35.6183 41.992 35.7623 41.854 35.8703 41.668C35.9783 41.476 36.0533 41.236 36.0953 40.948C36.1433 40.66 36.1673 40.315 36.1673 39.913V39.616C36.1673 39.214 36.1433 38.869 36.0953 38.581C36.0533 38.293 35.9783 38.056 35.8703 37.87C35.7623 37.678 35.6183 37.537 35.4383 37.447C35.2583 37.357 35.0363 37.312 34.7723 37.312ZM40.8595 36.52C40.9975 36.52 41.1085 36.55 41.1925 36.61C41.2825 36.67 41.3275 36.769 41.3275 36.907V42.631C41.3275 42.763 41.2825 42.859 41.1925 42.919C41.1025 42.979 40.9975 43.009 40.8775 43.009C40.7575 43.009 40.6525 42.979 40.5625 42.919C40.4725 42.859 40.4275 42.763 40.4275 42.631V37.582L39.0775 38.41C38.9635 38.476 38.8555 38.488 38.7535 38.446C38.6515 38.404 38.5705 38.332 38.5105 38.23C38.4625 38.134 38.4445 38.035 38.4565 37.933C38.4745 37.825 38.5375 37.741 38.6455 37.681L40.2565 36.718C40.3765 36.652 40.4845 36.604 40.5805 36.574C40.6765 36.538 40.7695 36.52 40.8595 36.52Z" fill="white"/>
<path d="M25.8143 17.3076C26.792 17.3076 27.617 17.4766 28.2751 17.8099C28.4754 17.9132 28.5994 18.0587 28.6567 18.2605C28.7139 18.4577 28.6805 18.6595 28.5756 18.8567C28.4659 19.0632 28.3276 19.1947 28.1511 19.2463C27.9795 19.298 27.7982 19.2792 27.6075 19.1994C27.3213 19.0726 27.04 18.9834 26.7777 18.9318C26.5154 18.8802 26.2006 18.8567 25.8429 18.8567C25.5425 18.8567 25.285 18.8896 25.0608 18.96C24.8415 19.0257 24.6507 19.1149 24.4981 19.2322C24.3455 19.3449 24.2263 19.4716 24.15 19.6125C24.0736 19.7533 24.0355 19.8941 24.0355 20.0396V20.1194C24.0355 20.2931 24.0641 20.4433 24.1261 20.5701C24.1833 20.6968 24.293 20.8095 24.4409 20.9174C24.5887 21.0254 24.7985 21.1146 25.0608 21.1991C25.3231 21.2836 25.6617 21.3681 26.0814 21.4479C27.2117 21.6873 28.0272 22.0347 28.5136 22.4947C29.0048 22.9547 29.248 23.5509 29.248 24.2738V24.3958C29.248 25.33 28.9428 26.0388 28.3371 26.5317C27.7315 27.0246 26.8349 27.264 25.6474 27.264C25.0847 27.264 24.5362 27.1936 24.0069 27.0528C23.4775 26.9119 23.0292 26.7289 22.6668 26.5035C22.4522 26.3674 22.3282 26.1937 22.2996 25.9778C22.2757 25.7665 22.3187 25.5647 22.4474 25.3722C22.5762 25.1751 22.7288 25.0483 22.91 25.0014C23.0912 24.9545 23.2868 24.992 23.4966 25.1094C23.8161 25.2924 24.1643 25.4333 24.541 25.5365C24.9225 25.6445 25.3184 25.6914 25.7237 25.6914C26.3532 25.6914 26.8063 25.5835 27.0829 25.3582C27.3643 25.1375 27.5073 24.8559 27.5073 24.5226V24.4287C27.5073 24.0485 27.3595 23.7527 27.0686 23.5368C26.7729 23.3256 26.3008 23.1566 25.6474 23.0298C25.0751 22.9219 24.5839 22.7904 24.1643 22.6496C23.7494 22.5041 23.4012 22.321 23.1198 22.1004C22.8432 21.8798 22.6429 21.6075 22.5094 21.2977C22.3759 20.9832 22.3091 20.6029 22.3091 20.1476V20.0537C22.3091 19.6735 22.3854 19.3167 22.5333 18.9787C22.6811 18.6455 22.9052 18.3497 23.2057 18.1009C23.5061 17.8521 23.8733 17.655 24.3073 17.5095C24.7365 17.378 25.2421 17.3076 25.8143 17.3076Z" fill="#57AE66"/>
<path d="M32.4099 27.3391H31.9616V18.7581C31.9616 17.1292 30.5404 15.8008 28.7902 15.8008H26.2674V15.5379C26.2674 15.3595 26.1148 15.2234 25.9336 15.2234H25.161C24.975 15.2234 24.8224 15.3642 24.8224 15.5379V15.8008H22.2996C20.5541 15.8008 19.1282 17.1245 19.1282 18.7581V27.3391H18.6799C18.4128 27.3344 18.1982 27.5409 18.1982 27.7897V27.8508C18.1982 28.0995 18.4128 28.3014 18.6799 28.3014H19.1282V30.8081C19.1282 31.6155 19.6432 32.3149 20.3777 32.6435V33.174C20.3777 33.5401 20.6972 33.8358 21.0883 33.8358H21.1836C21.5747 33.8358 21.8942 33.5401 21.8942 33.174V32.8454H29.2051V33.174C29.2051 33.5401 29.5246 33.8358 29.9157 33.8358H30.0111C30.4021 33.8358 30.7216 33.5401 30.7216 33.174V32.6435C31.4608 32.3149 31.9711 31.6202 31.9711 30.8081V28.3014H32.4194C32.6865 28.3014 32.9011 28.0995 32.9011 27.8508V27.7897C32.8963 27.5409 32.6769 27.3391 32.4099 27.3391ZM22.2996 16.6035H28.795C30.0683 16.6035 31.1032 17.5705 31.1032 18.7581V27.8226H19.9914V18.7581C19.9914 17.5705 21.0263 16.6035 22.2996 16.6035ZM21.1407 30.1274C20.6924 30.1274 20.3348 29.7895 20.3348 29.3764C20.3348 28.9586 20.6972 28.6253 21.1407 28.6253C21.589 28.6253 21.9467 28.9633 21.9467 29.3764C21.9467 29.7895 21.589 30.1274 21.1407 30.1274ZM29.9586 30.1274C29.5103 30.1274 29.1526 29.7895 29.1526 29.3764C29.1526 28.9586 29.5151 28.6253 29.9586 28.6253C30.4021 28.6253 30.7646 28.9633 30.7646 29.3764C30.7693 29.7895 30.4069 30.1274 29.9586 30.1274Z" fill="#57AE66"/>
<path d="M36.9022 34.0001C36.2441 34.0001 35.71 33.4743 35.71 32.8265V8.41204H15.3845V32.8312C15.3845 33.479 14.8504 34.0047 14.1923 34.0047C13.5341 34.0047 13 33.4743 13 32.8265V7.23849C13 6.59069 13.5341 6.06494 14.1923 6.06494H36.9022C37.5604 6.06494 38.0945 6.59069 38.0945 7.23849V32.8312C38.0945 33.4743 37.5604 34.0001 36.9022 34.0001Z" fill="#57AE66"/>
<path d="M36.9022 7.23389H14.1923V11.7309H36.9022V7.23389Z" fill="#57AE66"/>
<defs>
<filter id="filter0_d" x="0" y="4" width="51" height="49" filterUnits="userSpaceOnUse" color-interpolation-filters="sRGB">
<feFlood flood-opacity="0" result="BackgroundImageFix"/>
<feColorMatrix in="SourceAlpha" type="matrix" values="0 0 0 0 0 0 0 0 0 0 0 0 0 0 0 0 0 0 127 0"/>
<feOffset dy="4"/>
<feGaussianBlur stdDeviation="2"/>
<feColorMatrix type="matrix" values="0 0 0 0 0 0 0 0 0 0 0 0 0 0 0 0 0 0 0.25 0"/>
<feBlend mode="normal" in2="BackgroundImageFix" result="effect1_dropShadow"/>
<feBlend mode="normal" in="SourceGraphic" in2="effect1_dropShadow" result="shape"/>
</filter>
</defs>
</svg>
