<svg width="13" height="13" viewBox="0 0 13 13" fill="none" xmlns="http://www.w3.org/2000/svg">
<rect width="13" height="12.6927" rx="3" fill="#3C89C9"/>
<path d="M9.71429 8.42572C9.4854 8.42691 9.26107 8.48985 9.065 8.60789L7.83939 7.3825C8.01401 7.12054 8.10719 6.81279 8.10719 6.498C8.10719 6.18322 8.01401 5.87547 7.83939 5.6135L8.65807 4.79519C8.86517 4.8949 9.10089 4.91812 9.32348 4.86075C9.54607 4.80337 9.74116 4.66909 9.87419 4.48171C10.0072 4.29432 10.0696 4.06592 10.0503 3.83696C10.031 3.60801 9.9312 3.39327 9.76865 3.2308C9.60611 3.06833 9.39128 2.96861 9.16222 2.9493C8.93316 2.92999 8.70466 2.99234 8.51719 3.12531C8.32972 3.25828 8.19539 3.45328 8.13799 3.67577C8.08058 3.89826 8.10382 4.13388 8.20357 4.34089L7.38489 5.15921C7.12281 4.98466 6.81493 4.89153 6.5 4.89153C6.18507 4.89153 5.87719 4.98466 5.61511 5.15921L4.38918 3.93382C4.50722 3.73793 4.57018 3.51382 4.57143 3.28514C4.57143 3.03097 4.49602 2.7825 4.35475 2.57116C4.21347 2.35982 4.01267 2.1951 3.77774 2.09783C3.5428 2.00056 3.28429 1.97511 3.03488 2.02469C2.78548 2.07428 2.55639 2.19668 2.37658 2.37641C2.19677 2.55614 2.07431 2.78513 2.02471 3.03443C1.9751 3.28372 2.00056 3.54212 2.09787 3.77695C2.19518 4.01178 2.35998 4.21249 2.57141 4.3537C2.78284 4.49492 3.03142 4.57029 3.28571 4.57029C3.5146 4.5691 3.73893 4.50616 3.935 4.38812L5.16061 5.6135C4.98599 5.87547 4.89281 6.18322 4.89281 6.498C4.89281 6.81279 4.98599 7.12054 5.16061 7.3825L3.93468 8.60789C3.73869 8.48992 3.51449 8.42698 3.28571 8.42572C3.03142 8.42572 2.78284 8.50109 2.57141 8.64231C2.35998 8.78352 2.19518 8.98423 2.09787 9.21906C2.00056 9.45389 1.9751 9.71229 2.02471 9.96158C2.07431 10.2109 2.19677 10.4399 2.37658 10.6196C2.55639 10.7993 2.78548 10.9217 3.03488 10.9713C3.28429 11.0209 3.5428 10.9955 3.77774 10.8982C4.01267 10.8009 4.21347 10.6362 4.35475 10.4249C4.49602 10.2135 4.57143 9.96504 4.57143 9.71086C4.57024 9.48208 4.50727 9.25785 4.38918 9.06187L5.61511 7.8368C5.78605 7.95069 5.97737 8.03054 6.17857 8.07198V9.12741C5.96411 9.2032 5.78336 9.35233 5.66826 9.54845C5.55317 9.74456 5.51114 9.97504 5.5496 10.1991C5.58807 10.4232 5.70455 10.6265 5.87847 10.7731C6.05238 10.9196 6.27253 11 6.5 11C6.72747 11 6.94762 10.9196 7.12153 10.7731C7.29545 10.6265 7.41193 10.4232 7.4504 10.1991C7.48886 9.97504 7.44684 9.74456 7.33174 9.54845C7.21664 9.35233 7.03589 9.2032 6.82143 9.12741V8.07198C7.02263 8.03054 7.21395 7.95069 7.38489 7.8368L8.61082 9.06219C8.49278 9.25808 8.42982 9.48219 8.42857 9.71086C8.42857 9.96504 8.50398 10.2135 8.64525 10.4249C8.78653 10.6362 8.98733 10.8009 9.22226 10.8982C9.4572 10.9955 9.71571 11.0209 9.96512 10.9713C10.2145 10.9217 10.4436 10.7993 10.6234 10.6196C10.8032 10.4399 10.9257 10.2109 10.9753 9.96158C11.0249 9.71229 10.9994 9.45389 10.9021 9.21906C10.8048 8.98423 10.64 8.78352 10.4286 8.64231C10.2172 8.50109 9.96858 8.42572 9.71429 8.42572ZM6.5 5.53415C6.69072 5.53415 6.87715 5.59068 7.03573 5.69659C7.1943 5.8025 7.3179 5.95303 7.39088 6.12915C7.46387 6.30527 7.48296 6.49907 7.44576 6.68604C7.40855 6.87301 7.31671 7.04476 7.18185 7.17955C7.047 7.31435 6.87518 7.40615 6.68812 7.44334C6.50107 7.48053 6.30718 7.46144 6.13098 7.38849C5.95478 7.31554 5.80418 7.192 5.69823 7.03349C5.59227 6.87499 5.53571 6.68864 5.53571 6.498C5.53597 6.24245 5.63765 5.99744 5.81843 5.81674C5.99921 5.63603 6.24433 5.5344 6.5 5.53415ZM2.64286 3.28514C2.64286 3.15806 2.68056 3.03382 2.7512 2.92815C2.82184 2.82248 2.92224 2.74012 3.0397 2.69149C3.15717 2.64285 3.28643 2.63013 3.41113 2.65492C3.53583 2.67971 3.65038 2.74091 3.74028 2.83078C3.83019 2.92064 3.89141 3.03514 3.91622 3.15978C3.94102 3.28443 3.92829 3.41363 3.87964 3.53105C3.83098 3.64846 3.74858 3.74882 3.64287 3.81942C3.53715 3.89003 3.41286 3.92772 3.28571 3.92772C3.11527 3.92755 2.95186 3.85979 2.83133 3.73932C2.71081 3.61885 2.64303 3.45551 2.64286 3.28514ZM3.28571 10.3534C3.15857 10.3534 3.03428 10.3157 2.92856 10.2451C2.82285 10.1745 2.74045 10.0742 2.69179 9.95677C2.64314 9.83935 2.63041 9.71015 2.65521 9.5855C2.68001 9.46086 2.74124 9.34636 2.83115 9.2565C2.92105 9.16663 3.0356 9.10543 3.1603 9.08064C3.285 9.05584 3.41426 9.06857 3.53173 9.1172C3.64919 9.16584 3.74959 9.2482 3.82023 9.35387C3.89087 9.45954 3.92857 9.58378 3.92857 9.71086C3.9284 9.88123 3.86062 10.0446 3.7401 10.165C3.61957 10.2855 3.45616 10.3533 3.28571 10.3534ZM9.71429 10.3534C9.58714 10.3534 9.46285 10.3157 9.35713 10.2451C9.25142 10.1745 9.16902 10.0742 9.12036 9.95677C9.07171 9.83935 9.05898 9.71015 9.08378 9.5855C9.10859 9.46086 9.16981 9.34636 9.25972 9.2565C9.34962 9.16663 9.46417 9.10543 9.58887 9.08064C9.71357 9.05584 9.84283 9.06857 9.9603 9.1172C10.0778 9.16584 10.1782 9.2482 10.2488 9.35387C10.3194 9.45954 10.3571 9.58378 10.3571 9.71086C10.3569 9.88121 10.2891 10.0445 10.1686 10.1649C10.0481 10.2854 9.8847 10.3532 9.71429 10.3534Z" fill="white"/>
</svg>
