<svg width="60" height="50" viewBox="0 0 60 50" fill="none" xmlns="http://www.w3.org/2000/svg">
<g filter="url(#filter0_d)">
<path d="M14 4C14 1.79086 15.7909 0 18 0H42C44.2091 0 46 1.79086 46 4V31H14V4Z" fill="white"/>
<rect x="4" y="31" width="52" height="11" rx="5" fill="#3C89C9"/>
</g>
<path d="M11.3525 33.565C12.2645 33.565 12.9515 33.802 13.4135 34.276C13.8815 34.75 14.1155 35.494 14.1155 36.508V37.021C14.1155 38.035 13.8755 38.779 13.3955 39.253C12.9215 39.727 12.2405 39.964 11.3525 39.964H9.88546C9.62146 39.964 9.43846 39.916 9.33646 39.82C9.24046 39.724 9.19246 39.55 9.19246 39.298V34.231C9.19246 33.979 9.24046 33.805 9.33646 33.709C9.43846 33.613 9.62146 33.565 9.88546 33.565H11.3525ZM11.2355 39.19C11.9075 39.19 12.4025 39.016 12.7205 38.668C13.0445 38.314 13.2065 37.744 13.2065 36.958V36.589C13.2065 36.193 13.1675 35.854 13.0895 35.572C13.0175 35.284 12.9035 35.05 12.7475 34.87C12.5915 34.684 12.3875 34.549 12.1355 34.465C11.8835 34.381 11.5835 34.339 11.2355 34.339H10.0925V39.19H11.2355ZM17.4544 33.52C17.5744 33.52 17.6794 33.55 17.7694 33.61C17.8654 33.664 17.9434 33.769 18.0034 33.925L20.1364 39.424C20.1844 39.556 20.1814 39.673 20.1274 39.775C20.0794 39.871 19.9984 39.937 19.8844 39.973C19.7644 40.009 19.6474 40.015 19.5334 39.991C19.4194 39.961 19.3354 39.871 19.2814 39.721L18.6874 38.11H16.1944L15.5824 39.748C15.5344 39.886 15.4564 39.97 15.3484 40C15.2464 40.024 15.1354 40.015 15.0154 39.973C14.9014 39.931 14.8204 39.868 14.7724 39.784C14.7244 39.694 14.7244 39.583 14.7724 39.451L16.9144 33.925C16.9744 33.769 17.0494 33.664 17.1394 33.61C17.2294 33.55 17.3344 33.52 17.4544 33.52ZM17.4454 34.627C17.3854 34.825 17.3254 35.014 17.2654 35.194C17.2054 35.368 17.1334 35.569 17.0494 35.797L16.4644 37.354H18.4174L17.8414 35.797C17.7574 35.569 17.6824 35.362 17.6164 35.176C17.5564 34.99 17.4994 34.807 17.4454 34.627ZM24.8254 33.565C24.9334 33.565 25.0114 33.604 25.0594 33.682C25.1134 33.76 25.1404 33.85 25.1404 33.952C25.1404 34.054 25.1134 34.144 25.0594 34.222C25.0114 34.3 24.9334 34.339 24.8254 34.339H23.0974V39.631C23.0974 39.763 23.0524 39.859 22.9624 39.919C22.8724 39.979 22.7674 40.009 22.6474 40.009C22.5274 40.009 22.4224 39.979 22.3324 39.919C22.2424 39.859 22.1974 39.763 22.1974 39.631V34.339H20.4784C20.3644 34.339 20.2804 34.3 20.2264 34.222C20.1784 34.144 20.1544 34.054 20.1544 33.952C20.1544 33.85 20.1784 33.76 20.2264 33.682C20.2804 33.604 20.3644 33.565 20.4784 33.565H24.8254ZM27.8343 33.52C27.9543 33.52 28.0593 33.55 28.1493 33.61C28.2453 33.664 28.3233 33.769 28.3833 33.925L30.5163 39.424C30.5643 39.556 30.5613 39.673 30.5073 39.775C30.4593 39.871 30.3783 39.937 30.2643 39.973C30.1443 40.009 30.0273 40.015 29.9133 39.991C29.7993 39.961 29.7153 39.871 29.6613 39.721L29.0673 38.11H26.5743L25.9623 39.748C25.9143 39.886 25.8363 39.97 25.7283 40C25.6263 40.024 25.5153 40.015 25.3953 39.973C25.2813 39.931 25.2003 39.868 25.1523 39.784C25.1043 39.694 25.1043 39.583 25.1523 39.451L27.2943 33.925C27.3543 33.769 27.4293 33.664 27.5193 33.61C27.6093 33.55 27.7143 33.52 27.8343 33.52ZM27.8253 34.627C27.7653 34.825 27.7053 35.014 27.6453 35.194C27.5853 35.368 27.5133 35.569 27.4293 35.797L26.8443 37.354H28.7973L28.2213 35.797C28.1373 35.569 28.0623 35.362 27.9963 35.176C27.9363 34.99 27.8793 34.807 27.8253 34.627ZM34.3485 33.52C34.4685 33.52 34.5735 33.55 34.6635 33.61C34.7595 33.67 34.8075 33.766 34.8075 33.898V36.238H37.8225V33.898C37.8225 33.766 37.8645 33.67 37.9485 33.61C38.0385 33.55 38.1435 33.52 38.2635 33.52C38.3835 33.52 38.4885 33.55 38.5785 33.61C38.6745 33.67 38.7225 33.766 38.7225 33.898V39.631C38.7225 39.763 38.6745 39.859 38.5785 39.919C38.4885 39.979 38.3835 40.009 38.2635 40.009C38.1435 40.009 38.0385 39.979 37.9485 39.919C37.8645 39.859 37.8225 39.763 37.8225 39.631V36.994H34.8075V39.631C34.8075 39.763 34.7595 39.859 34.6635 39.919C34.5735 39.979 34.4685 40.009 34.3485 40.009C34.2285 40.009 34.1235 39.979 34.0335 39.919C33.9435 39.859 33.8985 39.763 33.8985 39.631V33.898C33.8985 33.766 33.9435 33.67 34.0335 33.61C34.1235 33.55 34.2285 33.52 34.3485 33.52ZM40.6306 33.52C40.7506 33.52 40.8556 33.55 40.9456 33.61C41.0356 33.67 41.0806 33.766 41.0806 33.898V37.345C41.0806 38.023 41.2006 38.509 41.4406 38.803C41.6866 39.091 42.0766 39.235 42.6106 39.235C43.1446 39.235 43.5316 39.091 43.7716 38.803C44.0176 38.509 44.1406 38.023 44.1406 37.345V33.898C44.1406 33.766 44.1856 33.67 44.2756 33.61C44.3656 33.55 44.4706 33.52 44.5906 33.52C44.7106 33.52 44.8156 33.55 44.9056 33.61C44.9956 33.67 45.0406 33.766 45.0406 33.898V37.336C45.0406 37.84 44.9896 38.266 44.8876 38.614C44.7856 38.962 44.6326 39.244 44.4286 39.46C44.2246 39.67 43.9696 39.823 43.6636 39.919C43.3636 40.015 43.0126 40.063 42.6106 40.063C42.2146 40.063 41.8636 40.015 41.5576 39.919C41.2576 39.823 41.0056 39.67 40.8016 39.46C40.5976 39.244 40.4416 38.962 40.3336 38.614C40.2316 38.266 40.1806 37.84 40.1806 37.336V33.898C40.1806 33.766 40.2256 33.67 40.3156 33.61C40.4056 33.55 40.5106 33.52 40.6306 33.52ZM48.86 33.565C49.55 33.565 50.06 33.694 50.39 33.952C50.72 34.21 50.885 34.612 50.885 35.158V35.284C50.885 35.578 50.807 35.848 50.651 36.094C50.501 36.334 50.234 36.502 49.85 36.598C50.258 36.658 50.582 36.805 50.822 37.039C51.062 37.273 51.182 37.621 51.182 38.083V38.245C51.182 38.791 51.017 39.214 50.687 39.514C50.363 39.814 49.85 39.964 49.148 39.964H47.195C46.931 39.964 46.748 39.916 46.646 39.82C46.55 39.724 46.502 39.55 46.502 39.298V34.231C46.502 33.979 46.55 33.805 46.646 33.709C46.748 33.613 46.931 33.565 47.195 33.565H48.86ZM48.599 36.256C49.103 36.256 49.457 36.187 49.661 36.049C49.871 35.905 49.976 35.656 49.976 35.302V35.203C49.976 34.879 49.865 34.651 49.643 34.519C49.427 34.387 49.061 34.321 48.545 34.321H47.402V36.256H48.599ZM48.761 39.208C49.013 39.208 49.232 39.193 49.418 39.163C49.61 39.133 49.769 39.079 49.895 39.001C50.021 38.917 50.114 38.809 50.174 38.677C50.234 38.545 50.264 38.374 50.264 38.164V38.029C50.264 37.855 50.237 37.705 50.183 37.579C50.129 37.447 50.036 37.339 49.904 37.255C49.778 37.165 49.61 37.099 49.4 37.057C49.19 37.015 48.929 36.994 48.617 36.994H47.402V39.208H48.761Z" fill="white"/>
<g clip-path="url(#clip0)">
<path d="M32.4164 13.1898C32.2073 13.1898 31.9983 13.1077 31.8384 12.9477C30.8752 11.9872 29.3134 11.9872 28.3543 12.9477C28.0346 13.2678 27.514 13.2678 27.1943 12.9477C26.8745 12.6275 26.8745 12.1063 27.1943 11.7861C28.7929 10.1854 31.3998 10.1854 32.9985 11.7861C33.3182 12.1063 33.3182 12.6275 32.9985 12.9477C32.8386 13.1118 32.6254 13.1898 32.4164 13.1898Z" fill="#3C89C9"/>
<path d="M34.6791 10.8256C34.47 10.8256 34.261 10.7435 34.1011 10.5835C32.978 9.45885 31.49 8.83909 29.9037 8.83909C28.3174 8.83909 26.8295 9.45885 25.7063 10.5835C25.3866 10.9036 24.866 10.9036 24.5463 10.5835C24.2266 10.2633 24.2266 9.74206 24.5463 9.42191C25.9769 7.98947 27.8788 7.19732 29.9037 7.19732C31.9245 7.19732 33.8265 7.98537 35.2611 9.42191C35.5808 9.74206 35.5808 10.2633 35.2611 10.5835C35.1013 10.7435 34.8922 10.8256 34.6791 10.8256Z" fill="#3C89C9"/>
<path d="M36.7818 8.4574C36.5728 8.4574 36.3637 8.37531 36.2039 8.21524C34.5438 6.55705 32.3426 5.64177 29.998 5.64177C27.6574 5.64177 25.4563 6.55705 23.7962 8.21524C23.4765 8.53538 22.9559 8.53538 22.6362 8.21524C22.3164 7.89509 22.3164 7.37383 22.6362 7.05369C24.6037 5.08357 27.2188 4 29.998 4C32.7771 4 35.3923 5.08357 37.3598 7.05779C37.6795 7.37793 37.6795 7.8992 37.3598 8.21934C37.204 8.37941 36.9909 8.4574 36.7818 8.4574Z" fill="#3C89C9"/>
<path d="M36.3801 19.0099C35.339 16.7524 32.9903 15.1517 30.2357 15.0655C30.2111 15.0655 30.1865 15.0655 30.1619 15.0655C30.1087 15.0655 30.0595 15.0614 30.0062 15.0614C30.0021 15.0614 30.0021 15.0614 29.998 15.0614C29.998 15.0614 29.9939 15.0614 29.9898 15.0614C29.9365 15.0614 29.8873 15.0614 29.834 15.0655C29.8094 15.0655 29.7848 15.0655 29.7602 15.0655C27.0057 15.1517 24.657 16.7483 23.6158 19.0099H23.6117C23.5994 19.0099 23.583 19.0058 23.5707 19.0058C23.292 18.9565 23.0051 18.9319 22.71 18.9319C20.0825 18.9319 17.9387 20.8856 17.8198 23.3359C17.6887 25.9833 19.9718 28.1791 22.7796 28.1791H24.5012C24.5422 28.1791 24.5832 28.1791 24.6283 28.175H30.6087H33.1829H35.3636C35.4046 28.1791 35.4456 28.1791 35.4907 28.1791H37.2122C40.0201 28.1791 42.3032 25.9833 42.172 23.3359C42.0532 20.8856 39.9094 18.9319 37.2819 18.9319C36.9745 18.9319 36.6753 18.9606 36.3801 19.0099Z" fill="white"/>
<path d="M37.2122 29H35.4906C35.4373 29 35.3841 29 35.3308 28.9959H24.6652C24.6119 29 24.5586 29 24.5053 29H22.7837C21.1441 29 19.5742 28.3351 18.4716 27.1777C17.455 26.1064 16.9344 24.7273 17.0041 23.2949C17.1517 20.2494 19.9021 17.8771 23.1485 18.1274C24.4479 15.8331 26.9729 14.3308 29.7356 14.2446L29.9898 14.2405L30.2357 14.2446C33.023 14.3308 35.5439 15.8331 36.8474 18.1274C36.995 18.1151 37.1384 18.111 37.286 18.111C40.3439 18.111 42.8524 20.389 42.9959 23.299C43.0656 24.7314 42.545 26.1105 41.5285 27.1818C40.4258 28.3392 38.8518 29 37.2122 29ZM24.6324 27.3542H35.3677C35.3923 27.3542 35.4169 27.3542 35.4414 27.3583C35.4578 27.3583 35.4742 27.3624 35.4906 27.3624H37.2122C38.405 27.3624 39.5445 26.8863 40.3357 26.0531C41.0407 25.3102 41.4014 24.362 41.3522 23.3811C41.2538 21.3494 39.4626 19.7569 37.2819 19.7569C37.0319 19.7569 36.7777 19.7774 36.5236 19.8225C36.3965 19.8431 36.2694 19.8349 36.1465 19.802C35.921 19.7364 35.7325 19.5763 35.63 19.3587C34.6954 17.3271 32.5639 15.9644 30.207 15.8946L30.0021 15.8905L29.7561 15.8946C27.4238 15.9685 25.2923 17.3271 24.3577 19.3587C24.2635 19.5681 24.0831 19.7281 23.8659 19.7979C23.7511 19.8349 23.6199 19.8472 23.501 19.8308L23.4396 19.8225C23.1895 19.7815 22.9477 19.761 22.7099 19.761C20.5252 19.761 18.738 21.3535 18.6396 23.3852C18.5904 24.3661 18.9511 25.3143 19.6562 26.0572C20.4473 26.8904 21.5868 27.3706 22.7796 27.3706H24.5012C24.5176 27.3706 24.534 27.3706 24.5504 27.3665C24.5791 27.3542 24.6078 27.3542 24.6324 27.3542Z" fill="#3C89C9"/>
<path d="M33.9453 22.2154C33.4944 22.2154 33.105 22.4903 32.9411 22.8844L31.4736 22.7777C31.3548 22.1456 30.8055 21.6695 30.1414 21.6695C30.0144 21.6695 29.8914 21.6941 29.7725 21.7269L28.3543 19.6337C28.4486 19.4736 28.51 19.2848 28.51 19.0837C28.51 18.4803 28.0223 17.996 27.4238 17.996C26.8253 17.996 26.3376 18.4844 26.3376 19.0837C26.3376 19.6829 26.8253 20.1714 27.4238 20.1714C27.5222 20.1714 27.6124 20.1549 27.7025 20.1303L29.088 22.1784C28.8994 22.4124 28.7806 22.7079 28.7806 23.0321C28.7806 23.1635 28.8052 23.2907 28.8421 23.4097L27.059 24.4317C26.8909 24.3209 26.6901 24.2593 26.4728 24.2593C25.8703 24.2593 25.3866 24.7478 25.3866 25.347C25.3866 25.9463 25.8744 26.4347 26.4728 26.4347C27.0713 26.4347 27.5591 25.9463 27.5591 25.347C27.5591 25.2649 27.5468 25.1828 27.5304 25.1049L29.297 24.0911C29.5307 24.2758 29.8176 24.3907 30.1373 24.3907C30.6866 24.3907 31.158 24.0623 31.3711 23.5944L32.9329 23.7053C33.0927 24.1075 33.4821 24.3907 33.9412 24.3907C34.5438 24.3907 35.0275 23.9023 35.0275 23.303C35.0316 22.7038 34.5438 22.2154 33.9453 22.2154Z" fill="#3C89C9"/>
</g>
<defs>
<filter id="filter0_d" x="0" y="0" width="60" height="50" filterUnits="userSpaceOnUse" color-interpolation-filters="sRGB">
<feFlood flood-opacity="0" result="BackgroundImageFix"/>
<feColorMatrix in="SourceAlpha" type="matrix" values="0 0 0 0 0 0 0 0 0 0 0 0 0 0 0 0 0 0 127 0"/>
<feOffset dy="4"/>
<feGaussianBlur stdDeviation="2"/>
<feColorMatrix type="matrix" values="0 0 0 0 0 0 0 0 0 0 0 0 0 0 0 0 0 0 0.25 0"/>
<feBlend mode="normal" in2="BackgroundImageFix" result="effect1_dropShadow"/>
<feBlend mode="normal" in="SourceGraphic" in2="effect1_dropShadow" result="shape"/>
</filter>
<clipPath id="clip0">
<rect x="17" y="4" width="26" height="25" fill="white"/>
</clipPath>
</defs>
</svg>
