<svg width="41" height="41" viewBox="0 0 41 41" fill="none" xmlns="http://www.w3.org/2000/svg">
<g filter="url(#filter0_d)">
<circle cx="20.5" cy="18.5" r="16.5" fill="white"/>
<circle cx="20.5" cy="18.5" r="16" stroke="white"/>
</g>
<path d="M25.6524 20.079C24.8116 18.256 22.9148 16.9633 20.6904 16.8937C20.6705 16.8937 20.6506 16.8937 20.6308 16.8937C20.5877 16.8937 20.548 16.8904 20.505 16.8904C20.5017 16.8904 20.5017 16.8904 20.4984 16.8904C20.4984 16.8904 20.4951 16.8904 20.4918 16.8904C20.4487 16.8904 20.409 16.8904 20.366 16.8937C20.3461 16.8937 20.3262 16.8937 20.3064 16.8937C18.0819 16.9633 16.1852 18.2527 15.3444 20.079H15.3411C15.3311 20.079 15.3179 20.0757 15.308 20.0757C15.0829 20.0359 14.8512 20.016 14.6128 20.016C12.491 20.016 10.7598 21.5938 10.6638 23.5726C10.5578 25.7105 12.4016 27.4838 14.6691 27.4838H16.0594C16.0925 27.4838 16.1256 27.4838 16.162 27.4804H20.9916H23.0704H24.8314C24.8645 27.4838 24.8976 27.4838 24.934 27.4838H26.3243C28.5918 27.4838 30.4356 25.7105 30.3297 23.5726C30.2337 21.5938 28.5024 20.016 26.3806 20.016C26.1323 20.016 25.8907 20.0392 25.6524 20.079Z" fill="white"/>
<path d="M26.3243 28.1465H24.934C24.891 28.1465 24.848 28.1465 24.8049 28.1432H16.1918C16.1487 28.1465 16.1057 28.1465 16.0627 28.1465H14.6724C13.3483 28.1465 12.0805 27.6095 11.1901 26.6748C10.3691 25.8097 9.94872 24.696 10.005 23.5392C10.1242 21.0798 12.3453 19.164 14.967 19.3662C16.0163 17.5133 18.0554 16.3002 20.2865 16.2306L20.4917 16.2273L20.6903 16.2306C22.9413 16.3002 24.9771 17.5133 26.0297 19.3662C26.1489 19.3563 26.2647 19.3529 26.3839 19.3529C28.8533 19.3529 30.8791 21.1925 30.995 23.5426C31.0513 24.6993 30.6309 25.813 29.8099 26.6781C28.9195 27.6129 27.6484 28.1465 26.3243 28.1465ZM16.1653 26.8174H24.8347C24.8546 26.8174 24.8744 26.8174 24.8943 26.8207C24.9075 26.8207 24.9208 26.824 24.934 26.824H26.3243C27.2876 26.824 28.2078 26.4395 28.8467 25.7666C29.416 25.1667 29.7073 24.401 29.6676 23.6088C29.5882 21.9681 28.1416 20.6821 26.3806 20.6821C26.1787 20.6821 25.9734 20.6987 25.7682 20.7351C25.6656 20.7517 25.563 20.7451 25.4637 20.7185C25.2816 20.6655 25.1293 20.5362 25.0466 20.3606C24.2918 18.7199 22.5705 17.6194 20.6672 17.5631L20.5017 17.5598L20.303 17.5631C18.4195 17.6227 16.6982 18.7199 15.9435 20.3606C15.8674 20.5296 15.7217 20.6589 15.5463 20.7152C15.4536 20.7451 15.3477 20.755 15.2517 20.7417L15.202 20.7351C15.0001 20.702 14.8048 20.6854 14.6128 20.6854C12.8485 20.6854 11.4052 21.9714 11.3258 23.6122C11.286 24.4043 11.5773 25.17 12.1467 25.77C12.7856 26.4428 13.7058 26.8306 14.6691 26.8306H16.0594C16.0726 26.8306 16.0858 26.8306 16.0991 26.8273C16.1223 26.8174 16.1454 26.8174 16.1653 26.8174Z" fill="#3C89C9"/>
<path d="M23.6862 22.6676C23.322 22.6676 23.0076 22.8897 22.8752 23.2079L21.6901 23.1217C21.5941 22.6113 21.1505 22.2268 20.6143 22.2268C20.5117 22.2268 20.4124 22.2467 20.3164 22.2732L19.171 20.5828C19.2472 20.4535 19.2968 20.301 19.2968 20.1386C19.2968 19.6514 18.9029 19.2603 18.4196 19.2603C17.9363 19.2603 17.5424 19.6547 17.5424 20.1386C17.5424 20.6225 17.9363 21.017 18.4196 21.017C18.4991 21.017 18.5719 21.0037 18.6447 20.9838L19.7636 22.6378C19.6113 22.8267 19.5153 23.0654 19.5153 23.3272C19.5153 23.4333 19.5352 23.5361 19.5649 23.6322L18.125 24.4575C17.9893 24.368 17.8271 24.3183 17.6516 24.3183C17.165 24.3183 16.7744 24.7127 16.7744 25.1967C16.7744 25.6806 17.1684 26.075 17.6516 26.075C18.1349 26.075 18.5289 25.6806 18.5289 25.1967C18.5289 25.1304 18.5189 25.0641 18.5057 25.0011L19.9324 24.1824C20.1211 24.3316 20.3528 24.4244 20.611 24.4244C21.0545 24.4244 21.4352 24.1592 21.6073 23.7813L22.8685 23.8708C22.9976 24.1957 23.3121 24.4244 23.6828 24.4244C24.1694 24.4244 24.56 24.0299 24.56 23.546C24.5634 23.0621 24.1694 22.6676 23.6862 22.6676Z" fill="#3C89C9"/>
<path d="M22.4514 15.379C22.2826 15.379 22.1138 15.3127 21.9847 15.1834C21.2068 14.4078 19.9456 14.4078 19.171 15.1834C18.9128 15.442 18.4924 15.442 18.2342 15.1834C17.976 14.9249 17.976 14.5039 18.2342 14.2454C19.5252 12.9527 21.6305 12.9527 22.9215 14.2454C23.1797 14.5039 23.1797 14.9249 22.9215 15.1834C22.7924 15.316 22.6202 15.379 22.4514 15.379Z" fill="#3C89C9"/>
<path d="M24.2786 13.4696C24.1098 13.4696 23.9409 13.4033 23.8118 13.2741C22.9049 12.3659 21.7032 11.8654 20.4222 11.8654C19.1411 11.8654 17.9395 12.3659 17.0325 13.2741C16.7744 13.5326 16.354 13.5326 16.0958 13.2741C15.8376 13.0155 15.8376 12.5946 16.0958 12.336C17.251 11.1793 18.787 10.5396 20.4222 10.5396C22.0541 10.5396 23.5901 11.1759 24.7486 12.336C25.0068 12.5946 25.0068 13.0155 24.7486 13.2741C24.6195 13.4033 24.4507 13.4696 24.2786 13.4696Z" fill="#3C89C9"/>
<path d="M25.9767 11.5571C25.8079 11.5571 25.6391 11.4909 25.51 11.3616C24.1693 10.0225 22.3918 9.28335 20.4983 9.28335C18.6082 9.28335 16.8306 10.0225 15.49 11.3616C15.2318 11.6201 14.8114 11.6201 14.5532 11.3616C14.295 11.103 14.295 10.6821 14.5532 10.4236C16.1421 8.83257 18.254 7.95752 20.4983 7.95752C22.7426 7.95752 24.8545 8.83257 26.4434 10.4269C26.7016 10.6854 26.7016 11.1064 26.4434 11.3649C26.3177 11.4942 26.1455 11.5571 25.9767 11.5571Z" fill="#3C89C9"/>
<defs>
<filter id="filter0_d" x="0" y="0" width="41" height="41" filterUnits="userSpaceOnUse" color-interpolation-filters="sRGB">
<feFlood flood-opacity="0" result="BackgroundImageFix"/>
<feColorMatrix in="SourceAlpha" type="matrix" values="0 0 0 0 0 0 0 0 0 0 0 0 0 0 0 0 0 0 127 0"/>
<feOffset dy="2"/>
<feGaussianBlur stdDeviation="2"/>
<feColorMatrix type="matrix" values="0 0 0 0 0 0 0 0 0 0 0 0 0 0 0 0 0 0 0.15 0"/>
<feBlend mode="normal" in2="BackgroundImageFix" result="effect1_dropShadow"/>
<feBlend mode="normal" in="SourceGraphic" in2="effect1_dropShadow" result="shape"/>
</filter>
</defs>
</svg>
