<svg width="41" height="41" viewBox="0 0 41 41" fill="none" xmlns="http://www.w3.org/2000/svg">
<g filter="url(#filter0_d)">
<circle cx="20.5" cy="18.5" r="16.5" fill="white"/>
</g>
<path d="M12 22.25C11.5858 22.25 11.25 22.5858 11.25 23V26.9024C11.25 27.3167 11.5858 27.6524 12 27.6524H20.5H29C29.4142 27.6524 29.75 27.3167 29.75 26.9024V23C29.75 22.5858 29.4142 22.25 29 22.25L20.5 22.25L12 22.25Z" fill="white" stroke="#57AE66" stroke-width="1.5" stroke-linecap="round" stroke-linejoin="round"/>
<path d="M12 19.25C11.5858 19.25 11.25 19.5858 11.25 20V23.9024C11.25 24.3167 11.5858 24.6524 12 24.6524H20.5H29C29.4142 24.6524 29.75 24.3167 29.75 23.9024V20C29.75 19.5858 29.4142 19.25 29 19.25L20.5 19.25L12 19.25Z" fill="white" stroke="#57AE66" stroke-width="1.5" stroke-linecap="round" stroke-linejoin="round"/>
<path d="M12 16.25C11.5858 16.25 11.25 16.5858 11.25 17V20.9024C11.25 21.3167 11.5858 21.6524 12 21.6524H20.5H29C29.4142 21.6524 29.75 21.3167 29.75 20.9024V17C29.75 16.5858 29.4142 16.25 29 16.25L20.5 16.25L12 16.25Z" fill="white" stroke="#57AE66" stroke-width="1.5" stroke-linecap="round" stroke-linejoin="round"/>
<path d="M11.6143 13.4544C11.3883 13.5899 11.25 13.8341 11.25 14.0976V18C11.25 18.4142 11.5858 18.75 12 18.75H20.5H29C29.4142 18.75 29.75 18.4142 29.75 18V14.0976C29.75 13.8341 29.6117 13.5899 29.3857 13.4544L20.8857 8.3568C20.6483 8.2144 20.3517 8.2144 20.1143 8.3568L11.6143 13.4544Z" fill="white" stroke="#57AE66" stroke-width="1.5" stroke-linecap="round" stroke-linejoin="round"/>
<path d="M21.4001 7.4992C20.846 7.16693 20.154 7.16693 19.5999 7.4992L11.0999 12.5968C10.5727 12.913 10.25 13.4827 10.25 14.0976V26.5C10.25 26.7342 10.2971 27.001 10.4628 27.2393C10.6342 27.4857 10.869 27.611 11.0713 27.6736C11.2598 27.7319 11.4485 27.7448 11.5874 27.7492C11.6832 27.7522 11.7959 27.7513 11.8929 27.7506C11.9318 27.7503 11.9682 27.75 12 27.75C12.0318 27.75 12.0682 27.7503 12.1071 27.7506C12.2041 27.7513 12.3168 27.7522 12.4126 27.7492C12.5515 27.7448 12.7402 27.7319 12.9287 27.6736C13.131 27.611 13.3658 27.4857 13.5372 27.2393C13.7029 27.001 13.75 26.7342 13.75 26.5V15.4139H20.5H27.25V26.5C27.25 26.7342 27.2971 27.001 27.4628 27.2393C27.6342 27.4857 27.869 27.611 28.0713 27.6736C28.2598 27.7319 28.4485 27.7448 28.5874 27.7492C28.6832 27.7522 28.7959 27.7513 28.8929 27.7506C28.9318 27.7503 28.9682 27.75 29 27.75C29.0318 27.75 29.0682 27.7503 29.1071 27.7506C29.2041 27.7513 29.3168 27.7522 29.4126 27.7492C29.5515 27.7448 29.7402 27.7319 29.9287 27.6736C30.131 27.611 30.3658 27.4857 30.5372 27.2393C30.7029 27.001 30.75 26.7342 30.75 26.5V14.0976C30.75 13.4827 30.4273 12.913 29.9001 12.5968L21.4001 7.4992Z" fill="white" stroke="#57AE66" stroke-width="1.5" stroke-linecap="round" stroke-linejoin="round"/>
<defs>
<filter id="filter0_d" x="0" y="0" width="41" height="41" filterUnits="userSpaceOnUse" color-interpolation-filters="sRGB">
<feFlood flood-opacity="0" result="BackgroundImageFix"/>
<feColorMatrix in="SourceAlpha" type="matrix" values="0 0 0 0 0 0 0 0 0 0 0 0 0 0 0 0 0 0 127 0"/>
<feOffset dy="2"/>
<feGaussianBlur stdDeviation="2"/>
<feColorMatrix type="matrix" values="0 0 0 0 0 0 0 0 0 0 0 0 0 0 0 0 0 0 0.15 0"/>
<feBlend mode="normal" in2="BackgroundImageFix" result="effect1_dropShadow"/>
<feBlend mode="normal" in="SourceGraphic" in2="effect1_dropShadow" result="shape"/>
</filter>
</defs>
</svg>
