<svg width="77" height="30" viewBox="0 0 77 30" fill="none" xmlns="http://www.w3.org/2000/svg">
<rect x="0.25" y="0.25" width="76.5" height="29.5" rx="1.75" fill="white" stroke="#2E92B0" stroke-width="0.5"/>
<path d="M23.9551 15.2832C23.9551 16.2585 23.7865 17.1152 23.4492 17.8535C23.112 18.5872 22.6289 19.1523 22 19.5488C21.3757 19.9408 20.6556 20.1367 19.8398 20.1367C19.0332 20.1367 18.3132 19.9408 17.6797 19.5488C17.0508 19.1523 16.5632 18.5895 16.2168 17.8604C15.875 17.1312 15.7018 16.2904 15.6973 15.3379V14.7773C15.6973 13.8066 15.8682 12.9499 16.21 12.207C16.5563 11.4642 17.0417 10.8968 17.666 10.5049C18.2949 10.1084 19.015 9.91016 19.8262 9.91016C20.6374 9.91016 21.3551 10.1061 21.9795 10.498C22.6084 10.8854 23.0938 11.446 23.4355 12.1797C23.7773 12.9089 23.9505 13.7588 23.9551 14.7295V15.2832ZM22.2256 14.7637C22.2256 13.6608 22.016 12.8154 21.5967 12.2275C21.182 11.6396 20.5918 11.3457 19.8262 11.3457C19.0788 11.3457 18.4932 11.6396 18.0693 12.2275C17.6501 12.8109 17.4359 13.638 17.4268 14.709V15.2832C17.4268 16.377 17.6387 17.2223 18.0625 17.8193C18.4909 18.4163 19.0833 18.7148 19.8398 18.7148C20.6055 18.7148 21.1934 18.4232 21.6035 17.8398C22.0182 17.2565 22.2256 16.4043 22.2256 15.2832V14.7637ZM25.6777 20V10.0469H28.6172C29.4967 10.0469 30.276 10.2428 30.9551 10.6348C31.6387 11.0267 32.1673 11.5827 32.541 12.3027C32.9147 13.0228 33.1016 13.8477 33.1016 14.7773V15.2764C33.1016 16.2197 32.9124 17.0492 32.5342 17.7646C32.1605 18.4801 31.625 19.0316 30.9277 19.4189C30.235 19.8063 29.4398 20 28.542 20H25.6777ZM27.4072 11.4414V18.6191H28.5352C29.4421 18.6191 30.137 18.3366 30.6201 17.7715C31.1077 17.2018 31.3561 16.3861 31.3652 15.3242V14.7705C31.3652 13.6904 31.1305 12.8656 30.6611 12.2959C30.1917 11.7262 29.5104 11.4414 28.6172 11.4414H27.4072ZM34.8242 20V10.0469H37.7637C38.6432 10.0469 39.4225 10.2428 40.1016 10.6348C40.7852 11.0267 41.3138 11.5827 41.6875 12.3027C42.0612 13.0228 42.248 13.8477 42.248 14.7773V15.2764C42.248 16.2197 42.0589 17.0492 41.6807 17.7646C41.307 18.4801 40.7715 19.0316 40.0742 19.4189C39.3815 19.8063 38.5863 20 37.6885 20H34.8242ZM36.5537 11.4414V18.6191H37.6816C38.5885 18.6191 39.2835 18.3366 39.7666 17.7715C40.2542 17.2018 40.5026 16.3861 40.5117 15.3242V14.7705C40.5117 13.6904 40.277 12.8656 39.8076 12.2959C39.3382 11.7262 38.6569 11.4414 37.7637 11.4414H36.5537Z" fill="#2E92B0"/>
<path d="M49 21.2231H61V23H49V21.2231ZM61 13.2893L55 19.4463L49 13.2893H52.4228V8H57.5772V13.2893H61Z" fill="#2E92B0"/>
</svg>
