<svg width="34" height="43" viewBox="0 0 34 43" fill="none" xmlns="http://www.w3.org/2000/svg">
<rect x="6.93421" y="0.578457" width="21.3043" height="37" rx="2.5" transform="rotate(9.89117 6.93421 0.578457)" fill="white" stroke="#4F4F4F"/>
<rect x="30.7715" y="8.1539" width="1.47826" height="29.5652" rx="0.5" transform="rotate(9.89117 30.7715 8.1539)" fill="#4F4F4F" stroke="#4F4F4F"/>
<rect x="13.454" y="6.74691" width="6.43478" height="4.78261" rx="1.5" transform="rotate(9.89117 13.454 6.74691)" fill="white" stroke="#4F4F4F"/>
<rect x="9.52878" y="28.703" width="6.43478" height="4.78261" rx="1.5" transform="rotate(9.89117 9.52878 28.703)" fill="white" stroke="#4F4F4F"/>
<circle cx="16.2129" cy="9.65525" r="0.73913" transform="rotate(9.89117 16.2129 9.65525)" fill="#4F4F4F" stroke="#4F4F4F"/>
<circle cx="12.2874" cy="31.6114" r="0.73913" transform="rotate(9.89117 12.2874 31.6114)" fill="#4F4F4F" stroke="#4F4F4F"/>
<path d="M17.0184 5.18462C11.81 4.27644 9.48265 1.91401 8.97003 0.846313L26.4669 3.89723C25.4875 4.70477 22.2267 6.0928 17.0184 5.18462Z" fill="#4F4F4F"/>
<path d="M15.1977 16.1743L18.7692 24.0516L9.17088 22.378L15.1977 16.1743Z" fill="#EF4460"/>
</svg>
