<svg width="31" height="25" viewBox="0 0 31 25" fill="none" xmlns="http://www.w3.org/2000/svg">
<g clip-path="url(#clip0)">
<g filter="url(#filter0_d)">
<path d="M26.49 21.4999H5.51999C3.80999 21.4999 2.42999 20.1099 2.42999 18.4099L2.84999 8.50992C2.84999 6.79992 4.23999 5.41992 5.93999 5.41992H26.07C27.78 5.41992 29.16 6.80992 29.16 8.50992L29.58 18.4099C29.58 20.1099 28.19 21.4999 26.49 21.4999Z" fill="white"/>
<path d="M26.49 21.92H5.52C3.58 21.92 2 20.34 2 18.4L2.42 8.47998C2.42 6.55998 4 4.97998 5.93 4.97998H26.06C28 4.97998 29.58 6.55998 29.58 8.49998L30 18.39C30 20.34 28.42 21.92 26.49 21.92ZM5.94 5.82998C4.47 5.82998 3.27 7.02998 3.27 8.49998L2.85 18.42C2.85 19.88 4.05 21.07 5.52 21.07H26.49C27.96 21.07 29.16 19.87 29.16 18.4L28.74 8.51998C28.74 7.02998 27.54 5.82998 26.07 5.82998H5.94Z" fill="#DB5499"/>
<path d="M11.09 5.40991H10.25V21.4999H11.09V5.40991Z" fill="#DB5499"/>
<path d="M21.75 5.40991H20.91V21.4999H21.75V5.40991Z" fill="#DB5499"/>
<path d="M8.35999 24.0499C9.63577 24.0499 10.67 23.0157 10.67 21.7399C10.67 20.4642 9.63577 19.4299 8.35999 19.4299C7.08421 19.4299 6.04999 20.4642 6.04999 21.7399C6.04999 23.0157 7.08421 24.0499 8.35999 24.0499Z" fill="#DB5499"/>
<path d="M23.64 24.0499C24.9158 24.0499 25.95 23.0157 25.95 21.7399C25.95 20.4642 24.9158 19.4299 23.64 19.4299C22.3642 19.4299 21.33 20.4642 21.33 21.7399C21.33 23.0157 22.3642 24.0499 23.64 24.0499Z" fill="#DB5499"/>
<path d="M22.37 4.05C22.37 4.05 21.85 4 21.33 4C20.81 4 20.29 4.05 20.29 4.05C20.22 4.05 20.16 4.11 20.16 4.18V5.32C20.16 5.39 20.22 5.45 20.29 5.45H22.37C22.44 5.45 22.5 5.39 22.5 5.32V4.18C22.5 4.1 22.44 4.05 22.37 4.05Z" fill="#DB5499"/>
<path d="M11.71 4.05C11.71 4.05 11.19 4 10.67 4C10.15 4 9.63 4.05 9.63 4.05C9.56 4.05 9.5 4.1 9.5 4.18V5.32C9.5 5.39 9.56 5.45 9.63 5.45H11.71C11.78 5.45 11.84 5.39 11.84 5.32V4.18C11.84 4.1 11.78 4.05 11.71 4.05Z" fill="#DB5499"/>
<path d="M29.41 14.8501H21.72H21.33H10.67H2.59001L2.42001 18.5701C2.42001 20.1801 3.81001 21.4901 5.51001 21.4901H10.66H21.32H21.71H26.48C28.19 21.4901 29.57 20.1801 29.57 18.5701L29.41 14.8501Z" fill="#DB5499"/>
</g>
</g>
<defs>
<filter id="filter0_d" x="-1" y="1" width="34" height="26.0499" filterUnits="userSpaceOnUse" color-interpolation-filters="sRGB">
<feFlood flood-opacity="0" result="BackgroundImageFix"/>
<feColorMatrix in="SourceAlpha" type="matrix" values="0 0 0 0 0 0 0 0 0 0 0 0 0 0 0 0 0 0 127 0"/>
<feOffset/>
<feGaussianBlur stdDeviation="1.5"/>
<feColorMatrix type="matrix" values="0 0 0 0 0 0 0 0 0 0 0 0 0 0 0 0 0 0 0.3 0"/>
<feBlend mode="normal" in2="BackgroundImageFix" result="effect1_dropShadow"/>
<feBlend mode="normal" in="SourceGraphic" in2="effect1_dropShadow" result="shape"/>
</filter>
<clipPath id="clip0">
<rect width="31" height="25" fill="white"/>
</clipPath>
</defs>
</svg>
