<svg width="13" height="13" viewBox="0 0 13 13" fill="none" xmlns="http://www.w3.org/2000/svg">
<rect width="13" height="12.6927" rx="3" fill="#E61773"/>
<path d="M10.6958 7.48066H10.4217V3.46191C10.4217 2.48069 9.55311 1.68421 8.48433 1.68421H6.94123V1.52673C6.94123 1.42073 6.84882 1.33594 6.73486 1.33594H6.25745C6.14349 1.33594 6.05109 1.42073 6.05109 1.52673V1.68421H4.50799C3.43921 1.68421 2.57064 2.48069 2.57064 3.46191V7.48066H2.29959C2.13635 7.48066 2.00391 7.6018 2.00391 7.75322V7.9531C2.00391 8.10149 2.13635 8.22263 2.29959 8.22263H2.57372V9.56726C2.57372 10.0548 2.88788 10.4728 3.33757 10.6696V10.9876C3.33757 11.2056 3.53161 11.3843 3.77185 11.3843H3.83038C4.07062 11.3843 4.26466 11.2056 4.26466 10.9876V10.7908H8.73689V10.9876C8.73689 11.2056 8.93094 11.3843 9.17118 11.3843H9.2297C9.46995 11.3843 9.66399 11.2056 9.66399 10.9876V10.6696C10.1168 10.4728 10.4278 10.0548 10.4278 9.56726V8.22263H10.702C10.8652 8.22263 10.9946 8.10149 10.9946 7.9531V7.75322C10.9915 7.6018 10.856 7.48066 10.6958 7.48066ZM4.78827 2.44435H8.20405C8.8755 2.44435 9.41759 2.95616 9.41759 3.58305V7.37466H3.57473V3.58607C3.57473 2.95616 4.1199 2.44435 4.78827 2.44435ZM3.79958 9.15842C3.52545 9.15842 3.30677 8.95551 3.30677 8.70415C3.30677 8.45279 3.52853 8.24988 3.79958 8.24988C4.0737 8.24988 4.29238 8.45279 4.29238 8.70415C4.29546 8.95248 4.0737 9.15842 3.79958 9.15842ZM9.19582 9.15842C8.9217 9.15842 8.70301 8.95551 8.70301 8.70415C8.70301 8.45279 8.92478 8.24988 9.19582 8.24988C9.46687 8.24988 9.68863 8.45279 9.68863 8.70415C9.68863 8.95248 9.46687 9.15842 9.19582 9.15842Z" fill="white"/>
</svg>
