<svg width="41" height="41" viewBox="0 0 41 41" fill="none" xmlns="http://www.w3.org/2000/svg">
<g filter="url(#filter0_d)">
<circle cx="20.5" cy="18.5" r="16.5" fill="white"/>
</g>
<path d="M29.3826 12.2389H23.4974C22.9054 12.2389 22.4186 12.7218 22.4186 13.3092V26.1179C22.4186 26.7053 22.9054 27.1882 23.4974 27.1882H29.3826C29.9746 27.1882 30.4614 26.7053 30.4614 26.1179V13.3092C30.4614 12.7218 29.9746 12.2389 29.3826 12.2389ZM26.7294 23.5336H23.3702V22.9984H26.7294V23.5336ZM26.7294 22.4502H23.3702V21.9151H26.7294V22.4502ZM29.3124 20.91H23.5632V13.7051H29.3124V20.91Z" fill="#DB5499"/>
<path d="M31.9744 14.7231C32.4086 14.2662 32.6761 13.6571 32.6761 12.9828C32.6804 11.5818 31.5315 10.4419 30.1194 10.4419C28.7073 10.4419 27.5627 11.5818 27.5627 12.9784C27.5627 13.6528 27.8302 14.2662 28.2644 14.7187C27.5452 15.2713 27.0759 16.1327 27.0759 17.103V21.519C27.0759 22.5284 27.6022 23.4682 28.431 24.0251V26.4659C28.431 27.3621 29.1678 28.0931 30.0711 28.0931C30.9745 28.0931 31.7113 27.3621 31.7113 26.4659V24.0903C32.6015 23.5508 33.1628 22.585 33.1628 21.519V17.1073C33.1628 16.1371 32.698 15.2756 31.9744 14.7231ZM28.4749 12.9784C28.4749 12.0778 29.2116 11.3469 30.1194 11.3469C31.0272 11.3469 31.7639 12.0778 31.7639 12.9784C31.7639 13.5005 31.5095 13.9617 31.1236 14.2619C30.8079 14.1531 30.4702 14.0879 30.1194 14.0879C29.7686 14.0879 29.4309 14.1488 29.1151 14.2619C28.7292 13.966 28.4749 13.5049 28.4749 12.9784ZM32.2507 21.5234C32.2507 22.4501 31.6411 23.2419 30.7991 23.5247V26.4702C30.7991 26.8661 30.4746 27.1924 30.0711 27.1924C29.6721 27.1924 29.3432 26.8705 29.3432 26.4702V23.4899C28.5538 23.181 27.9881 22.4153 27.9881 21.5234V17.1073C27.9881 16.3285 28.4179 15.6498 29.0537 15.2843C29.3783 15.4323 29.7379 15.5193 30.1194 15.5193C30.5009 15.5193 30.8605 15.4323 31.185 15.2843C31.8209 15.6498 32.2507 16.3329 32.2507 17.1073V21.5234Z" fill="white"/>
<path d="M30.1193 14.9973C28.9484 14.9973 27.9924 15.9457 27.9924 17.1074V21.5235C27.9924 22.4154 28.5581 23.1811 29.3475 23.49V26.4703C29.3475 26.8662 29.672 27.1882 30.0755 27.1882C30.4746 27.1882 30.7991 26.8662 30.7991 26.4703V23.5248C31.6411 23.242 32.2506 22.4502 32.2506 21.5235V17.1074C32.2506 15.9457 31.2902 14.9973 30.1193 14.9973Z" fill="#DB5499"/>
<path d="M30.1192 14.61C31.0275 14.61 31.7638 13.8795 31.7638 12.9784C31.7638 12.0773 31.0275 11.3469 30.1192 11.3469C29.211 11.3469 28.4747 12.0773 28.4747 12.9784C28.4747 13.8795 29.211 14.61 30.1192 14.61Z" fill="#DB5499"/>
<path d="M21.195 20.9019H20.7751V12.4083C20.7751 10.7944 19.4389 9.48194 17.796 9.48194H15.4264V9.22024C15.4264 9.04577 15.2851 8.90698 15.1115 8.90698H14.3768C14.2032 8.90698 14.0579 9.04577 14.0579 9.22024V9.48194H11.6883C10.0453 9.48194 8.70911 10.7944 8.70911 12.4083V20.9058H8.28928C8.039 20.9019 7.83716 21.1041 7.83716 21.3499V21.4094C7.83716 21.6553 8.039 21.8535 8.28928 21.8535H8.70911V24.3358C8.70911 25.1368 9.19353 25.8267 9.88382 26.1519V26.6753C9.88382 27.0361 10.1825 27.3295 10.5499 27.3295H10.6387C11.0061 27.3295 11.3048 27.0361 11.3048 26.6753V26.3501H18.1795V26.6753C18.1795 27.0361 18.4782 27.3295 18.8455 27.3295H18.9343C19.3017 27.3295 19.6004 27.0361 19.6004 26.6753V26.1519C20.2947 25.8267 20.7751 25.1407 20.7751 24.3358V21.8535H21.195C21.4452 21.8535 21.6471 21.6553 21.6471 21.4094V21.3499C21.6511 21.1041 21.4452 20.9019 21.195 20.9019ZM11.6883 10.275H17.796C18.9949 10.275 19.9678 11.2306 19.9678 12.4083V21.3817H9.51647V12.4083C9.51647 11.2306 10.4934 10.275 11.6883 10.275ZM10.5983 23.6657C10.1785 23.6657 9.83941 23.3326 9.83941 22.9202C9.83941 22.5078 10.1785 22.1747 10.5983 22.1747C11.0182 22.1747 11.3573 22.5078 11.3573 22.9202C11.3573 23.3286 11.0182 23.6657 10.5983 23.6657ZM18.8899 23.6657C18.4701 23.6657 18.131 23.3326 18.131 22.9202C18.131 22.5078 18.4701 22.1747 18.8899 22.1747C19.3098 22.1747 19.6489 22.5078 19.6489 22.9202C19.6489 23.3286 19.3098 23.6657 18.8899 23.6657Z" fill="#DB5499"/>
<defs>
<filter id="filter0_d" x="0" y="0" width="41" height="41" filterUnits="userSpaceOnUse" color-interpolation-filters="sRGB">
<feFlood flood-opacity="0" result="BackgroundImageFix"/>
<feColorMatrix in="SourceAlpha" type="matrix" values="0 0 0 0 0 0 0 0 0 0 0 0 0 0 0 0 0 0 127 0"/>
<feOffset dy="2"/>
<feGaussianBlur stdDeviation="2"/>
<feColorMatrix type="matrix" values="0 0 0 0 0 0 0 0 0 0 0 0 0 0 0 0 0 0 0.15 0"/>
<feBlend mode="normal" in2="BackgroundImageFix" result="effect1_dropShadow"/>
<feBlend mode="normal" in="SourceGraphic" in2="effect1_dropShadow" result="shape"/>
</filter>
</defs>
</svg>
