<svg width="16" height="12" viewBox="0 0 16 12" fill="none" xmlns="http://www.w3.org/2000/svg">
<path d="M12.6391 0.00441759C12.3417 -0.0190607 12.0287 0.0513739 11.7391 0.207896L4.96957 4.12094C4.21826 4.5592 3.96783 5.52963 4.39826 6.26529L5.57217 8.29224C5.67367 8.47133 5.80967 8.62851 5.9723 8.75471C6.13492 8.88091 6.32095 8.97362 6.51963 9.02747C6.71831 9.08133 6.9257 9.09526 7.12979 9.06847C7.33389 9.04167 7.53065 8.97468 7.7087 8.87137L9.11739 8.05746C9.3287 8.41746 9.64174 8.70703 10.0252 8.87137V10.2566C10.0252 11.1096 10.7217 11.7905 11.5904 11.7905H15.6522V10.2566H11.5904V8.87137C11.9368 8.72024 12.2319 8.47205 12.4402 8.1568C12.6486 7.84154 12.7611 7.4727 12.7643 7.09485C12.7643 6.73485 12.6704 6.39833 12.4983 6.10094L14.4783 4.95833C15.2374 4.52007 15.4957 3.57311 15.0574 2.81398L13.8835 0.787026C13.6174 0.317461 13.14 0.0513741 12.6391 0.00441759ZM3.30261 6.44529L0 6.99311L0.586957 8.0105L2.15217 10.7183L2.73913 11.7357L4.86783 9.15311L3.30261 6.44529Z" fill="#333333"/>
</svg>
