<svg width="12" height="12" viewBox="0 0 12 12" fill="none" xmlns="http://www.w3.org/2000/svg">
<path d="M5.994 0C2.682 0 0 2.62893 0 5.86814C0 9.10736 2.682 11.7363 5.994 11.7363C9.312 11.7363 12 9.10736 12 5.86814C12 2.62893 9.312 0 5.994 0ZM6 10.5627C3.348 10.5627 1.2 8.46186 1.2 5.86814C1.2 3.27442 3.348 1.17363 6 1.17363C8.652 1.17363 10.8 3.27442 10.8 5.86814C10.8 8.46186 8.652 10.5627 6 10.5627Z" fill="#333333"/>
<path d="M6.30003 2.93408H5.40002V6.45498L8.55003 8.30345L9.00003 7.58167L6.30003 6.01487V2.93408Z" fill="#333333"/>
</svg>
