<svg width="27" height="24" viewBox="0 0 27 24" fill="none" xmlns="http://www.w3.org/2000/svg">
<path d="M12.4 16V12.8235H14.6V16H17.35V11.7647H19L13.5 7L8 11.7647H9.65V16H12.4Z" fill="#333333"/>
<path d="M23.6977 12.4135L23.6712 12.4135L19.8669 14.8576C19.726 14.9462 19.6336 15.0702 19.5895 15.2296C19.5455 15.389 19.5675 15.5484 19.6556 15.7078L19.7877 15.9203C19.8581 16.062 19.9814 16.1372 20.1575 16.1461C20.3337 16.155 20.4922 16.1151 20.6331 16.0266L23.0636 14.4591C23.046 14.4945 23.0328 14.5388 23.024 14.592C23.0152 14.6451 23.0064 14.6938 22.9976 14.7381C22.9888 14.7824 22.9755 14.8222 22.9579 14.8576C22.729 15.7786 22.3767 16.642 21.9012 17.4479C21.4256 18.2537 20.8488 18.9754 20.1707 19.613C19.4927 20.2506 18.7397 20.7908 17.9119 21.2336C15.4638 22.5088 12.9276 22.7213 10.3033 21.8712C9.66928 21.6764 9.06605 21.4151 8.49364 21.0875C7.92123 20.7598 7.38845 20.3835 6.8953 19.9584C6.40215 19.5333 5.95303 19.0596 5.54795 18.5371C5.14286 18.0146 4.7818 17.4523 4.46477 16.8501C4.3591 16.6553 4.20059 16.5225 3.98924 16.4516C3.77789 16.3808 3.57094 16.3985 3.3684 16.5048C3.16585 16.611 3.02935 16.7704 2.9589 16.983C2.88845 17.1955 2.90607 17.3992 3.01174 17.594C3.73386 18.9932 4.68053 20.2019 5.85176 21.2203C7.02299 22.2387 8.33953 22.9781 9.80137 23.4386C11.2808 23.9168 12.7823 24.0895 14.3058 23.9567C15.8293 23.8239 17.2779 23.4032 18.6517 22.6948C20.1135 21.9332 21.3596 20.906 22.3899 19.613C23.4203 18.3201 24.138 16.8767 24.5431 15.2827C24.5607 15.265 24.5695 15.2473 24.5695 15.2296L24.5695 15.1764L25.6791 17.3283C25.7495 17.47 25.864 17.563 26.0225 17.6073C26.181 17.6515 26.3307 17.6294 26.4716 17.5409L26.683 17.4612C27 17.2663 27.0793 17.0095 26.9207 16.6907L24.8865 12.7323L24.7544 12.4666C24.6663 12.3249 24.5431 12.232 24.3845 12.1877C24.226 12.1434 24.0763 12.1655 23.9354 12.2541L23.6977 12.4135ZM8.42759 1.33523C6.96575 2.0968 5.71967 3.11076 4.68933 4.3771C3.659 5.64344 2.94129 7.07361 2.5362 8.66761C2.48337 8.82701 2.43053 9.05725 2.37769 9.35834L1.32094 7.23301C1.23288 7.07361 1.10959 6.96735 0.951076 6.91421C0.792563 6.86108 0.642856 6.86994 0.501956 6.94078L0.290606 7.02048C0.202543 7.07361 0.132093 7.14888 0.0792556 7.2463C0.0264181 7.34371 -7.23618e-07 7.44555 -7.18973e-07 7.55181C-7.14328e-07 7.65808 0.0176118 7.76434 0.0528369 7.87061L2.08708 11.829L2.21918 12.0947C2.30724 12.2541 2.43053 12.3515 2.58904 12.3869C2.74755 12.4224 2.89726 12.3958 3.03816 12.3072L3.30235 12.1744L3.30235 12.1478L7.10665 9.70371C7.24755 9.61515 7.34002 9.49117 7.38405 9.33177C7.42808 9.17237 7.40607 9.02183 7.318 8.88014L7.18591 8.66761C7.11546 8.52592 6.99217 8.44622 6.81605 8.42851C6.63992 8.4108 6.48141 8.44622 6.34051 8.53477L3.90998 10.1022C3.96282 9.71256 4.03327 9.37605 4.12133 9.09267C4.22701 8.70303 4.35029 8.32224 4.49119 7.95031C4.63209 7.57838 4.79941 7.21973 4.99315 6.87436C5.18689 6.529 5.39824 6.19691 5.6272 5.87811C5.85616 5.55932 6.10274 5.2538 6.36693 4.96157C6.63112 4.66934 6.91292 4.39481 7.21233 4.138C7.51174 3.88119 7.82436 3.64209 8.1502 3.42071C8.47603 3.19932 8.81507 2.99121 9.16732 2.79639C11.6155 1.52119 14.1517 1.30866 16.7759 2.15879C18.044 2.56614 19.18 3.19489 20.184 4.04502C21.1879 4.89515 21.998 5.91354 22.6145 7.10018C22.7202 7.295 22.8787 7.42783 23.09 7.49868C23.3014 7.56952 23.5127 7.55181 23.7241 7.44554C24.0235 7.30385 24.1732 7.06476 24.1732 6.72825C24.1732 6.58656 24.138 6.45372 24.0675 6.32975C23.363 4.94828 22.4251 3.76164 21.2539 2.76982C20.0827 1.778 18.7573 1.05185 17.2779 0.591361C14.3366 -0.365037 11.4746 -0.161358 8.69178 1.20239L8.42759 1.33523Z" fill="#333333"/>
</svg>
