<svg width="15" height="12" viewBox="0 0 15 12" fill="none" xmlns="http://www.w3.org/2000/svg">
<path fill-rule="evenodd" clip-rule="evenodd" d="M2 10H13V12H2V10Z" fill="white"/>
<path fill-rule="evenodd" clip-rule="evenodd" d="M12 9H3V7.667C3 5.826 3.75 3 7.5 3C11.25 3 12 5.826 12 7.667V9Z" fill="white"/>
<path fill-rule="evenodd" clip-rule="evenodd" d="M7 0H8V2H7V0Z" fill="white"/>
<path fill-rule="evenodd" clip-rule="evenodd" d="M2.59698 1.44006L3.30398 0.732056L4.71798 2.14606L4.01099 2.85306L2.59698 1.44006Z" fill="white"/>
<path fill-rule="evenodd" clip-rule="evenodd" d="M13.01 1.14697L13.717 1.85397L12.303 3.26797L11.596 2.56097L13.01 1.14697Z" fill="white"/>
<path fill-rule="evenodd" clip-rule="evenodd" d="M13 6H15V7H13V6Z" fill="white"/>
<path fill-rule="evenodd" clip-rule="evenodd" d="M0 6H1.75V7H0V6Z" fill="white"/>
</svg>
