<svg width="34" height="55" viewBox="0 0 34 55" fill="none" xmlns="http://www.w3.org/2000/svg">
<g clip-path="url(#clip0)">
<path d="M20.3248 3.15843C25.5724 3.93229 28.4466 4.99879 28.4466 4.99879C31.925 6.36873 32.2821 10.8338 32.2821 10.8338C32.4724 12.2969 31.2229 14.9189 31.2229 14.9189L30.1787 20.4492L27.7119 37.1768L27.1152 42.7731C27.1152 42.7731 27.5547 45.6438 26.9501 46.99C26.9501 46.99 25.3193 51.162 21.5935 51.4695C21.5935 51.4695 18.4804 51.6531 13.2333 50.8793L13.2657 50.884C8.01812 50.1102 5.09092 49.0359 5.09092 49.0359C1.61173 47.6654 1.25507 43.2004 1.25507 43.2004C1.06478 41.7373 2.19114 39.0971 2.19114 39.0971L3.23531 33.5668L5.8253 16.8574L6.42191 11.2615C6.42191 11.2615 5.9824 8.39083 6.58698 7.04455C6.58698 7.04455 8.21776 2.87261 11.9436 2.56508C11.9436 2.56508 15.0357 2.37845 20.2833 3.15231L20.3248 3.15843Z" fill="white"/>
<path d="M13.2503 50.9862L13.2179 50.9814C8.04003 50.2153 5.08393 49.1434 5.05487 49.1329C3.22125 48.4111 2.25789 46.837 1.77242 45.6433C1.25571 44.3741 1.1581 43.2867 1.15204 43.2111C0.965885 41.7684 2.00296 39.2757 2.09164 39.0669L3.13376 33.5476L5.72291 16.8439L6.3181 11.2633C6.28227 11.0227 5.89835 8.32972 6.49193 7.00405C6.51948 6.93387 6.92689 5.92052 7.78797 4.85452C8.5977 3.85227 9.97444 2.62322 11.9358 2.46153C11.9693 2.45933 15.101 2.28316 20.2989 3.04969L20.3404 3.05581C25.5387 3.8224 28.4542 4.89079 28.4829 4.90131C30.3161 5.623 31.2794 7.19715 31.7654 8.39048C32.2821 9.65966 32.3797 10.7471 32.3858 10.8226C32.5717 12.2637 31.4264 14.7307 31.3227 14.9508L30.2816 20.466L27.8154 37.1895L27.2201 42.7705C27.2559 43.0111 27.6399 45.7037 27.0463 47.0298C27.0187 47.0999 26.6113 48.1133 25.7502 49.1793C24.9405 50.1815 23.5638 51.4106 21.6024 51.5723C21.5685 51.5744 18.4289 51.7469 13.2503 50.9862ZM20.2683 3.2549C15.0938 2.49182 11.9807 2.66655 11.9502 2.66876C10.066 2.82423 8.73613 4.01153 7.95267 4.98074C7.09797 6.03761 6.68788 7.07196 6.68384 7.08227L6.68188 7.08702C6.0968 8.38919 6.52037 11.2172 6.525 11.2456L6.52723 11.2589L6.5257 11.2721L5.9283 16.8733L3.33831 33.5828L2.29161 39.1274L2.28669 39.138C2.27572 39.1641 1.17346 41.7688 1.35779 43.1869L1.3583 43.192C1.35919 43.2031 1.45318 44.3122 1.96648 45.5704C2.43728 46.7241 3.36778 48.2452 5.1284 48.9386C5.15547 48.9484 8.09974 50.0152 13.2642 50.7781C18.429 51.5385 21.5563 51.3671 21.5872 51.3649C23.4709 51.2094 24.8008 50.0221 25.5843 49.0529C26.439 47.996 26.8491 46.9617 26.8531 46.9514L26.8551 46.9466C27.4402 45.644 27.0166 42.8164 27.012 42.788L27.0097 42.7747L27.0113 42.7615L27.6086 37.1611L30.076 20.4294L31.1225 14.886L31.1285 14.8739C31.1407 14.848 32.363 12.2627 32.1787 10.847L32.1782 10.8419C32.1773 10.8309 32.0833 9.72179 31.57 8.46361C31.0992 7.30984 30.1687 5.78878 28.4081 5.0954C28.3814 5.0856 25.4833 4.02439 20.3093 3.26137L20.2682 3.25531L20.2683 3.2549Z" fill="#808080"/>
<path d="M15.2427 37.0432C17.896 37.4344 20.4758 38.0603 22.9124 38.9032C23.4359 39.5061 24.5945 41.0448 24.686 42.1309C24.6869 42.2359 24.6827 43.1292 24.3817 44.3621C24.0974 45.5274 23.4833 47.2397 22.1665 48.8564C21.3948 48.8978 18.1119 49.0152 13.6382 48.3555C9.16452 47.6957 6.0549 46.6352 5.32841 46.3733C4.53427 44.4453 4.44059 42.6286 4.50481 41.4308C4.57275 40.1623 4.82711 39.3051 4.85754 39.2068C5.25873 38.1929 6.82049 37.0491 7.49292 36.6251C8.06471 36.5878 11.1122 36.434 15.2427 37.0432ZM15.3032 36.6326C10.6247 35.9427 7.36165 36.2182 7.36165 36.2182C7.36165 36.2182 5.01979 37.6401 4.46642 39.0686C4.46642 39.0686 3.28576 42.6857 5.01636 46.7002C5.01636 46.7002 8.35556 47.9959 13.5781 48.7661C18.8006 49.5362 22.3717 49.2596 22.3717 49.2596C25.1875 45.9155 25.1012 42.1116 25.1012 42.1116C24.9837 40.5842 23.152 38.5468 23.152 38.5468C20.3359 37.564 17.6425 36.9776 15.3032 36.6326Z" fill="#808080"/>
<path d="M19.9252 5.72457C24.3607 6.37868 27.4541 7.42674 28.2094 7.69836C28.9935 9.61185 29.0868 11.4138 29.0231 12.6029C28.9559 13.8631 28.7039 14.7157 28.6725 14.818C28.2773 15.8138 26.7453 16.9407 26.0689 17.3691C23.4987 17.472 20.8544 17.3262 18.2077 16.9359C14.1047 16.3308 11.2442 15.3133 10.6855 15.1051C10.164 14.503 9.01585 12.9759 8.92455 11.9053C8.92314 11.6845 8.94589 8.27333 11.4231 5.22247C12.2258 5.18102 15.4897 5.07047 19.9252 5.72457ZM19.9918 5.27297C14.7692 4.50281 11.1982 4.77947 11.1982 4.77947C8.3824 8.12354 8.46868 11.9275 8.46868 11.9275C8.58614 13.4549 10.4179 15.4922 10.4179 15.4922C10.4179 15.4922 13.4624 16.698 18.141 17.3879C20.4803 17.7329 23.2283 17.9489 26.2078 17.8208C26.2078 17.8208 28.5497 16.3989 29.103 14.9704C29.103 14.9704 30.2837 11.3533 28.5531 7.33881C28.5535 7.33887 25.2143 6.04314 19.9918 5.27297Z" fill="#808080"/>
<path d="M7.53035 9.33308C7.37359 9.90394 7.28272 10.3125 7.27314 10.3547L7.27164 10.3621L7.27055 10.3695L6.46835 15.8092L6.96458 11.4145C7.07142 10.6929 7.27814 9.98801 7.53035 9.33308ZM3.1131 36.9797L2.64098 40.1811L2.64007 40.1873L2.63957 40.1935C2.63883 40.2014 2.63704 40.2221 2.63437 40.2544C2.64824 39.8731 2.6808 39.4873 2.73716 39.1051L3.1131 36.9797ZM9.30139 5.72042C9.17816 5.85914 9.0592 6.02868 8.94489 6.22072C9.16101 5.90149 9.30139 5.72042 9.30139 5.72042ZM8.94489 6.22072C8.32481 7.13727 7.08271 9.19408 6.75929 11.3872L6.13622 16.9037L3.49942 33.6062L2.53272 39.072C2.2093 41.2651 2.66111 43.5718 2.91631 44.6174C2.60395 42.9866 2.8466 40.2119 2.8466 40.2119L3.81396 33.6522L6.50905 16.9582L7.47629 10.3994C7.47588 10.3993 8.07488 7.67718 8.94489 6.22072ZM2.91637 44.617C2.95731 44.8315 3.00831 45.0261 3.07018 45.1925C3.07018 45.1925 3.00528 44.9812 2.91637 44.617Z" fill="#808080"/>
<path d="M30.7187 12.7526C30.7711 13.4528 30.7655 14.1874 30.6592 14.9083L29.8658 19.2591L30.668 13.8194L30.669 13.812L30.6697 13.8045C30.6731 13.7614 30.704 13.3444 30.7187 12.7526ZM27.0691 38.2259L26.5729 42.6205C26.4662 43.3413 26.2599 44.0463 26.0076 44.7016C26.1644 44.1307 26.2552 43.7226 26.2648 43.6799L26.2663 43.6726L26.2674 43.6652L27.0695 38.2259L27.0691 38.2259ZM30.0659 8.78247C30.0659 8.78247 30.1485 8.99641 30.2628 9.36437C30.2083 9.14786 30.1434 8.95079 30.0659 8.78247ZM30.2628 9.36437C30.6754 11.01 30.4631 13.7891 30.4631 13.7891L29.4958 20.3484L27.029 37.076L26.0617 43.6353C26.0617 43.6353 25.4627 46.3574 24.5927 47.8139C25.2127 46.8974 26.4548 44.8405 26.7783 42.6474L27.4013 37.1309L29.8682 20.4033L30.864 14.9418C31.1874 12.7487 30.5919 10.4209 30.2628 9.36437ZM24.5927 47.8135C24.3766 48.1327 24.2362 48.3138 24.2362 48.3138C24.359 48.175 24.4781 48.0051 24.5927 47.8135Z" fill="#808080"/>
<path d="M24.014 20.4025C24.0353 20.4056 24.0521 20.4283 24.049 20.4496L23.0904 26.9498C23.0873 26.9711 23.0646 26.9879 23.0433 26.9848L10.8863 25.192C10.8649 25.1888 10.8481 25.1662 10.8513 25.1448L11.8099 18.6447C11.813 18.6234 11.8356 18.6066 11.857 18.6097L24.014 20.4025ZM24.0806 19.9509L11.9236 18.1581C11.6526 18.1181 11.3982 18.3071 11.3583 18.5781L10.3997 25.0783C10.3597 25.3492 10.5487 25.6036 10.8197 25.6436L22.9767 27.4364C23.2477 27.4763 23.502 27.2873 23.542 27.0164L24.5006 20.5162C24.5405 20.2452 24.3515 19.9909 24.0806 19.9509Z" fill="#808080"/>
<path d="M24.8682 43.9657L4.10864 40.9043L4.26364 44.723L23.6454 47.5812L24.8682 43.9657Z" fill="#333333"/>
<path d="M4.38895 40.459C4.49505 39.6827 4.64545 39.1918 4.66218 39.1381C5.14793 37.8951 7.11694 36.6179 7.42816 36.4218C7.85203 36.392 10.9815 36.2054 15.2734 36.8384C17.9583 37.2343 20.5682 37.8692 23.0322 38.7254C23.2811 39.0117 24.7877 40.796 24.8937 42.1221C24.8943 42.1779 24.8966 42.6913 24.774 43.4656L4.38889 40.4594L4.38895 40.459Z" fill="#999999"/>
<path d="M15.2428 37.0431C17.8961 37.4344 20.4759 38.0603 22.9125 38.9032C23.436 39.506 24.5946 41.0448 24.6861 42.1309C24.6864 42.2001 24.6852 42.6094 24.5991 43.2297L4.62413 40.2839C4.72095 39.6644 4.83799 39.2718 4.85806 39.2068C5.25925 38.193 6.82101 37.0491 7.49344 36.6252C8.06523 36.5879 11.1123 36.434 15.2428 37.0431ZM15.3033 36.6326C10.6248 35.9426 7.36176 36.2182 7.36176 36.2182C7.36176 36.2182 5.0199 37.6401 4.46653 39.0685C4.46653 39.0685 4.27294 39.6617 4.15756 40.6346L24.945 43.7001C25.1154 42.7357 25.1013 42.1116 25.1013 42.1116C24.9838 40.5841 23.1521 38.5468 23.1521 38.5468C20.336 37.5639 17.6426 36.9776 15.3033 36.6326Z" fill="#808080"/>
<path d="M18.1814 17.1148C13.89 16.482 10.9476 15.4 10.5499 15.249C10.3086 14.9714 8.79247 13.1803 8.6858 11.8499C8.68523 11.794 8.68291 11.2807 8.80555 10.506L29.1903 13.5121C29.0842 14.2884 28.9338 14.7792 28.917 14.8334C28.4327 16.0724 26.4747 17.3458 26.1542 17.5477C23.5484 17.6563 20.866 17.5107 18.1814 17.1148Z" fill="#999999"/>
<path d="M28.9557 13.6873C28.8588 14.3068 28.7418 14.6994 28.7217 14.7644C28.3214 15.7754 26.7672 16.9162 26.0919 17.3426C23.5157 17.4464 20.8651 17.3009 18.2118 16.9096C14.0809 16.3004 11.2079 15.2735 10.6716 15.0732C10.1502 14.4732 8.98551 12.9273 8.89365 11.8407C8.89337 11.7715 8.89458 11.3623 8.9806 10.742L28.9556 13.6877L28.9557 13.6873ZM29.4222 13.3366L8.63476 10.2711C8.46444 11.2355 8.47852 11.8596 8.47852 11.8596C8.59598 13.3871 10.4277 15.4244 10.4277 15.4244C10.4277 15.4244 13.4723 16.6301 18.1508 17.3201C20.4901 17.6651 23.2381 17.8811 26.2176 17.753C26.2176 17.753 28.5595 16.3311 29.1129 14.9026C29.1133 14.9027 29.3069 14.3091 29.4222 13.3366Z" fill="#808080"/>
<path d="M14.3537 51.0441C14.2632 51.6579 13.6923 52.0817 13.0789 51.9912C12.4652 51.9007 12.0414 51.3298 12.1318 50.7164L14.3537 51.0441Z" fill="white"/>
<path d="M13.0639 52.0938C12.3947 51.9951 11.9306 51.3705 12.0293 50.7013L12.0444 50.5986L14.472 50.9566L14.4568 51.0593C14.3577 51.7284 13.7331 52.1925 13.0639 52.0938ZM12.2244 50.8349C12.2011 51.3508 12.5728 51.8116 13.0942 51.8885C13.6156 51.9654 14.1045 51.6311 14.2311 51.1308L12.2244 50.8349Z" fill="#808080"/>
<path d="M29.3865 13.3884L8.62652 10.3269L9.87717 6.71595L29.2589 9.57419L29.3865 13.3884Z" fill="#333333"/>
<path d="M21.394 3.30395C21.4845 2.69019 21.0602 2.11964 20.4469 2.02919C19.8331 1.93867 19.2626 2.36294 19.1721 2.97629L21.394 3.30395Z" fill="white"/>
<path d="M21.4815 3.42175L19.0539 3.06376L19.0691 2.96113C19.1678 2.29194 19.7924 1.82784 20.4616 1.92652C21.1308 2.02521 21.5949 2.64987 21.4962 3.31906L21.4811 3.42169L21.4815 3.42175ZM19.2948 2.88955L21.3016 3.18548C21.3247 2.67001 20.9531 2.20875 20.4318 2.13186C19.9104 2.05497 19.4214 2.38933 19.2948 2.88955Z" fill="#808080"/>
<path d="M19.2062 10.5998C19.5245 10.6467 19.8207 10.4267 19.8676 10.1083C19.9146 9.79001 19.6946 9.49389 19.3762 9.44694C19.0579 9.4 18.7617 9.62 18.7148 9.93834C18.6679 10.2567 18.8879 10.5528 19.2062 10.5998Z" fill="white"/>
<path d="M14.1891 44.6211C14.5075 44.6681 14.8036 44.448 14.8505 44.1297C14.8975 43.8114 14.6775 43.5152 14.3591 43.4683C14.0408 43.4214 13.7447 43.6414 13.6977 43.9597C13.6508 44.278 13.8708 44.5742 14.1891 44.6211Z" fill="white"/>
<path d="M22.803 28.6134C22.8244 28.6166 22.8412 28.6392 22.838 28.6605L21.8795 35.1607C21.8763 35.1821 21.8537 35.1989 21.8324 35.1957L9.67534 33.4029C9.65399 33.3998 9.63719 33.3771 9.64034 33.3558L10.5989 26.8556C10.6021 26.8343 10.6247 26.8175 10.646 26.8206L22.803 28.6134ZM22.8696 28.1618L10.7126 26.369C10.4417 26.3291 10.1873 26.5181 10.1473 26.789L9.18874 33.2892C9.14878 33.5602 9.33778 33.8145 9.60874 33.8545L21.7658 35.6473C22.0367 35.6873 22.2911 35.4983 22.3311 35.2273L23.2896 28.7271C23.3296 28.4562 23.1406 28.2018 22.8696 28.1618Z" fill="#808080"/>
<path d="M15.1465 24.1956C16.0861 24.3342 16.9601 23.6848 17.0987 22.7452C17.2373 21.8056 16.5879 20.9316 15.6483 20.793C14.7087 20.6544 13.8347 21.3038 13.6961 22.2434C13.5576 23.183 14.2069 24.057 15.1465 24.1956Z" fill="#333333"/>
<path d="M13.9417 32.3654C14.8813 32.504 15.7553 31.8546 15.8939 30.915C16.0324 29.9754 15.3831 29.1014 14.4435 28.9628C13.5039 28.8242 12.6299 29.4736 12.4913 30.4132C12.3527 31.3528 13.0021 32.2268 13.9417 32.3654Z" fill="#333333"/>
</g>
<defs>
<clipPath id="clip0">
<rect x="7.39819" width="26.41" height="50.7098" transform="rotate(8.38897 7.39819 0)" fill="white"/>
</clipPath>
</defs>
</svg>
