<?xml version="1.0" encoding="utf-8"?>
<!-- Generator: Adobe Illustrator 24.0.1, SVG Export Plug-In . SVG Version: 6.00 Build 0)  -->
<svg version="1.1" id="Layer_1" xmlns="http://www.w3.org/2000/svg" xmlns:xlink="http://www.w3.org/1999/xlink" x="0px" y="0px"
	 viewBox="0 0 53 83" style="enable-background:new 0 0 53 83;" xml:space="preserve">
<style type="text/css">
	.st0{fill-rule:evenodd;clip-rule:evenodd;fill:#666666;}
	.st1{fill-rule:evenodd;clip-rule:evenodd;fill:#FFFFFF;}
	.st2{fill:#2DB34A;}
	.st3{opacity:0;fill-rule:evenodd;clip-rule:evenodd;fill:#FFFFFF;}
	.st4{opacity:0.0167;fill-rule:evenodd;clip-rule:evenodd;fill:#E3E3E3;}
	.st5{opacity:0.0333;fill-rule:evenodd;clip-rule:evenodd;fill:#C8C7C6;}
	.st6{opacity:0.05;fill-rule:evenodd;clip-rule:evenodd;fill:#ADADAD;}
	.st7{opacity:0.0667;fill-rule:evenodd;clip-rule:evenodd;fill:#908F8F;}
	.st8{opacity:0.0833;fill-rule:evenodd;clip-rule:evenodd;fill:#747474;}
	.st9{opacity:0.1;fill-rule:evenodd;clip-rule:evenodd;fill:#565656;}
	.st10{opacity:0.1167;fill-rule:evenodd;clip-rule:evenodd;fill:#373737;}
	.st11{opacity:0.1333;fill-rule:evenodd;clip-rule:evenodd;fill:#191918;}
	.st12{opacity:0.15;fill-rule:evenodd;clip-rule:evenodd;fill:#010101;}
</style>
<g>
	<g>
		<path class="st0" d="M26.5,0C41.14,0,53,11.87,53,26.5c0,14.05-11.33,21.58-18.75,32.1c-3.04,4.31-5.68,8.85-7.75,13.94
			c-2.07-5.09-4.71-9.63-7.75-13.94C11.39,48.16,0,40.44,0,26.5C0,11.87,11.87,0,26.5,0L26.5,0z"/>
		<path class="st1" d="M26.5,6.08c11.1,0,20.1,9,20.1,20.1c0,11.1-9,20.1-20.1,20.1c-11.1,0-20.1-9-20.1-20.1
			C6.4,15.08,15.4,6.08,26.5,6.08L26.5,6.08L26.5,6.08z"/>
		<g>
			<path class="st2" d="M32.65,29.46l-0.85-3.05c-0.09-0.34-0.4-0.67-0.73-0.8c-0.05-0.02-1.27-0.48-4.56-0.48
				c-3.29,0-4.5,0.45-4.55,0.47c-0.33,0.13-0.63,0.46-0.73,0.8l-0.85,3.05c-0.71,0.3-1.2,0.91-1.2,1.6v2.53h0.7v1.7
				c0,0.21,0.18,0.39,0.39,0.39h1.69c0.22,0,0.39-0.18,0.39-0.39v-1.7h8.32v1.7c0,0.21,0.18,0.39,0.39,0.39h1.69
				c0.22,0,0.39-0.18,0.39-0.39v-1.7h0.7v-2.53C33.84,30.37,33.35,29.77,32.65,29.46z M21.92,32.53c-0.48,0-0.87-0.39-0.87-0.87
				c0-0.48,0.39-0.86,0.87-0.86c0.48,0,0.87,0.39,0.87,0.86C22.78,32.14,22.39,32.53,21.92,32.53z M21.3,29.23l0.72-2.6
				c0.02-0.08,0.15-0.22,0.23-0.25c0.01,0,1.16-0.41,4.25-0.41c3.1,0,4.25,0.42,4.26,0.42c0.08,0.03,0.2,0.17,0.23,0.25l0.72,2.59
				c-1.34-0.39-3.18-0.63-5.21-0.63C24.47,28.6,22.64,28.84,21.3,29.23z M31.09,32.53c-0.48,0-0.87-0.39-0.87-0.87
				c0-0.48,0.39-0.86,0.87-0.86c0.48,0,0.87,0.39,0.87,0.86C31.96,32.14,31.57,32.53,31.09,32.53z"/>
			<g>
				<polygon class="st2" points="36.5,35.69 34.5,35.69 34.5,18.69 18.5,18.69 18.5,35.69 16.5,35.69 16.5,16.69 36.5,16.69 				"/>
			</g>
			<g>
				<rect x="19.3" y="19.73" class="st2" width="14.4" height="1.75"/>
			</g>
			<g>
				<rect x="19.3" y="22.3" class="st2" width="14.4" height="1.75"/>
			</g>
		</g>
	</g>
	<g>
		<path class="st3" d="M45.04,77.41c0,2.65-8.38,4.8-18.72,4.8c-10.34,0-18.72-2.15-18.72-4.8c0-2.65,8.38-4.8,18.72-4.8
			C36.65,72.61,45.04,74.75,45.04,77.41z"/>
		<path class="st4" d="M43.79,77.41c0,2.42-7.83,4.37-17.48,4.37c-9.66,0-17.48-1.96-17.48-4.37c0-2.42,7.83-4.37,17.48-4.37
			C35.97,73.03,43.79,74.99,43.79,77.41z"/>
		<path class="st5" d="M42.55,77.41c0,2.18-7.27,3.95-16.24,3.95c-8.97,0-16.24-1.77-16.24-3.95c0-2.18,7.27-3.95,16.24-3.95
			C35.28,73.46,42.55,75.23,42.55,77.41z"/>
		<path class="st6" d="M41.31,77.41c0,1.94-6.71,3.52-15,3.52c-8.28,0-15-1.57-15-3.52c0-1.94,6.71-3.52,15-3.52
			C34.59,73.89,41.31,75.47,41.31,77.41z"/>
		<path class="st7" d="M40.06,77.41c0,1.71-6.16,3.09-13.75,3.09c-7.6,0-13.75-1.38-13.75-3.09c0-1.71,6.16-3.09,13.75-3.09
			C33.91,74.32,40.06,75.7,40.06,77.41z"/>
		<path class="st8" d="M38.82,77.41c0,1.47-5.6,2.66-12.51,2.66c-6.91,0-12.51-1.19-12.51-2.66c0-1.47,5.6-2.66,12.51-2.66
			C33.22,74.75,38.82,75.94,38.82,77.41z"/>
		<path class="st9" d="M37.58,77.41c0,1.23-5.04,2.24-11.27,2.24c-6.22,0-11.27-1-11.27-2.24c0-1.23,5.04-2.24,11.27-2.24
			C32.53,75.17,37.58,76.17,37.58,77.41z"/>
		<path class="st10" d="M36.34,77.41c0,1-4.49,1.81-10.02,1.81c-5.54,0-10.02-0.81-10.02-1.81c0-1,4.49-1.81,10.02-1.81
			C31.85,75.6,36.34,76.41,36.34,77.41z"/>
		<path class="st11" d="M35.09,77.41c0,0.76-3.93,1.38-8.78,1.38c-4.85,0-8.78-0.62-8.78-1.38c0-0.76,3.93-1.38,8.78-1.38
			C31.16,76.03,35.09,76.65,35.09,77.41z"/>
		<path class="st12" d="M33.85,77.41c0,0.53-3.38,0.95-7.54,0.95c-4.16,0-7.54-0.42-7.54-0.95c0-0.52,3.38-0.95,7.54-0.95
			C30.47,76.46,33.85,76.88,33.85,77.41z"/>
	</g>
</g>
</svg>
