<?xml version="1.0" encoding="utf-8"?>
<!-- Generator: Adobe Illustrator 24.0.1, SVG Export Plug-In . SVG Version: 6.00 Build 0)  -->
<svg version="1.1" id="Layer_1" xmlns="http://www.w3.org/2000/svg" xmlns:xlink="http://www.w3.org/1999/xlink" x="0px" y="0px"
	 viewBox="0 0 100 241" style="enable-background:new 0 0 100 241;" xml:space="preserve">
<style type="text/css">
	.st0{fill:#FFFFFF;}
	.st1{fill:#808080;}
	.st2{fill:#333333;}
	.st3{fill:#999999;}
	.st4{fill:#ED2224;}
</style>
<g>
	<g>
		<path class="st0" d="M50.17,53.74c20.08,0,31.44,2.41,31.44,2.41C95.39,59.35,99.2,75.88,99.2,75.88
			c1.52,5.38-1.71,15.89-1.71,15.89l-0.86,21.29v64.02l0.86,21.29c0,0,3.23,10.51,1.71,15.89c0,0-3.8,16.53-17.59,19.74
			c0,0-11.56,2.41-31.64,2.41h0.12C30,236.41,18.44,234,18.44,234c-13.79-3.21-17.59-19.74-17.59-19.74
			c-1.52-5.38,1.24-15.89,1.24-15.89l0.86-21.29l0.47-64.02L2.56,91.77c0,0-3.23-10.51-1.71-15.89c0,0,3.8-16.53,17.59-19.74
			c0,0,11.48-2.41,31.56-2.41H50.17z"/>
		<path class="st1" d="M50.09,236.8h-0.12c-19.82-0.01-31.48-2.39-31.6-2.42c-7.27-1.69-11.75-7.06-14.22-11.26
			c-2.64-4.47-3.6-8.49-3.67-8.77c-1.49-5.3,1.01-15.21,1.23-16.04l0.85-21.25l0.47-64L2.17,91.83c-0.27-0.88-3.19-10.76-1.7-16.05
			c0.07-0.28,1.03-4.3,3.67-8.77c2.48-4.2,6.96-9.57,14.22-11.26c0.12-0.03,11.76-2.42,31.65-2.42h0.16
			c19.9,0,31.41,2.39,31.52,2.42c7.27,1.69,11.74,7.05,14.22,11.26c2.64,4.47,3.6,8.49,3.67,8.77c1.49,5.29-1.43,15.17-1.7,16.05
			l-0.85,21.23v64.01l0.85,21.23c0.27,0.88,3.19,10.76,1.7,16.05c-0.07,0.28-1.03,4.3-3.67,8.77c-2.48,4.2-6.96,9.57-14.22,11.26
			C81.57,234.41,69.91,236.79,50.09,236.8L50.09,236.8z M50.01,54.13c-19.8,0-31.37,2.37-31.48,2.4c-6.97,1.62-11.3,6.81-13.7,10.87
			c-2.62,4.43-3.58,8.53-3.59,8.57l0,0.02c-1.47,5.2,1.68,15.56,1.71,15.66l0.02,0.05l0,0.05l0.86,21.31l-0.47,64.02l-0.86,21.35
			l-0.01,0.04c-0.03,0.1-2.72,10.47-1.24,15.68l0,0.02c0.01,0.04,0.97,4.14,3.59,8.57c2.4,4.06,6.73,9.25,13.7,10.87
			c0.11,0.02,11.72,2.39,31.49,2.4c19.77,0,31.39-2.37,31.5-2.4c6.97-1.62,11.3-6.81,13.7-10.87c2.62-4.43,3.58-8.53,3.59-8.57
			l0-0.02c1.47-5.2-1.68-15.56-1.71-15.66l-0.02-0.05l0-0.05l-0.86-21.31l0-64.04L97.1,91.7l0.02-0.05
			c0.03-0.1,3.18-10.46,1.71-15.66l0-0.02c-0.01-0.04-0.97-4.14-3.59-8.57c-2.4-4.06-6.73-9.25-13.71-10.87
			c-0.11-0.02-11.55-2.4-31.35-2.4H50.01z"/>
	</g>
	<g>
		<path class="st1" d="M49.85,183.47c10.16,0,20.16,0.92,29.76,2.73c2.29,1.97,7.48,7.09,8.43,11.11c0.06,0.39,0.54,3.74,0.09,8.53
			c-0.42,4.52-1.78,11.28-5.82,18.06c-2.87,0.58-15.1,2.83-32.22,2.83c-17.12,0-29.36-2.25-32.22-2.83
			c-4.04-6.78-5.39-13.54-5.82-18.06c-0.45-4.79,0.03-8.14,0.09-8.53c0.94-4.02,6.16-9.17,8.45-11.13
			C22.71,185.73,34.04,183.47,49.85,183.47 M49.85,181.9c-17.91,0-29.98,2.84-29.98,2.84s-7.99,6.62-9.27,12.28
			c0,0-2.42,14.2,6.28,28.28c0,0,13.22,3.01,33.21,3.01s33.21-3.01,33.21-3.01c8.7-14.08,6.28-28.28,6.28-28.28
			c-1.28-5.66-9.27-12.28-9.27-12.28C69.21,182.61,58.8,181.9,49.85,181.9L49.85,181.9z"/>
	</g>
	<g>
		<path class="st1" d="M50.09,63.57c16.98,0,29.14,2.22,32.12,2.82c3.99,6.73,5.34,13.43,5.76,17.92c0.44,4.76-0.03,8.09-0.09,8.49
			c-0.93,3.95-6.05,9.02-8.34,10.99c-9.57,1.8-19.56,2.72-29.69,2.72c-15.7,0-26.98-2.23-29.19-2.7c-2.29-1.97-7.43-7.05-8.36-11.01
			c-0.13-0.83-1.93-13.62,5.67-26.41C20.94,65.79,33.11,63.57,50.09,63.57 M50.09,61.84c-19.99,0-33.21,3.01-33.21,3.01
			c-8.7,14.08-6.28,28.28-6.28,28.28c1.28,5.66,9.27,12.28,9.27,12.28s12.07,2.84,29.98,2.84c8.95,0,19.37-0.71,30.46-2.84
			c0,0,7.99-6.62,9.27-12.28c0,0,2.42-14.2-6.28-28.28C83.3,64.85,70.08,61.84,50.09,61.84L50.09,61.84z"/>
	</g>
	<g>
		<path class="st1" d="M5.65,83.93c-0.27,2.22-0.39,3.81-0.4,3.97l0,0.03v0.03v20.82L4.68,92.04C4.68,89.28,5.07,86.53,5.65,83.93
			 M4.38,189.93v12.25v0.02l0,0.02c0,0.03,0.01,0.11,0.01,0.23c-0.16-1.44-0.25-2.9-0.25-4.36L4.38,189.93 M10.29,69.42
			c-0.38,0.59-0.74,1.29-1.06,2.07C9.86,70.18,10.29,69.42,10.29,69.42L10.29,69.42z M9.23,71.49C7.41,75.27,3.9,83.66,3.9,92.05
			l0.71,21.01l-0.65,64.02l-0.6,21.01c0,8.39,2.97,16.78,4.5,20.56c-2.07-5.94-2.7-16.46-2.7-16.46v-25.1l0.87-64.02v-25.1
			C6.04,87.96,6.78,77.43,9.23,71.49L9.23,71.49z M7.86,218.65c0.27,0.78,0.57,1.48,0.89,2.07C8.75,220.72,8.39,219.97,7.86,218.65
			L7.86,218.65z"/>
	</g>
	<g>
		<path class="st1" d="M94.4,83.93c0.58,2.59,0.97,5.35,0.97,8.11l-0.57,16.74V87.96v-0.03l0-0.03
			C94.79,87.74,94.67,86.16,94.4,83.93 M94.8,181.37l0.57,16.74c0,2.76-0.39,5.51-0.97,8.11c0.27-2.22,0.39-3.8,0.4-3.97l0-0.03
			v-0.03V181.37 M89.76,69.42c0,0,0.43,0.76,1.06,2.07C90.5,70.71,90.15,70.01,89.76,69.42L89.76,69.42z M90.82,71.49
			c2.45,5.94,3.19,16.46,3.19,16.46v25.1v64.02v25.1c0,0-0.74,10.53-3.19,16.46c1.82-3.78,5.33-12.17,5.33-20.56l-0.71-21.01v-64.02
			l0.71-21.01C96.15,83.66,92.64,75.27,90.82,71.49L90.82,71.49z M90.82,218.65c-0.63,1.32-1.06,2.07-1.06,2.07
			C90.15,220.13,90.5,219.43,90.82,218.65L90.82,218.65z"/>
	</g>
	<g>
		<path class="st1" d="M73.51,116.29c0.08,0,0.16,0.07,0.16,0.16v24.88c0,0.08-0.07,0.16-0.16,0.16H26.98
			c-0.08,0-0.16-0.07-0.16-0.16v-24.88c0-0.08,0.07-0.16,0.16-0.16H73.51 M73.51,114.56H26.98c-1.04,0-1.89,0.85-1.89,1.89v24.88
			c0,1.04,0.85,1.89,1.89,1.89h46.53c1.04,0,1.89-0.85,1.89-1.89v-24.88C75.4,115.41,74.55,114.56,73.51,114.56L73.51,114.56z"/>
	</g>
	<g>
		<polygon class="st2" points="89.73,204.09 10.27,204.09 12.96,218.3 87.14,218.3 		"/>
	</g>
	<g>
		<g>
			<g>
				<path class="st3" d="M11.08,202.26c-0.03-2.97,0.26-4.89,0.29-5.1c1.13-4.92,7.8-10.8,8.86-11.7
					c1.57-0.35,13.19-2.77,29.62-2.77c10.28,0,20.4,0.94,30.11,2.78c1.09,0.93,7.72,6.79,8.85,11.69c0.03,0.21,0.32,2.13,0.29,5.1
					H11.08z"/>
			</g>
			<g>
				<path class="st1" d="M49.85,183.47c10.16,0,20.16,0.92,29.76,2.73c2.29,1.97,7.48,7.09,8.43,11.11
					c0.04,0.26,0.26,1.79,0.28,4.16H11.86c0.02-2.37,0.24-3.91,0.28-4.16c0.94-4.02,6.16-9.17,8.45-11.13
					C22.71,185.73,34.04,183.47,49.85,183.47 M49.85,181.9c-17.91,0-29.98,2.84-29.98,2.84s-7.99,6.62-9.27,12.28
					c0,0-0.4,2.33-0.29,6.04h79.56c0.1-3.71-0.29-6.04-0.29-6.04c-1.28-5.66-9.27-12.28-9.27-12.28
					C69.21,182.61,58.8,181.9,49.85,181.9L49.85,181.9z"/>
			</g>
		</g>
	</g>
	<g>
		<g>
			<g>
				<path class="st3" d="M49.85,107.2c-16.43,0-28.04-2.43-29.62-2.77c-1.06-0.91-7.73-6.78-8.86-11.7
					c-0.03-0.21-0.32-2.13-0.29-5.1H89.1c0.03,2.97-0.26,4.89-0.29,5.1c-1.13,4.91-7.76,10.76-8.85,11.69
					C70.25,106.26,60.12,107.2,49.85,107.2z"/>
			</g>
			<g>
				<path class="st1" d="M88.31,88.41c-0.02,2.37-0.24,3.91-0.28,4.16c-0.94,4.01-6.13,9.14-8.43,11.11
					c-9.59,1.81-19.6,2.73-29.76,2.73c-15.81,0-27.14-2.26-29.26-2.71c-2.28-1.96-7.5-7.11-8.45-11.13
					c-0.04-0.26-0.26-1.79-0.28-4.16H88.31 M89.87,86.84H10.31c-0.1,3.71,0.29,6.04,0.29,6.04c1.28,5.66,9.27,12.28,9.27,12.28
					s12.07,2.84,29.98,2.84c8.95,0,19.37-0.71,30.46-2.84c0,0,7.99-6.62,9.27-12.28C89.58,92.87,89.97,90.54,89.87,86.84
					L89.87,86.84z"/>
			</g>
		</g>
	</g>
	<g>
		<path class="st0" d="M54.25,236.41c0,2.35-1.9,4.25-4.25,4.25c-2.35,0-4.25-1.9-4.25-4.25H54.25z"/>
		<path class="st1" d="M50,241.05c-2.56,0-4.65-2.08-4.65-4.65v-0.39h9.29v0.39C54.65,238.97,52.56,241.05,50,241.05z M46.16,236.8
			c0.2,1.94,1.84,3.47,3.84,3.47c2,0,3.64-1.52,3.84-3.47H46.16z"/>
	</g>
	<g>
		<polygon class="st2" points="89.76,87.05 10.31,87.05 13,72.83 87.18,72.83 		"/>
	</g>
	<g>
		<path class="st0" d="M54.25,53.69c0-2.35-1.9-4.25-4.25-4.25c-2.35,0-4.25,1.9-4.25,4.25H54.25z"/>
		<path class="st1" d="M54.65,54.08h-9.29v-0.39c0-2.56,2.08-4.65,4.65-4.65s4.65,2.08,4.65,4.65V54.08z M46.16,53.3h7.68
			c-0.2-1.94-1.84-3.47-3.84-3.47C48,49.83,46.36,51.35,46.16,53.3z"/>
	</g>
	<g>
		<circle class="st0" cx="50.09" cy="80.02" r="2.21"/>
	</g>
	<g>
		<circle class="st0" cx="50.09" cy="210.23" r="2.21"/>
	</g>
	<g>
		<path class="st1" d="M73.51,147.72c0.08,0,0.16,0.07,0.16,0.16v24.88c0,0.08-0.07,0.16-0.16,0.16H26.98
			c-0.08,0-0.16-0.07-0.16-0.16v-24.88c0-0.08,0.07-0.16,0.16-0.16H73.51 M73.51,145.99H26.98c-1.04,0-1.89,0.85-1.89,1.89v24.88
			c0,1.04,0.85,1.89,1.89,1.89h46.53c1.04,0,1.89-0.85,1.89-1.89v-24.88C75.4,146.84,74.55,145.99,73.51,145.99L73.51,145.99z"/>
	</g>
	<g>
		<circle class="st2" cx="42.39" cy="128.89" r="6.51"/>
	</g>
	<g>
		<circle class="st2" cx="42.39" cy="160.16" r="6.51"/>
	</g>
	<polygon class="st4" points="50.25,0 27.96,38.61 72.54,38.61 	"/>
</g>
</svg>
