<?xml version="1.0" encoding="utf-8"?>
<!-- Generator: Adobe Illustrator 24.0.1, SVG Export Plug-In . SVG Version: 6.00 Build 0)  -->
<svg version="1.1" id="Layer_1" xmlns="http://www.w3.org/2000/svg" xmlns:xlink="http://www.w3.org/1999/xlink" x="0px" y="0px"
	 viewBox="0 0 53 83" style="enable-background:new 0 0 53 83;" xml:space="preserve">
<style type="text/css">
	.st0{fill-rule:evenodd;clip-rule:evenodd;fill:#666666;}
	.st1{fill-rule:evenodd;clip-rule:evenodd;fill:#FFFFFF;}
	.st2{fill:#4786C6;}
	.st3{opacity:0;fill-rule:evenodd;clip-rule:evenodd;fill:#FFFFFF;}
	.st4{opacity:0.0167;fill-rule:evenodd;clip-rule:evenodd;fill:#E3E3E3;}
	.st5{opacity:0.0333;fill-rule:evenodd;clip-rule:evenodd;fill:#C8C7C6;}
	.st6{opacity:0.05;fill-rule:evenodd;clip-rule:evenodd;fill:#ADADAD;}
	.st7{opacity:0.0667;fill-rule:evenodd;clip-rule:evenodd;fill:#908F8F;}
	.st8{opacity:0.0833;fill-rule:evenodd;clip-rule:evenodd;fill:#747474;}
	.st9{opacity:0.1;fill-rule:evenodd;clip-rule:evenodd;fill:#565656;}
	.st10{opacity:0.1167;fill-rule:evenodd;clip-rule:evenodd;fill:#373737;}
	.st11{opacity:0.1333;fill-rule:evenodd;clip-rule:evenodd;fill:#191918;}
	.st12{opacity:0.15;fill-rule:evenodd;clip-rule:evenodd;fill:#010101;}
</style>
<g>
	<g>
		<path class="st0" d="M26.5,0C41.14,0,53,11.87,53,26.5c0,14.05-11.33,21.58-18.75,32.1c-3.04,4.31-5.68,8.85-7.75,13.94
			c-2.07-5.09-4.71-9.63-7.75-13.94C11.39,48.16,0,40.44,0,26.5C0,11.87,11.87,0,26.5,0L26.5,0z"/>
		<path class="st1" d="M26.5,6.08c11.1,0,20.1,9,20.1,20.1c0,11.1-9,20.1-20.1,20.1c-11.1,0-20.1-9-20.1-20.1
			C6.4,15.08,15.4,6.08,26.5,6.08L26.5,6.08L26.5,6.08z"/>
		<g>
			<path class="st2" d="M35.55,23.4l-3.38-7.15c-0.1-0.21-0.31-0.34-0.54-0.34H20.2c-0.18,0-0.35,0.08-0.46,0.22l-1.01,1.24
				c-0.15,0.18-0.18,0.43-0.08,0.64l2.7,5.56V35.1h-0.88V23.54c0-0.09-0.02-0.18-0.06-0.26l-1.86-3.83c-0.14-0.3-0.5-0.42-0.8-0.28
				c-0.3,0.15-0.42,0.5-0.28,0.8l1.8,3.7V35.7c0,0.33,0.27,0.6,0.6,0.6h2.08H35c0.33,0,0.6-0.27,0.6-0.6V23.66
				C35.6,23.57,35.58,23.48,35.55,23.4z M34.4,35.1H22.54V23.43c0-0.09-0.02-0.18-0.06-0.26l-2.59-5.34l0.59-0.72h10.76l3.16,6.68
				V35.1z"/>
			<rect x="24.64" y="25.84" class="st2" width="5.66" height="0.85"/>
			<rect x="24.64" y="27.99" class="st2" width="3.02" height="0.85"/>
			<polygon class="st2" points="21.94,18.2 24.72,23.77 33.17,23.77 30.39,18.2 			"/>
			<path class="st2" d="M30.8,30.4c-0.28,0-0.5,0.22-0.5,0.5v2.65c0,0.28,0.22,0.5,0.5,0.5h2.31c0.28,0,0.5-0.22,0.5-0.5V30.9
				c0-0.28-0.22-0.5-0.5-0.5H30.8z M32.61,33.05H31.3V31.4h1.31V33.05z"/>
		</g>
	</g>
	<g>
		<path class="st3" d="M45.04,77.41c0,2.65-8.38,4.8-18.72,4.8c-10.34,0-18.72-2.15-18.72-4.8c0-2.65,8.38-4.8,18.72-4.8
			C36.65,72.61,45.04,74.75,45.04,77.41z"/>
		<path class="st4" d="M43.79,77.41c0,2.42-7.83,4.37-17.48,4.37c-9.66,0-17.48-1.96-17.48-4.37c0-2.42,7.83-4.37,17.48-4.37
			C35.97,73.03,43.79,74.99,43.79,77.41z"/>
		<path class="st5" d="M42.55,77.41c0,2.18-7.27,3.95-16.24,3.95c-8.97,0-16.24-1.77-16.24-3.95c0-2.18,7.27-3.95,16.24-3.95
			C35.28,73.46,42.55,75.23,42.55,77.41z"/>
		<path class="st6" d="M41.31,77.41c0,1.94-6.71,3.52-15,3.52c-8.28,0-15-1.57-15-3.52c0-1.94,6.71-3.52,15-3.52
			C34.59,73.89,41.31,75.47,41.31,77.41z"/>
		<path class="st7" d="M40.06,77.41c0,1.71-6.16,3.09-13.75,3.09c-7.6,0-13.75-1.38-13.75-3.09c0-1.71,6.16-3.09,13.75-3.09
			C33.91,74.32,40.06,75.7,40.06,77.41z"/>
		<path class="st8" d="M38.82,77.41c0,1.47-5.6,2.66-12.51,2.66c-6.91,0-12.51-1.19-12.51-2.66c0-1.47,5.6-2.66,12.51-2.66
			C33.22,74.75,38.82,75.94,38.82,77.41z"/>
		<path class="st9" d="M37.58,77.41c0,1.23-5.04,2.24-11.27,2.24c-6.22,0-11.27-1-11.27-2.24c0-1.23,5.04-2.24,11.27-2.24
			C32.53,75.17,37.58,76.17,37.58,77.41z"/>
		<path class="st10" d="M36.34,77.41c0,1-4.49,1.81-10.02,1.81c-5.54,0-10.02-0.81-10.02-1.81c0-1,4.49-1.81,10.02-1.81
			C31.85,75.6,36.34,76.41,36.34,77.41z"/>
		<path class="st11" d="M35.09,77.41c0,0.76-3.93,1.38-8.78,1.38c-4.85,0-8.78-0.62-8.78-1.38c0-0.76,3.93-1.38,8.78-1.38
			C31.16,76.03,35.09,76.65,35.09,77.41z"/>
		<path class="st12" d="M33.85,77.41c0,0.53-3.38,0.95-7.54,0.95c-4.16,0-7.54-0.42-7.54-0.95c0-0.52,3.38-0.95,7.54-0.95
			C30.47,76.46,33.85,76.88,33.85,77.41z"/>
	</g>
</g>
</svg>
