<svg width="1260" height="272" viewBox="0 0 1260 272" fill="none" xmlns="http://www.w3.org/2000/svg">
<rect x="0.25" y="0.25" width="1259.5" height="271.5" fill="white" stroke="#828282" stroke-width="0.5"/>
<path d="M782.576 20.344C782.576 19.032 783.52 18.136 784.784 18.136C786.016 18.136 786.96 19.032 786.96 20.344C786.96 21.688 786.016 22.584 784.784 22.584C783.52 22.584 782.576 21.688 782.576 20.344ZM791.136 19.272V21.416H788.368C788.48 21.08 788.528 20.728 788.528 20.344C788.528 19.96 788.48 19.608 788.368 19.272H791.136ZM791.136 22.76V26.424H792.784V15.8H791.136V17.928H787.664C786.992 17.16 785.968 16.68 784.784 16.68C782.64 16.68 781.008 18.216 781.008 20.344C781.008 22.472 782.64 24.008 784.784 24.008C785.968 24.024 786.992 23.544 787.664 22.76H791.136ZM785.072 28.616V25.352H783.424V29.96H793.152V28.616H785.072ZM803.263 17.16H800.143V15.656H798.495V17.16H795.247V18.472H803.263V17.16ZM797.535 21.848C797.535 20.952 798.271 20.392 799.311 20.392C800.367 20.392 801.103 20.952 801.103 21.848C801.103 22.76 800.367 23.32 799.311 23.32C798.271 23.32 797.535 22.76 797.535 21.848ZM802.639 21.848C802.639 20.248 801.247 19.128 799.311 19.128C797.391 19.128 795.999 20.248 795.999 21.848C795.999 23.464 797.391 24.584 799.311 24.584C801.247 24.584 802.639 23.464 802.639 21.848ZM797.439 27.048H805.535V30.248H807.183V25.72H797.439V27.048ZM805.535 15.784V19.192H803.343V20.52H805.535V21.928H803.311V23.272H805.535V24.968H807.183V15.784H805.535Z" fill="#333333"/>
<path d="M787.344 141.432C789.376 141.432 790.704 142.024 790.704 143.048C790.704 144.072 789.376 144.664 787.344 144.664C785.296 144.664 783.968 144.072 783.968 143.048C783.968 142.024 785.296 141.432 787.344 141.432ZM787.344 145.992C790.432 145.992 792.464 144.856 792.464 143.048C792.464 141.24 790.432 140.104 787.344 140.104C784.24 140.104 782.224 141.24 782.224 143.048C782.224 144.856 784.24 145.992 787.344 145.992ZM784.08 149.688H782.416V153.96H792.464V152.616H784.08V149.688ZM780.8 146.968V148.312H786.624V151.048H788.304V148.312H793.904V146.968H780.8ZM796.975 144.088C796.975 142.824 797.903 141.992 799.183 141.992C800.431 141.992 801.359 142.824 801.359 144.088C801.359 145.336 800.431 146.168 799.183 146.168C797.903 146.168 796.975 145.336 796.975 144.088ZM805.535 143.112V145.064H802.783C802.879 144.76 802.927 144.44 802.927 144.088C802.927 143.736 802.879 143.416 802.799 143.112H805.535ZM805.535 146.392V148.296H807.183V139.768H805.535V141.768H802.047C801.375 141.048 800.367 140.6 799.183 140.6C797.023 140.6 795.407 142.04 795.407 144.088C795.407 146.12 797.023 147.56 799.183 147.56C800.351 147.56 801.375 147.128 802.047 146.392H805.535ZM802.367 152.936C800.319 152.936 799.119 152.408 799.119 151.416C799.119 150.456 800.319 149.912 802.367 149.912C804.431 149.912 805.615 150.456 805.615 151.416C805.615 152.408 804.431 152.936 802.367 152.936ZM802.367 148.616C799.359 148.616 797.503 149.656 797.503 151.416C797.503 153.192 799.359 154.232 802.367 154.232C805.375 154.232 807.247 153.192 807.247 151.416C807.247 149.656 805.375 148.616 802.367 148.616ZM820.647 143.416V144.76H823.207V148.392H824.855V139.784H823.207V143.416H820.647ZM821.479 146.632C819.319 145.88 818.087 144.088 818.087 142.28V142.088H821.095V140.76H813.367V142.088H816.423V142.296C816.423 144.28 815.127 146.2 812.887 147L813.735 148.312C815.447 147.704 816.663 146.424 817.303 144.84C817.911 146.232 819.063 147.368 820.663 147.928L821.479 146.632ZM820.055 152.968C817.991 152.968 816.823 152.456 816.823 151.512C816.823 150.568 817.991 150.056 820.055 150.056C822.087 150.056 823.271 150.568 823.271 151.512C823.271 152.456 822.087 152.968 820.055 152.968ZM820.055 148.776C817.031 148.776 815.175 149.8 815.175 151.512C815.175 153.24 817.031 154.248 820.055 154.248C823.063 154.248 824.919 153.24 824.919 151.512C824.919 149.8 823.063 148.776 820.055 148.776ZM830.39 144.504H837.238V146.872H830.39V144.504ZM834.63 151.112V148.2H838.87V140.744H837.238V143.176H830.39V140.744H828.758V148.2H832.982V151.112H827.286V152.472H840.374V151.112H834.63Z" fill="#333333"/>
<path d="M780.616 108H787.07V106.894H784.228C783.71 106.894 783.08 106.95 782.548 106.992C784.956 104.71 786.566 102.624 786.566 100.58C786.566 98.746 785.418 97.542 783.584 97.542C782.282 97.542 781.4 98.144 780.56 99.054L781.302 99.782C781.862 99.11 782.59 98.592 783.43 98.592C784.704 98.592 785.32 99.446 785.32 100.622C785.32 102.386 783.836 104.43 780.616 107.244V108ZM791.378 108.182C793.324 108.182 794.57 106.404 794.57 102.834C794.57 99.278 793.324 97.542 791.378 97.542C789.418 97.542 788.172 99.264 788.172 102.834C788.172 106.404 789.418 108.182 791.378 108.182ZM791.378 107.16C790.202 107.16 789.418 105.858 789.418 102.834C789.418 99.838 790.202 98.564 791.378 98.564C792.54 98.564 793.324 99.838 793.324 102.834C793.324 105.858 792.54 107.16 791.378 107.16ZM796.203 108H801.831V106.936H799.773V97.724H798.793C798.233 98.06 797.575 98.298 796.665 98.466V99.278H798.485V106.936H796.203V108ZM806.363 108.182C808.295 108.182 809.583 107.02 809.583 105.522C809.583 104.122 808.743 103.352 807.847 102.834V102.764C808.463 102.288 809.219 101.364 809.219 100.286C809.219 98.704 808.155 97.584 806.405 97.584C804.809 97.584 803.591 98.62 803.591 100.188C803.591 101.266 804.221 102.036 804.977 102.554V102.624C804.039 103.128 803.087 104.08 803.087 105.452C803.087 107.034 804.473 108.182 806.363 108.182ZM807.063 102.428C805.859 101.952 804.753 101.42 804.753 100.188C804.753 99.194 805.439 98.522 806.391 98.522C807.497 98.522 808.127 99.348 808.127 100.356C808.127 101.112 807.763 101.812 807.063 102.428ZM806.391 107.23C805.159 107.23 804.249 106.432 804.249 105.34C804.249 104.36 804.823 103.548 805.649 103.016C807.105 103.604 808.365 104.122 808.365 105.494C808.365 106.516 807.567 107.23 806.391 107.23ZM811.888 108.182C812.392 108.182 812.812 107.79 812.812 107.216C812.812 106.628 812.392 106.222 811.888 106.222C811.384 106.222 810.964 106.628 810.964 107.216C810.964 107.79 811.384 108.182 811.888 108.182ZM817.451 108.182C819.397 108.182 820.643 106.404 820.643 102.834C820.643 99.278 819.397 97.542 817.451 97.542C815.491 97.542 814.245 99.264 814.245 102.834C814.245 106.404 815.491 108.182 817.451 108.182ZM817.451 107.16C816.275 107.16 815.491 105.858 815.491 102.834C815.491 99.838 816.275 98.564 817.451 98.564C818.613 98.564 819.397 99.838 819.397 102.834C819.397 105.858 818.613 107.16 817.451 107.16ZM824.741 108.182C826.561 108.182 828.031 107.09 828.031 105.256C828.031 103.856 827.065 102.932 825.861 102.652V102.596C826.939 102.19 827.681 101.364 827.681 100.118C827.681 98.494 826.421 97.542 824.699 97.542C823.509 97.542 822.599 98.06 821.829 98.774L822.515 99.586C823.089 98.998 823.817 98.592 824.643 98.592C825.707 98.592 826.379 99.236 826.379 100.216C826.379 101.322 825.651 102.176 823.537 102.176V103.156C825.903 103.156 826.729 103.982 826.729 105.2C826.729 106.39 825.861 107.118 824.643 107.118C823.481 107.118 822.697 106.572 822.095 105.942L821.451 106.782C822.123 107.51 823.131 108.182 824.741 108.182Z" fill="#4F4F4F"/>
<path d="M881.616 108H888.07V106.894H885.228C884.71 106.894 884.08 106.95 883.548 106.992C885.956 104.71 887.566 102.624 887.566 100.58C887.566 98.746 886.418 97.542 884.584 97.542C883.282 97.542 882.4 98.144 881.56 99.054L882.302 99.782C882.862 99.11 883.59 98.592 884.43 98.592C885.704 98.592 886.32 99.446 886.32 100.622C886.32 102.386 884.836 104.43 881.616 107.244V108ZM892.378 108.182C894.324 108.182 895.57 106.404 895.57 102.834C895.57 99.278 894.324 97.542 892.378 97.542C890.418 97.542 889.172 99.264 889.172 102.834C889.172 106.404 890.418 108.182 892.378 108.182ZM892.378 107.16C891.202 107.16 890.418 105.858 890.418 102.834C890.418 99.838 891.202 98.564 892.378 98.564C893.54 98.564 894.324 99.838 894.324 102.834C894.324 105.858 893.54 107.16 892.378 107.16ZM897.203 108H902.831V106.936H900.773V97.724H899.793C899.233 98.06 898.575 98.298 897.665 98.466V99.278H899.485V106.936H897.203V108ZM905.277 100.874C905.277 99.474 906.033 98.55 907.013 98.55C908.329 98.55 909.113 99.67 909.253 101.784C908.595 102.75 907.811 103.156 907.111 103.156C905.893 103.156 905.277 102.26 905.277 100.874ZM906.733 108.182C908.665 108.182 910.457 106.586 910.457 102.428C910.457 99.166 908.987 97.542 907.013 97.542C905.417 97.542 904.073 98.886 904.073 100.874C904.073 103.002 905.193 104.108 906.901 104.108C907.755 104.108 908.637 103.618 909.267 102.848C909.169 106.026 908.021 107.118 906.691 107.118C906.033 107.118 905.403 106.824 904.983 106.334L904.269 107.132C904.843 107.734 905.627 108.182 906.733 108.182ZM912.888 108.182C913.392 108.182 913.812 107.79 913.812 107.216C913.812 106.628 913.392 106.222 912.888 106.222C912.384 106.222 911.964 106.628 911.964 107.216C911.964 107.79 912.384 108.182 912.888 108.182ZM918.451 108.182C920.397 108.182 921.643 106.404 921.643 102.834C921.643 99.278 920.397 97.542 918.451 97.542C916.491 97.542 915.245 99.264 915.245 102.834C915.245 106.404 916.491 108.182 918.451 108.182ZM918.451 107.16C917.275 107.16 916.491 105.858 916.491 102.834C916.491 99.838 917.275 98.564 918.451 98.564C919.613 98.564 920.397 99.838 920.397 102.834C920.397 105.858 919.613 107.16 918.451 107.16ZM925.741 108.182C927.561 108.182 929.031 107.09 929.031 105.256C929.031 103.856 928.065 102.932 926.861 102.652V102.596C927.939 102.19 928.681 101.364 928.681 100.118C928.681 98.494 927.421 97.542 925.699 97.542C924.509 97.542 923.599 98.06 922.829 98.774L923.515 99.586C924.089 98.998 924.817 98.592 925.643 98.592C926.707 98.592 927.379 99.236 927.379 100.216C927.379 101.322 926.651 102.176 924.537 102.176V103.156C926.903 103.156 927.729 103.982 927.729 105.2C927.729 106.39 926.861 107.118 925.643 107.118C924.481 107.118 923.697 106.572 923.095 105.942L922.451 106.782C923.123 107.51 924.131 108.182 925.741 108.182Z" fill="#4F4F4F"/>
<path d="M1012.62 108H1019.07V106.894H1016.23C1015.71 106.894 1015.08 106.95 1014.55 106.992C1016.96 104.71 1018.57 102.624 1018.57 100.58C1018.57 98.746 1017.42 97.542 1015.58 97.542C1014.28 97.542 1013.4 98.144 1012.56 99.054L1013.3 99.782C1013.86 99.11 1014.59 98.592 1015.43 98.592C1016.7 98.592 1017.32 99.446 1017.32 100.622C1017.32 102.386 1015.84 104.43 1012.62 107.244V108ZM1023.38 108.182C1025.32 108.182 1026.57 106.404 1026.57 102.834C1026.57 99.278 1025.32 97.542 1023.38 97.542C1021.42 97.542 1020.17 99.264 1020.17 102.834C1020.17 106.404 1021.42 108.182 1023.38 108.182ZM1023.38 107.16C1022.2 107.16 1021.42 105.858 1021.42 102.834C1021.42 99.838 1022.2 98.564 1023.38 98.564C1024.54 98.564 1025.32 99.838 1025.32 102.834C1025.32 105.858 1024.54 107.16 1023.38 107.16ZM1027.59 108H1034.04V106.894H1031.2C1030.68 106.894 1030.05 106.95 1029.52 106.992C1031.93 104.71 1033.54 102.624 1033.54 100.58C1033.54 98.746 1032.39 97.542 1030.56 97.542C1029.25 97.542 1028.37 98.144 1027.53 99.054L1028.27 99.782C1028.83 99.11 1029.56 98.592 1030.4 98.592C1031.68 98.592 1032.29 99.446 1032.29 100.622C1032.29 102.386 1030.81 104.43 1027.59 107.244V108ZM1038.35 108.182C1040.29 108.182 1041.54 106.404 1041.54 102.834C1041.54 99.278 1040.29 97.542 1038.35 97.542C1036.39 97.542 1035.14 99.264 1035.14 102.834C1035.14 106.404 1036.39 108.182 1038.35 108.182ZM1038.35 107.16C1037.17 107.16 1036.39 105.858 1036.39 102.834C1036.39 99.838 1037.17 98.564 1038.35 98.564C1039.51 98.564 1040.29 99.838 1040.29 102.834C1040.29 105.858 1039.51 107.16 1038.35 107.16ZM1043.89 108.182C1044.39 108.182 1044.81 107.79 1044.81 107.216C1044.81 106.628 1044.39 106.222 1043.89 106.222C1043.38 106.222 1042.96 106.628 1042.96 107.216C1042.96 107.79 1043.38 108.182 1043.89 108.182ZM1049.45 108.182C1051.4 108.182 1052.64 106.404 1052.64 102.834C1052.64 99.278 1051.4 97.542 1049.45 97.542C1047.49 97.542 1046.24 99.264 1046.24 102.834C1046.24 106.404 1047.49 108.182 1049.45 108.182ZM1049.45 107.16C1048.27 107.16 1047.49 105.858 1047.49 102.834C1047.49 99.838 1048.27 98.564 1049.45 98.564C1050.61 98.564 1051.4 99.838 1051.4 102.834C1051.4 105.858 1050.61 107.16 1049.45 107.16ZM1056.74 108.182C1058.56 108.182 1060.03 107.09 1060.03 105.256C1060.03 103.856 1059.06 102.932 1057.86 102.652V102.596C1058.94 102.19 1059.68 101.364 1059.68 100.118C1059.68 98.494 1058.42 97.542 1056.7 97.542C1055.51 97.542 1054.6 98.06 1053.83 98.774L1054.51 99.586C1055.09 98.998 1055.82 98.592 1056.64 98.592C1057.71 98.592 1058.38 99.236 1058.38 100.216C1058.38 101.322 1057.65 102.176 1055.54 102.176V103.156C1057.9 103.156 1058.73 103.982 1058.73 105.2C1058.73 106.39 1057.86 107.118 1056.64 107.118C1055.48 107.118 1054.7 106.572 1054.09 105.942L1053.45 106.782C1054.12 107.51 1055.13 108.182 1056.74 108.182Z" fill="#4F4F4F"/>
<path d="M1219.8 99.824V100.762H1221.91V102.456H1219.8V103.394H1221.91V106.054H1223.07V96.492H1221.91V99.824H1219.8ZM1219.8 98.018H1216.91V96.464H1215.77V98.018H1212.77V98.942H1219.8V98.018ZM1214.58 102.022C1214.58 101.14 1215.29 100.538 1216.33 100.538C1217.36 100.538 1218.08 101.14 1218.08 102.022C1218.08 102.918 1217.36 103.534 1216.33 103.534C1215.29 103.534 1214.58 102.918 1214.58 102.022ZM1219.17 102.022C1219.17 100.594 1217.99 99.642 1216.33 99.642C1214.66 99.642 1213.48 100.594 1213.48 102.022C1213.48 103.464 1214.66 104.43 1216.33 104.43C1217.99 104.43 1219.17 103.464 1219.17 102.022ZM1216.16 107.818V105.242H1215.01V108.756H1223.37V107.818H1216.16ZM1229.05 98.9H1231.33V97.962H1225.51V98.9H1227.94V99.88C1227.94 102.428 1227.01 104.57 1225.21 105.578L1225.91 106.446C1227.22 105.69 1228.1 104.332 1228.52 102.624C1228.97 104.108 1229.83 105.326 1231.07 106.012L1231.74 105.13C1229.96 104.206 1229.05 102.176 1229.05 99.88V98.9ZM1234.94 96.464V101.546H1233.29V96.758H1232.21V108.42H1233.29V102.498H1234.94V109.036H1236.05V96.464H1234.94Z" fill="#4F4F4F"/>
<path fill-rule="evenodd" clip-rule="evenodd" d="M1042.06 81.8901L1052 65L1042.06 47.1107C1042.36 47.0383 1042.68 47 1043 47H1223C1225.21 47 1227 48.7909 1227 51V78C1227 80.2091 1225.21 82 1223 82H1043C1042.68 82 1042.36 81.9619 1042.06 81.8901Z" fill="#185786"/>
<path fill-rule="evenodd" clip-rule="evenodd" d="M795 47C792.791 47 791 48.7909 791 51V78C791 80.2091 792.791 82 795 82H907L917 65L907 47H795Z" fill="#57AE66"/>
<path d="M838.358 69H839.982V64.842H841.648L843.986 69H845.82L843.3 64.632C844.602 64.226 845.456 63.274 845.456 61.678C845.456 59.452 843.86 58.682 841.732 58.682H838.358V69ZM839.982 63.54V59.998H841.536C843.034 59.998 843.846 60.432 843.846 61.678C843.846 62.924 843.034 63.54 841.536 63.54H839.982ZM849.058 61.006C849.058 60.194 849.534 59.606 850.234 59.606C850.85 59.606 851.116 60.082 851.116 60.642C851.116 61.482 850.388 62.056 849.506 62.63C849.226 62.056 849.058 61.51 849.058 61.006ZM849.604 69.182C850.85 69.182 851.858 68.748 852.67 68.048C853.51 68.608 854.364 69 855.12 69.182L855.54 67.866C854.98 67.726 854.322 67.418 853.65 66.998C854.462 65.92 855.036 64.688 855.428 63.358H853.944C853.636 64.464 853.174 65.43 852.572 66.214C851.662 65.486 850.766 64.576 850.108 63.652C851.242 62.84 852.39 61.986 852.39 60.628C852.39 59.368 851.578 58.5 850.206 58.5C848.694 58.5 847.7 59.62 847.7 61.02C847.7 61.734 847.952 62.532 848.372 63.344C847.322 64.044 846.384 64.898 846.384 66.312C846.384 67.936 847.63 69.182 849.604 69.182ZM847.924 66.214C847.924 65.514 848.4 64.968 849.03 64.436C849.73 65.444 850.626 66.41 851.578 67.222C851.032 67.656 850.43 67.922 849.8 67.922C848.736 67.922 847.924 67.236 847.924 66.214ZM856.87 69H859.628C862.708 69 864.514 67.152 864.514 63.806C864.514 60.446 862.708 58.682 859.544 58.682H856.87V69ZM858.494 67.67V60.012H859.432C861.644 60.012 862.834 61.23 862.834 63.806C862.834 66.368 861.644 67.67 859.432 67.67H858.494Z" fill="white"/>
<path fill-rule="evenodd" clip-rule="evenodd" d="M921 65L911 47H1038L1048 65L1038 82H911L921 65Z" fill="#F2C94C"/>
<path d="M975.13 57.436H973.674V63.918H975.13V57.436ZM972.4 62.504C970.454 61.902 969.32 60.362 969.32 58.724V57.772H967.85V58.724C967.85 60.432 966.716 62.07 964.714 62.728L965.428 63.876C966.954 63.358 968.032 62.308 968.606 60.95C969.18 62.196 970.244 63.162 971.7 63.638L972.4 62.504ZM968.284 68.832V67.726H975.13V64.52H966.842V65.64H973.702V66.676H966.87V69.966H975.508V68.832H968.284ZM978.391 62.728C980.603 62.49 982.339 61.58 983.025 60.278C983.697 61.58 985.419 62.49 987.659 62.728L988.163 61.608C985.811 61.37 984.173 60.362 983.991 59.214H987.701V58.052H978.363V59.214H982.045C981.863 60.362 980.225 61.37 977.873 61.608L978.391 62.728ZM982.997 68.944C981.149 68.944 980.113 68.538 980.113 67.768C980.113 66.984 981.149 66.578 982.997 66.578C984.845 66.578 985.895 66.984 985.895 67.768C985.895 68.538 984.845 68.944 982.997 68.944ZM982.997 65.444C980.295 65.444 978.643 66.298 978.643 67.768C978.643 69.238 980.295 70.078 982.997 70.078C985.713 70.078 987.351 69.238 987.351 67.768C987.351 66.298 985.713 65.444 982.997 65.444ZM977.299 63.372V64.534H988.737V63.372H977.299Z" fill="#4F4F4F"/>
<path d="M1118.29 58.458H1116.84V60.544C1116.84 62.91 1115.6 65.346 1113.63 66.312L1114.54 67.46C1115.98 66.718 1117.02 65.248 1117.58 63.456C1118.12 65.15 1119.15 66.536 1120.57 67.25L1121.43 66.088C1119.5 65.192 1118.29 62.896 1118.29 60.544V58.458ZM1122.76 57.408V61.566H1120.06V62.742H1122.76V70.092H1124.21V57.408H1122.76ZM1135.26 57.422V70.106H1136.71V57.422H1135.26ZM1126.98 58.472V67.096H1133.06V58.472H1131.62V61.692H1128.41V58.472H1126.98ZM1128.41 62.84H1131.62V65.934H1128.41V62.84ZM1149.87 63.61C1147.38 63.162 1145.35 61.216 1145.35 59.2V58.248H1143.83V59.2C1143.83 61.202 1141.8 63.148 1139.3 63.61L1139.92 64.8C1141.98 64.38 1143.76 63.064 1144.58 61.328C1145.41 63.064 1147.19 64.38 1149.24 64.8L1149.87 63.61ZM1138.91 67.264V68.454H1150.36V67.264H1138.91Z" fill="white"/>
<rect x="780.25" y="171.25" width="457.5" height="86.5" rx="1.75" fill="white" stroke="#BDBDBD" stroke-width="0.5"/>
<line x1="780" y1="215.75" x2="1238" y2="215.75" stroke="#828282" stroke-width="0.5"/>
<path d="M822.656 180.878C824.434 180.878 825.596 181.396 825.596 182.292C825.596 183.188 824.434 183.706 822.656 183.706C820.864 183.706 819.702 183.188 819.702 182.292C819.702 181.396 820.864 180.878 822.656 180.878ZM822.656 184.868C825.358 184.868 827.136 183.874 827.136 182.292C827.136 180.71 825.358 179.716 822.656 179.716C819.94 179.716 818.176 180.71 818.176 182.292C818.176 183.874 819.94 184.868 822.656 184.868ZM819.8 188.102H818.344V191.84H827.136V190.664H819.8V188.102ZM816.93 185.722V186.898H822.026V189.292H823.496V186.898H828.396V185.722H816.93ZM831.083 183.202C831.083 182.096 831.895 181.368 833.015 181.368C834.107 181.368 834.919 182.096 834.919 183.202C834.919 184.294 834.107 185.022 833.015 185.022C831.895 185.022 831.083 184.294 831.083 183.202ZM838.573 182.348V184.056H836.165C836.249 183.79 836.291 183.51 836.291 183.202C836.291 182.894 836.249 182.614 836.179 182.348H838.573ZM838.573 185.218V186.884H840.015V179.422H838.573V181.172H835.521C834.933 180.542 834.051 180.15 833.015 180.15C831.125 180.15 829.711 181.41 829.711 183.202C829.711 184.98 831.125 186.24 833.015 186.24C834.037 186.24 834.933 185.862 835.521 185.218H838.573ZM835.801 190.944C834.009 190.944 832.959 190.482 832.959 189.614C832.959 188.774 834.009 188.298 835.801 188.298C837.607 188.298 838.643 188.774 838.643 189.614C838.643 190.482 837.607 190.944 835.801 190.944ZM835.801 187.164C833.169 187.164 831.545 188.074 831.545 189.614C831.545 191.168 833.169 192.078 835.801 192.078C838.433 192.078 840.071 191.168 840.071 189.614C840.071 188.074 838.433 187.164 835.801 187.164ZM849.374 182.726H852.048V181.564H849.374V179.688H847.932V181.564H845.216V182.726H847.932V183.454C847.932 185.526 846.756 187.654 844.824 188.578L845.622 189.684C847.064 189.012 848.114 187.626 848.674 185.988C849.192 187.514 850.2 188.802 851.558 189.46L852.356 188.354C850.48 187.444 849.374 185.386 849.374 183.454V182.726ZM856.766 184.504H854.792V179.422H853.35V192.078H854.792V185.694H856.766V184.504ZM864.955 184.84C863.219 185.162 861.693 185.232 859.523 185.246V183.804H863.821V180.192H858.081V181.354H862.393V182.712H858.109V186.422H859.131C861.553 186.422 863.205 186.352 865.109 186.016L864.955 184.84ZM863.387 190.972C861.595 190.972 860.587 190.538 860.587 189.726C860.587 188.928 861.595 188.494 863.387 188.494C865.165 188.494 866.187 188.928 866.187 189.726C866.187 190.538 865.165 190.972 863.387 190.972ZM863.387 187.374C860.769 187.374 859.173 188.242 859.173 189.726C859.173 191.21 860.769 192.078 863.387 192.078C866.005 192.078 867.601 191.21 867.601 189.726C867.601 188.242 866.005 187.374 863.387 187.374ZM869.253 182.474V181.284H867.475V179.422H866.033V187.08H867.475V185.134H869.253V183.944H867.475V182.474H869.253Z" fill="#185786"/>
<path d="M799.816 202.345C799.816 203.32 799.652 204.172 799.324 204.901C798.996 205.626 798.531 206.18 797.929 206.562C797.328 206.945 796.626 207.137 795.824 207.137C795.04 207.137 794.345 206.945 793.739 206.562C793.133 206.175 792.661 205.626 792.324 204.915C791.991 204.2 791.82 203.372 791.811 202.434V201.716C791.811 200.759 791.978 199.913 792.31 199.18C792.643 198.446 793.112 197.885 793.719 197.498C794.329 197.106 795.026 196.91 795.81 196.91C796.608 196.91 797.31 197.104 797.916 197.491C798.526 197.874 798.996 198.432 799.324 199.166C799.652 199.895 799.816 200.745 799.816 201.716V202.345ZM798.511 201.702C798.511 200.522 798.274 199.617 797.8 198.988C797.326 198.355 796.663 198.038 795.81 198.038C794.981 198.038 794.327 198.355 793.848 198.988C793.374 199.617 793.131 200.492 793.117 201.613V202.345C793.117 203.489 793.356 204.389 793.835 205.045C794.318 205.697 794.981 206.022 795.824 206.022C796.672 206.022 797.328 205.715 797.793 205.1C798.258 204.48 798.497 203.593 798.511 202.44V201.702ZM807.555 203.384C807.555 204.509 807.297 205.416 806.782 206.104C806.267 206.793 805.57 207.137 804.69 207.137C803.793 207.137 803.086 206.852 802.571 206.282V209.844H801.307V199.604H802.462L802.523 200.424C803.038 199.786 803.754 199.467 804.67 199.467C805.559 199.467 806.26 199.802 806.775 200.472C807.295 201.142 807.555 202.074 807.555 203.268V203.384ZM806.29 203.24C806.29 202.406 806.112 201.748 805.757 201.265C805.401 200.782 804.914 200.54 804.294 200.54C803.528 200.54 802.954 200.88 802.571 201.559V205.093C802.95 205.767 803.528 206.104 804.308 206.104C804.914 206.104 805.395 205.865 805.75 205.387C806.11 204.904 806.29 204.188 806.29 203.24ZM811.957 207.137C810.955 207.137 810.139 206.809 809.51 206.152C808.881 205.492 808.567 204.61 808.567 203.507V203.274C808.567 202.541 808.706 201.887 808.984 201.312C809.266 200.734 809.658 200.283 810.159 199.959C810.665 199.631 811.212 199.467 811.8 199.467C812.762 199.467 813.509 199.784 814.042 200.417C814.576 201.05 814.842 201.957 814.842 203.138V203.664H809.831C809.85 204.393 810.062 204.983 810.467 205.435C810.877 205.881 811.397 206.104 812.026 206.104C812.472 206.104 812.851 206.013 813.16 205.831C813.47 205.649 813.742 205.407 813.974 205.106L814.746 205.708C814.127 206.66 813.197 207.137 811.957 207.137ZM811.8 200.506C811.29 200.506 810.861 200.693 810.515 201.066C810.169 201.436 809.954 201.955 809.872 202.625H813.577V202.529C813.541 201.887 813.368 201.39 813.058 201.039C812.748 200.684 812.329 200.506 811.8 200.506ZM819.607 200.738C819.416 200.706 819.208 200.69 818.985 200.69C818.156 200.69 817.593 201.044 817.296 201.75V207H816.032V199.604H817.262L817.283 200.458C817.698 199.797 818.285 199.467 819.046 199.467C819.293 199.467 819.479 199.499 819.607 199.562V200.738ZM824.789 207C824.716 206.854 824.657 206.594 824.611 206.221C824.023 206.831 823.321 207.137 822.506 207.137C821.777 207.137 821.177 206.932 820.708 206.521C820.243 206.107 820.011 205.583 820.011 204.949C820.011 204.179 820.302 203.582 820.886 203.158C821.474 202.73 822.298 202.516 823.36 202.516H824.591V201.935C824.591 201.493 824.459 201.142 824.194 200.882C823.93 200.618 823.54 200.485 823.025 200.485C822.574 200.485 822.196 200.599 821.891 200.827C821.585 201.055 821.433 201.331 821.433 201.654H820.161C820.161 201.285 820.291 200.93 820.551 200.588C820.815 200.242 821.17 199.968 821.617 199.768C822.068 199.567 822.563 199.467 823.1 199.467C823.953 199.467 824.62 199.681 825.103 200.109C825.586 200.533 825.837 201.119 825.855 201.866V205.271C825.855 205.95 825.942 206.49 826.115 206.891V207H824.789ZM822.69 206.036C823.087 206.036 823.463 205.934 823.818 205.729C824.174 205.523 824.431 205.257 824.591 204.929V203.411H823.599C822.05 203.411 821.275 203.865 821.275 204.771C821.275 205.168 821.407 205.478 821.672 205.701C821.936 205.924 822.276 206.036 822.69 206.036ZM829.274 197.812V199.604H830.654V200.581H829.274V205.168C829.274 205.464 829.335 205.688 829.458 205.838C829.581 205.984 829.791 206.057 830.087 206.057C830.233 206.057 830.433 206.029 830.689 205.975V207C830.356 207.091 830.032 207.137 829.718 207.137C829.153 207.137 828.727 206.966 828.44 206.624C828.153 206.282 828.009 205.797 828.009 205.168V200.581H826.662V199.604H828.009V197.812H829.274ZM833.232 207H831.967V199.604H833.232V207ZM831.865 197.642C831.865 197.437 831.926 197.263 832.049 197.122C832.177 196.981 832.364 196.91 832.61 196.91C832.856 196.91 833.043 196.981 833.17 197.122C833.298 197.263 833.362 197.437 833.362 197.642C833.362 197.847 833.298 198.018 833.17 198.154C833.043 198.291 832.856 198.359 832.61 198.359C832.364 198.359 832.177 198.291 832.049 198.154C831.926 198.018 831.865 197.847 831.865 197.642ZM834.647 203.233C834.647 202.509 834.788 201.857 835.071 201.278C835.358 200.7 835.755 200.253 836.26 199.938C836.771 199.624 837.352 199.467 838.004 199.467C839.011 199.467 839.824 199.815 840.444 200.513C841.068 201.21 841.381 202.137 841.381 203.295V203.384C841.381 204.104 841.242 204.751 840.964 205.325C840.69 205.895 840.296 206.339 839.781 206.658C839.271 206.977 838.683 207.137 838.017 207.137C837.015 207.137 836.201 206.788 835.577 206.091C834.957 205.394 834.647 204.471 834.647 203.322V203.233ZM835.919 203.384C835.919 204.204 836.108 204.863 836.486 205.359C836.869 205.856 837.379 206.104 838.017 206.104C838.66 206.104 839.17 205.854 839.549 205.353C839.927 204.847 840.116 204.14 840.116 203.233C840.116 202.422 839.922 201.766 839.535 201.265C839.152 200.759 838.642 200.506 838.004 200.506C837.379 200.506 836.876 200.754 836.493 201.251C836.11 201.748 835.919 202.459 835.919 203.384ZM843.883 199.604L843.924 200.533C844.489 199.822 845.227 199.467 846.139 199.467C847.702 199.467 848.49 200.349 848.504 202.112V207H847.239V202.105C847.235 201.572 847.112 201.178 846.87 200.923C846.633 200.668 846.262 200.54 845.756 200.54C845.346 200.54 844.986 200.649 844.676 200.868C844.366 201.087 844.124 201.374 843.951 201.729V207H842.687V199.604H843.883ZM856.817 205.257L859.661 197.047H861.096L857.405 207H856.243L852.558 197.047H853.987L856.817 205.257ZM864.726 207.137C863.724 207.137 862.908 206.809 862.279 206.152C861.65 205.492 861.336 204.61 861.336 203.507V203.274C861.336 202.541 861.475 201.887 861.753 201.312C862.035 200.734 862.427 200.283 862.929 199.959C863.434 199.631 863.981 199.467 864.569 199.467C865.531 199.467 866.278 199.784 866.811 200.417C867.345 201.05 867.611 201.957 867.611 203.138V203.664H862.6C862.619 204.393 862.831 204.983 863.236 205.435C863.646 205.881 864.166 206.104 864.795 206.104C865.241 206.104 865.62 206.013 865.93 205.831C866.239 205.649 866.511 205.407 866.743 205.106L867.515 205.708C866.896 206.66 865.966 207.137 864.726 207.137ZM864.569 200.506C864.059 200.506 863.63 200.693 863.284 201.066C862.938 201.436 862.723 201.955 862.641 202.625H866.347V202.529C866.31 201.887 866.137 201.39 865.827 201.039C865.517 200.684 865.098 200.506 864.569 200.506ZM870.066 200.499C870.626 199.811 871.355 199.467 872.253 199.467C873.816 199.467 874.605 200.349 874.618 202.112V207H873.354V202.105C873.349 201.572 873.226 201.178 872.984 200.923C872.748 200.668 872.376 200.54 871.87 200.54C871.46 200.54 871.1 200.649 870.79 200.868C870.48 201.087 870.239 201.374 870.066 201.729V207H868.801V196.5H870.066V200.499ZM877.606 207H876.341V199.604H877.606V207ZM876.239 197.642C876.239 197.437 876.3 197.263 876.423 197.122C876.551 196.981 876.738 196.91 876.984 196.91C877.23 196.91 877.417 196.981 877.544 197.122C877.672 197.263 877.736 197.437 877.736 197.642C877.736 197.847 877.672 198.018 877.544 198.154C877.417 198.291 877.23 198.359 876.984 198.359C876.738 198.359 876.551 198.291 876.423 198.154C876.3 198.018 876.239 197.847 876.239 197.642ZM882.323 206.104C882.774 206.104 883.168 205.968 883.506 205.694C883.843 205.421 884.03 205.079 884.066 204.669H885.262C885.24 205.093 885.094 205.496 884.825 205.879C884.556 206.262 884.196 206.567 883.745 206.795C883.298 207.023 882.824 207.137 882.323 207.137C881.316 207.137 880.514 206.802 879.917 206.132C879.324 205.457 879.028 204.537 879.028 203.37V203.158C879.028 202.438 879.16 201.798 879.424 201.237C879.689 200.677 880.067 200.242 880.559 199.932C881.056 199.622 881.642 199.467 882.316 199.467C883.146 199.467 883.834 199.715 884.381 200.212C884.932 200.709 885.226 201.354 885.262 202.146H884.066C884.03 201.668 883.847 201.276 883.519 200.971C883.196 200.661 882.795 200.506 882.316 200.506C881.674 200.506 881.174 200.738 880.819 201.203C880.468 201.663 880.293 202.331 880.293 203.206V203.445C880.293 204.298 880.468 204.954 880.819 205.414C881.17 205.874 881.671 206.104 882.323 206.104ZM887.778 207H886.514V196.5H887.778V207ZM892.598 207.137C891.595 207.137 890.78 206.809 890.151 206.152C889.522 205.492 889.207 204.61 889.207 203.507V203.274C889.207 202.541 889.346 201.887 889.624 201.312C889.907 200.734 890.299 200.283 890.8 199.959C891.306 199.631 891.853 199.467 892.441 199.467C893.402 199.467 894.15 199.784 894.683 200.417C895.216 201.05 895.483 201.957 895.483 203.138V203.664H890.472C890.49 204.393 890.702 204.983 891.108 205.435C891.518 205.881 892.037 206.104 892.666 206.104C893.113 206.104 893.491 206.013 893.801 205.831C894.111 205.649 894.382 205.407 894.614 205.106L895.387 205.708C894.767 206.66 893.837 207.137 892.598 207.137ZM892.441 200.506C891.93 200.506 891.502 200.693 891.156 201.066C890.809 201.436 890.595 201.955 890.513 202.625H894.218V202.529C894.182 201.887 894.008 201.39 893.698 201.039C893.389 200.684 892.969 200.506 892.441 200.506Z" fill="#2E92B0"/>
<path d="M929.856 180.878C931.634 180.878 932.796 181.396 932.796 182.292C932.796 183.188 931.634 183.706 929.856 183.706C928.064 183.706 926.902 183.188 926.902 182.292C926.902 181.396 928.064 180.878 929.856 180.878ZM929.856 184.868C932.558 184.868 934.336 183.874 934.336 182.292C934.336 180.71 932.558 179.716 929.856 179.716C927.14 179.716 925.376 180.71 925.376 182.292C925.376 183.874 927.14 184.868 929.856 184.868ZM927 188.102H925.544V191.84H934.336V190.664H927V188.102ZM924.13 185.722V186.898H929.226V189.292H930.696V186.898H935.596V185.722H924.13ZM938.283 183.202C938.283 182.096 939.095 181.368 940.215 181.368C941.307 181.368 942.119 182.096 942.119 183.202C942.119 184.294 941.307 185.022 940.215 185.022C939.095 185.022 938.283 184.294 938.283 183.202ZM945.773 182.348V184.056H943.365C943.449 183.79 943.491 183.51 943.491 183.202C943.491 182.894 943.449 182.614 943.379 182.348H945.773ZM945.773 185.218V186.884H947.215V179.422H945.773V181.172H942.721C942.133 180.542 941.251 180.15 940.215 180.15C938.325 180.15 936.911 181.41 936.911 183.202C936.911 184.98 938.325 186.24 940.215 186.24C941.237 186.24 942.133 185.862 942.721 185.218H945.773ZM943.001 190.944C941.209 190.944 940.159 190.482 940.159 189.614C940.159 188.774 941.209 188.298 943.001 188.298C944.807 188.298 945.843 188.774 945.843 189.614C945.843 190.482 944.807 190.944 943.001 190.944ZM943.001 187.164C940.369 187.164 938.745 188.074 938.745 189.614C938.745 191.168 940.369 192.078 943.001 192.078C945.633 192.078 947.271 191.168 947.271 189.614C947.271 188.074 945.633 187.164 943.001 187.164ZM958.997 182.614V183.79H961.237V186.968H962.679V179.436H961.237V182.614H958.997ZM959.725 185.428C957.835 184.77 956.757 183.202 956.757 181.62V181.452H959.389V180.29H952.627V181.452H955.301V181.634C955.301 183.37 954.167 185.05 952.207 185.75L952.949 186.898C954.447 186.366 955.511 185.246 956.071 183.86C956.603 185.078 957.611 186.072 959.011 186.562L959.725 185.428ZM958.479 190.972C956.673 190.972 955.651 190.524 955.651 189.698C955.651 188.872 956.673 188.424 958.479 188.424C960.257 188.424 961.293 188.872 961.293 189.698C961.293 190.524 960.257 190.972 958.479 190.972ZM958.479 187.304C955.833 187.304 954.209 188.2 954.209 189.698C954.209 191.21 955.833 192.092 958.479 192.092C961.111 192.092 962.735 191.21 962.735 189.698C962.735 188.2 961.111 187.304 958.479 187.304ZM973.43 182.236H966.178V185.792H975.18V184.63H967.634V183.314H974.9V179.87H966.15V181.032H973.43V182.236ZM976.258 186.912H964.792V188.074H967.62V192.092H969.062V188.074H971.988V192.092H973.43V188.074H976.272L976.258 186.912ZM984.825 185.386C982.893 184.77 981.843 183.3 981.843 181.732V181.494H984.489V180.332H977.699V181.494H980.387V181.746C980.387 183.468 979.281 185.092 977.293 185.778L978.021 186.912C979.533 186.394 980.597 185.316 981.157 183.972C981.703 185.148 982.711 186.058 984.125 186.506L984.825 185.386ZM983.201 190.944C981.437 190.944 980.415 190.496 980.415 189.684C980.415 188.858 981.437 188.424 983.201 188.424C984.965 188.424 985.987 188.858 985.987 189.684C985.987 190.496 984.965 190.944 983.201 190.944ZM983.201 187.29C980.597 187.29 978.987 188.172 978.987 189.684C978.987 191.182 980.597 192.078 983.201 192.078C985.805 192.078 987.415 191.182 987.415 189.684C987.415 188.172 985.805 187.29 983.201 187.29ZM987.275 182.516V179.436H985.833V186.996H987.275V183.706H989.067V182.516H987.275Z" fill="#185786"/>
<path d="M920.25 202.345C920.25 203.32 920.086 204.172 919.757 204.901C919.429 205.626 918.965 206.18 918.363 206.562C917.761 206.945 917.06 207.137 916.257 207.137C915.474 207.137 914.779 206.945 914.173 206.562C913.566 206.175 913.095 205.626 912.757 204.915C912.425 204.2 912.254 203.372 912.245 202.434V201.716C912.245 200.759 912.411 199.913 912.744 199.18C913.077 198.446 913.546 197.885 914.152 197.498C914.763 197.106 915.46 196.91 916.244 196.91C917.041 196.91 917.743 197.104 918.349 197.491C918.96 197.874 919.429 198.432 919.757 199.166C920.086 199.895 920.25 200.745 920.25 201.716V202.345ZM918.944 201.702C918.944 200.522 918.707 199.617 918.233 198.988C917.759 198.355 917.096 198.038 916.244 198.038C915.414 198.038 914.76 198.355 914.282 198.988C913.808 199.617 913.564 200.492 913.55 201.613V202.345C913.55 203.489 913.79 204.389 914.268 205.045C914.751 205.697 915.414 206.022 916.257 206.022C917.105 206.022 917.761 205.715 918.226 205.1C918.691 204.48 918.93 203.593 918.944 202.44V201.702ZM927.988 203.384C927.988 204.509 927.731 205.416 927.216 206.104C926.701 206.793 926.004 207.137 925.124 207.137C924.226 207.137 923.52 206.852 923.005 206.282V209.844H921.74V199.604H922.895L922.957 200.424C923.472 199.786 924.187 199.467 925.103 199.467C925.992 199.467 926.694 199.802 927.209 200.472C927.728 201.142 927.988 202.074 927.988 203.268V203.384ZM926.724 203.24C926.724 202.406 926.546 201.748 926.19 201.265C925.835 200.782 925.347 200.54 924.727 200.54C923.962 200.54 923.388 200.88 923.005 201.559V205.093C923.383 205.767 923.962 206.104 924.741 206.104C925.347 206.104 925.828 205.865 926.184 205.387C926.544 204.904 926.724 204.188 926.724 203.24ZM932.391 207.137C931.388 207.137 930.573 206.809 929.944 206.152C929.315 205.492 929 204.61 929 203.507V203.274C929 202.541 929.139 201.887 929.417 201.312C929.7 200.734 930.092 200.283 930.593 199.959C931.099 199.631 931.646 199.467 932.234 199.467C933.195 199.467 933.943 199.784 934.476 200.417C935.009 201.05 935.276 201.957 935.276 203.138V203.664H930.265C930.283 204.393 930.495 204.983 930.901 205.435C931.311 205.881 931.83 206.104 932.459 206.104C932.906 206.104 933.284 206.013 933.594 205.831C933.904 205.649 934.175 205.407 934.407 205.106L935.18 205.708C934.56 206.66 933.63 207.137 932.391 207.137ZM932.234 200.506C931.723 200.506 931.295 200.693 930.948 201.066C930.602 201.436 930.388 201.955 930.306 202.625H934.011V202.529C933.975 201.887 933.801 201.39 933.491 201.039C933.182 200.684 932.762 200.506 932.234 200.506ZM940.041 200.738C939.849 200.706 939.642 200.69 939.418 200.69C938.589 200.69 938.026 201.044 937.73 201.75V207H936.465V199.604H937.696L937.716 200.458C938.131 199.797 938.719 199.467 939.48 199.467C939.726 199.467 939.913 199.499 940.041 199.562V200.738ZM945.222 207C945.15 206.854 945.09 206.594 945.045 206.221C944.457 206.831 943.755 207.137 942.939 207.137C942.21 207.137 941.611 206.932 941.141 206.521C940.677 206.107 940.444 205.583 940.444 204.949C940.444 204.179 940.736 203.582 941.319 203.158C941.907 202.73 942.732 202.516 943.794 202.516H945.024V201.935C945.024 201.493 944.892 201.142 944.628 200.882C944.363 200.618 943.974 200.485 943.459 200.485C943.008 200.485 942.629 200.599 942.324 200.827C942.019 201.055 941.866 201.331 941.866 201.654H940.595C940.595 201.285 940.724 200.93 940.984 200.588C941.249 200.242 941.604 199.968 942.051 199.768C942.502 199.567 942.996 199.467 943.534 199.467C944.386 199.467 945.054 199.681 945.537 200.109C946.02 200.533 946.271 201.119 946.289 201.866V205.271C946.289 205.95 946.375 206.49 946.549 206.891V207H945.222ZM943.124 206.036C943.52 206.036 943.896 205.934 944.252 205.729C944.607 205.523 944.865 205.257 945.024 204.929V203.411H944.033C942.484 203.411 941.709 203.865 941.709 204.771C941.709 205.168 941.841 205.478 942.105 205.701C942.37 205.924 942.709 206.036 943.124 206.036ZM949.707 197.812V199.604H951.088V200.581H949.707V205.168C949.707 205.464 949.769 205.688 949.892 205.838C950.015 205.984 950.224 206.057 950.521 206.057C950.666 206.057 950.867 206.029 951.122 205.975V207C950.789 207.091 950.466 207.137 950.151 207.137C949.586 207.137 949.16 206.966 948.873 206.624C948.586 206.282 948.442 205.797 948.442 205.168V200.581H947.096V199.604H948.442V197.812H949.707ZM953.665 207H952.401V199.604H953.665V207ZM952.298 197.642C952.298 197.437 952.36 197.263 952.483 197.122C952.61 196.981 952.797 196.91 953.043 196.91C953.289 196.91 953.476 196.981 953.604 197.122C953.731 197.263 953.795 197.437 953.795 197.642C953.795 197.847 953.731 198.018 953.604 198.154C953.476 198.291 953.289 198.359 953.043 198.359C952.797 198.359 952.61 198.291 952.483 198.154C952.36 198.018 952.298 197.847 952.298 197.642ZM955.081 203.233C955.081 202.509 955.222 201.857 955.505 201.278C955.792 200.7 956.188 200.253 956.694 199.938C957.204 199.624 957.785 199.467 958.437 199.467C959.444 199.467 960.258 199.815 960.878 200.513C961.502 201.21 961.814 202.137 961.814 203.295V203.384C961.814 204.104 961.675 204.751 961.397 205.325C961.124 205.895 960.729 206.339 960.214 206.658C959.704 206.977 959.116 207.137 958.451 207.137C957.448 207.137 956.635 206.788 956.01 206.091C955.391 205.394 955.081 204.471 955.081 203.322V203.233ZM956.352 203.384C956.352 204.204 956.541 204.863 956.92 205.359C957.302 205.856 957.813 206.104 958.451 206.104C959.093 206.104 959.604 205.854 959.982 205.353C960.36 204.847 960.549 204.14 960.549 203.233C960.549 202.422 960.356 201.766 959.968 201.265C959.586 200.759 959.075 200.506 958.437 200.506C957.813 200.506 957.309 200.754 956.926 201.251C956.544 201.748 956.352 202.459 956.352 203.384ZM964.316 199.604L964.357 200.533C964.922 199.822 965.661 199.467 966.572 199.467C968.135 199.467 968.924 200.349 968.937 202.112V207H967.673V202.105C967.668 201.572 967.545 201.178 967.304 200.923C967.067 200.668 966.695 200.54 966.189 200.54C965.779 200.54 965.419 200.649 965.109 200.868C964.799 201.087 964.558 201.374 964.385 201.729V207H963.12V199.604H964.316ZM976.888 202.563C975.763 202.24 974.942 201.843 974.427 201.374C973.917 200.9 973.662 200.317 973.662 199.624C973.662 198.84 973.974 198.193 974.598 197.683C975.227 197.168 976.043 196.91 977.045 196.91C977.729 196.91 978.337 197.042 978.871 197.307C979.408 197.571 979.823 197.936 980.115 198.4C980.411 198.865 980.559 199.373 980.559 199.925H979.24C979.24 199.323 979.048 198.852 978.666 198.51C978.283 198.163 977.743 197.99 977.045 197.99C976.398 197.99 975.892 198.134 975.528 198.421C975.168 198.703 974.988 199.098 974.988 199.604C974.988 200.009 975.159 200.353 975.5 200.636C975.847 200.914 976.432 201.169 977.257 201.401C978.087 201.634 978.734 201.891 979.199 202.174C979.668 202.452 980.014 202.778 980.238 203.151C980.466 203.525 980.58 203.965 980.58 204.471C980.58 205.277 980.265 205.924 979.636 206.412C979.007 206.895 978.166 207.137 977.114 207.137C976.43 207.137 975.792 207.007 975.2 206.747C974.607 206.483 974.149 206.123 973.826 205.667C973.507 205.211 973.347 204.694 973.347 204.115H974.666C974.666 204.717 974.888 205.193 975.33 205.544C975.776 205.89 976.371 206.063 977.114 206.063C977.806 206.063 978.337 205.922 978.707 205.64C979.076 205.357 979.26 204.972 979.26 204.484C979.26 203.997 979.089 203.621 978.748 203.356C978.406 203.088 977.786 202.823 976.888 202.563ZM983.506 197.812V199.604H984.886V200.581H983.506V205.168C983.506 205.464 983.567 205.688 983.69 205.838C983.813 205.984 984.023 206.057 984.319 206.057C984.465 206.057 984.665 206.029 984.921 205.975V207C984.588 207.091 984.264 207.137 983.95 207.137C983.385 207.137 982.959 206.966 982.672 206.624C982.385 206.282 982.241 205.797 982.241 205.168V200.581H980.894V199.604H982.241V197.812H983.506ZM985.618 203.233C985.618 202.509 985.759 201.857 986.042 201.278C986.329 200.7 986.726 200.253 987.231 199.938C987.742 199.624 988.323 199.467 988.975 199.467C989.982 199.467 990.795 199.815 991.415 200.513C992.039 201.21 992.352 202.137 992.352 203.295V203.384C992.352 204.104 992.213 204.751 991.935 205.325C991.661 205.895 991.267 206.339 990.752 206.658C990.242 206.977 989.654 207.137 988.988 207.137C987.986 207.137 987.172 206.788 986.548 206.091C985.928 205.394 985.618 204.471 985.618 203.322V203.233ZM986.89 203.384C986.89 204.204 987.079 204.863 987.457 205.359C987.84 205.856 988.35 206.104 988.988 206.104C989.631 206.104 990.141 205.854 990.52 205.353C990.898 204.847 991.087 204.14 991.087 203.233C991.087 202.422 990.893 201.766 990.506 201.265C990.123 200.759 989.613 200.506 988.975 200.506C988.35 200.506 987.847 200.754 987.464 201.251C987.081 201.748 986.89 202.459 986.89 203.384ZM999.906 203.384C999.906 204.509 999.648 205.416 999.133 206.104C998.618 206.793 997.921 207.137 997.041 207.137C996.144 207.137 995.437 206.852 994.922 206.282V209.844H993.658V199.604H994.813L994.874 200.424C995.389 199.786 996.105 199.467 997.021 199.467C997.909 199.467 998.611 199.802 999.126 200.472C999.646 201.142 999.906 202.074 999.906 203.268V203.384ZM998.641 203.24C998.641 202.406 998.463 201.748 998.108 201.265C997.752 200.782 997.265 200.54 996.645 200.54C995.879 200.54 995.305 200.88 994.922 201.559V205.093C995.3 205.767 995.879 206.104 996.659 206.104C997.265 206.104 997.745 205.865 998.101 205.387C998.461 204.904 998.641 204.188 998.641 203.24Z" fill="#2E92B0"/>
<path d="M1030.56 180.878C1032.34 180.878 1033.5 181.396 1033.5 182.292C1033.5 183.188 1032.34 183.706 1030.56 183.706C1028.77 183.706 1027.6 183.188 1027.6 182.292C1027.6 181.396 1028.77 180.878 1030.56 180.878ZM1030.56 184.868C1033.26 184.868 1035.04 183.874 1035.04 182.292C1035.04 180.71 1033.26 179.716 1030.56 179.716C1027.84 179.716 1026.08 180.71 1026.08 182.292C1026.08 183.874 1027.84 184.868 1030.56 184.868ZM1027.7 188.102H1026.25V191.84H1035.04V190.664H1027.7V188.102ZM1024.83 185.722V186.898H1029.93V189.292H1031.4V186.898H1036.3V185.722H1024.83ZM1038.98 183.202C1038.98 182.096 1039.8 181.368 1040.92 181.368C1042.01 181.368 1042.82 182.096 1042.82 183.202C1042.82 184.294 1042.01 185.022 1040.92 185.022C1039.8 185.022 1038.98 184.294 1038.98 183.202ZM1046.47 182.348V184.056H1044.07C1044.15 183.79 1044.19 183.51 1044.19 183.202C1044.19 182.894 1044.15 182.614 1044.08 182.348H1046.47ZM1046.47 185.218V186.884H1047.92V179.422H1046.47V181.172H1043.42C1042.83 180.542 1041.95 180.15 1040.92 180.15C1039.03 180.15 1037.61 181.41 1037.61 183.202C1037.61 184.98 1039.03 186.24 1040.92 186.24C1041.94 186.24 1042.83 185.862 1043.42 185.218H1046.47ZM1043.7 190.944C1041.91 190.944 1040.86 190.482 1040.86 189.614C1040.86 188.774 1041.91 188.298 1043.7 188.298C1045.51 188.298 1046.54 188.774 1046.54 189.614C1046.54 190.482 1045.51 190.944 1043.7 190.944ZM1043.7 187.164C1041.07 187.164 1039.45 188.074 1039.45 189.614C1039.45 191.168 1041.07 192.078 1043.7 192.078C1046.33 192.078 1047.97 191.168 1047.97 189.614C1047.97 188.074 1046.33 187.164 1043.7 187.164ZM1053.8 180.696V181.872H1058.24C1058.19 182.572 1058.07 183.23 1057.89 183.846L1053.16 184.14L1053.36 185.386L1057.44 185.008C1056.67 186.562 1055.3 187.878 1053.08 188.984L1053.86 190.118C1058.48 187.808 1059.68 184.462 1059.68 180.696H1053.8ZM1061.9 179.436V192.078H1063.34V179.436H1061.9ZM1067.97 183.566C1067.97 182.194 1069.33 181.326 1071.22 181.326C1073.09 181.326 1074.45 182.194 1074.45 183.566C1074.45 184.938 1073.09 185.806 1071.22 185.806C1069.33 185.806 1067.97 184.938 1067.97 183.566ZM1071.93 189.348V186.94C1074.24 186.73 1075.87 185.442 1075.87 183.566C1075.87 181.508 1073.89 180.178 1071.22 180.178C1068.53 180.178 1066.57 181.508 1066.57 183.566C1066.57 185.442 1068.18 186.716 1070.49 186.926V189.348H1065.51V190.524H1076.96V189.348H1071.93ZM1089.07 185.61C1086.58 185.162 1084.55 183.216 1084.55 181.2V180.248H1083.02V181.2C1083.02 183.202 1080.99 185.148 1078.5 185.61L1079.11 186.8C1081.17 186.38 1082.95 185.064 1083.78 183.328C1084.6 185.064 1086.38 186.38 1088.44 186.8L1089.07 185.61ZM1078.11 189.264V190.454H1089.56V189.264H1078.11ZM1091.68 184.42L1091.87 185.596L1099.33 185.218C1099.26 186.142 1099.12 187.136 1098.85 188.27L1100.28 188.396C1100.84 185.736 1100.84 184 1100.84 182.166V180.64H1092.03V181.802H1099.43V182.166C1099.43 182.81 1099.43 183.454 1099.4 184.126L1091.68 184.42ZM1090.7 189.25V190.44H1102.13V189.25H1090.7Z" fill="#185786"/>
<path d="M1024.95 202.345C1024.95 203.32 1024.79 204.172 1024.46 204.901C1024.13 205.626 1023.67 206.18 1023.06 206.562C1022.46 206.945 1021.76 207.137 1020.96 207.137C1020.17 207.137 1019.48 206.945 1018.87 206.562C1018.27 206.175 1017.8 205.626 1017.46 204.915C1017.13 204.2 1016.95 203.372 1016.95 202.434V201.716C1016.95 200.759 1017.11 199.913 1017.44 199.18C1017.78 198.446 1018.25 197.885 1018.85 197.498C1019.46 197.106 1020.16 196.91 1020.94 196.91C1021.74 196.91 1022.44 197.104 1023.05 197.491C1023.66 197.874 1024.13 198.432 1024.46 199.166C1024.79 199.895 1024.95 200.745 1024.95 201.716V202.345ZM1023.64 201.702C1023.64 200.522 1023.41 199.617 1022.93 198.988C1022.46 198.355 1021.8 198.038 1020.94 198.038C1020.11 198.038 1019.46 198.355 1018.98 198.988C1018.51 199.617 1018.26 200.492 1018.25 201.613V202.345C1018.25 203.489 1018.49 204.389 1018.97 205.045C1019.45 205.697 1020.11 206.022 1020.96 206.022C1021.81 206.022 1022.46 205.715 1022.93 205.1C1023.39 204.48 1023.63 203.593 1023.64 202.44V201.702ZM1032.69 203.384C1032.69 204.509 1032.43 205.416 1031.92 206.104C1031.4 206.793 1030.7 207.137 1029.82 207.137C1028.93 207.137 1028.22 206.852 1027.71 206.282V209.844H1026.44V199.604H1027.6L1027.66 200.424C1028.17 199.786 1028.89 199.467 1029.8 199.467C1030.69 199.467 1031.39 199.802 1031.91 200.472C1032.43 201.142 1032.69 202.074 1032.69 203.268V203.384ZM1031.42 203.24C1031.42 202.406 1031.25 201.748 1030.89 201.265C1030.54 200.782 1030.05 200.54 1029.43 200.54C1028.66 200.54 1028.09 200.88 1027.71 201.559V205.093C1028.08 205.767 1028.66 206.104 1029.44 206.104C1030.05 206.104 1030.53 205.865 1030.88 205.387C1031.24 204.904 1031.42 204.188 1031.42 203.24ZM1037.09 207.137C1036.09 207.137 1035.27 206.809 1034.64 206.152C1034.02 205.492 1033.7 204.61 1033.7 203.507V203.274C1033.7 202.541 1033.84 201.887 1034.12 201.312C1034.4 200.734 1034.79 200.283 1035.29 199.959C1035.8 199.631 1036.35 199.467 1036.93 199.467C1037.9 199.467 1038.64 199.784 1039.18 200.417C1039.71 201.05 1039.98 201.957 1039.98 203.138V203.664H1034.97C1034.98 204.393 1035.2 204.983 1035.6 205.435C1036.01 205.881 1036.53 206.104 1037.16 206.104C1037.61 206.104 1037.98 206.013 1038.29 205.831C1038.6 205.649 1038.88 205.407 1039.11 205.106L1039.88 205.708C1039.26 206.66 1038.33 207.137 1037.09 207.137ZM1036.93 200.506C1036.42 200.506 1036 200.693 1035.65 201.066C1035.3 201.436 1035.09 201.955 1035.01 202.625H1038.71V202.529C1038.68 201.887 1038.5 201.39 1038.19 201.039C1037.88 200.684 1037.46 200.506 1036.93 200.506ZM1044.74 200.738C1044.55 200.706 1044.34 200.69 1044.12 200.69C1043.29 200.69 1042.73 201.044 1042.43 201.75V207H1041.17V199.604H1042.4L1042.42 200.458C1042.83 199.797 1043.42 199.467 1044.18 199.467C1044.43 199.467 1044.61 199.499 1044.74 199.562V200.738ZM1049.92 207C1049.85 206.854 1049.79 206.594 1049.75 206.221C1049.16 206.831 1048.46 207.137 1047.64 207.137C1046.91 207.137 1046.31 206.932 1045.84 206.521C1045.38 206.107 1045.14 205.583 1045.14 204.949C1045.14 204.179 1045.44 203.582 1046.02 203.158C1046.61 202.73 1047.43 202.516 1048.49 202.516H1049.72V201.935C1049.72 201.493 1049.59 201.142 1049.33 200.882C1049.06 200.618 1048.67 200.485 1048.16 200.485C1047.71 200.485 1047.33 200.599 1047.02 200.827C1046.72 201.055 1046.57 201.331 1046.57 201.654H1045.3C1045.3 201.285 1045.42 200.93 1045.68 200.588C1045.95 200.242 1046.3 199.968 1046.75 199.768C1047.2 199.567 1047.7 199.467 1048.23 199.467C1049.09 199.467 1049.75 199.681 1050.24 200.109C1050.72 200.533 1050.97 201.119 1050.99 201.866V205.271C1050.99 205.95 1051.08 206.49 1051.25 206.891V207H1049.92ZM1047.82 206.036C1048.22 206.036 1048.6 205.934 1048.95 205.729C1049.31 205.523 1049.57 205.257 1049.72 204.929V203.411H1048.73C1047.18 203.411 1046.41 203.865 1046.41 204.771C1046.41 205.168 1046.54 205.478 1046.81 205.701C1047.07 205.924 1047.41 206.036 1047.82 206.036ZM1054.41 197.812V199.604H1055.79V200.581H1054.41V205.168C1054.41 205.464 1054.47 205.688 1054.59 205.838C1054.72 205.984 1054.92 206.057 1055.22 206.057C1055.37 206.057 1055.57 206.029 1055.82 205.975V207C1055.49 207.091 1055.17 207.137 1054.85 207.137C1054.29 207.137 1053.86 206.966 1053.57 206.624C1053.29 206.282 1053.14 205.797 1053.14 205.168V200.581H1051.8V199.604H1053.14V197.812H1054.41ZM1058.37 207H1057.1V199.604H1058.37V207ZM1057 197.642C1057 197.437 1057.06 197.263 1057.18 197.122C1057.31 196.981 1057.5 196.91 1057.74 196.91C1057.99 196.91 1058.18 196.981 1058.3 197.122C1058.43 197.263 1058.5 197.437 1058.5 197.642C1058.5 197.847 1058.43 198.018 1058.3 198.154C1058.18 198.291 1057.99 198.359 1057.74 198.359C1057.5 198.359 1057.31 198.291 1057.18 198.154C1057.06 198.018 1057 197.847 1057 197.642ZM1059.78 203.233C1059.78 202.509 1059.92 201.857 1060.21 201.278C1060.49 200.7 1060.89 200.253 1061.39 199.938C1061.9 199.624 1062.49 199.467 1063.14 199.467C1064.14 199.467 1064.96 199.815 1065.58 200.513C1066.2 201.21 1066.51 202.137 1066.51 203.295V203.384C1066.51 204.104 1066.38 204.751 1066.1 205.325C1065.82 205.895 1065.43 206.339 1064.92 206.658C1064.4 206.977 1063.82 207.137 1063.15 207.137C1062.15 207.137 1061.34 206.788 1060.71 206.091C1060.09 205.394 1059.78 204.471 1059.78 203.322V203.233ZM1061.05 203.384C1061.05 204.204 1061.24 204.863 1061.62 205.359C1062 205.856 1062.51 206.104 1063.15 206.104C1063.79 206.104 1064.3 205.854 1064.68 205.353C1065.06 204.847 1065.25 204.14 1065.25 203.233C1065.25 202.422 1065.06 201.766 1064.67 201.265C1064.29 200.759 1063.78 200.506 1063.14 200.506C1062.51 200.506 1062.01 200.754 1061.63 201.251C1061.24 201.748 1061.05 202.459 1061.05 203.384ZM1069.02 199.604L1069.06 200.533C1069.62 199.822 1070.36 199.467 1071.27 199.467C1072.84 199.467 1073.62 200.349 1073.64 202.112V207H1072.37V202.105C1072.37 201.572 1072.25 201.178 1072 200.923C1071.77 200.668 1071.4 200.54 1070.89 200.54C1070.48 200.54 1070.12 200.649 1069.81 200.868C1069.5 201.087 1069.26 201.374 1069.09 201.729V207H1067.82V199.604H1069.02ZM1081.19 202.372L1079.97 203.637V207H1078.66V197.047H1079.97V201.969L1084.39 197.047H1085.98L1082.06 201.442L1086.28 207H1084.71L1081.19 202.372ZM1088.33 207H1087.06V199.604H1088.33V207ZM1086.96 197.642C1086.96 197.437 1087.02 197.263 1087.15 197.122C1087.27 196.981 1087.46 196.91 1087.71 196.91C1087.95 196.91 1088.14 196.981 1088.27 197.122C1088.4 197.263 1088.46 197.437 1088.46 197.642C1088.46 197.847 1088.4 198.018 1088.27 198.154C1088.14 198.291 1087.95 198.359 1087.71 198.359C1087.46 198.359 1087.27 198.291 1087.15 198.154C1087.02 198.018 1086.96 197.847 1086.96 197.642ZM1089.74 203.233C1089.74 202.509 1089.89 201.857 1090.17 201.278C1090.46 200.7 1090.85 200.253 1091.36 199.938C1091.87 199.624 1092.45 199.467 1093.1 199.467C1094.11 199.467 1094.92 199.815 1095.54 200.513C1096.17 201.21 1096.48 202.137 1096.48 203.295V203.384C1096.48 204.104 1096.34 204.751 1096.06 205.325C1095.79 205.895 1095.39 206.339 1094.88 206.658C1094.37 206.977 1093.78 207.137 1093.11 207.137C1092.11 207.137 1091.3 206.788 1090.67 206.091C1090.05 205.394 1089.74 204.471 1089.74 203.322V203.233ZM1091.02 203.384C1091.02 204.204 1091.21 204.863 1091.58 205.359C1091.97 205.856 1092.48 206.104 1093.11 206.104C1093.76 206.104 1094.27 205.854 1094.65 205.353C1095.02 204.847 1095.21 204.14 1095.21 203.233C1095.21 202.422 1095.02 201.766 1094.63 201.265C1094.25 200.759 1093.74 200.506 1093.1 200.506C1092.48 200.506 1091.97 200.754 1091.59 201.251C1091.21 201.748 1091.02 202.459 1091.02 203.384ZM1102.09 205.038C1102.09 204.696 1101.96 204.432 1101.7 204.245C1101.45 204.054 1101 203.89 1100.35 203.753C1099.72 203.616 1099.21 203.452 1098.83 203.261C1098.46 203.069 1098.18 202.841 1098 202.577C1097.82 202.313 1097.73 201.998 1097.73 201.634C1097.73 201.028 1097.98 200.515 1098.49 200.096C1099.01 199.676 1099.67 199.467 1100.46 199.467C1101.3 199.467 1101.98 199.683 1102.5 200.116C1103.02 200.549 1103.29 201.103 1103.29 201.777H1102.02C1102.02 201.431 1101.87 201.132 1101.57 200.882C1101.28 200.631 1100.91 200.506 1100.46 200.506C1100 200.506 1099.64 200.606 1099.38 200.807C1099.12 201.007 1098.99 201.269 1098.99 201.593C1098.99 201.898 1099.11 202.128 1099.36 202.283C1099.6 202.438 1100.03 202.586 1100.66 202.728C1101.3 202.869 1101.81 203.037 1102.2 203.233C1102.59 203.429 1102.88 203.666 1103.07 203.944C1103.26 204.218 1103.36 204.553 1103.36 204.949C1103.36 205.61 1103.09 206.141 1102.56 206.542C1102.03 206.938 1101.35 207.137 1100.5 207.137C1099.91 207.137 1099.39 207.032 1098.93 206.822C1098.48 206.613 1098.12 206.321 1097.86 205.947C1097.6 205.569 1097.48 205.161 1097.48 204.724H1098.74C1098.76 205.147 1098.93 205.485 1099.25 205.735C1099.57 205.981 1099.99 206.104 1100.5 206.104C1100.98 206.104 1101.37 206.009 1101.65 205.817C1101.94 205.621 1102.09 205.362 1102.09 205.038ZM1106.79 203.575L1105.99 204.402V207H1104.73V196.5H1105.99V202.851L1106.67 202.037L1108.97 199.604H1110.51L1107.63 202.693L1110.85 207H1109.36L1106.79 203.575Z" fill="#2E92B0"/>
<path d="M1151.86 180.878C1153.63 180.878 1154.8 181.396 1154.8 182.292C1154.8 183.188 1153.63 183.706 1151.86 183.706C1150.06 183.706 1148.9 183.188 1148.9 182.292C1148.9 181.396 1150.06 180.878 1151.86 180.878ZM1151.86 184.868C1154.56 184.868 1156.34 183.874 1156.34 182.292C1156.34 180.71 1154.56 179.716 1151.86 179.716C1149.14 179.716 1147.38 180.71 1147.38 182.292C1147.38 183.874 1149.14 184.868 1151.86 184.868ZM1149 188.102H1147.54V191.84H1156.34V190.664H1149V188.102ZM1146.13 185.722V186.898H1151.23V189.292H1152.7V186.898H1157.6V185.722H1146.13ZM1160.28 183.202C1160.28 182.096 1161.1 181.368 1162.22 181.368C1163.31 181.368 1164.12 182.096 1164.12 183.202C1164.12 184.294 1163.31 185.022 1162.22 185.022C1161.1 185.022 1160.28 184.294 1160.28 183.202ZM1167.77 182.348V184.056H1165.37C1165.45 183.79 1165.49 183.51 1165.49 183.202C1165.49 182.894 1165.45 182.614 1165.38 182.348H1167.77ZM1167.77 185.218V186.884H1169.22V179.422H1167.77V181.172H1164.72C1164.13 180.542 1163.25 180.15 1162.22 180.15C1160.33 180.15 1158.91 181.41 1158.91 183.202C1158.91 184.98 1160.33 186.24 1162.22 186.24C1163.24 186.24 1164.13 185.862 1164.72 185.218H1167.77ZM1165 190.944C1163.21 190.944 1162.16 190.482 1162.16 189.614C1162.16 188.774 1163.21 188.298 1165 188.298C1166.81 188.298 1167.84 188.774 1167.84 189.614C1167.84 190.482 1166.81 190.944 1165 190.944ZM1165 187.164C1162.37 187.164 1160.75 188.074 1160.75 189.614C1160.75 191.168 1162.37 192.078 1165 192.078C1167.63 192.078 1169.27 191.168 1169.27 189.614C1169.27 188.074 1167.63 187.164 1165 187.164ZM1178.57 182.726H1181.25V181.564H1178.57V179.688H1177.13V181.564H1174.42V182.726H1177.13V183.454C1177.13 185.526 1175.96 187.654 1174.02 188.578L1174.82 189.684C1176.26 189.012 1177.31 187.626 1177.87 185.988C1178.39 187.514 1179.4 188.802 1180.76 189.46L1181.56 188.354C1179.68 187.444 1178.57 185.386 1178.57 183.454V182.726ZM1185.97 184.504H1183.99V179.422H1182.55V192.078H1183.99V185.694H1185.97V184.504ZM1195.54 181.858C1195.54 183.37 1195.54 185.162 1195.05 187.64L1196.51 187.794C1197 185.176 1197 183.426 1197 181.858V180.612H1188V181.788H1195.54V181.858ZM1192.52 189.236V184.784H1191.06V189.236H1186.81V190.426H1198.23V189.236H1192.52ZM1204.07 181.886H1206.88V180.696H1199.8V181.886H1202.61V183.09C1202.61 185.26 1201.31 187.612 1199.35 188.522L1200.17 189.67C1201.66 188.956 1202.79 187.458 1203.35 185.694C1203.94 187.332 1205.07 188.704 1206.54 189.348L1207.34 188.214C1205.37 187.374 1204.07 185.19 1204.07 183.09V181.886ZM1208.35 179.436V192.078H1209.81V179.436H1208.35Z" fill="#185786"/>
<path d="M1135.07 202.345C1135.07 203.32 1134.9 204.172 1134.57 204.901C1134.25 205.626 1133.78 206.18 1133.18 206.562C1132.58 206.945 1131.88 207.137 1131.07 207.137C1130.29 207.137 1129.59 206.945 1128.99 206.562C1128.38 206.175 1127.91 205.626 1127.57 204.915C1127.24 204.2 1127.07 203.372 1127.06 202.434V201.716C1127.06 200.759 1127.23 199.913 1127.56 199.18C1127.89 198.446 1128.36 197.885 1128.97 197.498C1129.58 197.106 1130.28 196.91 1131.06 196.91C1131.86 196.91 1132.56 197.104 1133.17 197.491C1133.78 197.874 1134.25 198.432 1134.57 199.166C1134.9 199.895 1135.07 200.745 1135.07 201.716V202.345ZM1133.76 201.702C1133.76 200.522 1133.52 199.617 1133.05 198.988C1132.58 198.355 1131.91 198.038 1131.06 198.038C1130.23 198.038 1129.58 198.355 1129.1 198.988C1128.62 199.617 1128.38 200.492 1128.37 201.613V202.345C1128.37 203.489 1128.61 204.389 1129.08 205.045C1129.57 205.697 1130.23 206.022 1131.07 206.022C1131.92 206.022 1132.58 205.715 1133.04 205.1C1133.51 204.48 1133.75 203.593 1133.76 202.44V201.702ZM1142.8 203.384C1142.8 204.509 1142.55 205.416 1142.03 206.104C1141.52 206.793 1140.82 207.137 1139.94 207.137C1139.04 207.137 1138.34 206.852 1137.82 206.282V209.844H1136.56V199.604H1137.71L1137.77 200.424C1138.29 199.786 1139 199.467 1139.92 199.467C1140.81 199.467 1141.51 199.802 1142.03 200.472C1142.54 201.142 1142.8 202.074 1142.8 203.268V203.384ZM1141.54 203.24C1141.54 202.406 1141.36 201.748 1141.01 201.265C1140.65 200.782 1140.16 200.54 1139.54 200.54C1138.78 200.54 1138.2 200.88 1137.82 201.559V205.093C1138.2 205.767 1138.78 206.104 1139.56 206.104C1140.16 206.104 1140.64 205.865 1141 205.387C1141.36 204.904 1141.54 204.188 1141.54 203.24ZM1147.21 207.137C1146.2 207.137 1145.39 206.809 1144.76 206.152C1144.13 205.492 1143.82 204.61 1143.82 203.507V203.274C1143.82 202.541 1143.96 201.887 1144.23 201.312C1144.52 200.734 1144.91 200.283 1145.41 199.959C1145.91 199.631 1146.46 199.467 1147.05 199.467C1148.01 199.467 1148.76 199.784 1149.29 200.417C1149.83 201.05 1150.09 201.957 1150.09 203.138V203.664H1145.08C1145.1 204.393 1145.31 204.983 1145.72 205.435C1146.13 205.881 1146.65 206.104 1147.28 206.104C1147.72 206.104 1148.1 206.013 1148.41 205.831C1148.72 205.649 1148.99 205.407 1149.22 205.106L1150 205.708C1149.38 206.66 1148.45 207.137 1147.21 207.137ZM1147.05 200.506C1146.54 200.506 1146.11 200.693 1145.76 201.066C1145.42 201.436 1145.2 201.955 1145.12 202.625H1148.83V202.529C1148.79 201.887 1148.62 201.39 1148.31 201.039C1148 200.684 1147.58 200.506 1147.05 200.506ZM1154.86 200.738C1154.67 200.706 1154.46 200.69 1154.23 200.69C1153.41 200.69 1152.84 201.044 1152.55 201.75V207H1151.28V199.604H1152.51L1152.53 200.458C1152.95 199.797 1153.54 199.467 1154.3 199.467C1154.54 199.467 1154.73 199.499 1154.86 199.562V200.738ZM1160.04 207C1159.97 206.854 1159.91 206.594 1159.86 206.221C1159.27 206.831 1158.57 207.137 1157.76 207.137C1157.03 207.137 1156.43 206.932 1155.96 206.521C1155.49 206.107 1155.26 205.583 1155.26 204.949C1155.26 204.179 1155.55 203.582 1156.14 203.158C1156.72 202.73 1157.55 202.516 1158.61 202.516H1159.84V201.935C1159.84 201.493 1159.71 201.142 1159.44 200.882C1159.18 200.618 1158.79 200.485 1158.27 200.485C1157.82 200.485 1157.45 200.599 1157.14 200.827C1156.83 201.055 1156.68 201.331 1156.68 201.654H1155.41C1155.41 201.285 1155.54 200.93 1155.8 200.588C1156.06 200.242 1156.42 199.968 1156.87 199.768C1157.32 199.567 1157.81 199.467 1158.35 199.467C1159.2 199.467 1159.87 199.681 1160.35 200.109C1160.84 200.533 1161.09 201.119 1161.1 201.866V205.271C1161.1 205.95 1161.19 206.49 1161.36 206.891V207H1160.04ZM1157.94 206.036C1158.34 206.036 1158.71 205.934 1159.07 205.729C1159.42 205.523 1159.68 205.257 1159.84 204.929V203.411H1158.85C1157.3 203.411 1156.52 203.865 1156.52 204.771C1156.52 205.168 1156.66 205.478 1156.92 205.701C1157.19 205.924 1157.53 206.036 1157.94 206.036ZM1164.52 197.812V199.604H1165.9V200.581H1164.52V205.168C1164.52 205.464 1164.58 205.688 1164.71 205.838C1164.83 205.984 1165.04 206.057 1165.34 206.057C1165.48 206.057 1165.68 206.029 1165.94 205.975V207C1165.61 207.091 1165.28 207.137 1164.97 207.137C1164.4 207.137 1163.98 206.966 1163.69 206.624C1163.4 206.282 1163.26 205.797 1163.26 205.168V200.581H1161.91V199.604H1163.26V197.812H1164.52ZM1168.48 207H1167.22V199.604H1168.48V207ZM1167.11 197.642C1167.11 197.437 1167.18 197.263 1167.3 197.122C1167.43 196.981 1167.61 196.91 1167.86 196.91C1168.11 196.91 1168.29 196.981 1168.42 197.122C1168.55 197.263 1168.61 197.437 1168.61 197.642C1168.61 197.847 1168.55 198.018 1168.42 198.154C1168.29 198.291 1168.11 198.359 1167.86 198.359C1167.61 198.359 1167.43 198.291 1167.3 198.154C1167.18 198.018 1167.11 197.847 1167.11 197.642ZM1169.9 203.233C1169.9 202.509 1170.04 201.857 1170.32 201.278C1170.61 200.7 1171 200.253 1171.51 199.938C1172.02 199.624 1172.6 199.467 1173.25 199.467C1174.26 199.467 1175.07 199.815 1175.69 200.513C1176.32 201.21 1176.63 202.137 1176.63 203.295V203.384C1176.63 204.104 1176.49 204.751 1176.21 205.325C1175.94 205.895 1175.55 206.339 1175.03 206.658C1174.52 206.977 1173.93 207.137 1173.27 207.137C1172.26 207.137 1171.45 206.788 1170.83 206.091C1170.21 205.394 1169.9 204.471 1169.9 203.322V203.233ZM1171.17 203.384C1171.17 204.204 1171.36 204.863 1171.74 205.359C1172.12 205.856 1172.63 206.104 1173.27 206.104C1173.91 206.104 1174.42 205.854 1174.8 205.353C1175.18 204.847 1175.37 204.14 1175.37 203.233C1175.37 202.422 1175.17 201.766 1174.78 201.265C1174.4 200.759 1173.89 200.506 1173.25 200.506C1172.63 200.506 1172.13 200.754 1171.74 201.251C1171.36 201.748 1171.17 202.459 1171.17 203.384ZM1179.13 199.604L1179.17 200.533C1179.74 199.822 1180.48 199.467 1181.39 199.467C1182.95 199.467 1183.74 200.349 1183.75 202.112V207H1182.49V202.105C1182.48 201.572 1182.36 201.178 1182.12 200.923C1181.88 200.668 1181.51 200.54 1181.01 200.54C1180.6 200.54 1180.24 200.649 1179.93 200.868C1179.62 201.087 1179.37 201.374 1179.2 201.729V207H1177.94V199.604H1179.13ZM1196.12 205.694C1195.78 206.177 1195.31 206.54 1194.71 206.781C1194.1 207.018 1193.4 207.137 1192.6 207.137C1191.79 207.137 1191.07 206.948 1190.44 206.569C1189.81 206.187 1189.32 205.644 1188.98 204.942C1188.63 204.241 1188.46 203.427 1188.45 202.502V201.634C1188.45 200.134 1188.8 198.972 1189.5 198.147C1190.2 197.323 1191.18 196.91 1192.45 196.91C1193.49 196.91 1194.32 197.177 1194.96 197.71C1195.59 198.239 1195.98 198.991 1196.12 199.966H1194.81C1194.56 198.649 1193.78 197.99 1192.46 197.99C1191.58 197.99 1190.91 198.3 1190.45 198.92C1190 199.535 1189.77 200.428 1189.77 201.6V202.413C1189.77 203.53 1190.02 204.418 1190.54 205.079C1191.05 205.735 1191.74 206.063 1192.61 206.063C1193.1 206.063 1193.53 206.009 1193.9 205.899C1194.27 205.79 1194.57 205.605 1194.81 205.346V203.11H1192.51V202.044H1196.12V205.694ZM1202.4 207C1202.33 206.854 1202.27 206.594 1202.23 206.221C1201.64 206.831 1200.94 207.137 1200.12 207.137C1199.39 207.137 1198.79 206.932 1198.32 206.521C1197.86 206.107 1197.62 205.583 1197.62 204.949C1197.62 204.179 1197.92 203.582 1198.5 203.158C1199.09 202.73 1199.91 202.516 1200.97 202.516H1202.2V201.935C1202.2 201.493 1202.07 201.142 1201.81 200.882C1201.54 200.618 1201.15 200.485 1200.64 200.485C1200.19 200.485 1199.81 200.599 1199.5 200.827C1199.2 201.055 1199.05 201.331 1199.05 201.654H1197.77C1197.77 201.285 1197.9 200.93 1198.16 200.588C1198.43 200.242 1198.78 199.968 1199.23 199.768C1199.68 199.567 1200.18 199.467 1200.71 199.467C1201.57 199.467 1202.23 199.681 1202.72 200.109C1203.2 200.533 1203.45 201.119 1203.47 201.866V205.271C1203.47 205.95 1203.56 206.49 1203.73 206.891V207H1202.4ZM1200.3 206.036C1200.7 206.036 1201.08 205.934 1201.43 205.729C1201.79 205.523 1202.05 205.257 1202.2 204.929V203.411H1201.21C1199.66 203.411 1198.89 203.865 1198.89 204.771C1198.89 205.168 1199.02 205.478 1199.29 205.701C1199.55 205.924 1199.89 206.036 1200.3 206.036ZM1208.75 200.738C1208.56 200.706 1208.35 200.69 1208.12 200.69C1207.3 200.69 1206.73 201.044 1206.44 201.75V207H1205.17V199.604H1206.4L1206.42 200.458C1206.84 199.797 1207.43 199.467 1208.19 199.467C1208.43 199.467 1208.62 199.499 1208.75 199.562V200.738ZM1213.93 207C1213.86 206.854 1213.8 206.594 1213.75 206.221C1213.16 206.831 1212.46 207.137 1211.65 207.137C1210.92 207.137 1210.32 206.932 1209.85 206.521C1209.38 206.107 1209.15 205.583 1209.15 204.949C1209.15 204.179 1209.44 203.582 1210.03 203.158C1210.61 202.73 1211.44 202.516 1212.5 202.516H1213.73V201.935C1213.73 201.493 1213.6 201.142 1213.33 200.882C1213.07 200.618 1212.68 200.485 1212.17 200.485C1211.71 200.485 1211.34 200.599 1211.03 200.827C1210.72 201.055 1210.57 201.331 1210.57 201.654H1209.3C1209.3 201.285 1209.43 200.93 1209.69 200.588C1209.95 200.242 1210.31 199.968 1210.76 199.768C1211.21 199.567 1211.7 199.467 1212.24 199.467C1213.09 199.467 1213.76 199.681 1214.24 200.109C1214.73 200.533 1214.98 201.119 1215 201.866V205.271C1215 205.95 1215.08 206.49 1215.25 206.891V207H1213.93ZM1211.83 206.036C1212.23 206.036 1212.6 205.934 1212.96 205.729C1213.31 205.523 1213.57 205.257 1213.73 204.929V203.411H1212.74C1211.19 203.411 1210.42 203.865 1210.42 204.771C1210.42 205.168 1210.55 205.478 1210.81 205.701C1211.08 205.924 1211.42 206.036 1211.83 206.036ZM1216.4 203.24C1216.4 202.087 1216.66 201.171 1217.2 200.492C1217.73 199.809 1218.44 199.467 1219.32 199.467C1220.22 199.467 1220.92 199.786 1221.43 200.424L1221.49 199.604H1222.64V206.822C1222.64 207.779 1222.36 208.534 1221.79 209.085C1221.23 209.636 1220.46 209.912 1219.51 209.912C1218.97 209.912 1218.45 209.798 1217.94 209.57C1217.43 209.342 1217.04 209.03 1216.77 208.634L1217.43 207.875C1217.97 208.545 1218.63 208.88 1219.42 208.88C1220.03 208.88 1220.51 208.707 1220.85 208.36C1221.2 208.014 1221.37 207.526 1221.37 206.897V206.262C1220.87 206.845 1220.18 207.137 1219.3 207.137C1218.44 207.137 1217.73 206.788 1217.2 206.091C1216.66 205.394 1216.4 204.443 1216.4 203.24ZM1217.67 203.384C1217.67 204.218 1217.84 204.874 1218.18 205.353C1218.52 205.826 1219 206.063 1219.62 206.063C1220.41 206.063 1221 205.701 1221.37 204.977V201.6C1220.99 200.893 1220.4 200.54 1219.63 200.54C1219.01 200.54 1218.53 200.779 1218.19 201.258C1217.84 201.736 1217.67 202.445 1217.67 203.384ZM1227.35 207.137C1226.35 207.137 1225.53 206.809 1224.9 206.152C1224.27 205.492 1223.96 204.61 1223.96 203.507V203.274C1223.96 202.541 1224.1 201.887 1224.37 201.312C1224.66 200.734 1225.05 200.283 1225.55 199.959C1226.06 199.631 1226.6 199.467 1227.19 199.467C1228.15 199.467 1228.9 199.784 1229.43 200.417C1229.97 201.05 1230.23 201.957 1230.23 203.138V203.664H1225.22C1225.24 204.393 1225.45 204.983 1225.86 205.435C1226.27 205.881 1226.79 206.104 1227.42 206.104C1227.86 206.104 1228.24 206.013 1228.55 205.831C1228.86 205.649 1229.13 205.407 1229.36 205.106L1230.14 205.708C1229.52 206.66 1228.59 207.137 1227.35 207.137ZM1227.19 200.506C1226.68 200.506 1226.25 200.693 1225.91 201.066C1225.56 201.436 1225.35 201.955 1225.26 202.625H1228.97V202.529C1228.93 201.887 1228.76 201.39 1228.45 201.039C1228.14 200.684 1227.72 200.506 1227.19 200.506Z" fill="#2E92B0"/>
<line x1="904.25" y1="171" x2="904.25" y2="258" stroke="#828282" stroke-width="0.5"/>
<line x1="1008.25" y1="171" x2="1008.25" y2="258" stroke="#828282" stroke-width="0.5"/>
<line x1="1118.25" y1="171" x2="1118.25" y2="258" stroke="#828282" stroke-width="0.5"/>
</svg>
