<svg width="22" height="18" viewBox="0 0 22 18" fill="none" xmlns="http://www.w3.org/2000/svg">
<path d="M18.7 0H3.3C2.42479 0 1.58542 0.347678 0.966548 0.966548C0.347678 1.58542 0 2.42479 0 3.3V14.3C0 15.1752 0.347678 16.0146 0.966548 16.6335C1.58542 17.2523 2.42479 17.6 3.3 17.6H18.7C19.5752 17.6 20.4146 17.2523 21.0335 16.6335C21.6523 16.0146 22 15.1752 22 14.3V3.3C22 2.42479 21.6523 1.58542 21.0335 0.966548C20.4146 0.347678 19.5752 0 18.7 0ZM18.249 2.2L11.781 8.668C11.6787 8.7711 11.5571 8.85294 11.423 8.90878C11.289 8.96463 11.1452 8.99338 11 8.99338C10.8548 8.99338 10.711 8.96463 10.577 8.90878C10.4429 8.85294 10.3213 8.7711 10.219 8.668L3.751 2.2H18.249ZM19.8 14.3C19.8 14.5917 19.6841 14.8715 19.4778 15.0778C19.2715 15.2841 18.9917 15.4 18.7 15.4H3.3C3.00826 15.4 2.72847 15.2841 2.52218 15.0778C2.31589 14.8715 2.2 14.5917 2.2 14.3V3.751L8.668 10.219C9.28675 10.837 10.1255 11.1841 11 11.1841C11.8745 11.1841 12.7132 10.837 13.332 10.219L19.8 3.751V14.3Z" fill="#555555"/>
</svg>
