<svg width="29" height="28" viewBox="0 0 29 28" fill="none" xmlns="http://www.w3.org/2000/svg">
<g filter="url(#filter0_di)">
<ellipse cx="14.5" cy="12" rx="12.5" ry="12" fill="#2FB2DC"/>
</g>
<path d="M19.9688 6H9.03125C8.40965 6 7.81351 6.23705 7.37397 6.65901C6.93443 7.08097 6.6875 7.65326 6.6875 8.25V15.75C6.6875 16.3467 6.93443 16.919 7.37397 17.341C7.81351 17.7629 8.40965 18 9.03125 18H19.9688C20.5904 18 21.1865 17.7629 21.626 17.341C22.0656 16.919 22.3125 16.3467 22.3125 15.75V8.25C22.3125 7.65326 22.0656 7.08097 21.626 6.65901C21.1865 6.23705 20.5904 6 19.9688 6ZM19.6484 7.5L15.0547 11.91C14.9821 11.9803 14.8957 12.0361 14.8005 12.0742C14.7052 12.1122 14.6031 12.1318 14.5 12.1318C14.3969 12.1318 14.2948 12.1122 14.1995 12.0742C14.1043 12.0361 14.0179 11.9803 13.9453 11.91L9.35156 7.5H19.6484ZM20.75 15.75C20.75 15.9489 20.6677 16.1397 20.5212 16.2803C20.3747 16.421 20.176 16.5 19.9688 16.5H9.03125C8.82405 16.5 8.62534 16.421 8.47882 16.2803C8.33231 16.1397 8.25 15.9489 8.25 15.75V8.5575L12.8438 12.9675C13.2832 13.3889 13.8789 13.6255 14.5 13.6255C15.1211 13.6255 15.7168 13.3889 16.1562 12.9675L20.75 8.5575V15.75Z" fill="white"/>
<defs>
<filter id="filter0_di" x="0" y="0" width="29" height="28" filterUnits="userSpaceOnUse" color-interpolation-filters="sRGB">
<feFlood flood-opacity="0" result="BackgroundImageFix"/>
<feColorMatrix in="SourceAlpha" type="matrix" values="0 0 0 0 0 0 0 0 0 0 0 0 0 0 0 0 0 0 127 0"/>
<feOffset dy="2"/>
<feGaussianBlur stdDeviation="1"/>
<feColorMatrix type="matrix" values="0 0 0 0 0 0 0 0 0 0 0 0 0 0 0 0 0 0 0.2 0"/>
<feBlend mode="normal" in2="BackgroundImageFix" result="effect1_dropShadow"/>
<feBlend mode="normal" in="SourceGraphic" in2="effect1_dropShadow" result="shape"/>
<feColorMatrix in="SourceAlpha" type="matrix" values="0 0 0 0 0 0 0 0 0 0 0 0 0 0 0 0 0 0 127 0" result="hardAlpha"/>
<feOffset dx="2" dy="2"/>
<feGaussianBlur stdDeviation="1"/>
<feComposite in2="hardAlpha" operator="arithmetic" k2="-1" k3="1"/>
<feColorMatrix type="matrix" values="0 0 0 0 1 0 0 0 0 1 0 0 0 0 1 0 0 0 0.1 0"/>
<feBlend mode="normal" in2="shape" result="effect2_innerShadow"/>
</filter>
</defs>
</svg>
