<svg width="22" height="25" viewBox="0 0 22 25" fill="none" xmlns="http://www.w3.org/2000/svg">
<path fill-rule="evenodd" clip-rule="evenodd" d="M2.90128 10.3133C2.90128 6.74203 5.31661 3.73731 8.59043 2.82728V2.09336C8.59043 0.935033 9.52546 0 10.6838 0C11.8421 0 12.7771 0.935033 12.7771 2.09336V2.83466C16.0453 3.75556 18.4383 6.76389 18.4383 10.3133V12.7277C18.4383 14.0409 18.7943 15.327 19.4664 16.439L19.4677 16.4411L21.1235 19.1961C21.4256 19.6819 21.3966 20.2353 21.1797 20.6691L21.1717 20.6851L21.1632 20.7007C20.9051 21.1739 20.4019 21.4731 19.8666 21.4731H13.6659C13.5811 23.0445 12.276 24.2969 10.6838 24.2969C9.09157 24.2969 7.78639 23.0445 7.70162 21.4731H1.48695C0.963111 21.4731 0.469946 21.1865 0.207225 20.7308C-0.108628 20.2099 -0.0216002 19.6432 0.190378 19.2546L0.200391 19.2362L0.211163 19.2183L1.87069 16.4571L1.87131 16.456C2.54675 15.3258 2.90128 14.0518 2.90128 12.7416V10.3133ZM10.6698 4.5448C7.49457 4.5448 4.90128 7.12682 4.90128 10.3133V12.7416C4.90128 14.4175 4.4466 16.046 3.58732 17.4833L3.58611 17.4853L2.39146 19.4731H18.9565L17.7548 17.4735L17.7541 17.4724C16.8915 16.0447 16.4383 14.4006 16.4383 12.7277V10.3133C16.4383 7.13809 13.8563 4.5448 10.6698 4.5448Z" fill="#545454"/>
</svg>
