<svg width="16" height="18" viewBox="0 0 16 18" fill="none" xmlns="http://www.w3.org/2000/svg">
<g clip-path="url(#clip0)">
<path d="M14.79 14.13L13.6 12.15C13.05 11.24 12.76 10.19 12.76 9.12001V7.39001C12.76 4.72001 10.59 2.54001 7.91002 2.54001C5.24002 2.54001 3.06002 4.71001 3.06002 7.39001V9.13001C3.06002 10.2 2.77002 11.24 2.22002 12.16L1.03002 14.14C0.970023 14.25 0.960023 14.38 1.03002 14.49C1.09002 14.6 1.21002 14.67 1.33002 14.67H14.5C14.62 14.67 14.74 14.6 14.8 14.49C14.86 14.37 14.86 14.24 14.79 14.13Z" stroke="#545454" stroke-width="2" stroke-miterlimit="10"/>
<path d="M9.42004 3V2.68V1.5C9.42004 0.67 8.75004 0 7.92004 0C7.09004 0 6.42004 0.67 6.42004 1.5V2.78L9.42004 3Z" fill="#545454"/>
<path d="M5.78003 15.27C5.78003 16.45 6.74003 17.41 7.92003 17.41C9.10003 17.41 10.06 16.45 10.06 15.27" fill="#545454"/>
</g>
<defs>
<clipPath id="clip0">
<path d="M0 0H15.84V17.41H0V0Z" fill="white"/>
</clipPath>
</defs>
</svg>
