<svg width="8" height="12" viewBox="0 0 8 12" fill="none" xmlns="http://www.w3.org/2000/svg">
<path d="M8 9C8 7.7772 7.32114 6.6984 6.28571 6.048V1.8H6.57143C6.79876 1.8 7.01677 1.70518 7.17752 1.5364C7.33827 1.36761 7.42857 1.13869 7.42857 0.9C7.42857 0.661305 7.33827 0.432387 7.17752 0.263604C7.01677 0.0948212 6.79876 3.55683e-09 6.57143 0H1.42857C1.20124 3.55683e-09 0.983225 0.0948212 0.82248 0.263604C0.661734 0.432387 0.571429 0.661305 0.571429 0.9C0.571429 1.13869 0.661734 1.36761 0.82248 1.5364C0.983225 1.70518 1.20124 1.8 1.42857 1.8H1.71429V6.048C0.678857 6.6984 0 7.7772 0 9H3.42857V11.4C3.42857 11.73 3.68571 12 4 12C4.31429 12 4.57143 11.73 4.57143 11.4V9H8Z" fill="#E13C3C"/>
</svg>
