<svg width="14" height="14" viewBox="0 0 14 14" fill="none" xmlns="http://www.w3.org/2000/svg">
<path d="M7 8.75C7.9665 8.75 8.75 7.9665 8.75 7C8.75 6.0335 7.9665 5.25 7 5.25C6.0335 5.25 5.25 6.0335 5.25 7C5.25 7.9665 6.0335 8.75 7 8.75Z" fill="white"/>
<path d="M13.6997 8.33913L13.685 8.32757L12.6987 7.5743C12.6363 7.52618 12.5864 7.46432 12.5533 7.3938C12.5202 7.32327 12.5047 7.2461 12.5081 7.16861V6.81678C12.505 6.73979 12.5207 6.66317 12.5538 6.59322C12.587 6.52328 12.6368 6.462 12.699 6.41443L13.685 5.66087L13.6997 5.6493C13.8517 5.52594 13.9538 5.35392 13.9875 5.16401C14.0213 4.9741 13.9846 4.77868 13.884 4.6127L12.5494 2.36357C12.5478 2.36144 12.5465 2.3592 12.5453 2.35687C12.4442 2.19318 12.2874 2.06915 12.1021 2.00633C11.9169 1.94351 11.7149 1.94585 11.5312 2.01296L11.5203 2.01691L10.3609 2.4713C10.2877 2.50012 10.2086 2.51159 10.13 2.50476C10.0514 2.49793 9.97553 2.47301 9.90874 2.43204C9.80624 2.36914 9.70207 2.3097 9.59624 2.2537C9.52762 2.21746 9.46871 2.16602 9.42425 2.10353C9.37979 2.04104 9.35104 1.96926 9.3403 1.89396L9.16562 0.689043L9.16187 0.66713C9.12384 0.480504 9.02101 0.312313 8.87066 0.190824C8.7203 0.069335 8.5316 0.00195242 8.33624 0H5.66375C5.46565 0.000617377 5.27412 0.069305 5.12291 0.193962C4.97171 0.318619 4.87052 0.491247 4.83719 0.681435L4.83438 0.698478L4.66032 1.90583C4.64964 1.98091 4.62111 2.05253 4.577 2.11498C4.5329 2.17743 4.47443 2.229 4.40625 2.26557C4.30011 2.32124 4.19589 2.38032 4.09375 2.4427C4.02709 2.48341 3.95145 2.50815 3.87306 2.51487C3.79467 2.52158 3.71576 2.5101 3.64282 2.48135L2.48251 2.02483L2.47157 2.02057C2.28765 1.95339 2.08537 1.95113 1.89992 2.01419C1.71447 2.07725 1.55759 2.20163 1.45657 2.3657L1.45251 2.37239L0.115952 4.62304C0.015212 4.7892 -0.0215566 4.98484 0.0122217 5.17497C0.046 5.3651 0.148122 5.53734 0.300327 5.66087L0.315014 5.67243L1.30126 6.4257C1.36372 6.47381 1.41356 6.53568 1.4467 6.6062C1.47984 6.67673 1.49532 6.7539 1.49189 6.83139V7.18322C1.49502 7.26021 1.47934 7.33683 1.44615 7.40677C1.41295 7.47672 1.36319 7.538 1.30095 7.58556L0.315014 8.33913L0.300327 8.3507C0.148273 8.47406 0.0462337 8.64608 0.0124555 8.83599C-0.0213227 9.0259 0.015363 9.22132 0.115952 9.3873L1.45064 11.6364C1.45217 11.6386 1.45353 11.6408 1.4547 11.6431C1.55583 11.8068 1.71263 11.9308 1.89788 11.9937C2.08312 12.0565 2.2851 12.0541 2.46876 11.987L2.4797 11.9831L3.63813 11.5287C3.71131 11.4999 3.79046 11.4884 3.86908 11.4952C3.9477 11.5021 4.02353 11.527 4.09032 11.568C4.19282 11.6311 4.29698 11.6905 4.40282 11.7463C4.47143 11.7825 4.53035 11.834 4.5748 11.8965C4.61926 11.959 4.64802 12.0307 4.65875 12.106L4.8325 13.311L4.83625 13.3329C4.87435 13.5198 4.97745 13.6882 5.12819 13.8097C5.27893 13.9313 5.46807 13.9985 5.66375 14H8.33624C8.53435 13.9994 8.72587 13.9307 8.87708 13.806C9.02828 13.6814 9.12947 13.5088 9.1628 13.3186L9.16562 13.3015L9.33968 12.0942C9.35052 12.0189 9.37929 11.9472 9.42367 11.8848C9.46806 11.8223 9.52684 11.7708 9.5953 11.7344C9.70218 11.6784 9.80655 11.6191 9.9078 11.5573C9.97447 11.5166 10.0501 11.4919 10.1285 11.4851C10.2069 11.4784 10.2858 11.4899 10.3587 11.5187L11.519 11.9737L11.53 11.9779C11.7139 12.0452 11.9162 12.0475 12.1017 11.9845C12.2872 11.9214 12.444 11.7969 12.545 11.6328C12.5462 11.6305 12.5476 11.6283 12.549 11.6261L13.8837 9.37726C13.9847 9.21113 14.0216 9.01543 13.9878 8.82521C13.9541 8.63499 13.852 8.46268 13.6997 8.33913ZM9.49718 7.11443C9.47442 7.58574 9.31155 8.04045 9.02836 8.42328C8.74517 8.80611 8.35388 9.10055 7.90205 9.27081C7.45023 9.44106 6.95735 9.4798 6.48334 9.3823C6.00933 9.2848 5.57462 9.05526 5.23208 8.72161C4.88953 8.38796 4.6539 7.96456 4.55385 7.50291C4.45379 7.04125 4.49362 6.56123 4.66849 6.12121C4.84336 5.6812 5.14574 5.30014 5.53885 5.02439C5.93197 4.74863 6.39888 4.59006 6.88281 4.56796C7.23023 4.55306 7.57704 4.60873 7.90117 4.73144C8.22531 4.85414 8.51968 5.0412 8.76557 5.2807C9.01146 5.5202 9.20348 5.80692 9.32944 6.12261C9.45539 6.43831 9.51252 6.77607 9.49718 7.11443Z" fill="white"/>
</svg>
