<svg width="49" height="49" viewBox="0 0 49 49" fill="none" xmlns="http://www.w3.org/2000/svg">
<path d="M49 24.5C49 38.031 38.031 49 24.5 49C10.969 49 0 38.031 0 24.5C0 10.969 10.969 0 24.5 0C38.031 0 49 10.969 49 24.5Z" fill="#185786" fill-opacity="0.3"/>
<path d="M42 25C42 34.3888 34.3888 42 25 42C15.6112 42 8 34.3888 8 25C8 15.6112 15.6112 8 25 8C34.3888 8 42 15.6112 42 25Z" fill="#0893BF"/>
<path d="M26.8223 32H24V21.1211L20.6309 22.166V19.8711L26.5195 17.7617H26.8223V32Z" fill="white"/>
</svg>
