<svg width="33" height="25" viewBox="0 0 33 25" fill="none" xmlns="http://www.w3.org/2000/svg">
<path d="M28.0743 4.34155H20.4057C19.6343 4.34155 19 4.97084 19 5.73618V22.4263C19 23.1917 19.6343 23.821 20.4057 23.821H28.0743C28.8457 23.821 29.48 23.1917 29.48 22.4263V5.73618C29.48 4.97084 28.8457 4.34155 28.0743 4.34155ZM24.6171 19.0588H20.24V18.3615H24.6171V19.0588ZM24.6171 17.6472H20.24V16.9499H24.6171V17.6472ZM27.9829 15.6403H20.4914V6.25208H27.9829V15.6403Z" fill="#20577C"/>
<path d="M31.4514 7.57851C32.0171 6.98324 32.3657 6.18955 32.3657 5.31082C32.3714 3.48533 30.8743 2 29.0343 2C27.1943 2 25.7029 3.48533 25.7029 5.30515C25.7029 6.18388 26.0514 6.98324 26.6171 7.57284C25.68 8.29283 25.0686 9.41533 25.0686 10.6796V16.4338C25.0686 17.7491 25.7543 18.9736 26.8343 19.6993V22.8797C26.8343 24.0476 27.7943 25 28.9714 25C30.1486 25 31.1086 24.0476 31.1086 22.8797V19.7843C32.2686 19.0813 33 17.8228 33 16.4338V10.6852C33 9.421 32.3943 8.2985 31.4514 7.57851ZM26.8914 5.30515C26.8914 4.13162 27.8514 3.1792 29.0343 3.1792C30.2171 3.1792 31.1771 4.13162 31.1771 5.30515C31.1771 5.98546 30.8457 6.58639 30.3429 6.97757C29.9314 6.83584 29.4914 6.7508 29.0343 6.7508C28.5771 6.7508 28.1371 6.83017 27.7257 6.97757C27.2229 6.59206 26.8914 5.99113 26.8914 5.30515ZM31.8114 16.4395C31.8114 17.647 31.0171 18.6788 29.92 19.0473V22.8854C29.92 23.4013 29.4971 23.8265 28.9714 23.8265C28.4514 23.8265 28.0229 23.4069 28.0229 22.8854V19.002C26.9943 18.5995 26.2571 17.6017 26.2571 16.4395V10.6852C26.2571 9.67045 26.8171 8.78605 27.6457 8.30983C28.0686 8.50259 28.5371 8.61597 29.0343 8.61597C29.5314 8.61597 30 8.50259 30.4229 8.30983C31.2514 8.78605 31.8114 9.67612 31.8114 10.6852V16.4395Z" fill="white"/>
<path d="M29.0343 7.93579C27.5086 7.93579 26.2628 9.17168 26.2628 10.6854V16.4396C26.2628 17.6018 27 18.5996 28.0286 19.0021V22.8855C28.0286 23.4014 28.4514 23.8209 28.9771 23.8209C29.4971 23.8209 29.92 23.4014 29.92 22.8855V19.0474C31.0171 18.6789 31.8114 17.6472 31.8114 16.4396V10.6854C31.8114 9.17168 30.56 7.93579 29.0343 7.93579Z" fill="#20577C"/>
<path d="M29.0343 7.43111C30.2177 7.43111 31.1771 6.47929 31.1771 5.30515C31.1771 4.13102 30.2177 3.1792 29.0343 3.1792C27.8508 3.1792 26.8914 4.13102 26.8914 5.30515C26.8914 6.47929 27.8508 7.43111 29.0343 7.43111Z" fill="#20577C"/>
<g clip-path="url(#clip0)">
<path d="M9.13678 2.90894C10.3519 2.90894 11.3723 3.11561 12.1929 3.52379C12.4401 3.64779 12.5979 3.82863 12.6663 4.07148C12.7347 4.31432 12.6979 4.55716 12.5664 4.8C12.4296 5.05318 12.256 5.21335 12.0403 5.27535C11.8247 5.33735 11.6038 5.31669 11.3671 5.21852C11.0094 5.06351 10.6622 4.95501 10.3361 4.893C10.01 4.831 9.62071 4.8 9.1736 4.8C8.80013 4.8 8.47927 4.84134 8.20048 4.92401C7.92696 5.00667 7.69026 5.11518 7.50089 5.25468C7.31153 5.39419 7.16425 5.54919 7.06957 5.7197C6.97489 5.89021 6.92755 6.06588 6.92755 6.24155V6.33972C6.92755 6.55156 6.96437 6.7324 7.03801 6.88741C7.11165 7.04241 7.24315 7.18192 7.42725 7.31109C7.61136 7.44026 7.8691 7.55393 8.19522 7.65727C8.52135 7.7606 8.94216 7.86394 9.4629 7.96211C10.8673 8.25145 11.8773 8.67514 12.4822 9.23832C13.0924 9.80151 13.3922 10.5249 13.3922 11.4084V11.5582C13.3922 12.6949 13.0135 13.563 12.2613 14.1623C11.5091 14.7617 10.3939 15.0562 8.92112 15.0562C8.22152 15.0562 7.54297 14.9684 6.88546 14.7978C6.22795 14.6273 5.67039 14.4052 5.22328 14.1262C4.95501 13.9608 4.80247 13.749 4.76565 13.4855C4.73409 13.2271 4.79195 12.9791 4.94975 12.7466C5.10756 12.5038 5.29692 12.3539 5.5231 12.2971C5.74929 12.2403 5.99125 12.2868 6.24899 12.4314C6.6435 12.6536 7.07483 12.8241 7.54824 12.9533C8.02164 13.0825 8.51083 13.1445 9.0158 13.1445C9.79429 13.1445 10.3571 13.0101 10.7043 12.7363C11.0514 12.4676 11.2303 12.1266 11.2303 11.7184V11.6047C11.2303 11.1397 11.0462 10.778 10.6832 10.5197C10.315 10.2614 9.73117 10.0547 8.92112 9.89968C8.211 9.76534 7.60084 9.61033 7.08009 9.43466C6.5646 9.25899 6.13327 9.03165 5.78611 8.76297C5.4442 8.4943 5.19172 8.16362 5.02866 7.78644C4.86559 7.40409 4.78143 6.93907 4.78143 6.38622V6.27255C4.78143 5.80754 4.87611 5.37352 5.06022 4.96017C5.24432 4.55199 5.5231 4.19548 5.89657 3.89064C6.27004 3.58579 6.7224 3.34812 7.26419 3.16728C7.80072 2.99677 8.42667 2.90894 9.13678 2.90894Z" fill="#DB5499"/>
<path d="M17.4056 15.6297H16.8586V4.56232C16.8586 2.45942 15.1175 0.749193 12.9766 0.749193H9.88895V0.408181C9.88895 0.18084 9.70485 0 9.47867 0H8.52133C8.29515 0 8.10579 0.18084 8.10579 0.408181V0.749193H5.01812C2.87726 0.749193 1.13618 2.45942 1.13618 4.56232V15.6349H0.589129C0.263004 15.6297 0 15.8932 0 16.2136V16.2911C0 16.6114 0.263004 16.8698 0.589129 16.8698H1.13618V20.1042C1.13618 21.1479 1.76739 22.0469 2.66686 22.4706V23.1526C2.66686 23.6228 3.05611 24.0052 3.53477 24.0052H3.6505C4.12916 24.0052 4.51841 23.6228 4.51841 23.1526V22.729H13.4763V23.1526C13.4763 23.6228 13.8656 24.0052 14.3442 24.0052H14.46C14.9386 24.0052 15.3279 23.6228 15.3279 23.1526V22.4706C16.2326 22.0469 16.8586 21.1531 16.8586 20.1042V16.8698H17.4056C17.7317 16.8698 17.9947 16.6114 17.9947 16.2911V16.2136C18 15.8932 17.7317 15.6297 17.4056 15.6297ZM5.01812 1.78256H12.9766C14.5389 1.78256 15.8065 3.02777 15.8065 4.56232V16.2549H2.18819V4.56232C2.18819 3.02777 3.46113 1.78256 5.01812 1.78256ZM3.5979 19.231C3.05085 19.231 2.609 18.797 2.609 18.2596C2.609 17.7223 3.05085 17.2883 3.5979 17.2883C4.14494 17.2883 4.58679 17.7223 4.58679 18.2596C4.58679 18.7918 4.14494 19.231 3.5979 19.231ZM14.4021 19.231C13.8551 19.231 13.4132 18.797 13.4132 18.2596C13.4132 17.7223 13.8551 17.2883 14.4021 17.2883C14.9492 17.2883 15.391 17.7223 15.391 18.2596C15.391 18.7918 14.9492 19.231 14.4021 19.231Z" fill="#DB5499"/>
</g>
<defs>
<clipPath id="clip0">
<rect width="18" height="24" fill="white"/>
</clipPath>
</defs>
</svg>
