<svg width="326" height="69" viewBox="0 0 326 69" fill="none" xmlns="http://www.w3.org/2000/svg">
<rect x="0.25" y="0.25" width="325.5" height="68.5" rx="1.75" fill="white" stroke="#BDBDBD" stroke-width="0.5"/>
<line y1="44.75" x2="326" y2="44.75" stroke="#828282" stroke-width="0.5"/>
<path d="M22.1091 10.601C23.7601 10.601 24.8391 11.082 24.8391 11.914C24.8391 12.746 23.7601 13.227 22.1091 13.227C20.4451 13.227 19.3661 12.746 19.3661 11.914C19.3661 11.082 20.4451 10.601 22.1091 10.601ZM22.1091 14.306C24.6181 14.306 26.2691 13.383 26.2691 11.914C26.2691 10.445 24.6181 9.522 22.1091 9.522C19.5871 9.522 17.9491 10.445 17.9491 11.914C17.9491 13.383 19.5871 14.306 22.1091 14.306ZM19.4571 17.309H18.1051V20.78H26.2691V19.688H19.4571V17.309ZM16.7921 15.099V16.191H21.5241V18.414H22.8891V16.191H27.4391V15.099H16.7921ZM29.9341 12.759C29.9341 11.732 30.6881 11.056 31.7281 11.056C32.7421 11.056 33.4961 11.732 33.4961 12.759C33.4961 13.773 32.7421 14.449 31.7281 14.449C30.6881 14.449 29.9341 13.773 29.9341 12.759ZM36.8891 11.966V13.552H34.6531C34.7311 13.305 34.7701 13.045 34.7701 12.759C34.7701 12.473 34.7311 12.213 34.6661 11.966H36.8891ZM36.8891 14.631V16.178H38.2281V9.249H36.8891V10.874H34.0551C33.5091 10.289 32.6901 9.925 31.7281 9.925C29.9731 9.925 28.6601 11.095 28.6601 12.759C28.6601 14.41 29.9731 15.58 31.7281 15.58C32.6771 15.58 33.5091 15.229 34.0551 14.631H36.8891ZM34.3151 19.948C32.6511 19.948 31.6761 19.519 31.6761 18.713C31.6761 17.933 32.6511 17.491 34.3151 17.491C35.9921 17.491 36.9541 17.933 36.9541 18.713C36.9541 19.519 35.9921 19.948 34.3151 19.948ZM34.3151 16.438C31.8711 16.438 30.3631 17.283 30.3631 18.713C30.3631 20.156 31.8711 21.001 34.3151 21.001C36.7591 21.001 38.2801 20.156 38.2801 18.713C38.2801 17.283 36.7591 16.438 34.3151 16.438ZM46.919 12.317H49.402V11.238H46.919V9.496H45.58V11.238H43.058V12.317H45.58V12.993C45.58 14.917 44.488 16.893 42.694 17.751L43.435 18.778C44.774 18.154 45.749 16.867 46.269 15.346C46.75 16.763 47.686 17.959 48.947 18.57L49.688 17.543C47.946 16.698 46.919 14.787 46.919 12.993V12.317ZM53.783 13.968H51.95V9.249H50.611V21.001H51.95V15.073H53.783V13.968ZM61.3869 14.28C59.7749 14.579 58.3579 14.644 56.3429 14.657V13.318H60.3339V9.964H55.0039V11.043H59.0079V12.304H55.0299V15.749H55.9789C58.2279 15.749 59.7619 15.684 61.5299 15.372L61.3869 14.28ZM59.9309 19.974C58.2669 19.974 57.3309 19.571 57.3309 18.817C57.3309 18.076 58.2669 17.673 59.9309 17.673C61.5819 17.673 62.5309 18.076 62.5309 18.817C62.5309 19.571 61.5819 19.974 59.9309 19.974ZM59.9309 16.633C57.4999 16.633 56.0179 17.439 56.0179 18.817C56.0179 20.195 57.4999 21.001 59.9309 21.001C62.3619 21.001 63.8439 20.195 63.8439 18.817C63.8439 17.439 62.3619 16.633 59.9309 16.633ZM65.3779 12.083V10.978H63.7269V9.249H62.3879V16.36H63.7269V14.553H65.3779V13.448H63.7269V12.083H65.3779Z" fill="#185786"/>
<path d="M10.2973 30.6748C10.2973 31.3714 10.1801 31.9801 9.9457 32.501C9.71133 33.0186 9.3793 33.4141 8.94961 33.6875C8.51992 33.9609 8.01862 34.0977 7.4457 34.0977C6.88581 34.0977 6.38939 33.9609 5.95644 33.6875C5.5235 33.4108 5.18659 33.0186 4.9457 32.5107C4.70807 31.9997 4.586 31.4089 4.57949 30.7383V30.2256C4.57949 29.542 4.69831 28.9382 4.93594 28.4141C5.17357 27.89 5.50885 27.4896 5.9418 27.2129C6.37799 26.9329 6.87604 26.793 7.43594 26.793C8.0056 26.793 8.5069 26.9313 8.93984 27.208C9.37604 27.4814 9.71133 27.8802 9.9457 28.4043C10.1801 28.9251 10.2973 29.5322 10.2973 30.2256V30.6748ZM9.36465 30.2158C9.36465 29.3727 9.19538 28.7266 8.85683 28.2773C8.51829 27.8249 8.04466 27.5986 7.43594 27.5986C6.84349 27.5986 6.37637 27.8249 6.03457 28.2773C5.69603 28.7266 5.52187 29.3516 5.51211 30.1523V30.6748C5.51211 31.4919 5.68301 32.1348 6.0248 32.6035C6.36986 33.069 6.84349 33.3018 7.4457 33.3018C8.05117 33.3018 8.51992 33.082 8.85195 32.6426C9.18398 32.1999 9.35488 31.5667 9.36465 30.7432V30.2158ZM15.8248 31.417C15.8248 32.221 15.6409 32.8688 15.273 33.3604C14.9052 33.8519 14.4072 34.0977 13.7789 34.0977C13.1376 34.0977 12.6331 33.8942 12.2652 33.4873V36.0312H11.3619V28.7168H12.1871L12.2311 29.3027C12.5989 28.847 13.11 28.6191 13.7643 28.6191C14.399 28.6191 14.9003 28.8584 15.2682 29.3369C15.6393 29.8154 15.8248 30.4811 15.8248 31.334V31.417ZM14.9215 31.3145C14.9215 30.7188 14.7945 30.2484 14.5406 29.9033C14.2867 29.5583 13.9384 29.3857 13.4957 29.3857C12.9488 29.3857 12.5387 29.6283 12.2652 30.1133V32.6377C12.5354 33.1195 12.9488 33.3604 13.5055 33.3604C13.9384 33.3604 14.2818 33.1895 14.5357 32.8477C14.7929 32.5026 14.9215 31.9915 14.9215 31.3145ZM18.9695 34.0977C18.2534 34.0977 17.6707 33.8633 17.2215 33.3945C16.7723 32.9225 16.5477 32.2926 16.5477 31.5049V31.3389C16.5477 30.8148 16.6469 30.3477 16.8455 29.9375C17.0473 29.5241 17.3273 29.2018 17.6854 28.9707C18.0467 28.7363 18.4373 28.6191 18.8572 28.6191C19.5441 28.6191 20.0779 28.8454 20.4588 29.2979C20.8396 29.7503 21.0301 30.3981 21.0301 31.2412V31.6172H17.451C17.464 32.138 17.6154 32.5596 17.9051 32.8818C18.198 33.2008 18.5691 33.3604 19.0184 33.3604C19.3374 33.3604 19.6076 33.2952 19.8289 33.165C20.0503 33.0348 20.2439 32.8623 20.41 32.6475L20.9617 33.0771C20.519 33.7575 19.8549 34.0977 18.9695 34.0977ZM18.8572 29.3613C18.4926 29.3613 18.1867 29.4948 17.9393 29.7617C17.6919 30.0254 17.5389 30.3965 17.4803 30.875H20.1268V30.8066C20.1007 30.3477 19.977 29.9928 19.7557 29.7422C19.5343 29.4883 19.2348 29.3613 18.8572 29.3613ZM24.4336 29.5273C24.2969 29.5046 24.1488 29.4932 23.9893 29.4932C23.3968 29.4932 22.9948 29.7454 22.7832 30.25V34H21.8799V28.7168H22.7588L22.7734 29.3271C23.0697 28.8551 23.4896 28.6191 24.0332 28.6191C24.209 28.6191 24.3424 28.6419 24.4336 28.6875V29.5273ZM28.135 34C28.0829 33.8958 28.0406 33.7103 28.008 33.4434C27.5881 33.8796 27.0868 34.0977 26.5041 34.0977C25.9833 34.0977 25.5552 33.9512 25.2199 33.6582C24.8879 33.362 24.7219 32.9876 24.7219 32.5352C24.7219 31.985 24.9302 31.5586 25.3469 31.2559C25.7668 30.9499 26.356 30.7969 27.1145 30.7969H27.9934V30.3818C27.9934 30.0661 27.899 29.8154 27.7102 29.6299C27.5214 29.4411 27.243 29.3467 26.8752 29.3467C26.5529 29.3467 26.2827 29.4281 26.0646 29.5908C25.8465 29.7536 25.7375 29.9505 25.7375 30.1816H24.8293C24.8293 29.918 24.9221 29.6641 25.1076 29.4199C25.2964 29.1725 25.5503 28.9772 25.8693 28.834C26.1916 28.6908 26.5448 28.6191 26.9289 28.6191C27.5376 28.6191 28.0145 28.7721 28.3596 29.0781C28.7046 29.3809 28.8837 29.7992 28.8967 30.333V32.7646C28.8967 33.2497 28.9585 33.6354 29.0822 33.9219V34H28.135ZM26.6359 33.3115C26.9191 33.3115 27.1877 33.2383 27.4416 33.0918C27.6955 32.9453 27.8794 32.7549 27.9934 32.5205V31.4365H27.2854C26.1786 31.4365 25.6252 31.7604 25.6252 32.4082C25.6252 32.6914 25.7196 32.9128 25.9084 33.0723C26.0972 33.2318 26.3397 33.3115 26.6359 33.3115ZM31.3383 27.4375V28.7168H32.3246V29.415H31.3383V32.6914C31.3383 32.903 31.3822 33.0625 31.4701 33.1699C31.558 33.2741 31.7077 33.3262 31.9193 33.3262C32.0235 33.3262 32.1667 33.3066 32.349 33.2676V34C32.1114 34.0651 31.8803 34.0977 31.6557 34.0977C31.252 34.0977 30.9477 33.9756 30.7426 33.7314C30.5375 33.4873 30.435 33.1406 30.435 32.6914V29.415H29.473V28.7168H30.435V27.4375H31.3383ZM34.1656 34H33.2623V28.7168H34.1656V34ZM33.1891 27.3154C33.1891 27.1689 33.233 27.0452 33.3209 26.9443C33.412 26.8434 33.5455 26.793 33.7213 26.793C33.8971 26.793 34.0305 26.8434 34.1217 26.9443C34.2128 27.0452 34.2584 27.1689 34.2584 27.3154C34.2584 27.4619 34.2128 27.584 34.1217 27.6816C34.0305 27.7793 33.8971 27.8281 33.7213 27.8281C33.5455 27.8281 33.412 27.7793 33.3209 27.6816C33.233 27.584 33.1891 27.4619 33.1891 27.3154ZM35.1766 31.3096C35.1766 30.792 35.2775 30.3265 35.4793 29.9131C35.6844 29.4997 35.9676 29.1807 36.3289 28.9561C36.6935 28.7314 37.1085 28.6191 37.574 28.6191C38.2934 28.6191 38.8745 28.8682 39.3172 29.3662C39.7631 29.8643 39.9861 30.5267 39.9861 31.3535V31.417C39.9861 31.9313 39.8868 32.3936 39.6883 32.8037C39.493 33.2106 39.2114 33.528 38.8436 33.7559C38.479 33.9837 38.059 34.0977 37.5838 34.0977C36.8676 34.0977 36.2866 33.8486 35.8406 33.3506C35.3979 32.8525 35.1766 32.1934 35.1766 31.373V31.3096ZM36.0848 31.417C36.0848 32.0029 36.2199 32.4733 36.49 32.8281C36.7635 33.1829 37.1281 33.3604 37.5838 33.3604C38.0428 33.3604 38.4074 33.1813 38.6775 32.8232C38.9477 32.4619 39.0828 31.9574 39.0828 31.3096C39.0828 30.7301 38.9445 30.2614 38.6678 29.9033C38.3943 29.542 38.0298 29.3613 37.574 29.3613C37.1281 29.3613 36.7684 29.5387 36.4949 29.8936C36.2215 30.2484 36.0848 30.7562 36.0848 31.417ZM41.7734 28.7168L41.8027 29.3809C42.2064 28.873 42.7337 28.6191 43.3848 28.6191C44.5013 28.6191 45.0645 29.249 45.0742 30.5088V34H44.1709V30.5039C44.1676 30.123 44.0798 29.8415 43.9072 29.6592C43.738 29.4769 43.4727 29.3857 43.1113 29.3857C42.8184 29.3857 42.5612 29.4639 42.3398 29.6201C42.1185 29.7764 41.946 29.9814 41.8223 30.2354V34H40.9189V28.7168H41.7734ZM51.0121 32.7549L53.0434 26.8906H54.0687L51.432 34H50.602L47.9701 26.8906H48.9906L51.0121 32.7549ZM56.6617 34.0977C55.9456 34.0977 55.3629 33.8633 54.9137 33.3945C54.4645 32.9225 54.2398 32.2926 54.2398 31.5049V31.3389C54.2398 30.8148 54.3391 30.3477 54.5377 29.9375C54.7395 29.5241 55.0195 29.2018 55.3775 28.9707C55.7389 28.7363 56.1295 28.6191 56.5494 28.6191C57.2363 28.6191 57.7701 28.8454 58.151 29.2979C58.5318 29.7503 58.7223 30.3981 58.7223 31.2412V31.6172H55.1432C55.1562 32.138 55.3075 32.5596 55.5973 32.8818C55.8902 33.2008 56.2613 33.3604 56.7105 33.3604C57.0296 33.3604 57.2997 33.2952 57.5211 33.165C57.7424 33.0348 57.9361 32.8623 58.1021 32.6475L58.6539 33.0771C58.2112 33.7575 57.5471 34.0977 56.6617 34.0977ZM56.5494 29.3613C56.1848 29.3613 55.8788 29.4948 55.6314 29.7617C55.384 30.0254 55.2311 30.3965 55.1725 30.875H57.8189V30.8066C57.7929 30.3477 57.6692 29.9928 57.4478 29.7422C57.2265 29.4883 56.927 29.3613 56.5494 29.3613ZM60.4754 29.3564C60.8758 28.8649 61.3966 28.6191 62.0379 28.6191C63.1544 28.6191 63.7176 29.249 63.7273 30.5088V34H62.824V30.5039C62.8208 30.123 62.7329 29.8415 62.5603 29.6592C62.3911 29.4769 62.1258 29.3857 61.7645 29.3857C61.4715 29.3857 61.2143 29.4639 60.993 29.6201C60.7716 29.7764 60.5991 29.9814 60.4754 30.2354V34H59.5721V26.5H60.4754V29.3564ZM65.8613 34H64.958V28.7168H65.8613V34ZM64.8848 27.3154C64.8848 27.1689 64.9287 27.0452 65.0166 26.9443C65.1077 26.8434 65.2412 26.793 65.417 26.793C65.5928 26.793 65.7262 26.8434 65.8174 26.9443C65.9085 27.0452 65.9541 27.1689 65.9541 27.3154C65.9541 27.4619 65.9085 27.584 65.8174 27.6816C65.7262 27.7793 65.5928 27.8281 65.417 27.8281C65.2412 27.8281 65.1077 27.7793 65.0166 27.6816C64.9287 27.584 64.8848 27.4619 64.8848 27.3154ZM69.2307 33.3604C69.5529 33.3604 69.8345 33.2627 70.0754 33.0674C70.3163 32.8721 70.4497 32.6279 70.4758 32.335H71.3303C71.314 32.6377 71.2098 32.9258 71.0178 33.1992C70.8257 33.4727 70.5686 33.6908 70.2463 33.8535C69.9273 34.0163 69.5887 34.0977 69.2307 34.0977C68.5113 34.0977 67.9383 33.8584 67.5119 33.3799C67.0887 32.8981 66.8771 32.2406 66.8771 31.4072V31.2559C66.8771 30.7415 66.9715 30.2842 67.1604 29.8838C67.3492 29.4834 67.6193 29.1725 67.9709 28.9512C68.3257 28.7298 68.744 28.6191 69.2258 28.6191C69.8182 28.6191 70.3098 28.7965 70.7004 29.1514C71.0943 29.5062 71.3042 29.9668 71.3303 30.5332H70.4758C70.4497 30.1914 70.3195 29.9115 70.0852 29.6934C69.854 29.472 69.5676 29.3613 69.2258 29.3613C68.7668 29.3613 68.4104 29.5273 68.1564 29.8594C67.9058 30.1882 67.7805 30.665 67.7805 31.29V31.4609C67.7805 32.0697 67.9058 32.5384 68.1564 32.8672C68.4071 33.196 68.7652 33.3604 69.2307 33.3604ZM73.1273 34H72.224V26.5H73.1273V34ZM76.5699 34.0977C75.8538 34.0977 75.2711 33.8633 74.8219 33.3945C74.3727 32.9225 74.148 32.2926 74.148 31.5049V31.3389C74.148 30.8148 74.2473 30.3477 74.4459 29.9375C74.6477 29.5241 74.9277 29.2018 75.2857 28.9707C75.6471 28.7363 76.0377 28.6191 76.4576 28.6191C77.1445 28.6191 77.6783 28.8454 78.0592 29.2979C78.44 29.7503 78.6305 30.3981 78.6305 31.2412V31.6172H75.0514C75.0644 32.138 75.2158 32.5596 75.5055 32.8818C75.7984 33.2008 76.1695 33.3604 76.6188 33.3604C76.9378 33.3604 77.2079 33.2952 77.4293 33.165C77.6507 33.0348 77.8443 32.8623 78.0104 32.6475L78.5621 33.0771C78.1194 33.7575 77.4553 34.0977 76.5699 34.0977ZM76.4576 29.3613C76.093 29.3613 75.787 29.4948 75.5396 29.7617C75.2923 30.0254 75.1393 30.3965 75.0807 30.875H77.7271V30.8066C77.7011 30.3477 77.5774 29.9928 77.3561 29.7422C77.1347 29.4883 76.8352 29.3613 76.4576 29.3613Z" fill="#2E92B0"/>
<path d="M94.2596 10.601C95.9106 10.601 96.9896 11.082 96.9896 11.914C96.9896 12.746 95.9106 13.227 94.2596 13.227C92.5956 13.227 91.5166 12.746 91.5166 11.914C91.5166 11.082 92.5956 10.601 94.2596 10.601ZM94.2596 14.306C96.7686 14.306 98.4196 13.383 98.4196 11.914C98.4196 10.445 96.7686 9.522 94.2596 9.522C91.7376 9.522 90.0996 10.445 90.0996 11.914C90.0996 13.383 91.7376 14.306 94.2596 14.306ZM91.6076 17.309H90.2556V20.78H98.4196V19.688H91.6076V17.309ZM88.9426 15.099V16.191H93.6746V18.414H95.0396V16.191H99.5896V15.099H88.9426ZM102.085 12.759C102.085 11.732 102.839 11.056 103.879 11.056C104.893 11.056 105.647 11.732 105.647 12.759C105.647 13.773 104.893 14.449 103.879 14.449C102.839 14.449 102.085 13.773 102.085 12.759ZM109.04 11.966V13.552H106.804C106.882 13.305 106.921 13.045 106.921 12.759C106.921 12.473 106.882 12.213 106.817 11.966H109.04ZM109.04 14.631V16.178H110.379V9.249H109.04V10.874H106.206C105.66 10.289 104.841 9.925 103.879 9.925C102.124 9.925 100.811 11.095 100.811 12.759C100.811 14.41 102.124 15.58 103.879 15.58C104.828 15.58 105.66 15.229 106.206 14.631H109.04ZM106.466 19.948C104.802 19.948 103.827 19.519 103.827 18.713C103.827 17.933 104.802 17.491 106.466 17.491C108.143 17.491 109.105 17.933 109.105 18.713C109.105 19.519 108.143 19.948 106.466 19.948ZM106.466 16.438C104.022 16.438 102.514 17.283 102.514 18.713C102.514 20.156 104.022 21.001 106.466 21.001C108.91 21.001 110.431 20.156 110.431 18.713C110.431 17.283 108.91 16.438 106.466 16.438ZM121.318 12.213V13.305H123.398V16.256H124.737V9.262H123.398V12.213H121.318ZM121.994 14.826C120.239 14.215 119.238 12.759 119.238 11.29V11.134H121.682V10.055H115.403V11.134H117.886V11.303C117.886 12.915 116.833 14.475 115.013 15.125L115.702 16.191C117.093 15.697 118.081 14.657 118.601 13.37C119.095 14.501 120.031 15.424 121.331 15.879L121.994 14.826ZM120.837 19.974C119.16 19.974 118.211 19.558 118.211 18.791C118.211 18.024 119.16 17.608 120.837 17.608C122.488 17.608 123.45 18.024 123.45 18.791C123.45 19.558 122.488 19.974 120.837 19.974ZM120.837 16.568C118.38 16.568 116.872 17.4 116.872 18.791C116.872 20.195 118.38 21.014 120.837 21.014C123.281 21.014 124.789 20.195 124.789 18.791C124.789 17.4 123.281 16.568 120.837 16.568ZM134.72 11.862H127.986V15.164H136.345V14.085H129.338V12.863H136.085V9.665H127.96V10.744H134.72V11.862ZM137.346 16.204H126.699V17.283H129.325V21.014H130.664V17.283H133.381V21.014H134.72V17.283H137.359L137.346 16.204ZM145.301 14.787C143.507 14.215 142.532 12.85 142.532 11.394V11.173H144.989V10.094H138.684V11.173H141.18V11.407C141.18 13.006 140.153 14.514 138.307 15.151L138.983 16.204C140.387 15.723 141.375 14.722 141.895 13.474C142.402 14.566 143.338 15.411 144.651 15.827L145.301 14.787ZM143.793 19.948C142.155 19.948 141.206 19.532 141.206 18.778C141.206 18.011 142.155 17.608 143.793 17.608C145.431 17.608 146.38 18.011 146.38 18.778C146.38 19.532 145.431 19.948 143.793 19.948ZM143.793 16.555C141.375 16.555 139.88 17.374 139.88 18.778C139.88 20.169 141.375 21.001 143.793 21.001C146.211 21.001 147.706 20.169 147.706 18.778C147.706 17.374 146.211 16.555 143.793 16.555ZM147.576 12.122V9.262H146.237V16.282H147.576V13.227H149.24V12.122H147.576Z" fill="#185786"/>
<path d="M93.4641 30.6748C93.4641 31.3714 93.3469 31.9801 93.1125 32.501C92.8781 33.0186 92.5461 33.4141 92.1164 33.6875C91.6867 33.9609 91.1854 34.0977 90.6125 34.0977C90.0526 34.0977 89.5562 33.9609 89.1232 33.6875C88.6903 33.4108 88.3534 33.0186 88.1125 32.5107C87.8749 31.9997 87.7528 31.4089 87.7463 30.7383V30.2256C87.7463 29.542 87.8651 28.9382 88.1027 28.4141C88.3404 27.89 88.6757 27.4896 89.1086 27.2129C89.5448 26.9329 90.0428 26.793 90.6027 26.793C91.1724 26.793 91.6737 26.9313 92.1066 27.208C92.5428 27.4814 92.8781 27.8802 93.1125 28.4043C93.3469 28.9251 93.4641 29.5322 93.4641 30.2256V30.6748ZM92.5314 30.2158C92.5314 29.3727 92.3622 28.7266 92.0236 28.2773C91.6851 27.8249 91.2115 27.5986 90.6027 27.5986C90.0103 27.5986 89.5432 27.8249 89.2014 28.2773C88.8628 28.7266 88.6887 29.3516 88.6789 30.1523V30.6748C88.6789 31.4919 88.8498 32.1348 89.1916 32.6035C89.5367 33.069 90.0103 33.3018 90.6125 33.3018C91.218 33.3018 91.6867 33.082 92.0187 32.6426C92.3508 32.1999 92.5217 31.5667 92.5314 30.7432V30.2158ZM98.9916 31.417C98.9916 32.221 98.8077 32.8688 98.4398 33.3604C98.072 33.8519 97.574 34.0977 96.9457 34.0977C96.3044 34.0977 95.7999 33.8942 95.432 33.4873V36.0312H94.5287V28.7168H95.3539L95.3979 29.3027C95.7657 28.847 96.2768 28.6191 96.9311 28.6191C97.5658 28.6191 98.0671 28.8584 98.435 29.3369C98.8061 29.8154 98.9916 30.4811 98.9916 31.334V31.417ZM98.0883 31.3145C98.0883 30.7188 97.9613 30.2484 97.7074 29.9033C97.4535 29.5583 97.1052 29.3857 96.6625 29.3857C96.1156 29.3857 95.7055 29.6283 95.432 30.1133V32.6377C95.7022 33.1195 96.1156 33.3604 96.6723 33.3604C97.1052 33.3604 97.4486 33.1895 97.7025 32.8477C97.9597 32.5026 98.0883 31.9915 98.0883 31.3145ZM102.136 34.0977C101.42 34.0977 100.837 33.8633 100.388 33.3945C99.9391 32.9225 99.7145 32.2926 99.7145 31.5049V31.3389C99.7145 30.8148 99.8137 30.3477 100.012 29.9375C100.214 29.5241 100.494 29.2018 100.852 28.9707C101.213 28.7363 101.604 28.6191 102.024 28.6191C102.711 28.6191 103.245 28.8454 103.626 29.2979C104.006 29.7503 104.197 30.3981 104.197 31.2412V31.6172H100.618C100.631 32.138 100.782 32.5596 101.072 32.8818C101.365 33.2008 101.736 33.3604 102.185 33.3604C102.504 33.3604 102.774 33.2952 102.996 33.165C103.217 33.0348 103.411 32.8623 103.577 32.6475L104.129 33.0771C103.686 33.7575 103.022 34.0977 102.136 34.0977ZM102.024 29.3613C101.659 29.3613 101.353 29.4948 101.106 29.7617C100.859 30.0254 100.706 30.3965 100.647 30.875H103.294V30.8066C103.268 30.3477 103.144 29.9928 102.922 29.7422C102.701 29.4883 102.402 29.3613 102.024 29.3613ZM107.6 29.5273C107.464 29.5046 107.316 29.4932 107.156 29.4932C106.564 29.4932 106.162 29.7454 105.95 30.25V34H105.047V28.7168H105.926L105.94 29.3271C106.236 28.8551 106.656 28.6191 107.2 28.6191C107.376 28.6191 107.509 28.6419 107.6 28.6875V29.5273ZM111.302 34C111.25 33.8958 111.207 33.7103 111.175 33.4434C110.755 33.8796 110.254 34.0977 109.671 34.0977C109.15 34.0977 108.722 33.9512 108.387 33.6582C108.055 33.362 107.889 32.9876 107.889 32.5352C107.889 31.985 108.097 31.5586 108.514 31.2559C108.934 30.9499 109.523 30.7969 110.281 30.7969H111.16V30.3818C111.16 30.0661 111.066 29.8154 110.877 29.6299C110.688 29.4411 110.41 29.3467 110.042 29.3467C109.72 29.3467 109.45 29.4281 109.231 29.5908C109.013 29.7536 108.904 29.9505 108.904 30.1816H107.996C107.996 29.918 108.089 29.6641 108.274 29.4199C108.463 29.1725 108.717 28.9772 109.036 28.834C109.358 28.6908 109.712 28.6191 110.096 28.6191C110.704 28.6191 111.181 28.7721 111.526 29.0781C111.871 29.3809 112.05 29.7992 112.063 30.333V32.7646C112.063 33.2497 112.125 33.6354 112.249 33.9219V34H111.302ZM109.803 33.3115C110.086 33.3115 110.354 33.2383 110.608 33.0918C110.862 32.9453 111.046 32.7549 111.16 32.5205V31.4365H110.452C109.345 31.4365 108.792 31.7604 108.792 32.4082C108.792 32.6914 108.886 32.9128 109.075 33.0723C109.264 33.2318 109.507 33.3115 109.803 33.3115ZM114.505 27.4375V28.7168H115.491V29.415H114.505V32.6914C114.505 32.903 114.549 33.0625 114.637 33.1699C114.725 33.2741 114.875 33.3262 115.086 33.3262C115.19 33.3262 115.334 33.3066 115.516 33.2676V34C115.278 34.0651 115.047 34.0977 114.822 34.0977C114.419 34.0977 114.114 33.9756 113.909 33.7314C113.704 33.4873 113.602 33.1406 113.602 32.6914V29.415H112.64V28.7168H113.602V27.4375H114.505ZM117.332 34H116.429V28.7168H117.332V34ZM116.356 27.3154C116.356 27.1689 116.4 27.0452 116.488 26.9443C116.579 26.8434 116.712 26.793 116.888 26.793C117.064 26.793 117.197 26.8434 117.288 26.9443C117.38 27.0452 117.425 27.1689 117.425 27.3154C117.425 27.4619 117.38 27.584 117.288 27.6816C117.197 27.7793 117.064 27.8281 116.888 27.8281C116.712 27.8281 116.579 27.7793 116.488 27.6816C116.4 27.584 116.356 27.4619 116.356 27.3154ZM118.343 31.3096C118.343 30.792 118.444 30.3265 118.646 29.9131C118.851 29.4997 119.134 29.1807 119.496 28.9561C119.86 28.7314 120.275 28.6191 120.741 28.6191C121.46 28.6191 122.041 28.8682 122.484 29.3662C122.93 29.8643 123.153 30.5267 123.153 31.3535V31.417C123.153 31.9313 123.054 32.3936 122.855 32.8037C122.66 33.2106 122.378 33.528 122.01 33.7559C121.646 33.9837 121.226 34.0977 120.751 34.0977C120.034 34.0977 119.453 33.8486 119.007 33.3506C118.565 32.8525 118.343 32.1934 118.343 31.373V31.3096ZM119.252 31.417C119.252 32.0029 119.387 32.4733 119.657 32.8281C119.93 33.1829 120.295 33.3604 120.751 33.3604C121.21 33.3604 121.574 33.1813 121.844 32.8232C122.115 32.4619 122.25 31.9574 122.25 31.3096C122.25 30.7301 122.111 30.2614 121.835 29.9033C121.561 29.542 121.197 29.3613 120.741 29.3613C120.295 29.3613 119.935 29.5387 119.662 29.8936C119.388 30.2484 119.252 30.7562 119.252 31.417ZM124.94 28.7168L124.97 29.3809C125.373 28.873 125.901 28.6191 126.552 28.6191C127.668 28.6191 128.231 29.249 128.241 30.5088V34H127.338V30.5039C127.334 30.123 127.247 29.8415 127.074 29.6592C126.905 29.4769 126.639 29.3857 126.278 29.3857C125.985 29.3857 125.728 29.4639 125.507 29.6201C125.285 29.7764 125.113 29.9814 124.989 30.2354V34H124.086V28.7168H124.94ZM133.92 30.8311C133.116 30.5999 132.53 30.3167 132.162 29.9814C131.798 29.6429 131.615 29.2262 131.615 28.7314C131.615 28.1715 131.838 27.7093 132.284 27.3447C132.734 26.9769 133.316 26.793 134.032 26.793C134.521 26.793 134.955 26.8874 135.336 27.0762C135.72 27.265 136.016 27.5254 136.225 27.8574C136.436 28.1895 136.542 28.5524 136.542 28.9463H135.6C135.6 28.5166 135.463 28.1797 135.19 27.9355C134.916 27.6882 134.53 27.5645 134.032 27.5645C133.57 27.5645 133.209 27.667 132.948 27.8721C132.691 28.0739 132.563 28.3555 132.563 28.7168C132.563 29.0065 132.685 29.2523 132.929 29.4541C133.176 29.6527 133.595 29.835 134.184 30.001C134.776 30.167 135.238 30.3509 135.571 30.5527C135.906 30.7513 136.153 30.984 136.313 31.251C136.475 31.5179 136.557 31.832 136.557 32.1934C136.557 32.7695 136.332 33.2318 135.883 33.5801C135.434 33.9251 134.833 34.0977 134.081 34.0977C133.593 34.0977 133.137 34.0049 132.714 33.8193C132.291 33.6305 131.964 33.3734 131.733 33.0479C131.505 32.7223 131.391 32.3529 131.391 31.9395H132.333C132.333 32.3691 132.491 32.7093 132.807 32.96C133.126 33.2074 133.551 33.3311 134.081 33.3311C134.576 33.3311 134.955 33.2301 135.219 33.0283C135.483 32.8265 135.614 32.5514 135.614 32.2031C135.614 31.8548 135.492 31.5863 135.248 31.3975C135.004 31.2054 134.561 31.0166 133.92 30.8311ZM138.647 27.4375V28.7168H139.633V29.415H138.647V32.6914C138.647 32.903 138.691 33.0625 138.779 33.1699C138.867 33.2741 139.016 33.3262 139.228 33.3262C139.332 33.3262 139.475 33.3066 139.658 33.2676V34C139.42 34.0651 139.189 34.0977 138.964 34.0977C138.561 34.0977 138.256 33.9756 138.051 33.7314C137.846 33.4873 137.744 33.1406 137.744 32.6914V29.415H136.782V28.7168H137.744V27.4375H138.647ZM140.156 31.3096C140.156 30.792 140.257 30.3265 140.459 29.9131C140.664 29.4997 140.947 29.1807 141.308 28.9561C141.673 28.7314 142.088 28.6191 142.553 28.6191C143.273 28.6191 143.854 28.8682 144.296 29.3662C144.742 29.8643 144.965 30.5267 144.965 31.3535V31.417C144.965 31.9313 144.866 32.3936 144.668 32.8037C144.472 33.2106 144.191 33.528 143.823 33.7559C143.458 33.9837 143.038 34.0977 142.563 34.0977C141.847 34.0977 141.266 33.8486 140.82 33.3506C140.377 32.8525 140.156 32.1934 140.156 31.373V31.3096ZM141.064 31.417C141.064 32.0029 141.199 32.4733 141.469 32.8281C141.743 33.1829 142.107 33.3604 142.563 33.3604C143.022 33.3604 143.387 33.1813 143.657 32.8232C143.927 32.4619 144.062 31.9574 144.062 31.3096C144.062 30.7301 143.924 30.2614 143.647 29.9033C143.374 29.542 143.009 29.3613 142.553 29.3613C142.107 29.3613 141.748 29.5387 141.474 29.8936C141.201 30.2484 141.064 30.7562 141.064 31.417ZM150.361 31.417C150.361 32.221 150.177 32.8688 149.809 33.3604C149.442 33.8519 148.943 34.0977 148.315 34.0977C147.674 34.0977 147.169 33.8942 146.802 33.4873V36.0312H145.898V28.7168H146.723L146.767 29.3027C147.135 28.847 147.646 28.6191 148.301 28.6191C148.935 28.6191 149.437 28.8584 149.804 29.3369C150.176 29.8154 150.361 30.4811 150.361 31.334V31.417ZM149.458 31.3145C149.458 30.7188 149.331 30.2484 149.077 29.9033C148.823 29.5583 148.475 29.3857 148.032 29.3857C147.485 29.3857 147.075 29.6283 146.802 30.1133V32.6377C147.072 33.1195 147.485 33.3604 148.042 33.3604C148.475 33.3604 148.818 33.1895 149.072 32.8477C149.329 32.5026 149.458 31.9915 149.458 31.3145Z" fill="#2E92B0"/>
<path d="M167.41 10.601C169.061 10.601 170.14 11.082 170.14 11.914C170.14 12.746 169.061 13.227 167.41 13.227C165.746 13.227 164.667 12.746 164.667 11.914C164.667 11.082 165.746 10.601 167.41 10.601ZM167.41 14.306C169.919 14.306 171.57 13.383 171.57 11.914C171.57 10.445 169.919 9.522 167.41 9.522C164.888 9.522 163.25 10.445 163.25 11.914C163.25 13.383 164.888 14.306 167.41 14.306ZM164.758 17.309H163.406V20.78H171.57V19.688H164.758V17.309ZM162.093 15.099V16.191H166.825V18.414H168.19V16.191H172.74V15.099H162.093ZM175.235 12.759C175.235 11.732 175.989 11.056 177.029 11.056C178.043 11.056 178.797 11.732 178.797 12.759C178.797 13.773 178.043 14.449 177.029 14.449C175.989 14.449 175.235 13.773 175.235 12.759ZM182.19 11.966V13.552H179.954C180.032 13.305 180.071 13.045 180.071 12.759C180.071 12.473 180.032 12.213 179.967 11.966H182.19ZM182.19 14.631V16.178H183.529V9.249H182.19V10.874H179.356C178.81 10.289 177.991 9.925 177.029 9.925C175.274 9.925 173.961 11.095 173.961 12.759C173.961 14.41 175.274 15.58 177.029 15.58C177.978 15.58 178.81 15.229 179.356 14.631H182.19ZM179.616 19.948C177.952 19.948 176.977 19.519 176.977 18.713C176.977 17.933 177.952 17.491 179.616 17.491C181.293 17.491 182.255 17.933 182.255 18.713C182.255 19.519 181.293 19.948 179.616 19.948ZM179.616 16.438C177.172 16.438 175.664 17.283 175.664 18.713C175.664 20.156 177.172 21.001 179.616 21.001C182.06 21.001 183.581 20.156 183.581 18.713C183.581 17.283 182.06 16.438 179.616 16.438ZM188.996 10.432V11.524H193.117C193.065 12.174 192.961 12.785 192.792 13.357L188.398 13.63L188.58 14.787L192.376 14.436C191.661 15.879 190.387 17.101 188.32 18.128L189.048 19.181C193.338 17.036 194.456 13.929 194.456 10.432H188.996ZM196.51 9.262V21.001H197.849V9.262H196.51ZM202.151 13.097C202.151 11.823 203.412 11.017 205.167 11.017C206.909 11.017 208.17 11.823 208.17 13.097C208.17 14.371 206.909 15.177 205.167 15.177C203.412 15.177 202.151 14.371 202.151 13.097ZM205.83 18.466V16.23C207.975 16.035 209.483 14.839 209.483 13.097C209.483 11.186 207.65 9.951 205.167 9.951C202.671 9.951 200.851 11.186 200.851 13.097C200.851 14.839 202.346 16.022 204.491 16.217V18.466H199.863V19.558H210.497V18.466H205.83ZM221.741 14.995C219.427 14.579 217.542 12.772 217.542 10.9V10.016H216.125V10.9C216.125 12.759 214.24 14.566 211.926 14.995L212.498 16.1C214.409 15.71 216.06 14.488 216.827 12.876C217.594 14.488 219.245 15.71 221.156 16.1L221.741 14.995ZM211.562 18.388V19.493H222.196V18.388H211.562ZM224.171 13.89L224.34 14.982L231.269 14.631C231.204 15.489 231.074 16.412 230.827 17.465L232.153 17.582C232.673 15.112 232.673 13.5 232.673 11.797V10.38H224.496V11.459H231.36V11.797C231.36 12.395 231.36 12.993 231.334 13.617L224.171 13.89ZM223.261 18.375V19.48H233.869V18.375H223.261Z" fill="#185786"/>
<path d="M170.464 30.6748C170.464 31.3714 170.347 31.9801 170.113 32.501C169.879 33.0186 169.546 33.4141 169.117 33.6875C168.687 33.9609 168.186 34.0977 167.613 34.0977C167.053 34.0977 166.557 33.9609 166.124 33.6875C165.691 33.4108 165.354 33.0186 165.113 32.5107C164.875 31.9997 164.753 31.4089 164.747 30.7383V30.2256C164.747 29.542 164.865 28.9382 165.103 28.4141C165.341 27.89 165.676 27.4896 166.109 27.2129C166.545 26.9329 167.043 26.793 167.603 26.793C168.173 26.793 168.674 26.9313 169.107 27.208C169.543 27.4814 169.879 27.8802 170.113 28.4043C170.347 28.9251 170.464 29.5322 170.464 30.2256V30.6748ZM169.532 30.2158C169.532 29.3727 169.363 28.7266 169.024 28.2773C168.685 27.8249 168.212 27.5986 167.603 27.5986C167.011 27.5986 166.544 27.8249 166.202 28.2773C165.863 28.7266 165.689 29.3516 165.679 30.1523V30.6748C165.679 31.4919 165.85 32.1348 166.192 32.6035C166.537 33.069 167.011 33.3018 167.613 33.3018C168.218 33.3018 168.687 33.082 169.019 32.6426C169.351 32.1999 169.522 31.5667 169.532 30.7432V30.2158ZM175.992 31.417C175.992 32.221 175.808 32.8688 175.44 33.3604C175.072 33.8519 174.574 34.0977 173.946 34.0977C173.305 34.0977 172.8 33.8942 172.432 33.4873V36.0312H171.529V28.7168H172.354L172.398 29.3027C172.766 28.847 173.277 28.6191 173.931 28.6191C174.566 28.6191 175.068 28.8584 175.435 29.3369C175.806 29.8154 175.992 30.4811 175.992 31.334V31.417ZM175.089 31.3145C175.089 30.7188 174.962 30.2484 174.708 29.9033C174.454 29.5583 174.106 29.3857 173.663 29.3857C173.116 29.3857 172.706 29.6283 172.432 30.1133V32.6377C172.703 33.1195 173.116 33.3604 173.673 33.3604C174.106 33.3604 174.449 33.1895 174.703 32.8477C174.96 32.5026 175.089 31.9915 175.089 31.3145ZM179.137 34.0977C178.421 34.0977 177.838 33.8633 177.389 33.3945C176.939 32.9225 176.715 32.2926 176.715 31.5049V31.3389C176.715 30.8148 176.814 30.3477 177.013 29.9375C177.215 29.5241 177.494 29.2018 177.853 28.9707C178.214 28.7363 178.604 28.6191 179.024 28.6191C179.711 28.6191 180.245 28.8454 180.626 29.2979C181.007 29.7503 181.197 30.3981 181.197 31.2412V31.6172H177.618C177.631 32.138 177.783 32.5596 178.072 32.8818C178.365 33.2008 178.736 33.3604 179.186 33.3604C179.505 33.3604 179.775 33.2952 179.996 33.165C180.217 33.0348 180.411 32.8623 180.577 32.6475L181.129 33.0771C180.686 33.7575 180.022 34.0977 179.137 34.0977ZM179.024 29.3613C178.66 29.3613 178.354 29.4948 178.106 29.7617C177.859 30.0254 177.706 30.3965 177.647 30.875H180.294V30.8066C180.268 30.3477 180.144 29.9928 179.923 29.7422C179.701 29.4883 179.402 29.3613 179.024 29.3613ZM184.601 29.5273C184.464 29.5046 184.316 29.4932 184.156 29.4932C183.564 29.4932 183.162 29.7454 182.95 30.25V34H182.047V28.7168H182.926L182.941 29.3271C183.237 28.8551 183.657 28.6191 184.2 28.6191C184.376 28.6191 184.51 28.6419 184.601 28.6875V29.5273ZM188.302 34C188.25 33.8958 188.208 33.7103 188.175 33.4434C187.755 33.8796 187.254 34.0977 186.671 34.0977C186.15 34.0977 185.722 33.9512 185.387 33.6582C185.055 33.362 184.889 32.9876 184.889 32.5352C184.889 31.985 185.097 31.5586 185.514 31.2559C185.934 30.9499 186.523 30.7969 187.282 30.7969H188.161V30.3818C188.161 30.0661 188.066 29.8154 187.877 29.6299C187.689 29.4411 187.41 29.3467 187.042 29.3467C186.72 29.3467 186.45 29.4281 186.232 29.5908C186.014 29.7536 185.905 29.9505 185.905 30.1816H184.996C184.996 29.918 185.089 29.6641 185.275 29.4199C185.464 29.1725 185.718 28.9772 186.037 28.834C186.359 28.6908 186.712 28.6191 187.096 28.6191C187.705 28.6191 188.182 28.7721 188.527 29.0781C188.872 29.3809 189.051 29.7992 189.064 30.333V32.7646C189.064 33.2497 189.126 33.6354 189.249 33.9219V34H188.302ZM186.803 33.3115C187.086 33.3115 187.355 33.2383 187.609 33.0918C187.863 32.9453 188.047 32.7549 188.161 32.5205V31.4365H187.453C186.346 31.4365 185.792 31.7604 185.792 32.4082C185.792 32.6914 185.887 32.9128 186.076 33.0723C186.264 33.2318 186.507 33.3115 186.803 33.3115ZM191.505 27.4375V28.7168H192.492V29.415H191.505V32.6914C191.505 32.903 191.549 33.0625 191.637 33.1699C191.725 33.2741 191.875 33.3262 192.087 33.3262C192.191 33.3262 192.334 33.3066 192.516 33.2676V34C192.279 34.0651 192.047 34.0977 191.823 34.0977C191.419 34.0977 191.115 33.9756 190.91 33.7314C190.705 33.4873 190.602 33.1406 190.602 32.6914V29.415H189.64V28.7168H190.602V27.4375H191.505ZM194.333 34H193.429V28.7168H194.333V34ZM193.356 27.3154C193.356 27.1689 193.4 27.0452 193.488 26.9443C193.579 26.8434 193.713 26.793 193.888 26.793C194.064 26.793 194.198 26.8434 194.289 26.9443C194.38 27.0452 194.426 27.1689 194.426 27.3154C194.426 27.4619 194.38 27.584 194.289 27.6816C194.198 27.7793 194.064 27.8281 193.888 27.8281C193.713 27.8281 193.579 27.7793 193.488 27.6816C193.4 27.584 193.356 27.4619 193.356 27.3154ZM195.344 31.3096C195.344 30.792 195.445 30.3265 195.646 29.9131C195.852 29.4997 196.135 29.1807 196.496 28.9561C196.861 28.7314 197.276 28.6191 197.741 28.6191C198.461 28.6191 199.042 28.8682 199.484 29.3662C199.93 29.8643 200.153 30.5267 200.153 31.3535V31.417C200.153 31.9313 200.054 32.3936 199.855 32.8037C199.66 33.2106 199.379 33.528 199.011 33.7559C198.646 33.9837 198.226 34.0977 197.751 34.0977C197.035 34.0977 196.454 33.8486 196.008 33.3506C195.565 32.8525 195.344 32.1934 195.344 31.373V31.3096ZM196.252 31.417C196.252 32.0029 196.387 32.4733 196.657 32.8281C196.931 33.1829 197.295 33.3604 197.751 33.3604C198.21 33.3604 198.575 33.1813 198.845 32.8232C199.115 32.4619 199.25 31.9574 199.25 31.3096C199.25 30.7301 199.112 30.2614 198.835 29.9033C198.562 29.542 198.197 29.3613 197.741 29.3613C197.295 29.3613 196.936 29.5387 196.662 29.8936C196.389 30.2484 196.252 30.7562 196.252 31.417ZM201.941 28.7168L201.97 29.3809C202.374 28.873 202.901 28.6191 203.552 28.6191C204.668 28.6191 205.232 29.249 205.241 30.5088V34H204.338V30.5039C204.335 30.123 204.247 29.8415 204.074 29.6592C203.905 29.4769 203.64 29.3857 203.279 29.3857C202.986 29.3857 202.728 29.4639 202.507 29.6201C202.286 29.7764 202.113 29.9814 201.989 30.2354V34H201.086V28.7168H201.941ZM210.632 30.6943L209.763 31.5977V34H208.826V26.8906H209.763V30.4062L212.922 26.8906H214.055L211.257 30.0303L214.275 34H213.152L210.632 30.6943ZM215.735 34H214.832V28.7168H215.735V34ZM214.759 27.3154C214.759 27.1689 214.803 27.0452 214.89 26.9443C214.982 26.8434 215.115 26.793 215.291 26.793C215.467 26.793 215.6 26.8434 215.691 26.9443C215.782 27.0452 215.828 27.1689 215.828 27.3154C215.828 27.4619 215.782 27.584 215.691 27.6816C215.6 27.7793 215.467 27.8281 215.291 27.8281C215.115 27.8281 214.982 27.7793 214.89 27.6816C214.803 27.584 214.759 27.4619 214.759 27.3154ZM216.746 31.3096C216.746 30.792 216.847 30.3265 217.049 29.9131C217.254 29.4997 217.537 29.1807 217.898 28.9561C218.263 28.7314 218.678 28.6191 219.144 28.6191C219.863 28.6191 220.444 28.8682 220.887 29.3662C221.333 29.8643 221.556 30.5267 221.556 31.3535V31.417C221.556 31.9313 221.456 32.3936 221.258 32.8037C221.062 33.2106 220.781 33.528 220.413 33.7559C220.049 33.9837 219.629 34.0977 219.153 34.0977C218.437 34.0977 217.856 33.8486 217.41 33.3506C216.967 32.8525 216.746 32.1934 216.746 31.373V31.3096ZM217.654 31.417C217.654 32.0029 217.789 32.4733 218.06 32.8281C218.333 33.1829 218.698 33.3604 219.153 33.3604C219.612 33.3604 219.977 33.1813 220.247 32.8232C220.517 32.4619 220.652 31.9574 220.652 31.3096C220.652 30.7301 220.514 30.2614 220.237 29.9033C219.964 29.542 219.599 29.3613 219.144 29.3613C218.698 29.3613 218.338 29.5387 218.064 29.8936C217.791 30.2484 217.654 30.7562 217.654 31.417ZM225.565 32.5986C225.565 32.3545 225.472 32.1657 225.286 32.0322C225.104 31.8955 224.783 31.7783 224.324 31.6807C223.869 31.583 223.506 31.4658 223.236 31.3291C222.969 31.1924 222.77 31.0296 222.64 30.8408C222.513 30.652 222.449 30.4274 222.449 30.167C222.449 29.734 222.632 29.3678 222.996 29.0684C223.364 28.7689 223.833 28.6191 224.403 28.6191C225.002 28.6191 225.487 28.7738 225.858 29.083C226.232 29.3923 226.419 29.7878 226.419 30.2695H225.511C225.511 30.0221 225.405 29.8089 225.194 29.6299C224.985 29.4508 224.722 29.3613 224.403 29.3613C224.074 29.3613 223.817 29.4329 223.631 29.5762C223.446 29.7194 223.353 29.9066 223.353 30.1377C223.353 30.3558 223.439 30.5202 223.612 30.6309C223.784 30.7415 224.095 30.8473 224.544 30.9482C224.997 31.0492 225.363 31.1696 225.643 31.3096C225.923 31.4495 226.129 31.6188 226.263 31.8174C226.4 32.0127 226.468 32.252 226.468 32.5352C226.468 33.0072 226.279 33.3864 225.902 33.6729C225.524 33.9561 225.034 34.0977 224.432 34.0977C224.009 34.0977 223.634 34.0228 223.309 33.873C222.983 33.7233 222.728 33.515 222.542 33.248C222.36 32.9779 222.269 32.6865 222.269 32.374H223.172C223.188 32.6768 223.309 32.9176 223.533 33.0967C223.761 33.2725 224.061 33.3604 224.432 33.3604C224.774 33.3604 225.047 33.292 225.252 33.1553C225.46 33.0153 225.565 32.8298 225.565 32.5986ZM228.919 31.5537L228.353 32.1445V34H227.45V26.5H228.353V31.0361L228.836 30.4551L230.482 28.7168H231.58L229.525 30.9238L231.82 34H230.76L228.919 31.5537Z" fill="#2E92B0"/>
<path d="M257.26 10.601C258.911 10.601 259.99 11.082 259.99 11.914C259.99 12.746 258.911 13.227 257.26 13.227C255.596 13.227 254.517 12.746 254.517 11.914C254.517 11.082 255.596 10.601 257.26 10.601ZM257.26 14.306C259.769 14.306 261.42 13.383 261.42 11.914C261.42 10.445 259.769 9.522 257.26 9.522C254.738 9.522 253.1 10.445 253.1 11.914C253.1 13.383 254.738 14.306 257.26 14.306ZM254.608 17.309H253.256V20.78H261.42V19.688H254.608V17.309ZM251.943 15.099V16.191H256.675V18.414H258.04V16.191H262.59V15.099H251.943ZM265.085 12.759C265.085 11.732 265.839 11.056 266.879 11.056C267.893 11.056 268.647 11.732 268.647 12.759C268.647 13.773 267.893 14.449 266.879 14.449C265.839 14.449 265.085 13.773 265.085 12.759ZM272.04 11.966V13.552H269.804C269.882 13.305 269.921 13.045 269.921 12.759C269.921 12.473 269.882 12.213 269.817 11.966H272.04ZM272.04 14.631V16.178H273.379V9.249H272.04V10.874H269.206C268.66 10.289 267.841 9.925 266.879 9.925C265.124 9.925 263.811 11.095 263.811 12.759C263.811 14.41 265.124 15.58 266.879 15.58C267.828 15.58 268.66 15.229 269.206 14.631H272.04ZM269.466 19.948C267.802 19.948 266.827 19.519 266.827 18.713C266.827 17.933 267.802 17.491 269.466 17.491C271.143 17.491 272.105 17.933 272.105 18.713C272.105 19.519 271.143 19.948 269.466 19.948ZM269.466 16.438C267.022 16.438 265.514 17.283 265.514 18.713C265.514 20.156 267.022 21.001 269.466 21.001C271.91 21.001 273.431 20.156 273.431 18.713C273.431 17.283 271.91 16.438 269.466 16.438ZM282.069 12.317H284.552V11.238H282.069V9.496H280.73V11.238H278.208V12.317H280.73V12.993C280.73 14.917 279.638 16.893 277.844 17.751L278.585 18.778C279.924 18.154 280.899 16.867 281.419 15.346C281.9 16.763 282.836 17.959 284.097 18.57L284.838 17.543C283.096 16.698 282.069 14.787 282.069 12.993V12.317ZM288.933 13.968H287.1V9.249H285.761V21.001H287.1V15.073H288.933V13.968ZM297.824 11.511C297.824 12.915 297.824 14.579 297.369 16.88L298.721 17.023C299.176 14.592 299.176 12.967 299.176 11.511V10.354H290.817V11.446H297.824V11.511ZM295.016 18.362V14.228H293.664V18.362H289.712V19.467H300.32V18.362H295.016ZM305.74 11.537H308.353V10.432H301.775V11.537H304.388V12.655C304.388 14.67 303.179 16.854 301.359 17.699L302.126 18.765C303.504 18.102 304.557 16.711 305.077 15.073C305.623 16.594 306.676 17.868 308.041 18.466L308.782 17.413C306.949 16.633 305.74 14.605 305.74 12.655V11.537ZM309.718 9.262V21.001H311.07V9.262H309.718Z" fill="#185786"/>
<path d="M251.476 30.6748C251.476 31.3714 251.358 31.9801 251.124 32.501C250.89 33.0186 250.558 33.4141 250.128 33.6875C249.698 33.9609 249.197 34.0977 248.624 34.0977C248.064 34.0977 247.568 33.9609 247.135 33.6875C246.702 33.4108 246.365 33.0186 246.124 32.5107C245.886 31.9997 245.764 31.4089 245.758 30.7383V30.2256C245.758 29.542 245.877 28.9382 246.114 28.4141C246.352 27.89 246.687 27.4896 247.12 27.2129C247.556 26.9329 248.054 26.793 248.614 26.793C249.184 26.793 249.685 26.9313 250.118 27.208C250.554 27.4814 250.89 27.8802 251.124 28.4043C251.358 28.9251 251.476 29.5322 251.476 30.2256V30.6748ZM250.543 30.2158C250.543 29.3727 250.374 28.7266 250.035 28.2773C249.697 27.8249 249.223 27.5986 248.614 27.5986C248.022 27.5986 247.555 27.8249 247.213 28.2773C246.874 28.7266 246.7 29.3516 246.69 30.1523V30.6748C246.69 31.4919 246.861 32.1348 247.203 32.6035C247.548 33.069 248.022 33.3018 248.624 33.3018C249.229 33.3018 249.698 33.082 250.03 32.6426C250.362 32.1999 250.533 31.5667 250.543 30.7432V30.2158ZM257.003 31.417C257.003 32.221 256.819 32.8688 256.451 33.3604C256.084 33.8519 255.585 34.0977 254.957 34.0977C254.316 34.0977 253.811 33.8942 253.444 33.4873V36.0312H252.54V28.7168H253.365L253.409 29.3027C253.777 28.847 254.288 28.6191 254.943 28.6191C255.577 28.6191 256.079 28.8584 256.446 29.3369C256.818 29.8154 257.003 30.4811 257.003 31.334V31.417ZM256.1 31.3145C256.1 30.7188 255.973 30.2484 255.719 29.9033C255.465 29.5583 255.117 29.3857 254.674 29.3857C254.127 29.3857 253.717 29.6283 253.444 30.1133V32.6377C253.714 33.1195 254.127 33.3604 254.684 33.3604C255.117 33.3604 255.46 33.1895 255.714 32.8477C255.971 32.5026 256.1 31.9915 256.1 31.3145ZM260.148 34.0977C259.432 34.0977 258.849 33.8633 258.4 33.3945C257.951 32.9225 257.726 32.2926 257.726 31.5049V31.3389C257.726 30.8148 257.825 30.3477 258.024 29.9375C258.226 29.5241 258.506 29.2018 258.864 28.9707C259.225 28.7363 259.616 28.6191 260.036 28.6191C260.722 28.6191 261.256 28.8454 261.637 29.2979C262.018 29.7503 262.208 30.3981 262.208 31.2412V31.6172H258.629C258.642 32.138 258.794 32.5596 259.083 32.8818C259.376 33.2008 259.747 33.3604 260.197 33.3604C260.516 33.3604 260.786 33.2952 261.007 33.165C261.229 33.0348 261.422 32.8623 261.588 32.6475L262.14 33.0771C261.697 33.7575 261.033 34.0977 260.148 34.0977ZM260.036 29.3613C259.671 29.3613 259.365 29.4948 259.118 29.7617C258.87 30.0254 258.717 30.3965 258.659 30.875H261.305V30.8066C261.279 30.3477 261.155 29.9928 260.934 29.7422C260.713 29.4883 260.413 29.3613 260.036 29.3613ZM265.612 29.5273C265.475 29.5046 265.327 29.4932 265.168 29.4932C264.575 29.4932 264.173 29.7454 263.962 30.25V34H263.058V28.7168H263.937L263.952 29.3271C264.248 28.8551 264.668 28.6191 265.212 28.6191C265.387 28.6191 265.521 28.6419 265.612 28.6875V29.5273ZM269.313 34C269.261 33.8958 269.219 33.7103 269.186 33.4434C268.766 33.8796 268.265 34.0977 267.682 34.0977C267.162 34.0977 266.734 33.9512 266.398 33.6582C266.066 33.362 265.9 32.9876 265.9 32.5352C265.9 31.985 266.109 31.5586 266.525 31.2559C266.945 30.9499 267.534 30.7969 268.293 30.7969H269.172V30.3818C269.172 30.0661 269.077 29.8154 268.888 29.6299C268.7 29.4411 268.421 29.3467 268.054 29.3467C267.731 29.3467 267.461 29.4281 267.243 29.5908C267.025 29.7536 266.916 29.9505 266.916 30.1816H266.008C266.008 29.918 266.1 29.6641 266.286 29.4199C266.475 29.1725 266.729 28.9772 267.048 28.834C267.37 28.6908 267.723 28.6191 268.107 28.6191C268.716 28.6191 269.193 28.7721 269.538 29.0781C269.883 29.3809 270.062 29.7992 270.075 30.333V32.7646C270.075 33.2497 270.137 33.6354 270.261 33.9219V34H269.313ZM267.814 33.3115C268.097 33.3115 268.366 33.2383 268.62 33.0918C268.874 32.9453 269.058 32.7549 269.172 32.5205V31.4365H268.464C267.357 31.4365 266.804 31.7604 266.804 32.4082C266.804 32.6914 266.898 32.9128 267.087 33.0723C267.276 33.2318 267.518 33.3115 267.814 33.3115ZM272.517 27.4375V28.7168H273.503V29.415H272.517V32.6914C272.517 32.903 272.561 33.0625 272.648 33.1699C272.736 33.2741 272.886 33.3262 273.098 33.3262C273.202 33.3262 273.345 33.3066 273.527 33.2676V34C273.29 34.0651 273.059 34.0977 272.834 34.0977C272.43 34.0977 272.126 33.9756 271.921 33.7314C271.716 33.4873 271.613 33.1406 271.613 32.6914V29.415H270.651V28.7168H271.613V27.4375H272.517ZM275.344 34H274.441V28.7168H275.344V34ZM274.367 27.3154C274.367 27.1689 274.411 27.0452 274.499 26.9443C274.59 26.8434 274.724 26.793 274.9 26.793C275.075 26.793 275.209 26.8434 275.3 26.9443C275.391 27.0452 275.437 27.1689 275.437 27.3154C275.437 27.4619 275.391 27.584 275.3 27.6816C275.209 27.7793 275.075 27.8281 274.9 27.8281C274.724 27.8281 274.59 27.7793 274.499 27.6816C274.411 27.584 274.367 27.4619 274.367 27.3154ZM276.355 31.3096C276.355 30.792 276.456 30.3265 276.658 29.9131C276.863 29.4997 277.146 29.1807 277.507 28.9561C277.872 28.7314 278.287 28.6191 278.752 28.6191C279.472 28.6191 280.053 28.8682 280.496 29.3662C280.941 29.8643 281.164 30.5267 281.164 31.3535V31.417C281.164 31.9313 281.065 32.3936 280.867 32.8037C280.671 33.2106 280.39 33.528 280.022 33.7559C279.657 33.9837 279.237 34.0977 278.762 34.0977C278.046 34.0977 277.465 33.8486 277.019 33.3506C276.576 32.8525 276.355 32.1934 276.355 31.373V31.3096ZM277.263 31.417C277.263 32.0029 277.398 32.4733 277.668 32.8281C277.942 33.1829 278.306 33.3604 278.762 33.3604C279.221 33.3604 279.586 33.1813 279.856 32.8232C280.126 32.4619 280.261 31.9574 280.261 31.3096C280.261 30.7301 280.123 30.2614 279.846 29.9033C279.573 29.542 279.208 29.3613 278.752 29.3613C278.306 29.3613 277.947 29.5387 277.673 29.8936C277.4 30.2484 277.263 30.7562 277.263 31.417ZM282.952 28.7168L282.981 29.3809C283.385 28.873 283.912 28.6191 284.563 28.6191C285.68 28.6191 286.243 29.249 286.253 30.5088V34H285.349V30.5039C285.346 30.123 285.258 29.8415 285.086 29.6592C284.916 29.4769 284.651 29.3857 284.29 29.3857C283.997 29.3857 283.74 29.4639 283.518 29.6201C283.297 29.7764 283.124 29.9814 283.001 30.2354V34H282.097V28.7168H282.952ZM295.086 33.0674C294.845 33.4124 294.508 33.6712 294.075 33.8438C293.646 34.013 293.144 34.0977 292.571 34.0977C291.992 34.0977 291.478 33.9626 291.028 33.6924C290.579 33.4189 290.231 33.0316 289.983 32.5303C289.739 32.029 289.614 31.4479 289.607 30.7871V30.167C289.607 29.096 289.856 28.266 290.354 27.6768C290.856 27.0876 291.559 26.793 292.464 26.793C293.206 26.793 293.803 26.9834 294.256 27.3643C294.708 27.7419 294.985 28.279 295.086 28.9756H294.148C293.973 28.0348 293.413 27.5645 292.469 27.5645C291.84 27.5645 291.364 27.7858 291.038 28.2285C290.716 28.668 290.553 29.306 290.55 30.1426V30.7236C290.55 31.5212 290.732 32.1559 291.097 32.6279C291.461 33.0967 291.954 33.3311 292.576 33.3311C292.928 33.3311 293.235 33.292 293.499 33.2139C293.763 33.1357 293.981 33.0039 294.153 32.8184V31.2217H292.508V30.46H295.086V33.0674ZM299.573 34C299.521 33.8958 299.479 33.7103 299.446 33.4434C299.027 33.8796 298.525 34.0977 297.943 34.0977C297.422 34.0977 296.994 33.9512 296.658 33.6582C296.326 33.362 296.16 32.9876 296.16 32.5352C296.16 31.985 296.369 31.5586 296.785 31.2559C297.205 30.9499 297.794 30.7969 298.553 30.7969H299.432V30.3818C299.432 30.0661 299.337 29.8154 299.149 29.6299C298.96 29.4411 298.682 29.3467 298.314 29.3467C297.991 29.3467 297.721 29.4281 297.503 29.5908C297.285 29.7536 297.176 29.9505 297.176 30.1816H296.268C296.268 29.918 296.361 29.6641 296.546 29.4199C296.735 29.1725 296.989 28.9772 297.308 28.834C297.63 28.6908 297.983 28.6191 298.367 28.6191C298.976 28.6191 299.453 28.7721 299.798 29.0781C300.143 29.3809 300.322 29.7992 300.335 30.333V32.7646C300.335 33.2497 300.397 33.6354 300.521 33.9219V34H299.573ZM298.074 33.3115C298.358 33.3115 298.626 33.2383 298.88 33.0918C299.134 32.9453 299.318 32.7549 299.432 32.5205V31.4365H298.724C297.617 31.4365 297.064 31.7604 297.064 32.4082C297.064 32.6914 297.158 32.9128 297.347 33.0723C297.536 33.2318 297.778 33.3115 298.074 33.3115ZM304.105 29.5273C303.968 29.5046 303.82 29.4932 303.661 29.4932C303.068 29.4932 302.666 29.7454 302.454 30.25V34H301.551V28.7168H302.43L302.445 29.3271C302.741 28.8551 303.161 28.6191 303.704 28.6191C303.88 28.6191 304.014 28.6419 304.105 28.6875V29.5273ZM307.806 34C307.754 33.8958 307.712 33.7103 307.679 33.4434C307.259 33.8796 306.758 34.0977 306.175 34.0977C305.655 34.0977 305.226 33.9512 304.891 33.6582C304.559 33.362 304.393 32.9876 304.393 32.5352C304.393 31.985 304.601 31.5586 305.018 31.2559C305.438 30.9499 306.027 30.7969 306.786 30.7969H307.665V30.3818C307.665 30.0661 307.57 29.8154 307.381 29.6299C307.193 29.4411 306.914 29.3467 306.546 29.3467C306.224 29.3467 305.954 29.4281 305.736 29.5908C305.518 29.7536 305.409 29.9505 305.409 30.1816H304.501C304.501 29.918 304.593 29.6641 304.779 29.4199C304.968 29.1725 305.222 28.9772 305.541 28.834C305.863 28.6908 306.216 28.6191 306.6 28.6191C307.209 28.6191 307.686 28.7721 308.031 29.0781C308.376 29.3809 308.555 29.7992 308.568 30.333V32.7646C308.568 33.2497 308.63 33.6354 308.754 33.9219V34H307.806ZM306.307 33.3115C306.59 33.3115 306.859 33.2383 307.113 33.0918C307.367 32.9453 307.551 32.7549 307.665 32.5205V31.4365H306.957C305.85 31.4365 305.296 31.7604 305.296 32.4082C305.296 32.6914 305.391 32.9128 305.58 33.0723C305.768 33.2318 306.011 33.3115 306.307 33.3115ZM309.569 31.3145C309.569 30.4909 309.76 29.8366 310.14 29.3516C310.521 28.8633 311.026 28.6191 311.654 28.6191C312.299 28.6191 312.802 28.847 313.163 29.3027L313.207 28.7168H314.032V33.873C314.032 34.5566 313.829 35.0954 313.422 35.4893C313.018 35.8831 312.474 36.0801 311.791 36.0801C311.41 36.0801 311.037 35.9987 310.673 35.8359C310.308 35.6732 310.03 35.4502 309.838 35.167L310.306 34.625C310.694 35.1035 311.167 35.3428 311.727 35.3428C312.167 35.3428 312.509 35.2191 312.753 34.9717C313 34.7243 313.124 34.376 313.124 33.9268V33.4727C312.762 33.8893 312.269 34.0977 311.644 34.0977C311.026 34.0977 310.525 33.8486 310.14 33.3506C309.76 32.8525 309.569 32.1738 309.569 31.3145ZM310.477 31.417C310.477 32.0127 310.599 32.4814 310.844 32.8232C311.088 33.1618 311.429 33.3311 311.869 33.3311C312.439 33.3311 312.857 33.0723 313.124 32.5547V30.1426C312.847 29.638 312.432 29.3857 311.879 29.3857C311.439 29.3857 311.096 29.5566 310.848 29.8984C310.601 30.2402 310.477 30.7464 310.477 31.417ZM317.392 34.0977C316.675 34.0977 316.093 33.8633 315.644 33.3945C315.194 32.9225 314.97 32.2926 314.97 31.5049V31.3389C314.97 30.8148 315.069 30.3477 315.268 29.9375C315.469 29.5241 315.749 29.2018 316.107 28.9707C316.469 28.7363 316.859 28.6191 317.279 28.6191C317.966 28.6191 318.5 28.8454 318.881 29.2979C319.262 29.7503 319.452 30.3981 319.452 31.2412V31.6172H315.873C315.886 32.138 316.037 32.5596 316.327 32.8818C316.62 33.2008 316.991 33.3604 317.44 33.3604C317.759 33.3604 318.03 33.2952 318.251 33.165C318.472 33.0348 318.666 32.8623 318.832 32.6475L319.384 33.0771C318.941 33.7575 318.277 34.0977 317.392 34.0977ZM317.279 29.3613C316.915 29.3613 316.609 29.4948 316.361 29.7617C316.114 30.0254 315.961 30.3965 315.902 30.875H318.549V30.8066C318.523 30.3477 318.399 29.9928 318.178 29.7422C317.956 29.4883 317.657 29.3613 317.279 29.3613Z" fill="#2E92B0"/>
<line x1="82.25" y1="1.03503e-08" x2="82.25" y2="69" stroke="#828282" stroke-width="0.5"/>
<line x1="156.25" y1="1.03503e-08" x2="156.25" y2="69" stroke="#828282" stroke-width="0.5"/>
<line x1="239.25" y1="1.03503e-08" x2="239.25" y2="69" stroke="#828282" stroke-width="0.5"/>
</svg>
