<svg width="1180" height="230" viewBox="0 0 1180 230" fill="none" xmlns="http://www.w3.org/2000/svg">
<rect width="1180" height="230" rx="2" fill="white"/>
<line x1="12" y1="98.5" x2="1168" y2="98.4999" stroke="#828282"/>
<path d="M64.6717 37.54C67.8317 37.28 70.2517 36.26 71.3717 34.66C72.5117 36.26 74.9317 37.28 78.0717 37.54L78.7117 35.98C75.0517 35.72 72.7917 34.42 72.5517 32.8H77.9117V31.18H72.4117V29.46H70.3517V31.18H64.8517V32.8H70.2117C69.9717 34.42 67.7117 35.72 64.0517 35.98L64.6717 37.54ZM71.3517 45.98C68.6917 45.98 67.2317 45.48 67.2317 44.5C67.2317 43.52 68.6917 43 71.3517 43C74.0317 43 75.4917 43.52 75.4917 44.5C75.4917 45.48 74.0317 45.98 71.3517 45.98ZM71.3517 41.48C67.4517 41.48 65.1317 42.54 65.1317 44.5C65.1317 46.46 67.4517 47.54 71.3517 47.54C75.2717 47.54 77.5717 46.46 77.5717 44.5C77.5717 42.54 75.2717 41.48 71.3517 41.48ZM72.4117 38.7V36.72H70.3517V38.7H63.2117V40.34H79.5517V38.7H72.4117ZM93.4823 31.54C96.0223 31.54 97.6823 32.28 97.6823 33.56C97.6823 34.84 96.0223 35.58 93.4823 35.58C90.9223 35.58 89.2623 34.84 89.2623 33.56C89.2623 32.28 90.9223 31.54 93.4823 31.54ZM93.4823 37.24C97.3423 37.24 99.8823 35.82 99.8823 33.56C99.8823 31.3 97.3423 29.88 93.4823 29.88C89.6023 29.88 87.0823 31.3 87.0823 33.56C87.0823 35.82 89.6023 37.24 93.4823 37.24ZM89.4023 41.86H87.3223V47.2H99.8823V45.52H89.4023V41.86ZM85.3023 38.46V40.14H92.5823V43.56H94.6823V40.14H101.682V38.46H85.3023ZM105.521 34.86C105.521 33.28 106.681 32.24 108.281 32.24C109.841 32.24 111.001 33.28 111.001 34.86C111.001 36.42 109.841 37.46 108.281 37.46C106.681 37.46 105.521 36.42 105.521 34.86ZM116.221 33.64V36.08H112.781C112.901 35.7 112.961 35.3 112.961 34.86C112.961 34.42 112.901 34.02 112.801 33.64H116.221ZM116.221 37.74V40.12H118.281V29.46H116.221V31.96H111.861C111.021 31.06 109.761 30.5 108.281 30.5C105.581 30.5 103.561 32.3 103.561 34.86C103.561 37.4 105.581 39.2 108.281 39.2C109.741 39.2 111.021 38.66 111.861 37.74H116.221ZM112.261 45.92C109.701 45.92 108.201 45.26 108.201 44.02C108.201 42.82 109.701 42.14 112.261 42.14C114.841 42.14 116.321 42.82 116.321 44.02C116.321 45.26 114.841 45.92 112.261 45.92ZM112.261 40.52C108.501 40.52 106.181 41.82 106.181 44.02C106.181 46.24 108.501 47.54 112.261 47.54C116.021 47.54 118.361 46.24 118.361 44.02C118.361 41.82 116.021 40.52 112.261 40.52ZM134.611 43.66V39.16H139.971V37.48H129.411V30.94H127.331V39.16H132.531V43.66H125.411V45.36H141.771V43.66H134.611ZM156.31 42.92H158.37V29.48H156.31V33.54H152.65V35.24H156.31V42.92ZM154.07 38.48C151.37 37.5 149.85 35.16 149.85 32.72V30.58H147.75V32.68C147.75 35.36 146.19 37.9 143.37 38.9L144.47 40.5C146.55 39.7 148.05 38.1 148.85 36.08C149.61 37.9 151.03 39.36 152.97 40.08L154.07 38.48ZM148.69 45.52V41.5H146.61V47.2H158.79V45.52H148.69Z" fill="#185786"/>
<path d="M37.507 59.3242H32.9367V72H31.0715V59.3242H26.5109V57.7812H37.507V59.3242ZM37.4781 66.6191C37.4781 65.584 37.68 64.653 38.0836 63.8262C38.4938 62.9993 39.0602 62.3613 39.7828 61.9121C40.512 61.4629 41.3421 61.2383 42.2731 61.2383C43.7119 61.2383 44.874 61.7363 45.7594 62.7324C46.6513 63.7285 47.0973 65.0534 47.0973 66.707V66.834C47.0973 67.8626 46.8987 68.7871 46.5016 69.6074C46.1109 70.4212 45.5478 71.056 44.8121 71.5117C44.0829 71.9674 43.2431 72.1953 42.2926 72.1953C40.8603 72.1953 39.6982 71.6973 38.8063 70.7012C37.9208 69.7051 37.4781 68.3867 37.4781 66.7461V66.6191ZM39.2945 66.834C39.2945 68.0059 39.5647 68.9466 40.1051 69.6562C40.652 70.3659 41.3811 70.7207 42.2926 70.7207C43.2106 70.7207 43.9397 70.3626 44.4801 69.6465C45.0204 68.9238 45.2906 67.9147 45.2906 66.6191C45.2906 65.4603 45.0139 64.5228 44.4606 63.8066C43.9137 63.084 43.1845 62.7227 42.2731 62.7227C41.3811 62.7227 40.6617 63.0775 40.1148 63.7871C39.568 64.4967 39.2945 65.5124 39.2945 66.834ZM51.4141 58.875V61.4336H53.3867V62.8301H51.4141V69.3828C51.4141 69.806 51.502 70.125 51.6777 70.3398C51.8535 70.5482 52.153 70.6523 52.5762 70.6523C52.7845 70.6523 53.071 70.6133 53.4356 70.5352V72C52.9603 72.1302 52.4981 72.1953 52.0488 72.1953C51.2415 72.1953 50.6328 71.9512 50.2227 71.4629C49.8125 70.9746 49.6074 70.2812 49.6074 69.3828V62.8301H47.6836V61.4336H49.6074V58.875H51.4141ZM61.6293 72C61.5251 71.7917 61.4405 71.4206 61.3754 70.8867C60.5355 71.7591 59.5329 72.1953 58.3676 72.1953C57.3259 72.1953 56.4698 71.9023 55.7992 71.3164C55.1352 70.724 54.8031 69.9753 54.8031 69.0703C54.8031 67.9701 55.2198 67.1172 56.0531 66.5117C56.893 65.8997 58.0714 65.5938 59.5883 65.5938H61.3461V64.7637C61.3461 64.1322 61.1573 63.6309 60.7797 63.2598C60.4021 62.8822 59.8454 62.6934 59.1098 62.6934C58.4652 62.6934 57.9249 62.8561 57.4887 63.1816C57.0525 63.5072 56.8344 63.901 56.8344 64.3633H55.018C55.018 63.8359 55.2035 63.3281 55.5746 62.8398C55.9522 62.3451 56.46 61.9544 57.098 61.668C57.7426 61.3815 58.449 61.2383 59.2172 61.2383C60.4346 61.2383 61.3884 61.5443 62.0785 62.1562C62.7686 62.7617 63.1267 63.5983 63.1527 64.666V69.5293C63.1527 70.4993 63.2764 71.2708 63.5238 71.8438V72H61.6293ZM58.6313 70.623C59.1977 70.623 59.7348 70.4766 60.2426 70.1836C60.7504 69.8906 61.1182 69.5098 61.3461 69.041V66.873H59.9301C57.7165 66.873 56.6098 67.5208 56.6098 68.8164C56.6098 69.3828 56.7986 69.8255 57.1762 70.1445C57.5538 70.4635 58.0388 70.623 58.6313 70.623ZM67.5477 72H65.741V57H67.5477V72ZM85.8297 65.3496C85.8297 66.7428 85.5953 67.9603 85.1266 69.002C84.6578 70.0371 83.9938 70.8281 83.1344 71.375C82.275 71.9219 81.2724 72.1953 80.1266 72.1953C79.0068 72.1953 78.0139 71.9219 77.148 71.375C76.2822 70.8216 75.6083 70.0371 75.1266 69.0215C74.6513 67.9993 74.4072 66.8177 74.3941 65.4766V64.4512C74.3941 63.084 74.6318 61.8763 75.107 60.8281C75.5823 59.7799 76.2529 58.9792 77.1188 58.4258C77.9911 57.8659 78.9872 57.5859 80.107 57.5859C81.2464 57.5859 82.249 57.8626 83.1148 58.416C83.9872 58.9629 84.6578 59.7604 85.1266 60.8086C85.5953 61.8503 85.8297 63.0645 85.8297 64.4512V65.3496ZM83.9645 64.4316C83.9645 62.7454 83.6259 61.4531 82.9488 60.5547C82.2717 59.6497 81.3245 59.1973 80.107 59.1973C78.9221 59.1973 77.9879 59.6497 77.3043 60.5547C76.6272 61.4531 76.2789 62.7031 76.2594 64.3047V65.3496C76.2594 66.9837 76.6012 68.2695 77.2848 69.207C77.9749 70.138 78.9221 70.6035 80.1266 70.6035C81.3375 70.6035 82.275 70.1641 82.9391 69.2852C83.6031 68.3997 83.9449 67.1335 83.9645 65.4863V64.4316ZM96.8848 66.834C96.8848 68.4421 96.5169 69.7376 95.7813 70.7207C95.0456 71.7038 94.0495 72.1953 92.793 72.1953C91.5104 72.1953 90.5013 71.7884 89.7656 70.9746V76.0625H87.959V61.4336H89.6094L89.6973 62.6055C90.4329 61.694 91.4551 61.2383 92.7637 61.2383C94.0332 61.2383 95.0358 61.7168 95.7715 62.6738C96.5137 63.6309 96.8848 64.9622 96.8848 66.668V66.834ZM95.0781 66.6289C95.0781 65.4375 94.8242 64.4967 94.3164 63.8066C93.8086 63.1165 93.112 62.7715 92.2266 62.7715C91.1328 62.7715 90.3125 63.2565 89.7656 64.2266V69.2754C90.306 70.2389 91.1328 70.7207 92.2461 70.7207C93.112 70.7207 93.7988 70.3789 94.3066 69.6953C94.821 69.0052 95.0781 67.9831 95.0781 66.6289ZM103.174 72.1953C101.742 72.1953 100.577 71.7266 99.6781 70.7891C98.7797 69.8451 98.3305 68.5853 98.3305 67.0098V66.6777C98.3305 65.6296 98.529 64.6953 98.9262 63.875C99.3298 63.0482 99.8897 62.4036 100.606 61.9414C101.329 61.4727 102.11 61.2383 102.95 61.2383C104.323 61.2383 105.391 61.6908 106.153 62.5957C106.914 63.5007 107.295 64.7962 107.295 66.4824V67.2344H100.137C100.163 68.276 100.466 69.1191 101.045 69.7637C101.631 70.4017 102.373 70.7207 103.272 70.7207C103.91 70.7207 104.45 70.5905 104.893 70.3301C105.336 70.0697 105.723 69.7246 106.055 69.2949L107.159 70.1543C106.273 71.515 104.945 72.1953 103.174 72.1953ZM102.95 62.7227C102.22 62.7227 101.608 62.9896 101.114 63.5234C100.619 64.0508 100.313 64.793 100.196 65.75H105.489V65.6133C105.437 64.6953 105.189 63.9857 104.746 63.4844C104.304 62.9766 103.705 62.7227 102.95 62.7227ZM114.102 63.0547C113.829 63.0091 113.533 62.9863 113.214 62.9863C112.029 62.9863 111.225 63.4909 110.802 64.5V72H108.995V61.4336H110.753L110.782 62.6543C111.374 61.7103 112.214 61.2383 113.302 61.2383C113.653 61.2383 113.92 61.2839 114.102 61.375V63.0547ZM121.505 72C121.401 71.7917 121.316 71.4206 121.251 70.8867C120.411 71.7591 119.409 72.1953 118.243 72.1953C117.202 72.1953 116.346 71.9023 115.675 71.3164C115.011 70.724 114.679 69.9753 114.679 69.0703C114.679 67.9701 115.096 67.1172 115.929 66.5117C116.769 65.8997 117.947 65.5938 119.464 65.5938H121.222V64.7637C121.222 64.1322 121.033 63.6309 120.655 63.2598C120.278 62.8822 119.721 62.6934 118.986 62.6934C118.341 62.6934 117.801 62.8561 117.364 63.1816C116.928 63.5072 116.71 63.901 116.71 64.3633H114.894C114.894 63.8359 115.079 63.3281 115.45 62.8398C115.828 62.3451 116.336 61.9544 116.974 61.668C117.618 61.3815 118.325 61.2383 119.093 61.2383C120.31 61.2383 121.264 61.5443 121.954 62.1562C122.644 62.7617 123.002 63.5983 123.029 64.666V69.5293C123.029 70.4993 123.152 71.2708 123.4 71.8438V72H121.505ZM118.507 70.623C119.073 70.623 119.611 70.4766 120.118 70.1836C120.626 69.8906 120.994 69.5098 121.222 69.041V66.873H119.806C117.592 66.873 116.486 67.5208 116.486 68.8164C116.486 69.3828 116.674 69.8255 117.052 70.1445C117.43 70.4635 117.915 70.623 118.507 70.623ZM127.912 58.875V61.4336H129.884V62.8301H127.912V69.3828C127.912 69.806 128 70.125 128.175 70.3398C128.351 70.5482 128.651 70.6523 129.074 70.6523C129.282 70.6523 129.569 70.6133 129.933 70.5352V72C129.458 72.1302 128.996 72.1953 128.546 72.1953C127.739 72.1953 127.13 71.9512 126.72 71.4629C126.31 70.9746 126.105 70.2812 126.105 69.3828V62.8301H124.181V61.4336H126.105V58.875H127.912ZM133.566 72H131.76V61.4336H133.566V72ZM131.613 58.6309C131.613 58.3379 131.701 58.0905 131.877 57.8887C132.059 57.6868 132.326 57.5859 132.678 57.5859C133.029 57.5859 133.296 57.6868 133.479 57.8887C133.661 58.0905 133.752 58.3379 133.752 58.6309C133.752 58.9238 133.661 59.168 133.479 59.3633C133.296 59.5586 133.029 59.6562 132.678 59.6562C132.326 59.6562 132.059 59.5586 131.877 59.3633C131.701 59.168 131.613 58.9238 131.613 58.6309ZM135.588 66.6191C135.588 65.584 135.79 64.653 136.194 63.8262C136.604 62.9993 137.17 62.3613 137.893 61.9121C138.622 61.4629 139.452 61.2383 140.383 61.2383C141.822 61.2383 142.984 61.7363 143.87 62.7324C144.761 63.7285 145.207 65.0534 145.207 66.707V66.834C145.207 67.8626 145.009 68.7871 144.612 69.6074C144.221 70.4212 143.658 71.056 142.922 71.5117C142.193 71.9674 141.353 72.1953 140.403 72.1953C138.97 72.1953 137.808 71.6973 136.916 70.7012C136.031 69.7051 135.588 68.3867 135.588 66.7461V66.6191ZM137.405 66.834C137.405 68.0059 137.675 68.9466 138.215 69.6562C138.762 70.3659 139.491 70.7207 140.403 70.7207C141.321 70.7207 142.05 70.3626 142.59 69.6465C143.131 68.9238 143.401 67.9147 143.401 66.6191C143.401 65.4603 143.124 64.5228 142.571 63.8066C142.024 63.084 141.295 62.7227 140.383 62.7227C139.491 62.7227 138.772 63.0775 138.225 63.7871C137.678 64.4967 137.405 65.5124 137.405 66.834ZM148.782 61.4336L148.841 62.7617C149.648 61.7461 150.703 61.2383 152.005 61.2383C154.238 61.2383 155.364 62.498 155.384 65.0176V72H153.577V65.0078C153.57 64.2461 153.395 63.6829 153.05 63.3184C152.711 62.9538 152.18 62.7715 151.458 62.7715C150.872 62.7715 150.358 62.9277 149.915 63.2402C149.472 63.5527 149.127 63.9629 148.88 64.4707V72H147.073V61.4336H148.782ZM164.437 70.4668H171.175V72H162.552V57.7812H164.437V70.4668ZM174.594 72H172.787V61.4336H174.594V72ZM172.641 58.6309C172.641 58.3379 172.729 58.0905 172.904 57.8887C173.087 57.6868 173.354 57.5859 173.705 57.5859C174.057 57.5859 174.324 57.6868 174.506 57.8887C174.688 58.0905 174.779 58.3379 174.779 58.6309C174.779 58.9238 174.688 59.168 174.506 59.3633C174.324 59.5586 174.057 59.6562 173.705 59.6562C173.354 59.6562 173.087 59.5586 172.904 59.3633C172.729 59.168 172.641 58.9238 172.641 58.6309ZM178.803 61.4336L178.862 62.7617C179.669 61.7461 180.724 61.2383 182.026 61.2383C184.259 61.2383 185.385 62.498 185.405 65.0176V72H183.598V65.0078C183.592 64.2461 183.416 63.6829 183.071 63.3184C182.732 62.9538 182.202 62.7715 181.479 62.7715C180.893 62.7715 180.379 62.9277 179.936 63.2402C179.493 63.5527 179.148 63.9629 178.901 64.4707V72H177.094V61.4336H178.803ZM192.114 72.1953C190.682 72.1953 189.516 71.7266 188.618 70.7891C187.72 69.8451 187.27 68.5853 187.27 67.0098V66.6777C187.27 65.6296 187.469 64.6953 187.866 63.875C188.27 63.0482 188.83 62.4036 189.546 61.9414C190.268 61.4727 191.05 61.2383 191.889 61.2383C193.263 61.2383 194.331 61.6908 195.093 62.5957C195.854 63.5007 196.235 64.7962 196.235 66.4824V67.2344H189.077C189.103 68.276 189.406 69.1191 189.985 69.7637C190.571 70.4017 191.313 70.7207 192.212 70.7207C192.85 70.7207 193.39 70.5905 193.833 70.3301C194.276 70.0697 194.663 69.7246 194.995 69.2949L196.098 70.1543C195.213 71.515 193.885 72.1953 192.114 72.1953ZM191.889 62.7227C191.16 62.7227 190.548 62.9896 190.054 63.5234C189.559 64.0508 189.253 64.793 189.136 65.75H194.429V65.6133C194.376 64.6953 194.129 63.9857 193.686 63.4844C193.244 62.9766 192.645 62.7227 191.889 62.7227Z" fill="#2E92B0"/>
<path d="M300.672 37.54C303.832 37.28 306.252 36.26 307.372 34.66C308.512 36.26 310.932 37.28 314.072 37.54L314.712 35.98C311.052 35.72 308.792 34.42 308.552 32.8H313.912V31.18H308.412V29.46H306.352V31.18H300.852V32.8H306.212C305.972 34.42 303.712 35.72 300.052 35.98L300.672 37.54ZM307.352 45.98C304.692 45.98 303.232 45.48 303.232 44.5C303.232 43.52 304.692 43 307.352 43C310.032 43 311.492 43.52 311.492 44.5C311.492 45.48 310.032 45.98 307.352 45.98ZM307.352 41.48C303.452 41.48 301.132 42.54 301.132 44.5C301.132 46.46 303.452 47.54 307.352 47.54C311.272 47.54 313.572 46.46 313.572 44.5C313.572 42.54 311.272 41.48 307.352 41.48ZM308.412 38.7V36.72H306.352V38.7H299.212V40.34H315.552V38.7H308.412ZM329.482 31.54C332.022 31.54 333.682 32.28 333.682 33.56C333.682 34.84 332.022 35.58 329.482 35.58C326.922 35.58 325.262 34.84 325.262 33.56C325.262 32.28 326.922 31.54 329.482 31.54ZM329.482 37.24C333.342 37.24 335.882 35.82 335.882 33.56C335.882 31.3 333.342 29.88 329.482 29.88C325.602 29.88 323.082 31.3 323.082 33.56C323.082 35.82 325.602 37.24 329.482 37.24ZM325.402 41.86H323.322V47.2H335.882V45.52H325.402V41.86ZM321.302 38.46V40.14H328.582V43.56H330.682V40.14H337.682V38.46H321.302ZM341.521 34.86C341.521 33.28 342.681 32.24 344.281 32.24C345.841 32.24 347.001 33.28 347.001 34.86C347.001 36.42 345.841 37.46 344.281 37.46C342.681 37.46 341.521 36.42 341.521 34.86ZM352.221 33.64V36.08H348.781C348.901 35.7 348.961 35.3 348.961 34.86C348.961 34.42 348.901 34.02 348.801 33.64H352.221ZM352.221 37.74V40.12H354.281V29.46H352.221V31.96H347.861C347.021 31.06 345.761 30.5 344.281 30.5C341.581 30.5 339.561 32.3 339.561 34.86C339.561 37.4 341.581 39.2 344.281 39.2C345.741 39.2 347.021 38.66 347.861 37.74H352.221ZM348.261 45.92C345.701 45.92 344.201 45.26 344.201 44.02C344.201 42.82 345.701 42.14 348.261 42.14C350.841 42.14 352.321 42.82 352.321 44.02C352.321 45.26 350.841 45.92 348.261 45.92ZM348.261 40.52C344.501 40.52 342.181 41.82 342.181 44.02C342.181 46.24 344.501 47.54 348.261 47.54C352.021 47.54 354.361 46.24 354.361 44.02C354.361 41.82 352.021 40.52 348.261 40.52ZM367.651 34.18H371.471V32.52H367.651V29.84H365.591V32.52H361.711V34.18H365.591V35.22C365.591 38.18 363.911 41.22 361.151 42.54L362.291 44.12C364.351 43.16 365.851 41.18 366.651 38.84C367.391 41.02 368.831 42.86 370.771 43.8L371.911 42.22C369.231 40.92 367.651 37.98 367.651 35.22V34.18ZM378.211 36.72H375.391V29.46H373.331V47.54H375.391V38.42H378.211V36.72ZM389.91 37.2C387.43 37.66 385.25 37.76 382.15 37.78V35.72H388.29V30.56H380.09V32.22H386.25V34.16H380.13V39.46H381.59C385.05 39.46 387.41 39.36 390.13 38.88L389.91 37.2ZM387.67 45.96C385.11 45.96 383.67 45.34 383.67 44.18C383.67 43.04 385.11 42.42 387.67 42.42C390.21 42.42 391.67 43.04 391.67 44.18C391.67 45.34 390.21 45.96 387.67 45.96ZM387.67 40.82C383.93 40.82 381.65 42.06 381.65 44.18C381.65 46.3 383.93 47.54 387.67 47.54C391.41 47.54 393.69 46.3 393.69 44.18C393.69 42.06 391.41 40.82 387.67 40.82ZM396.05 33.82V32.12H393.51V29.46H391.45V40.4H393.51V37.62H396.05V35.92H393.51V33.82H396.05Z" fill="#185786"/>
<path d="M259.877 59.3242H255.306V72H253.441V59.3242H248.88V57.7812H259.877V59.3242ZM259.848 66.6191C259.848 65.584 260.049 64.653 260.453 63.8262C260.863 62.9993 261.43 62.3613 262.152 61.9121C262.882 61.4629 263.712 61.2383 264.643 61.2383C266.081 61.2383 267.243 61.7363 268.129 62.7324C269.021 63.7285 269.467 65.0534 269.467 66.707V66.834C269.467 67.8626 269.268 68.7871 268.871 69.6074C268.48 70.4212 267.917 71.056 267.182 71.5117C266.452 71.9674 265.613 72.1953 264.662 72.1953C263.23 72.1953 262.068 71.6973 261.176 70.7012C260.29 69.7051 259.848 68.3867 259.848 66.7461V66.6191ZM261.664 66.834C261.664 68.0059 261.934 68.9466 262.475 69.6562C263.021 70.3659 263.751 70.7207 264.662 70.7207C265.58 70.7207 266.309 70.3626 266.85 69.6465C267.39 68.9238 267.66 67.9147 267.66 66.6191C267.66 65.4603 267.383 64.5228 266.83 63.8066C266.283 63.084 265.554 62.7227 264.643 62.7227C263.751 62.7227 263.031 63.0775 262.484 63.7871C261.938 64.4967 261.664 65.5124 261.664 66.834ZM273.784 58.875V61.4336H275.756V62.8301H273.784V69.3828C273.784 69.806 273.871 70.125 274.047 70.3398C274.223 70.5482 274.523 70.6523 274.946 70.6523C275.154 70.6523 275.44 70.6133 275.805 70.5352V72C275.33 72.1302 274.868 72.1953 274.418 72.1953C273.611 72.1953 273.002 71.9512 272.592 71.4629C272.182 70.9746 271.977 70.2812 271.977 69.3828V62.8301H270.053V61.4336H271.977V58.875H273.784ZM283.999 72C283.895 71.7917 283.81 71.4206 283.745 70.8867C282.905 71.7591 281.902 72.1953 280.737 72.1953C279.695 72.1953 278.839 71.9023 278.169 71.3164C277.505 70.724 277.173 69.9753 277.173 69.0703C277.173 67.9701 277.589 67.1172 278.423 66.5117C279.263 65.8997 280.441 65.5938 281.958 65.5938H283.716V64.7637C283.716 64.1322 283.527 63.6309 283.149 63.2598C282.772 62.8822 282.215 62.6934 281.479 62.6934C280.835 62.6934 280.294 62.8561 279.858 63.1816C279.422 63.5072 279.204 63.901 279.204 64.3633H277.388C277.388 63.8359 277.573 63.3281 277.944 62.8398C278.322 62.3451 278.83 61.9544 279.468 61.668C280.112 61.3815 280.818 61.2383 281.587 61.2383C282.804 61.2383 283.758 61.5443 284.448 62.1562C285.138 62.7617 285.496 63.5983 285.522 64.666V69.5293C285.522 70.4993 285.646 71.2708 285.893 71.8438V72H283.999ZM281.001 70.623C281.567 70.623 282.104 70.4766 282.612 70.1836C283.12 69.8906 283.488 69.5098 283.716 69.041V66.873H282.3C280.086 66.873 278.979 67.5208 278.979 68.8164C278.979 69.3828 279.168 69.8255 279.546 70.1445C279.923 70.4635 280.408 70.623 281.001 70.623ZM289.917 72H288.111V57H289.917V72ZM308.199 65.3496C308.199 66.7428 307.965 67.9603 307.496 69.002C307.027 70.0371 306.363 70.8281 305.504 71.375C304.645 71.9219 303.642 72.1953 302.496 72.1953C301.376 72.1953 300.383 71.9219 299.518 71.375C298.652 70.8216 297.978 70.0371 297.496 69.0215C297.021 67.9993 296.777 66.8177 296.764 65.4766V64.4512C296.764 63.084 297.001 61.8763 297.477 60.8281C297.952 59.7799 298.622 58.9792 299.488 58.4258C300.361 57.8659 301.357 57.5859 302.477 57.5859C303.616 57.5859 304.618 57.8626 305.484 58.416C306.357 58.9629 307.027 59.7604 307.496 60.8086C307.965 61.8503 308.199 63.0645 308.199 64.4512V65.3496ZM306.334 64.4316C306.334 62.7454 305.995 61.4531 305.318 60.5547C304.641 59.6497 303.694 59.1973 302.477 59.1973C301.292 59.1973 300.357 59.6497 299.674 60.5547C298.997 61.4531 298.648 62.7031 298.629 64.3047V65.3496C298.629 66.9837 298.971 68.2695 299.654 69.207C300.344 70.138 301.292 70.6035 302.496 70.6035C303.707 70.6035 304.645 70.1641 305.309 69.2852C305.973 68.3997 306.314 67.1335 306.334 65.4863V64.4316ZM319.254 66.834C319.254 68.4421 318.886 69.7376 318.151 70.7207C317.415 71.7038 316.419 72.1953 315.163 72.1953C313.88 72.1953 312.871 71.7884 312.135 70.9746V76.0625H310.329V61.4336H311.979L312.067 62.6055C312.802 61.694 313.825 61.2383 315.133 61.2383C316.403 61.2383 317.405 61.7168 318.141 62.6738C318.883 63.6309 319.254 64.9622 319.254 66.668V66.834ZM317.448 66.6289C317.448 65.4375 317.194 64.4967 316.686 63.8066C316.178 63.1165 315.482 62.7715 314.596 62.7715C313.502 62.7715 312.682 63.2565 312.135 64.2266V69.2754C312.676 70.2389 313.502 70.7207 314.616 70.7207C315.482 70.7207 316.168 70.3789 316.676 69.6953C317.19 69.0052 317.448 67.9831 317.448 66.6289ZM325.544 72.1953C324.111 72.1953 322.946 71.7266 322.048 70.7891C321.149 69.8451 320.7 68.5853 320.7 67.0098V66.6777C320.7 65.6296 320.899 64.6953 321.296 63.875C321.699 63.0482 322.259 62.4036 322.975 61.9414C323.698 61.4727 324.479 61.2383 325.319 61.2383C326.693 61.2383 327.761 61.6908 328.522 62.5957C329.284 63.5007 329.665 64.7962 329.665 66.4824V67.2344H322.507C322.533 68.276 322.835 69.1191 323.415 69.7637C324.001 70.4017 324.743 70.7207 325.641 70.7207C326.279 70.7207 326.82 70.5905 327.263 70.3301C327.705 70.0697 328.093 69.7246 328.425 69.2949L329.528 70.1543C328.643 71.515 327.315 72.1953 325.544 72.1953ZM325.319 62.7227C324.59 62.7227 323.978 62.9896 323.483 63.5234C322.988 64.0508 322.682 64.793 322.565 65.75H327.858V65.6133C327.806 64.6953 327.559 63.9857 327.116 63.4844C326.673 62.9766 326.074 62.7227 325.319 62.7227ZM336.472 63.0547C336.198 63.0091 335.902 62.9863 335.583 62.9863C334.398 62.9863 333.594 63.4909 333.171 64.5V72H331.364V61.4336H333.122L333.152 62.6543C333.744 61.7103 334.584 61.2383 335.671 61.2383C336.023 61.2383 336.29 61.2839 336.472 61.375V63.0547ZM343.875 72C343.77 71.7917 343.686 71.4206 343.621 70.8867C342.781 71.7591 341.778 72.1953 340.613 72.1953C339.571 72.1953 338.715 71.9023 338.045 71.3164C337.38 70.724 337.048 69.9753 337.048 69.0703C337.048 67.9701 337.465 67.1172 338.298 66.5117C339.138 65.8997 340.317 65.5938 341.834 65.5938H343.591V64.7637C343.591 64.1322 343.403 63.6309 343.025 63.2598C342.647 62.8822 342.091 62.6934 341.355 62.6934C340.711 62.6934 340.17 62.8561 339.734 63.1816C339.298 63.5072 339.08 63.901 339.08 64.3633H337.263C337.263 63.8359 337.449 63.3281 337.82 62.8398C338.198 62.3451 338.705 61.9544 339.343 61.668C339.988 61.3815 340.694 61.2383 341.463 61.2383C342.68 61.2383 343.634 61.5443 344.324 62.1562C345.014 62.7617 345.372 63.5983 345.398 64.666V69.5293C345.398 70.4993 345.522 71.2708 345.769 71.8438V72H343.875ZM340.877 70.623C341.443 70.623 341.98 70.4766 342.488 70.1836C342.996 69.8906 343.364 69.5098 343.591 69.041V66.873H342.175C339.962 66.873 338.855 67.5208 338.855 68.8164C338.855 69.3828 339.044 69.8255 339.421 70.1445C339.799 70.4635 340.284 70.623 340.877 70.623ZM350.281 58.875V61.4336H352.254V62.8301H350.281V69.3828C350.281 69.806 350.369 70.125 350.545 70.3398C350.721 70.5482 351.02 70.6523 351.443 70.6523C351.652 70.6523 351.938 70.6133 352.303 70.5352V72C351.827 72.1302 351.365 72.1953 350.916 72.1953C350.109 72.1953 349.5 71.9512 349.09 71.4629C348.68 70.9746 348.475 70.2812 348.475 69.3828V62.8301H346.551V61.4336H348.475V58.875H350.281ZM355.936 72H354.129V61.4336H355.936V72ZM353.983 58.6309C353.983 58.3379 354.071 58.0905 354.246 57.8887C354.429 57.6868 354.696 57.5859 355.047 57.5859C355.399 57.5859 355.666 57.6868 355.848 57.8887C356.03 58.0905 356.121 58.3379 356.121 58.6309C356.121 58.9238 356.03 59.168 355.848 59.3633C355.666 59.5586 355.399 59.6562 355.047 59.6562C354.696 59.6562 354.429 59.5586 354.246 59.3633C354.071 59.168 353.983 58.9238 353.983 58.6309ZM357.958 66.6191C357.958 65.584 358.16 64.653 358.563 63.8262C358.973 62.9993 359.54 62.3613 360.263 61.9121C360.992 61.4629 361.822 61.2383 362.753 61.2383C364.192 61.2383 365.354 61.7363 366.239 62.7324C367.131 63.7285 367.577 65.0534 367.577 66.707V66.834C367.577 67.8626 367.378 68.7871 366.981 69.6074C366.591 70.4212 366.027 71.056 365.292 71.5117C364.563 71.9674 363.723 72.1953 362.772 72.1953C361.34 72.1953 360.178 71.6973 359.286 70.7012C358.401 69.7051 357.958 68.3867 357.958 66.7461V66.6191ZM359.774 66.834C359.774 68.0059 360.044 68.9466 360.585 69.6562C361.132 70.3659 361.861 70.7207 362.772 70.7207C363.69 70.7207 364.419 70.3626 364.96 69.6465C365.5 68.9238 365.77 67.9147 365.77 66.6191C365.77 65.4603 365.494 64.5228 364.94 63.8066C364.393 63.084 363.664 62.7227 362.753 62.7227C361.861 62.7227 361.141 63.0775 360.595 63.7871C360.048 64.4967 359.774 65.5124 359.774 66.834ZM371.152 61.4336L371.21 62.7617C372.017 61.7461 373.072 61.2383 374.374 61.2383C376.607 61.2383 377.734 62.498 377.753 65.0176V72H375.946V65.0078C375.94 64.2461 375.764 63.6829 375.419 63.3184C375.081 62.9538 374.55 62.7715 373.827 62.7715C373.241 62.7715 372.727 62.9277 372.284 63.2402C371.842 63.5527 371.497 63.9629 371.249 64.4707V72H369.443V61.4336H371.152ZM389.629 69.5098L393.691 57.7812H395.742L390.469 72H388.809L383.545 57.7812H385.586L389.629 69.5098ZM400.928 72.1953C399.496 72.1953 398.33 71.7266 397.432 70.7891C396.534 69.8451 396.084 68.5853 396.084 67.0098V66.6777C396.084 65.6296 396.283 64.6953 396.68 63.875C397.084 63.0482 397.644 62.4036 398.36 61.9414C399.082 61.4727 399.864 61.2383 400.704 61.2383C402.077 61.2383 403.145 61.6908 403.907 62.5957C404.668 63.5007 405.049 64.7962 405.049 66.4824V67.2344H397.891C397.917 68.276 398.22 69.1191 398.799 69.7637C399.385 70.4017 400.127 70.7207 401.026 70.7207C401.664 70.7207 402.204 70.5905 402.647 70.3301C403.09 70.0697 403.477 69.7246 403.809 69.2949L404.913 70.1543C404.027 71.515 402.699 72.1953 400.928 72.1953ZM400.704 62.7227C399.974 62.7227 399.362 62.9896 398.868 63.5234C398.373 64.0508 398.067 64.793 397.95 65.75H403.243V65.6133C403.191 64.6953 402.943 63.9857 402.5 63.4844C402.058 62.9766 401.459 62.7227 400.704 62.7227ZM408.555 62.7129C409.356 61.7298 410.398 61.2383 411.68 61.2383C413.914 61.2383 415.04 62.498 415.059 65.0176V72H413.253V65.0078C413.246 64.2461 413.07 63.6829 412.725 63.3184C412.387 62.9538 411.856 62.7715 411.134 62.7715C410.548 62.7715 410.033 62.9277 409.591 63.2402C409.148 63.5527 408.803 63.9629 408.555 64.4707V72H406.749V57H408.555V62.7129ZM419.327 72H417.521V61.4336H419.327V72ZM417.374 58.6309C417.374 58.3379 417.462 58.0905 417.638 57.8887C417.82 57.6868 418.087 57.5859 418.439 57.5859C418.79 57.5859 419.057 57.6868 419.239 57.8887C419.422 58.0905 419.513 58.3379 419.513 58.6309C419.513 58.9238 419.422 59.168 419.239 59.3633C419.057 59.5586 418.79 59.6562 418.439 59.6562C418.087 59.6562 417.82 59.5586 417.638 59.3633C417.462 59.168 417.374 58.9238 417.374 58.6309ZM426.066 70.7207C426.711 70.7207 427.274 70.5254 427.755 70.1348C428.237 69.7441 428.504 69.2559 428.556 68.6699H430.265C430.233 69.2754 430.024 69.8516 429.64 70.3984C429.256 70.9453 428.742 71.3815 428.097 71.707C427.459 72.0326 426.782 72.1953 426.066 72.1953C424.627 72.1953 423.481 71.7168 422.629 70.7598C421.782 69.7962 421.359 68.4811 421.359 66.8145V66.5117C421.359 65.4831 421.548 64.5684 421.925 63.7676C422.303 62.9668 422.843 62.3451 423.546 61.9023C424.256 61.4596 425.093 61.2383 426.056 61.2383C427.241 61.2383 428.224 61.5931 429.005 62.3027C429.793 63.0124 430.213 63.9336 430.265 65.0664H428.556C428.504 64.3828 428.244 63.8229 427.775 63.3867C427.313 62.944 426.74 62.7227 426.056 62.7227C425.138 62.7227 424.425 63.0547 423.918 63.7188C423.416 64.3763 423.166 65.3301 423.166 66.5801V66.9219C423.166 68.1393 423.416 69.0768 423.918 69.7344C424.419 70.3919 425.135 70.7207 426.066 70.7207ZM433.859 72H432.053V57H433.859V72ZM440.745 72.1953C439.312 72.1953 438.147 71.7266 437.248 70.7891C436.35 69.8451 435.901 68.5853 435.901 67.0098V66.6777C435.901 65.6296 436.099 64.6953 436.496 63.875C436.9 63.0482 437.46 62.4036 438.176 61.9414C438.899 61.4727 439.68 61.2383 440.52 61.2383C441.894 61.2383 442.961 61.6908 443.723 62.5957C444.485 63.5007 444.866 64.7962 444.866 66.4824V67.2344H437.707C437.733 68.276 438.036 69.1191 438.616 69.7637C439.202 70.4017 439.944 70.7207 440.842 70.7207C441.48 70.7207 442.021 70.5905 442.463 70.3301C442.906 70.0697 443.293 69.7246 443.625 69.2949L444.729 70.1543C443.843 71.515 442.515 72.1953 440.745 72.1953ZM440.52 62.7227C439.791 62.7227 439.179 62.9896 438.684 63.5234C438.189 64.0508 437.883 64.793 437.766 65.75H443.059V65.6133C443.007 64.6953 442.76 63.9857 442.317 63.4844C441.874 62.9766 441.275 62.7227 440.52 62.7227Z" fill="#2E92B0"/>
<path d="M530.673 37.54C533.833 37.28 536.253 36.26 537.373 34.66C538.513 36.26 540.933 37.28 544.073 37.54L544.713 35.98C541.053 35.72 538.793 34.42 538.553 32.8H543.913V31.18H538.413V29.46H536.353V31.18H530.853V32.8H536.213C535.973 34.42 533.713 35.72 530.053 35.98L530.673 37.54ZM537.353 45.98C534.693 45.98 533.233 45.48 533.233 44.5C533.233 43.52 534.693 43 537.353 43C540.033 43 541.493 43.52 541.493 44.5C541.493 45.48 540.033 45.98 537.353 45.98ZM537.353 41.48C533.453 41.48 531.133 42.54 531.133 44.5C531.133 46.46 533.453 47.54 537.353 47.54C541.273 47.54 543.573 46.46 543.573 44.5C543.573 42.54 541.273 41.48 537.353 41.48ZM538.413 38.7V36.72H536.353V38.7H529.213V40.34H545.553V38.7H538.413ZM559.483 31.54C562.023 31.54 563.683 32.28 563.683 33.56C563.683 34.84 562.023 35.58 559.483 35.58C556.923 35.58 555.263 34.84 555.263 33.56C555.263 32.28 556.923 31.54 559.483 31.54ZM559.483 37.24C563.343 37.24 565.883 35.82 565.883 33.56C565.883 31.3 563.343 29.88 559.483 29.88C555.603 29.88 553.083 31.3 553.083 33.56C553.083 35.82 555.603 37.24 559.483 37.24ZM555.403 41.86H553.323V47.2H565.883V45.52H555.403V41.86ZM551.303 38.46V40.14H558.583V43.56H560.683V40.14H567.683V38.46H551.303ZM571.522 34.86C571.522 33.28 572.682 32.24 574.282 32.24C575.842 32.24 577.002 33.28 577.002 34.86C577.002 36.42 575.842 37.46 574.282 37.46C572.682 37.46 571.522 36.42 571.522 34.86ZM582.222 33.64V36.08H578.782C578.902 35.7 578.962 35.3 578.962 34.86C578.962 34.42 578.902 34.02 578.802 33.64H582.222ZM582.222 37.74V40.12H584.282V29.46H582.222V31.96H577.862C577.022 31.06 575.762 30.5 574.282 30.5C571.582 30.5 569.562 32.3 569.562 34.86C569.562 37.4 571.582 39.2 574.282 39.2C575.742 39.2 577.022 38.66 577.862 37.74H582.222ZM578.262 45.92C575.702 45.92 574.202 45.26 574.202 44.02C574.202 42.82 575.702 42.14 578.262 42.14C580.842 42.14 582.322 42.82 582.322 44.02C582.322 45.26 580.842 45.92 578.262 45.92ZM578.262 40.52C574.502 40.52 572.182 41.82 572.182 44.02C572.182 46.24 574.502 47.54 578.262 47.54C582.022 47.54 584.362 46.24 584.362 44.02C584.362 41.82 582.022 40.52 578.262 40.52ZM601.112 34.02V35.7H604.312V40.24H606.372V29.48H604.312V34.02H601.112ZM602.152 38.04C599.452 37.1 597.912 34.86 597.912 32.6V32.36H601.672V30.7H592.012V32.36H595.832V32.62C595.832 35.1 594.212 37.5 591.412 38.5L592.472 40.14C594.612 39.38 596.132 37.78 596.932 35.8C597.692 37.54 599.132 38.96 601.132 39.66L602.152 38.04ZM600.372 45.96C597.792 45.96 596.332 45.32 596.332 44.14C596.332 42.96 597.792 42.32 600.372 42.32C602.912 42.32 604.392 42.96 604.392 44.14C604.392 45.32 602.912 45.96 600.372 45.96ZM600.372 40.72C596.592 40.72 594.272 42 594.272 44.14C594.272 46.3 596.592 47.56 600.372 47.56C604.132 47.56 606.452 46.3 606.452 44.14C606.452 42 604.132 40.72 600.372 40.72ZM621.731 33.48H611.371V38.56H624.231V36.9H613.451V35.02H623.831V30.1H611.331V31.76H621.731V33.48ZM625.771 40.16H609.391V41.82H613.431V47.56H615.491V41.82H619.671V47.56H621.731V41.82H625.791L625.771 40.16ZM638.009 37.98C635.249 37.1 633.749 35 633.749 32.76V32.42H637.529V30.76H627.829V32.42H631.669V32.78C631.669 35.24 630.089 37.56 627.249 38.54L628.289 40.16C630.449 39.42 631.969 37.88 632.769 35.96C633.549 37.64 634.989 38.94 637.009 39.58L638.009 37.98ZM635.689 45.92C633.169 45.92 631.709 45.28 631.709 44.12C631.709 42.94 633.169 42.32 635.689 42.32C638.209 42.32 639.669 42.94 639.669 44.12C639.669 45.28 638.209 45.92 635.689 45.92ZM635.689 40.7C631.969 40.7 629.669 41.96 629.669 44.12C629.669 46.26 631.969 47.54 635.689 47.54C639.409 47.54 641.709 46.26 641.709 44.12C641.709 41.96 639.409 40.7 635.689 40.7ZM641.509 33.88V29.48H639.449V40.28H641.509V35.58H644.069V33.88H641.509Z" fill="#185786"/>
<path d="M510.71 59.3242H506.14V72H504.275V59.3242H499.714V57.7812H510.71V59.3242ZM510.681 66.6191C510.681 65.584 510.883 64.653 511.287 63.8262C511.697 62.9993 512.263 62.3613 512.986 61.9121C513.715 61.4629 514.545 61.2383 515.476 61.2383C516.915 61.2383 518.077 61.7363 518.963 62.7324C519.854 63.7285 520.3 65.0534 520.3 66.707V66.834C520.3 67.8626 520.102 68.7871 519.705 69.6074C519.314 70.4212 518.751 71.056 518.015 71.5117C517.286 71.9674 516.446 72.1953 515.496 72.1953C514.063 72.1953 512.901 71.6973 512.009 70.7012C511.124 69.7051 510.681 68.3867 510.681 66.7461V66.6191ZM512.498 66.834C512.498 68.0059 512.768 68.9466 513.308 69.6562C513.855 70.3659 514.584 70.7207 515.496 70.7207C516.414 70.7207 517.143 70.3626 517.683 69.6465C518.224 68.9238 518.494 67.9147 518.494 66.6191C518.494 65.4603 518.217 64.5228 517.664 63.8066C517.117 63.084 516.388 62.7227 515.476 62.7227C514.584 62.7227 513.865 63.0775 513.318 63.7871C512.771 64.4967 512.498 65.5124 512.498 66.834ZM524.617 58.875V61.4336H526.59V62.8301H524.617V69.3828C524.617 69.806 524.705 70.125 524.881 70.3398C525.057 70.5482 525.356 70.6523 525.779 70.6523C525.988 70.6523 526.274 70.6133 526.639 70.5352V72C526.163 72.1302 525.701 72.1953 525.252 72.1953C524.445 72.1953 523.836 71.9512 523.426 71.4629C523.016 70.9746 522.811 70.2812 522.811 69.3828V62.8301H520.887V61.4336H522.811V58.875H524.617ZM534.832 72C534.728 71.7917 534.644 71.4206 534.579 70.8867C533.739 71.7591 532.736 72.1953 531.571 72.1953C530.529 72.1953 529.673 71.9023 529.002 71.3164C528.338 70.724 528.006 69.9753 528.006 69.0703C528.006 67.9701 528.423 67.1172 529.256 66.5117C530.096 65.8997 531.274 65.5938 532.791 65.5938H534.549V64.7637C534.549 64.1322 534.36 63.6309 533.983 63.2598C533.605 62.8822 533.049 62.6934 532.313 62.6934C531.668 62.6934 531.128 62.8561 530.692 63.1816C530.256 63.5072 530.038 63.901 530.038 64.3633H528.221C528.221 63.8359 528.407 63.3281 528.778 62.8398C529.155 62.3451 529.663 61.9544 530.301 61.668C530.946 61.3815 531.652 61.2383 532.42 61.2383C533.638 61.2383 534.592 61.5443 535.282 62.1562C535.972 62.7617 536.33 63.5983 536.356 64.666V69.5293C536.356 70.4993 536.48 71.2708 536.727 71.8438V72H534.832ZM531.834 70.623C532.401 70.623 532.938 70.4766 533.446 70.1836C533.954 69.8906 534.321 69.5098 534.549 69.041V66.873H533.133C530.92 66.873 529.813 67.5208 529.813 68.8164C529.813 69.3828 530.002 69.8255 530.379 70.1445C530.757 70.4635 531.242 70.623 531.834 70.623ZM540.751 72H538.944V57H540.751V72ZM559.033 65.3496C559.033 66.7428 558.798 67.9603 558.33 69.002C557.861 70.0371 557.197 70.8281 556.338 71.375C555.478 71.9219 554.476 72.1953 553.33 72.1953C552.21 72.1953 551.217 71.9219 550.351 71.375C549.485 70.8216 548.811 70.0371 548.33 69.0215C547.854 67.9993 547.61 66.8177 547.597 65.4766V64.4512C547.597 63.084 547.835 61.8763 548.31 60.8281C548.785 59.7799 549.456 58.9792 550.322 58.4258C551.194 57.8659 552.19 57.5859 553.31 57.5859C554.449 57.5859 555.452 57.8626 556.318 58.416C557.19 58.9629 557.861 59.7604 558.33 60.8086C558.798 61.8503 559.033 63.0645 559.033 64.4512V65.3496ZM557.168 64.4316C557.168 62.7454 556.829 61.4531 556.152 60.5547C555.475 59.6497 554.528 59.1973 553.31 59.1973C552.125 59.1973 551.191 59.6497 550.507 60.5547C549.83 61.4531 549.482 62.7031 549.463 64.3047V65.3496C549.463 66.9837 549.804 68.2695 550.488 69.207C551.178 70.138 552.125 70.6035 553.33 70.6035C554.541 70.6035 555.478 70.1641 556.142 69.2852C556.806 68.3997 557.148 67.1335 557.168 65.4863V64.4316ZM570.088 66.834C570.088 68.4421 569.72 69.7376 568.984 70.7207C568.249 71.7038 567.253 72.1953 565.996 72.1953C564.714 72.1953 563.704 71.7884 562.969 70.9746V76.0625H561.162V61.4336H562.813L562.9 62.6055C563.636 61.694 564.658 61.2383 565.967 61.2383C567.236 61.2383 568.239 61.7168 568.975 62.6738C569.717 63.6309 570.088 64.9622 570.088 66.668V66.834ZM568.281 66.6289C568.281 65.4375 568.027 64.4967 567.52 63.8066C567.012 63.1165 566.315 62.7715 565.43 62.7715C564.336 62.7715 563.516 63.2565 562.969 64.2266V69.2754C563.509 70.2389 564.336 70.7207 565.449 70.7207C566.315 70.7207 567.002 70.3789 567.51 69.6953C568.024 69.0052 568.281 67.9831 568.281 66.6289ZM576.377 72.1953C574.945 72.1953 573.78 71.7266 572.881 70.7891C571.983 69.8451 571.534 68.5853 571.534 67.0098V66.6777C571.534 65.6296 571.732 64.6953 572.129 63.875C572.533 63.0482 573.093 62.4036 573.809 61.9414C574.532 61.4727 575.313 61.2383 576.153 61.2383C577.526 61.2383 578.594 61.6908 579.356 62.5957C580.118 63.5007 580.498 64.7962 580.498 66.4824V67.2344H573.34C573.366 68.276 573.669 69.1191 574.248 69.7637C574.834 70.4017 575.577 70.7207 576.475 70.7207C577.113 70.7207 577.653 70.5905 578.096 70.3301C578.539 70.0697 578.926 69.7246 579.258 69.2949L580.362 70.1543C579.476 71.515 578.148 72.1953 576.377 72.1953ZM576.153 62.7227C575.424 62.7227 574.812 62.9896 574.317 63.5234C573.822 64.0508 573.516 64.793 573.399 65.75H578.692V65.6133C578.64 64.6953 578.392 63.9857 577.95 63.4844C577.507 62.9766 576.908 62.7227 576.153 62.7227ZM587.305 63.0547C587.032 63.0091 586.736 62.9863 586.417 62.9863C585.232 62.9863 584.428 63.4909 584.005 64.5V72H582.198V61.4336H583.956L583.985 62.6543C584.578 61.7103 585.417 61.2383 586.505 61.2383C586.856 61.2383 587.123 61.2839 587.305 61.375V63.0547ZM594.708 72C594.604 71.7917 594.519 71.4206 594.454 70.8867C593.614 71.7591 592.612 72.1953 591.446 72.1953C590.405 72.1953 589.549 71.9023 588.878 71.3164C588.214 70.724 587.882 69.9753 587.882 69.0703C587.882 67.9701 588.299 67.1172 589.132 66.5117C589.972 65.8997 591.15 65.5938 592.667 65.5938H594.425V64.7637C594.425 64.1322 594.236 63.6309 593.859 63.2598C593.481 62.8822 592.924 62.6934 592.189 62.6934C591.544 62.6934 591.004 62.8561 590.568 63.1816C590.131 63.5072 589.913 63.901 589.913 64.3633H588.097C588.097 63.8359 588.282 63.3281 588.654 62.8398C589.031 62.3451 589.539 61.9544 590.177 61.668C590.821 61.3815 591.528 61.2383 592.296 61.2383C593.514 61.2383 594.467 61.5443 595.157 62.1562C595.848 62.7617 596.206 63.5983 596.232 64.666V69.5293C596.232 70.4993 596.355 71.2708 596.603 71.8438V72H594.708ZM591.71 70.623C592.277 70.623 592.814 70.4766 593.321 70.1836C593.829 69.8906 594.197 69.5098 594.425 69.041V66.873H593.009C590.795 66.873 589.689 67.5208 589.689 68.8164C589.689 69.3828 589.877 69.8255 590.255 70.1445C590.633 70.4635 591.118 70.623 591.71 70.623ZM601.115 58.875V61.4336H603.088V62.8301H601.115V69.3828C601.115 69.806 601.203 70.125 601.379 70.3398C601.554 70.5482 601.854 70.6523 602.277 70.6523C602.485 70.6523 602.772 70.6133 603.136 70.5352V72C602.661 72.1302 602.199 72.1953 601.75 72.1953C600.942 72.1953 600.334 71.9512 599.923 71.4629C599.513 70.9746 599.308 70.2812 599.308 69.3828V62.8301H597.384V61.4336H599.308V58.875H601.115ZM606.77 72H604.963V61.4336H606.77V72ZM604.816 58.6309C604.816 58.3379 604.904 58.0905 605.08 57.8887C605.262 57.6868 605.529 57.5859 605.881 57.5859C606.232 57.5859 606.499 57.6868 606.682 57.8887C606.864 58.0905 606.955 58.3379 606.955 58.6309C606.955 58.9238 606.864 59.168 606.682 59.3633C606.499 59.5586 606.232 59.6562 605.881 59.6562C605.529 59.6562 605.262 59.5586 605.08 59.3633C604.904 59.168 604.816 58.9238 604.816 58.6309ZM608.791 66.6191C608.791 65.584 608.993 64.653 609.397 63.8262C609.807 62.9993 610.373 62.3613 611.096 61.9121C611.825 61.4629 612.655 61.2383 613.586 61.2383C615.025 61.2383 616.187 61.7363 617.073 62.7324C617.965 63.7285 618.411 65.0534 618.411 66.707V66.834C618.411 67.8626 618.212 68.7871 617.815 69.6074C617.424 70.4212 616.861 71.056 616.125 71.5117C615.396 71.9674 614.556 72.1953 613.606 72.1953C612.174 72.1953 611.011 71.6973 610.12 70.7012C609.234 69.7051 608.791 68.3867 608.791 66.7461V66.6191ZM610.608 66.834C610.608 68.0059 610.878 68.9466 611.418 69.6562C611.965 70.3659 612.694 70.7207 613.606 70.7207C614.524 70.7207 615.253 70.3626 615.793 69.6465C616.334 68.9238 616.604 67.9147 616.604 66.6191C616.604 65.4603 616.327 64.5228 615.774 63.8066C615.227 63.084 614.498 62.7227 613.586 62.7227C612.694 62.7227 611.975 63.0775 611.428 63.7871C610.881 64.4967 610.608 65.5124 610.608 66.834ZM621.985 61.4336L622.044 62.7617C622.851 61.7461 623.906 61.2383 625.208 61.2383C627.441 61.2383 628.567 62.498 628.587 65.0176V72H626.78V65.0078C626.774 64.2461 626.598 63.6829 626.253 63.3184C625.914 62.9538 625.384 62.7715 624.661 62.7715C624.075 62.7715 623.561 62.9277 623.118 63.2402C622.675 63.5527 622.33 63.9629 622.083 64.4707V72H620.276V61.4336H621.985ZM639.945 65.6621C638.337 65.1999 637.165 64.6335 636.429 63.9629C635.7 63.2858 635.336 62.4525 635.336 61.4629C635.336 60.3431 635.782 59.4186 636.673 58.6895C637.572 57.9538 638.737 57.5859 640.17 57.5859C641.146 57.5859 642.015 57.7747 642.777 58.1523C643.545 58.5299 644.138 59.0508 644.554 59.7148C644.977 60.3789 645.189 61.1048 645.189 61.8926H643.304C643.304 61.0332 643.031 60.3594 642.484 59.8711C641.937 59.3763 641.166 59.1289 640.17 59.1289C639.245 59.1289 638.522 59.334 638.002 59.7441C637.487 60.1478 637.23 60.7109 637.23 61.4336C637.23 62.013 637.474 62.5046 637.963 62.9082C638.457 63.3053 639.294 63.6699 640.472 64.002C641.657 64.334 642.582 64.7018 643.246 65.1055C643.916 65.5026 644.411 65.9681 644.73 66.502C645.056 67.0358 645.218 67.6641 645.218 68.3867C645.218 69.5391 644.769 70.4635 643.871 71.1602C642.972 71.8503 641.771 72.1953 640.267 72.1953C639.291 72.1953 638.379 72.0098 637.533 71.6387C636.686 71.2611 636.032 70.7467 635.57 70.0957C635.114 69.4447 634.886 68.7057 634.886 67.8789H636.771C636.771 68.7383 637.087 69.4186 637.718 69.9199C638.356 70.4147 639.206 70.6621 640.267 70.6621C641.257 70.6621 642.015 70.4603 642.543 70.0566C643.07 69.653 643.334 69.1029 643.334 68.4062C643.334 67.7096 643.089 67.1725 642.601 66.7949C642.113 66.4108 641.227 66.0332 639.945 65.6621ZM649.398 58.875V61.4336H651.371V62.8301H649.398V69.3828C649.398 69.806 649.486 70.125 649.662 70.3398C649.838 70.5482 650.137 70.6523 650.561 70.6523C650.769 70.6523 651.055 70.6133 651.42 70.5352V72C650.945 72.1302 650.482 72.1953 650.033 72.1953C649.226 72.1953 648.617 71.9512 648.207 71.4629C647.797 70.9746 647.592 70.2812 647.592 69.3828V62.8301H645.668V61.4336H647.592V58.875H649.398ZM652.416 66.6191C652.416 65.584 652.618 64.653 653.022 63.8262C653.432 62.9993 653.998 62.3613 654.721 61.9121C655.45 61.4629 656.28 61.2383 657.211 61.2383C658.65 61.2383 659.812 61.7363 660.698 62.7324C661.59 63.7285 662.036 65.0534 662.036 66.707V66.834C662.036 67.8626 661.837 68.7871 661.44 69.6074C661.049 70.4212 660.486 71.056 659.75 71.5117C659.021 71.9674 658.181 72.1953 657.231 72.1953C655.799 72.1953 654.636 71.6973 653.745 70.7012C652.859 69.7051 652.416 68.3867 652.416 66.7461V66.6191ZM654.233 66.834C654.233 68.0059 654.503 68.9466 655.043 69.6562C655.59 70.3659 656.319 70.7207 657.231 70.7207C658.149 70.7207 658.878 70.3626 659.418 69.6465C659.959 68.9238 660.229 67.9147 660.229 66.6191C660.229 65.4603 659.952 64.5228 659.399 63.8066C658.852 63.084 658.123 62.7227 657.211 62.7227C656.319 62.7227 655.6 63.0775 655.053 63.7871C654.506 64.4967 654.233 65.5124 654.233 66.834ZM672.827 66.834C672.827 68.4421 672.459 69.7376 671.723 70.7207C670.988 71.7038 669.992 72.1953 668.735 72.1953C667.453 72.1953 666.443 71.7884 665.708 70.9746V76.0625H663.901V61.4336H665.552L665.639 62.6055C666.375 61.694 667.397 61.2383 668.706 61.2383C669.975 61.2383 670.978 61.7168 671.714 62.6738C672.456 63.6309 672.827 64.9622 672.827 66.668V66.834ZM671.02 66.6289C671.02 65.4375 670.766 64.4967 670.259 63.8066C669.751 63.1165 669.054 62.7715 668.169 62.7715C667.075 62.7715 666.255 63.2565 665.708 64.2266V69.2754C666.248 70.2389 667.075 70.7207 668.188 70.7207C669.054 70.7207 669.741 70.3789 670.249 69.6953C670.763 69.0052 671.02 67.9831 671.02 66.6289Z" fill="#2E92B0"/>
<path d="M760.673 37.54C763.833 37.28 766.253 36.26 767.373 34.66C768.513 36.26 770.933 37.28 774.073 37.54L774.713 35.98C771.053 35.72 768.793 34.42 768.553 32.8H773.913V31.18H768.413V29.46H766.353V31.18H760.853V32.8H766.213C765.973 34.42 763.713 35.72 760.053 35.98L760.673 37.54ZM767.353 45.98C764.693 45.98 763.233 45.48 763.233 44.5C763.233 43.52 764.693 43 767.353 43C770.033 43 771.493 43.52 771.493 44.5C771.493 45.48 770.033 45.98 767.353 45.98ZM767.353 41.48C763.453 41.48 761.133 42.54 761.133 44.5C761.133 46.46 763.453 47.54 767.353 47.54C771.273 47.54 773.573 46.46 773.573 44.5C773.573 42.54 771.273 41.48 767.353 41.48ZM768.413 38.7V36.72H766.353V38.7H759.213V40.34H775.553V38.7H768.413ZM789.484 31.54C792.024 31.54 793.684 32.28 793.684 33.56C793.684 34.84 792.024 35.58 789.484 35.58C786.924 35.58 785.264 34.84 785.264 33.56C785.264 32.28 786.924 31.54 789.484 31.54ZM789.484 37.24C793.344 37.24 795.884 35.82 795.884 33.56C795.884 31.3 793.344 29.88 789.484 29.88C785.604 29.88 783.084 31.3 783.084 33.56C783.084 35.82 785.604 37.24 789.484 37.24ZM785.404 41.86H783.324V47.2H795.884V45.52H785.404V41.86ZM781.304 38.46V40.14H788.584V43.56H790.684V40.14H797.684V38.46H781.304ZM801.522 34.86C801.522 33.28 802.682 32.24 804.282 32.24C805.842 32.24 807.002 33.28 807.002 34.86C807.002 36.42 805.842 37.46 804.282 37.46C802.682 37.46 801.522 36.42 801.522 34.86ZM812.222 33.64V36.08H808.782C808.902 35.7 808.962 35.3 808.962 34.86C808.962 34.42 808.902 34.02 808.802 33.64H812.222ZM812.222 37.74V40.12H814.282V29.46H812.222V31.96H807.862C807.022 31.06 805.762 30.5 804.282 30.5C801.582 30.5 799.562 32.3 799.562 34.86C799.562 37.4 801.582 39.2 804.282 39.2C805.742 39.2 807.022 38.66 807.862 37.74H812.222ZM808.262 45.92C805.702 45.92 804.202 45.26 804.202 44.02C804.202 42.82 805.702 42.14 808.262 42.14C810.842 42.14 812.322 42.82 812.322 44.02C812.322 45.26 810.842 45.92 808.262 45.92ZM808.262 40.52C804.502 40.52 802.182 41.82 802.182 44.02C802.182 46.24 804.502 47.54 808.262 47.54C812.022 47.54 814.362 46.24 814.362 44.02C814.362 41.82 812.022 40.52 808.262 40.52ZM822.693 31.28V32.96H829.033C828.953 33.96 828.793 34.9 828.533 35.78L821.773 36.2L822.053 37.98L827.893 37.44C826.793 39.66 824.833 41.54 821.653 43.12L822.773 44.74C829.373 41.44 831.093 36.66 831.093 31.28H822.693ZM834.253 29.48V47.54H836.313V29.48H834.253ZM842.931 35.38C842.931 33.42 844.871 32.18 847.571 32.18C850.251 32.18 852.191 33.42 852.191 35.38C852.191 37.34 850.251 38.58 847.571 38.58C844.871 38.58 842.931 37.34 842.931 35.38ZM848.591 43.64V40.2C851.891 39.9 854.211 38.06 854.211 35.38C854.211 32.44 851.391 30.54 847.571 30.54C843.731 30.54 840.931 32.44 840.931 35.38C840.931 38.06 843.231 39.88 846.531 40.18V43.64H839.411V45.32H855.771V43.64H848.591ZM873.07 38.3C869.51 37.66 866.61 34.88 866.61 32V30.64H864.43V32C864.43 34.86 861.53 37.64 857.97 38.3L858.85 40C861.79 39.4 864.33 37.52 865.51 35.04C866.69 37.52 869.23 39.4 872.17 40L873.07 38.3ZM857.41 43.52V45.22H873.77V43.52H857.41ZM876.808 36.6L877.068 38.28L887.728 37.74C887.628 39.06 887.428 40.48 887.048 42.1L889.088 42.28C889.888 38.48 889.888 36 889.888 33.38V31.2H877.308V32.86H887.868V33.38C887.868 34.3 887.868 35.22 887.828 36.18L876.808 36.6ZM875.408 43.5V45.2H891.728V43.5H875.408Z" fill="#185786"/>
<path d="M745.711 59.3242H741.141V72H739.275V59.3242H734.715V57.7812H745.711V59.3242ZM745.682 66.6191C745.682 65.584 745.884 64.653 746.288 63.8262C746.698 62.9993 747.264 62.3613 747.987 61.9121C748.716 61.4629 749.546 61.2383 750.477 61.2383C751.916 61.2383 753.078 61.7363 753.963 62.7324C754.855 63.7285 755.301 65.0534 755.301 66.707V66.834C755.301 67.8626 755.103 68.7871 754.705 69.6074C754.315 70.4212 753.752 71.056 753.016 71.5117C752.287 71.9674 751.447 72.1953 750.496 72.1953C749.064 72.1953 747.902 71.6973 747.01 70.7012C746.125 69.7051 745.682 68.3867 745.682 66.7461V66.6191ZM747.498 66.834C747.498 68.0059 747.769 68.9466 748.309 69.6562C748.856 70.3659 749.585 70.7207 750.496 70.7207C751.414 70.7207 752.144 70.3626 752.684 69.6465C753.224 68.9238 753.495 67.9147 753.495 66.6191C753.495 65.4603 753.218 64.5228 752.664 63.8066C752.118 63.084 751.388 62.7227 750.477 62.7227C749.585 62.7227 748.866 63.0775 748.319 63.7871C747.772 64.4967 747.498 65.5124 747.498 66.834ZM759.618 58.875V61.4336H761.591V62.8301H759.618V69.3828C759.618 69.806 759.706 70.125 759.882 70.3398C760.057 70.5482 760.357 70.6523 760.78 70.6523C760.988 70.6523 761.275 70.6133 761.639 70.5352V72C761.164 72.1302 760.702 72.1953 760.253 72.1953C759.445 72.1953 758.837 71.9512 758.427 71.4629C758.016 70.9746 757.811 70.2812 757.811 69.3828V62.8301H755.888V61.4336H757.811V58.875H759.618ZM769.833 72C769.729 71.7917 769.644 71.4206 769.579 70.8867C768.739 71.7591 767.737 72.1953 766.571 72.1953C765.53 72.1953 764.674 71.9023 764.003 71.3164C763.339 70.724 763.007 69.9753 763.007 69.0703C763.007 67.9701 763.424 67.1172 764.257 66.5117C765.097 65.8997 766.275 65.5938 767.792 65.5938H769.55V64.7637C769.55 64.1322 769.361 63.6309 768.984 63.2598C768.606 62.8822 768.049 62.6934 767.314 62.6934C766.669 62.6934 766.129 62.8561 765.693 63.1816C765.256 63.5072 765.038 63.901 765.038 64.3633H763.222C763.222 63.8359 763.407 63.3281 763.779 62.8398C764.156 62.3451 764.664 61.9544 765.302 61.668C765.946 61.3815 766.653 61.2383 767.421 61.2383C768.639 61.2383 769.592 61.5443 770.282 62.1562C770.973 62.7617 771.331 63.5983 771.357 64.666V69.5293C771.357 70.4993 771.48 71.2708 771.728 71.8438V72H769.833ZM766.835 70.623C767.402 70.623 767.939 70.4766 768.446 70.1836C768.954 69.8906 769.322 69.5098 769.55 69.041V66.873H768.134C765.92 66.873 764.814 67.5208 764.814 68.8164C764.814 69.3828 765.002 69.8255 765.38 70.1445C765.758 70.4635 766.243 70.623 766.835 70.623ZM775.752 72H773.945V57H775.752V72ZM794.034 65.3496C794.034 66.7428 793.799 67.9603 793.33 69.002C792.862 70.0371 792.198 70.8281 791.338 71.375C790.479 71.9219 789.476 72.1953 788.33 72.1953C787.211 72.1953 786.218 71.9219 785.352 71.375C784.486 70.8216 783.812 70.0371 783.33 69.0215C782.855 67.9993 782.611 66.8177 782.598 65.4766V64.4512C782.598 63.084 782.836 61.8763 783.311 60.8281C783.786 59.7799 784.457 58.9792 785.323 58.4258C786.195 57.8659 787.191 57.5859 788.311 57.5859C789.45 57.5859 790.453 57.8626 791.319 58.416C792.191 58.9629 792.862 59.7604 793.33 60.8086C793.799 61.8503 794.034 63.0645 794.034 64.4512V65.3496ZM792.168 64.4316C792.168 62.7454 791.83 61.4531 791.153 60.5547C790.476 59.6497 789.528 59.1973 788.311 59.1973C787.126 59.1973 786.192 59.6497 785.508 60.5547C784.831 61.4531 784.483 62.7031 784.463 64.3047V65.3496C784.463 66.9837 784.805 68.2695 785.489 69.207C786.179 70.138 787.126 70.6035 788.33 70.6035C789.541 70.6035 790.479 70.1641 791.143 69.2852C791.807 68.3997 792.149 67.1335 792.168 65.4863V64.4316ZM805.089 66.834C805.089 68.4421 804.721 69.7376 803.985 70.7207C803.249 71.7038 802.253 72.1953 800.997 72.1953C799.714 72.1953 798.705 71.7884 797.97 70.9746V76.0625H796.163V61.4336H797.813L797.901 62.6055C798.637 61.694 799.659 61.2383 800.968 61.2383C802.237 61.2383 803.24 61.7168 803.975 62.6738C804.718 63.6309 805.089 64.9622 805.089 66.668V66.834ZM803.282 66.6289C803.282 65.4375 803.028 64.4967 802.52 63.8066C802.013 63.1165 801.316 62.7715 800.43 62.7715C799.337 62.7715 798.516 63.2565 797.97 64.2266V69.2754C798.51 70.2389 799.337 70.7207 800.45 70.7207C801.316 70.7207 802.003 70.3789 802.511 69.6953C803.025 69.0052 803.282 67.9831 803.282 66.6289ZM811.378 72.1953C809.946 72.1953 808.78 71.7266 807.882 70.7891C806.984 69.8451 806.534 68.5853 806.534 67.0098V66.6777C806.534 65.6296 806.733 64.6953 807.13 63.875C807.534 63.0482 808.094 62.4036 808.81 61.9414C809.532 61.4727 810.314 61.2383 811.154 61.2383C812.527 61.2383 813.595 61.6908 814.357 62.5957C815.118 63.5007 815.499 64.7962 815.499 66.4824V67.2344H808.341C808.367 68.276 808.67 69.1191 809.249 69.7637C809.835 70.4017 810.577 70.7207 811.476 70.7207C812.114 70.7207 812.654 70.5905 813.097 70.3301C813.54 70.0697 813.927 69.7246 814.259 69.2949L815.363 70.1543C814.477 71.515 813.149 72.1953 811.378 72.1953ZM811.154 62.7227C810.424 62.7227 809.812 62.9896 809.318 63.5234C808.823 64.0508 808.517 64.793 808.4 65.75H813.693V65.6133C813.64 64.6953 813.393 63.9857 812.95 63.4844C812.508 62.9766 811.909 62.7227 811.154 62.7227ZM822.306 63.0547C822.033 63.0091 821.737 62.9863 821.418 62.9863C820.233 62.9863 819.429 63.4909 819.005 64.5V72H817.199V61.4336H818.957L818.986 62.6543C819.578 61.7103 820.418 61.2383 821.505 61.2383C821.857 61.2383 822.124 61.2839 822.306 61.375V63.0547ZM829.709 72C829.605 71.7917 829.52 71.4206 829.455 70.8867C828.615 71.7591 827.613 72.1953 826.447 72.1953C825.406 72.1953 824.549 71.9023 823.879 71.3164C823.215 70.724 822.883 69.9753 822.883 69.0703C822.883 67.9701 823.299 67.1172 824.133 66.5117C824.973 65.8997 826.151 65.5938 827.668 65.5938H829.426V64.7637C829.426 64.1322 829.237 63.6309 828.859 63.2598C828.482 62.8822 827.925 62.6934 827.189 62.6934C826.545 62.6934 826.005 62.8561 825.568 63.1816C825.132 63.5072 824.914 63.901 824.914 64.3633H823.098C823.098 63.8359 823.283 63.3281 823.654 62.8398C824.032 62.3451 824.54 61.9544 825.178 61.668C825.822 61.3815 826.529 61.2383 827.297 61.2383C828.514 61.2383 829.468 61.5443 830.158 62.1562C830.848 62.7617 831.206 63.5983 831.232 64.666V69.5293C831.232 70.4993 831.356 71.2708 831.604 71.8438V72H829.709ZM826.711 70.623C827.277 70.623 827.814 70.4766 828.322 70.1836C828.83 69.8906 829.198 69.5098 829.426 69.041V66.873H828.01C825.796 66.873 824.689 67.5208 824.689 68.8164C824.689 69.3828 824.878 69.8255 825.256 70.1445C825.633 70.4635 826.118 70.623 826.711 70.623ZM836.116 58.875V61.4336H838.088V62.8301H836.116V69.3828C836.116 69.806 836.204 70.125 836.379 70.3398C836.555 70.5482 836.855 70.6523 837.278 70.6523C837.486 70.6523 837.773 70.6133 838.137 70.5352V72C837.662 72.1302 837.2 72.1953 836.75 72.1953C835.943 72.1953 835.334 71.9512 834.924 71.4629C834.514 70.9746 834.309 70.2812 834.309 69.3828V62.8301H832.385V61.4336H834.309V58.875H836.116ZM841.77 72H839.964V61.4336H841.77V72ZM839.817 58.6309C839.817 58.3379 839.905 58.0905 840.081 57.8887C840.263 57.6868 840.53 57.5859 840.882 57.5859C841.233 57.5859 841.5 57.6868 841.682 57.8887C841.865 58.0905 841.956 58.3379 841.956 58.6309C841.956 58.9238 841.865 59.168 841.682 59.3633C841.5 59.5586 841.233 59.6562 840.882 59.6562C840.53 59.6562 840.263 59.5586 840.081 59.3633C839.905 59.168 839.817 58.9238 839.817 58.6309ZM843.792 66.6191C843.792 65.584 843.994 64.653 844.398 63.8262C844.808 62.9993 845.374 62.3613 846.097 61.9121C846.826 61.4629 847.656 61.2383 848.587 61.2383C850.026 61.2383 851.188 61.7363 852.073 62.7324C852.965 63.7285 853.411 65.0534 853.411 66.707V66.834C853.411 67.8626 853.213 68.7871 852.816 69.6074C852.425 70.4212 851.862 71.056 851.126 71.5117C850.397 71.9674 849.557 72.1953 848.607 72.1953C847.174 72.1953 846.012 71.6973 845.12 70.7012C844.235 69.7051 843.792 68.3867 843.792 66.7461V66.6191ZM845.609 66.834C845.609 68.0059 845.879 68.9466 846.419 69.6562C846.966 70.3659 847.695 70.7207 848.607 70.7207C849.525 70.7207 850.254 70.3626 850.794 69.6465C851.335 68.9238 851.605 67.9147 851.605 66.6191C851.605 65.4603 851.328 64.5228 850.775 63.8066C850.228 63.084 849.499 62.7227 848.587 62.7227C847.695 62.7227 846.976 63.0775 846.429 63.7871C845.882 64.4967 845.609 65.5124 845.609 66.834ZM856.986 61.4336L857.045 62.7617C857.852 61.7461 858.907 61.2383 860.209 61.2383C862.442 61.2383 863.568 62.498 863.588 65.0176V72H861.781V65.0078C861.774 64.2461 861.599 63.6829 861.254 63.3184C860.915 62.9538 860.384 62.7715 859.662 62.7715C859.076 62.7715 858.561 62.9277 858.119 63.2402C857.676 63.5527 857.331 63.9629 857.084 64.4707V72H855.277V61.4336H856.986ZM874.37 65.3887L872.631 67.1953V72H870.756V57.7812H872.631V64.8125L878.95 57.7812H881.215L875.62 64.0605L881.655 72H879.409L874.37 65.3887ZM884.575 72H882.768V61.4336H884.575V72ZM882.622 58.6309C882.622 58.3379 882.71 58.0905 882.886 57.8887C883.068 57.6868 883.335 57.5859 883.686 57.5859C884.038 57.5859 884.305 57.6868 884.487 57.8887C884.669 58.0905 884.761 58.3379 884.761 58.6309C884.761 58.9238 884.669 59.168 884.487 59.3633C884.305 59.5586 884.038 59.6562 883.686 59.6562C883.335 59.6562 883.068 59.5586 882.886 59.3633C882.71 59.168 882.622 58.9238 882.622 58.6309ZM886.597 66.6191C886.597 65.584 886.799 64.653 887.202 63.8262C887.613 62.9993 888.179 62.3613 888.902 61.9121C889.631 61.4629 890.461 61.2383 891.392 61.2383C892.831 61.2383 893.993 61.7363 894.878 62.7324C895.77 63.7285 896.216 65.0534 896.216 66.707V66.834C896.216 67.8626 896.017 68.7871 895.62 69.6074C895.23 70.4212 894.667 71.056 893.931 71.5117C893.202 71.9674 892.362 72.1953 891.411 72.1953C889.979 72.1953 888.817 71.6973 887.925 70.7012C887.04 69.7051 886.597 68.3867 886.597 66.7461V66.6191ZM888.413 66.834C888.413 68.0059 888.683 68.9466 889.224 69.6562C889.771 70.3659 890.5 70.7207 891.411 70.7207C892.329 70.7207 893.058 70.3626 893.599 69.6465C894.139 68.9238 894.409 67.9147 894.409 66.6191C894.409 65.4603 894.133 64.5228 893.579 63.8066C893.032 63.084 892.303 62.7227 891.392 62.7227C890.5 62.7227 889.78 63.0775 889.234 63.7871C888.687 64.4967 888.413 65.5124 888.413 66.834ZM904.234 69.1973C904.234 68.709 904.048 68.3314 903.677 68.0645C903.313 67.791 902.671 67.5566 901.754 67.3613C900.842 67.166 900.116 66.9316 899.576 66.6582C899.042 66.3848 898.645 66.0592 898.384 65.6816C898.13 65.304 898.004 64.8548 898.004 64.334C898.004 63.4681 898.368 62.7357 899.097 62.1367C899.833 61.5378 900.77 61.2383 901.91 61.2383C903.108 61.2383 904.078 61.5475 904.82 62.166C905.569 62.7845 905.943 63.5755 905.943 64.5391H904.127C904.127 64.0443 903.915 63.6178 903.492 63.2598C903.075 62.9017 902.548 62.7227 901.91 62.7227C901.252 62.7227 900.738 62.8659 900.367 63.1523C899.996 63.4388 899.81 63.8132 899.81 64.2754C899.81 64.7116 899.983 65.0404 900.328 65.2617C900.673 65.4831 901.295 65.6947 902.193 65.8965C903.098 66.0983 903.83 66.3392 904.39 66.6191C904.95 66.8991 905.364 67.2376 905.63 67.6348C905.904 68.0254 906.041 68.5039 906.041 69.0703C906.041 70.0143 905.663 70.7728 904.908 71.3457C904.153 71.9121 903.173 72.1953 901.968 72.1953C901.122 72.1953 900.373 72.0456 899.722 71.7461C899.071 71.4466 898.56 71.0299 898.189 70.4961C897.824 69.9557 897.642 69.373 897.642 68.748H899.449C899.481 69.3535 899.722 69.8353 900.171 70.1934C900.627 70.5449 901.226 70.7207 901.968 70.7207C902.652 70.7207 903.199 70.584 903.609 70.3105C904.026 70.0306 904.234 69.6595 904.234 69.1973ZM910.943 67.1074L909.811 68.2891V72H908.004V57H909.811V66.0723L910.777 64.9102L914.068 61.4336H916.266L912.154 65.8477L916.744 72H914.625L910.943 67.1074Z" fill="#2E92B0"/>
<path d="M1006.67 37.54C1009.83 37.28 1012.25 36.26 1013.37 34.66C1014.51 36.26 1016.93 37.28 1020.07 37.54L1020.71 35.98C1017.05 35.72 1014.79 34.42 1014.55 32.8H1019.91V31.18H1014.41V29.46H1012.35V31.18H1006.85V32.8H1012.21C1011.97 34.42 1009.71 35.72 1006.05 35.98L1006.67 37.54ZM1013.35 45.98C1010.69 45.98 1009.23 45.48 1009.23 44.5C1009.23 43.52 1010.69 43 1013.35 43C1016.03 43 1017.49 43.52 1017.49 44.5C1017.49 45.48 1016.03 45.98 1013.35 45.98ZM1013.35 41.48C1009.45 41.48 1007.13 42.54 1007.13 44.5C1007.13 46.46 1009.45 47.54 1013.35 47.54C1017.27 47.54 1019.57 46.46 1019.57 44.5C1019.57 42.54 1017.27 41.48 1013.35 41.48ZM1014.41 38.7V36.72H1012.35V38.7H1005.21V40.34H1021.55V38.7H1014.41ZM1035.48 31.54C1038.02 31.54 1039.68 32.28 1039.68 33.56C1039.68 34.84 1038.02 35.58 1035.48 35.58C1032.92 35.58 1031.26 34.84 1031.26 33.56C1031.26 32.28 1032.92 31.54 1035.48 31.54ZM1035.48 37.24C1039.34 37.24 1041.88 35.82 1041.88 33.56C1041.88 31.3 1039.34 29.88 1035.48 29.88C1031.6 29.88 1029.08 31.3 1029.08 33.56C1029.08 35.82 1031.6 37.24 1035.48 37.24ZM1031.4 41.86H1029.32V47.2H1041.88V45.52H1031.4V41.86ZM1027.3 38.46V40.14H1034.58V43.56H1036.68V40.14H1043.68V38.46H1027.3ZM1047.52 34.86C1047.52 33.28 1048.68 32.24 1050.28 32.24C1051.84 32.24 1053 33.28 1053 34.86C1053 36.42 1051.84 37.46 1050.28 37.46C1048.68 37.46 1047.52 36.42 1047.52 34.86ZM1058.22 33.64V36.08H1054.78C1054.9 35.7 1054.96 35.3 1054.96 34.86C1054.96 34.42 1054.9 34.02 1054.8 33.64H1058.22ZM1058.22 37.74V40.12H1060.28V29.46H1058.22V31.96H1053.86C1053.02 31.06 1051.76 30.5 1050.28 30.5C1047.58 30.5 1045.56 32.3 1045.56 34.86C1045.56 37.4 1047.58 39.2 1050.28 39.2C1051.74 39.2 1053.02 38.66 1053.86 37.74H1058.22ZM1054.26 45.92C1051.7 45.92 1050.2 45.26 1050.2 44.02C1050.2 42.82 1051.7 42.14 1054.26 42.14C1056.84 42.14 1058.32 42.82 1058.32 44.02C1058.32 45.26 1056.84 45.92 1054.26 45.92ZM1054.26 40.52C1050.5 40.52 1048.18 41.82 1048.18 44.02C1048.18 46.24 1050.5 47.54 1054.26 47.54C1058.02 47.54 1060.36 46.24 1060.36 44.02C1060.36 41.82 1058.02 40.52 1054.26 40.52ZM1073.65 34.18H1077.47V32.52H1073.65V29.84H1071.59V32.52H1067.71V34.18H1071.59V35.22C1071.59 38.18 1069.91 41.22 1067.15 42.54L1068.29 44.12C1070.35 43.16 1071.85 41.18 1072.65 38.84C1073.39 41.02 1074.83 42.86 1076.77 43.8L1077.91 42.22C1075.23 40.92 1073.65 37.98 1073.65 35.22V34.18ZM1084.21 36.72H1081.39V29.46H1079.33V47.54H1081.39V38.42H1084.21V36.72ZM1097.89 32.94C1097.89 35.1 1097.89 37.66 1097.19 41.2L1099.27 41.42C1099.97 37.68 1099.97 35.18 1099.97 32.94V31.16H1087.11V32.84H1097.89V32.94ZM1093.57 43.48V37.12H1091.49V43.48H1085.41V45.18H1101.73V43.48H1093.57ZM1110.07 32.98H1114.09V31.28H1103.97V32.98H1107.99V34.7C1107.99 37.8 1106.13 41.16 1103.33 42.46L1104.51 44.1C1106.63 43.08 1108.25 40.94 1109.05 38.42C1109.89 40.76 1111.51 42.72 1113.61 43.64L1114.75 42.02C1111.93 40.82 1110.07 37.7 1110.07 34.7V32.98ZM1116.19 29.48V47.54H1118.27V29.48H1116.19Z" fill="#185786"/>
<path d="M976.905 59.3242H972.335V72H970.47V59.3242H965.909V57.7812H976.905V59.3242ZM976.876 66.6191C976.876 65.584 977.078 64.653 977.482 63.8262C977.892 62.9993 978.458 62.3613 979.181 61.9121C979.91 61.4629 980.74 61.2383 981.671 61.2383C983.11 61.2383 984.272 61.7363 985.157 62.7324C986.049 63.7285 986.495 65.0534 986.495 66.707V66.834C986.495 67.8626 986.297 68.7871 985.9 69.6074C985.509 70.4212 984.946 71.056 984.21 71.5117C983.481 71.9674 982.641 72.1953 981.691 72.1953C980.258 72.1953 979.096 71.6973 978.204 70.7012C977.319 69.7051 976.876 68.3867 976.876 66.7461V66.6191ZM978.693 66.834C978.693 68.0059 978.963 68.9466 979.503 69.6562C980.05 70.3659 980.779 70.7207 981.691 70.7207C982.609 70.7207 983.338 70.3626 983.878 69.6465C984.418 68.9238 984.689 67.9147 984.689 66.6191C984.689 65.4603 984.412 64.5228 983.859 63.8066C983.312 63.084 982.583 62.7227 981.671 62.7227C980.779 62.7227 980.06 63.0775 979.513 63.7871C978.966 64.4967 978.693 65.5124 978.693 66.834ZM990.812 58.875V61.4336H992.785V62.8301H990.812V69.3828C990.812 69.806 990.9 70.125 991.076 70.3398C991.252 70.5482 991.551 70.6523 991.974 70.6523C992.183 70.6523 992.469 70.6133 992.834 70.5352V72C992.358 72.1302 991.896 72.1953 991.447 72.1953C990.64 72.1953 990.031 71.9512 989.621 71.4629C989.211 70.9746 989.005 70.2812 989.005 69.3828V62.8301H987.082V61.4336H989.005V58.875H990.812ZM1001.03 72C1000.92 71.7917 1000.84 71.4206 1000.77 70.8867C999.934 71.7591 998.931 72.1953 997.766 72.1953C996.724 72.1953 995.868 71.9023 995.197 71.3164C994.533 70.724 994.201 69.9753 994.201 69.0703C994.201 67.9701 994.618 67.1172 995.451 66.5117C996.291 65.8997 997.469 65.5938 998.986 65.5938H1000.74V64.7637C1000.74 64.1322 1000.56 63.6309 1000.18 63.2598C999.8 62.8822 999.243 62.6934 998.508 62.6934C997.863 62.6934 997.323 62.8561 996.887 63.1816C996.451 63.5072 996.232 63.901 996.232 64.3633H994.416C994.416 63.8359 994.602 63.3281 994.973 62.8398C995.35 62.3451 995.858 61.9544 996.496 61.668C997.141 61.3815 997.847 61.2383 998.615 61.2383C999.833 61.2383 1000.79 61.5443 1001.48 62.1562C1002.17 62.7617 1002.52 63.5983 1002.55 64.666V69.5293C1002.55 70.4993 1002.67 71.2708 1002.92 71.8438V72H1001.03ZM998.029 70.623C998.596 70.623 999.133 70.4766 999.641 70.1836C1000.15 69.8906 1000.52 69.5098 1000.74 69.041V66.873H999.328C997.115 66.873 996.008 67.5208 996.008 68.8164C996.008 69.3828 996.197 69.8255 996.574 70.1445C996.952 70.4635 997.437 70.623 998.029 70.623ZM1006.95 72H1005.14V57H1006.95V72ZM1013.53 66.6191C1013.53 65.584 1013.73 64.653 1014.13 63.8262C1014.54 62.9993 1015.11 62.3613 1015.83 61.9121C1016.56 61.4629 1017.39 61.2383 1018.32 61.2383C1019.76 61.2383 1020.92 61.7363 1021.81 62.7324C1022.7 63.7285 1023.15 65.0534 1023.15 66.707V66.834C1023.15 67.8626 1022.95 68.7871 1022.55 69.6074C1022.16 70.4212 1021.6 71.056 1020.86 71.5117C1020.13 71.9674 1019.29 72.1953 1018.34 72.1953C1016.91 72.1953 1015.75 71.6973 1014.86 70.7012C1013.97 69.7051 1013.53 68.3867 1013.53 66.7461V66.6191ZM1015.34 66.834C1015.34 68.0059 1015.62 68.9466 1016.16 69.6562C1016.7 70.3659 1017.43 70.7207 1018.34 70.7207C1019.26 70.7207 1019.99 70.3626 1020.53 69.6465C1021.07 68.9238 1021.34 67.9147 1021.34 66.6191C1021.34 65.4603 1021.06 64.5228 1020.51 63.8066C1019.96 63.084 1019.23 62.7227 1018.32 62.7227C1017.43 62.7227 1016.71 63.0775 1016.17 63.7871C1015.62 64.4967 1015.34 65.5124 1015.34 66.834ZM1033.94 66.834C1033.94 68.4421 1033.57 69.7376 1032.84 70.7207C1032.1 71.7038 1031.1 72.1953 1029.85 72.1953C1028.56 72.1953 1027.56 71.7884 1026.82 70.9746V76.0625H1025.01V61.4336H1026.66L1026.75 62.6055C1027.49 61.694 1028.51 61.2383 1029.82 61.2383C1031.09 61.2383 1032.09 61.7168 1032.83 62.6738C1033.57 63.6309 1033.94 64.9622 1033.94 66.668V66.834ZM1032.13 66.6289C1032.13 65.4375 1031.88 64.4967 1031.37 63.8066C1030.86 63.1165 1030.17 62.7715 1029.28 62.7715C1028.19 62.7715 1027.37 63.2565 1026.82 64.2266V69.2754C1027.36 70.2389 1028.19 70.7207 1029.3 70.7207C1030.17 70.7207 1030.85 70.3789 1031.36 69.6953C1031.88 69.0052 1032.13 67.9831 1032.13 66.6289ZM1040.23 72.1953C1038.8 72.1953 1037.63 71.7266 1036.73 70.7891C1035.83 69.8451 1035.38 68.5853 1035.38 67.0098V66.6777C1035.38 65.6296 1035.58 64.6953 1035.98 63.875C1036.38 63.0482 1036.94 62.4036 1037.66 61.9414C1038.38 61.4727 1039.16 61.2383 1040 61.2383C1041.38 61.2383 1042.45 61.6908 1043.21 62.5957C1043.97 63.5007 1044.35 64.7962 1044.35 66.4824V67.2344H1037.19C1037.22 68.276 1037.52 69.1191 1038.1 69.7637C1038.69 70.4017 1039.43 70.7207 1040.33 70.7207C1040.96 70.7207 1041.5 70.5905 1041.95 70.3301C1042.39 70.0697 1042.78 69.7246 1043.11 69.2949L1044.21 70.1543C1043.33 71.515 1042 72.1953 1040.23 72.1953ZM1040 62.7227C1039.27 62.7227 1038.66 62.9896 1038.17 63.5234C1037.67 64.0508 1037.37 64.793 1037.25 65.75H1042.54V65.6133C1042.49 64.6953 1042.24 63.9857 1041.8 63.4844C1041.36 62.9766 1040.76 62.7227 1040 62.7227ZM1051.16 63.0547C1050.88 63.0091 1050.59 62.9863 1050.27 62.9863C1049.08 62.9863 1048.28 63.4909 1047.86 64.5V72H1046.05V61.4336H1047.81L1047.84 62.6543C1048.43 61.7103 1049.27 61.2383 1050.36 61.2383C1050.71 61.2383 1050.97 61.2839 1051.16 61.375V63.0547ZM1058.56 72C1058.46 71.7917 1058.37 71.4206 1058.31 70.8867C1057.47 71.7591 1056.46 72.1953 1055.3 72.1953C1054.26 72.1953 1053.4 71.9023 1052.73 71.3164C1052.07 70.724 1051.73 69.9753 1051.73 69.0703C1051.73 67.9701 1052.15 67.1172 1052.98 66.5117C1053.82 65.8997 1055 65.5938 1056.52 65.5938H1058.28V64.7637C1058.28 64.1322 1058.09 63.6309 1057.71 63.2598C1057.33 62.8822 1056.78 62.6934 1056.04 62.6934C1055.4 62.6934 1054.85 62.8561 1054.42 63.1816C1053.98 63.5072 1053.76 63.901 1053.76 64.3633H1051.95C1051.95 63.8359 1052.13 63.3281 1052.5 62.8398C1052.88 62.3451 1053.39 61.9544 1054.03 61.668C1054.67 61.3815 1055.38 61.2383 1056.15 61.2383C1057.36 61.2383 1058.32 61.5443 1059.01 62.1562C1059.7 62.7617 1060.06 63.5983 1060.08 64.666V69.5293C1060.08 70.4993 1060.21 71.2708 1060.45 71.8438V72H1058.56ZM1055.56 70.623C1056.13 70.623 1056.66 70.4766 1057.17 70.1836C1057.68 69.8906 1058.05 69.5098 1058.28 69.041V66.873H1056.86C1054.65 66.873 1053.54 67.5208 1053.54 68.8164C1053.54 69.3828 1053.73 69.8255 1054.11 70.1445C1054.48 70.4635 1054.97 70.623 1055.56 70.623ZM1064.97 58.875V61.4336H1066.94V62.8301H1064.97V69.3828C1064.97 69.806 1065.05 70.125 1065.23 70.3398C1065.41 70.5482 1065.7 70.6523 1066.13 70.6523C1066.34 70.6523 1066.62 70.6133 1066.99 70.5352V72C1066.51 72.1302 1066.05 72.1953 1065.6 72.1953C1064.79 72.1953 1064.18 71.9512 1063.77 71.4629C1063.36 70.9746 1063.16 70.2812 1063.16 69.3828V62.8301H1061.24V61.4336H1063.16V58.875H1064.97ZM1070.62 72H1068.81V61.4336H1070.62V72ZM1068.67 58.6309C1068.67 58.3379 1068.76 58.0905 1068.93 57.8887C1069.11 57.6868 1069.38 57.5859 1069.73 57.5859C1070.08 57.5859 1070.35 57.6868 1070.53 57.8887C1070.72 58.0905 1070.81 58.3379 1070.81 58.6309C1070.81 58.9238 1070.72 59.168 1070.53 59.3633C1070.35 59.5586 1070.08 59.6562 1069.73 59.6562C1069.38 59.6562 1069.11 59.5586 1068.93 59.3633C1068.76 59.168 1068.67 58.9238 1068.67 58.6309ZM1072.64 66.6191C1072.64 65.584 1072.84 64.653 1073.25 63.8262C1073.66 62.9993 1074.22 62.3613 1074.95 61.9121C1075.68 61.4629 1076.51 61.2383 1077.44 61.2383C1078.88 61.2383 1080.04 61.7363 1080.92 62.7324C1081.82 63.7285 1082.26 65.0534 1082.26 66.707V66.834C1082.26 67.8626 1082.06 68.7871 1081.67 69.6074C1081.28 70.4212 1080.71 71.056 1079.98 71.5117C1079.25 71.9674 1078.41 72.1953 1077.46 72.1953C1076.02 72.1953 1074.86 71.6973 1073.97 70.7012C1073.09 69.7051 1072.64 68.3867 1072.64 66.7461V66.6191ZM1074.46 66.834C1074.46 68.0059 1074.73 68.9466 1075.27 69.6562C1075.82 70.3659 1076.55 70.7207 1077.46 70.7207C1078.38 70.7207 1079.1 70.3626 1079.64 69.6465C1080.18 68.9238 1080.46 67.9147 1080.46 66.6191C1080.46 65.4603 1080.18 64.5228 1079.62 63.8066C1079.08 63.084 1078.35 62.7227 1077.44 62.7227C1076.55 62.7227 1075.83 63.0775 1075.28 63.7871C1074.73 64.4967 1074.46 65.5124 1074.46 66.834ZM1085.84 61.4336L1085.89 62.7617C1086.7 61.7461 1087.76 61.2383 1089.06 61.2383C1091.29 61.2383 1092.42 62.498 1092.44 65.0176V72H1090.63V65.0078C1090.62 64.2461 1090.45 63.6829 1090.1 63.3184C1089.77 62.9538 1089.23 62.7715 1088.51 62.7715C1087.93 62.7715 1087.41 62.9277 1086.97 63.2402C1086.53 63.5527 1086.18 63.9629 1085.93 64.4707V72H1084.13V61.4336H1085.84ZM1110.1 70.1348C1109.62 70.8249 1108.95 71.3424 1108.08 71.6875C1107.22 72.026 1106.22 72.1953 1105.08 72.1953C1103.92 72.1953 1102.89 71.9251 1101.99 71.3848C1101.09 70.8379 1100.39 70.0632 1099.9 69.0605C1099.41 68.0579 1099.16 66.8958 1099.15 65.5742V64.334C1099.15 62.1921 1099.65 60.5319 1100.64 59.3535C1101.64 58.1751 1103.05 57.5859 1104.86 57.5859C1106.34 57.5859 1107.54 57.9668 1108.44 58.7285C1109.35 59.4837 1109.9 60.5579 1110.1 61.9512H1108.23C1107.88 60.0697 1106.76 59.1289 1104.87 59.1289C1103.61 59.1289 1102.66 59.5716 1102.01 60.457C1101.36 61.3359 1101.04 62.612 1101.03 64.2852V65.4473C1101.03 67.0423 1101.4 68.3118 1102.13 69.2559C1102.86 70.1934 1103.84 70.6621 1105.09 70.6621C1105.79 70.6621 1106.4 70.584 1106.93 70.4277C1107.46 70.2715 1107.89 70.0078 1108.24 69.6367V66.4434H1104.95V64.9199H1110.1V70.1348ZM1119.08 72C1118.98 71.7917 1118.89 71.4206 1118.83 70.8867C1117.99 71.7591 1116.98 72.1953 1115.82 72.1953C1114.78 72.1953 1113.92 71.9023 1113.25 71.3164C1112.59 70.724 1112.25 69.9753 1112.25 69.0703C1112.25 67.9701 1112.67 67.1172 1113.5 66.5117C1114.34 65.8997 1115.52 65.5938 1117.04 65.5938H1118.8V64.7637C1118.8 64.1322 1118.61 63.6309 1118.23 63.2598C1117.85 62.8822 1117.3 62.6934 1116.56 62.6934C1115.92 62.6934 1115.38 62.8561 1114.94 63.1816C1114.5 63.5072 1114.28 63.901 1114.28 64.3633H1112.47C1112.47 63.8359 1112.65 63.3281 1113.02 62.8398C1113.4 62.3451 1113.91 61.9544 1114.55 61.668C1115.19 61.3815 1115.9 61.2383 1116.67 61.2383C1117.89 61.2383 1118.84 61.5443 1119.53 62.1562C1120.22 62.7617 1120.58 63.5983 1120.6 64.666V69.5293C1120.6 70.4993 1120.73 71.2708 1120.97 71.8438V72H1119.08ZM1116.08 70.623C1116.65 70.623 1117.19 70.4766 1117.69 70.1836C1118.2 69.8906 1118.57 69.5098 1118.8 69.041V66.873H1117.38C1115.17 66.873 1114.06 67.5208 1114.06 68.8164C1114.06 69.3828 1114.25 69.8255 1114.63 70.1445C1115 70.4635 1115.49 70.623 1116.08 70.623ZM1128.14 63.0547C1127.87 63.0091 1127.57 62.9863 1127.25 62.9863C1126.07 62.9863 1125.26 63.4909 1124.84 64.5V72H1123.04V61.4336H1124.79L1124.82 62.6543C1125.41 61.7103 1126.25 61.2383 1127.34 61.2383C1127.69 61.2383 1127.96 61.2839 1128.14 61.375V63.0547ZM1135.55 72C1135.44 71.7917 1135.36 71.4206 1135.29 70.8867C1134.45 71.7591 1133.45 72.1953 1132.28 72.1953C1131.24 72.1953 1130.39 71.9023 1129.72 71.3164C1129.05 70.724 1128.72 69.9753 1128.72 69.0703C1128.72 67.9701 1129.14 67.1172 1129.97 66.5117C1130.81 65.8997 1131.99 65.5938 1133.5 65.5938H1135.26V64.7637C1135.26 64.1322 1135.07 63.6309 1134.7 63.2598C1134.32 62.8822 1133.76 62.6934 1133.03 62.6934C1132.38 62.6934 1131.84 62.8561 1131.4 63.1816C1130.97 63.5072 1130.75 63.901 1130.75 64.3633H1128.93C1128.93 63.8359 1129.12 63.3281 1129.49 62.8398C1129.87 62.3451 1130.38 61.9544 1131.01 61.668C1131.66 61.3815 1132.36 61.2383 1133.13 61.2383C1134.35 61.2383 1135.3 61.5443 1135.99 62.1562C1136.68 62.7617 1137.04 63.5983 1137.07 64.666V69.5293C1137.07 70.4993 1137.19 71.2708 1137.44 71.8438V72H1135.55ZM1132.55 70.623C1133.11 70.623 1133.65 70.4766 1134.16 70.1836C1134.67 69.8906 1135.03 69.5098 1135.26 69.041V66.873H1133.85C1131.63 66.873 1130.53 67.5208 1130.53 68.8164C1130.53 69.3828 1130.71 69.8255 1131.09 70.1445C1131.47 70.4635 1131.95 70.623 1132.55 70.623ZM1139.07 66.6289C1139.07 64.9818 1139.45 63.6732 1140.21 62.7031C1140.98 61.7266 1141.98 61.2383 1143.24 61.2383C1144.53 61.2383 1145.54 61.694 1146.26 62.6055L1146.35 61.4336H1148V71.7461C1148 73.1133 1147.59 74.1908 1146.78 74.9785C1145.97 75.7663 1144.88 76.1602 1143.51 76.1602C1142.75 76.1602 1142.01 75.9974 1141.28 75.6719C1140.55 75.3464 1139.99 74.9004 1139.61 74.334L1140.55 73.25C1141.32 74.207 1142.27 74.6855 1143.39 74.6855C1144.27 74.6855 1144.95 74.4382 1145.44 73.9434C1145.93 73.4486 1146.18 72.752 1146.18 71.8535V70.9453C1145.46 71.7786 1144.47 72.1953 1143.22 72.1953C1141.98 72.1953 1140.98 71.6973 1140.21 70.7012C1139.45 69.7051 1139.07 68.3477 1139.07 66.6289ZM1140.89 66.834C1140.89 68.0254 1141.13 68.9629 1141.62 69.6465C1142.11 70.3236 1142.79 70.6621 1143.67 70.6621C1144.81 70.6621 1145.65 70.1445 1146.18 69.1094V64.2852C1145.63 63.276 1144.8 62.7715 1143.69 62.7715C1142.81 62.7715 1142.12 63.1133 1141.63 63.7969C1141.13 64.4805 1140.89 65.4928 1140.89 66.834ZM1154.72 72.1953C1153.28 72.1953 1152.12 71.7266 1151.22 70.7891C1150.32 69.8451 1149.87 68.5853 1149.87 67.0098V66.6777C1149.87 65.6296 1150.07 64.6953 1150.47 63.875C1150.87 63.0482 1151.43 62.4036 1152.15 61.9414C1152.87 61.4727 1153.65 61.2383 1154.49 61.2383C1155.87 61.2383 1156.93 61.6908 1157.69 62.5957C1158.46 63.5007 1158.84 64.7962 1158.84 66.4824V67.2344H1151.68C1151.7 68.276 1152.01 69.1191 1152.59 69.7637C1153.17 70.4017 1153.92 70.7207 1154.81 70.7207C1155.45 70.7207 1155.99 70.5905 1156.43 70.3301C1156.88 70.0697 1157.26 69.7246 1157.6 69.2949L1158.7 70.1543C1157.81 71.515 1156.49 72.1953 1154.72 72.1953ZM1154.49 62.7227C1153.76 62.7227 1153.15 62.9896 1152.66 63.5234C1152.16 64.0508 1151.85 64.793 1151.74 65.75H1157.03V65.6133C1156.98 64.6953 1156.73 63.9857 1156.29 63.4844C1155.85 62.9766 1155.25 62.7227 1154.49 62.7227Z" fill="#2E92B0"/>
<line x1="216.5" y1="14" x2="216.5" y2="216" stroke="#828282"/>
<line x1="472.5" y1="14" x2="472.5" y2="216" stroke="#828282"/>
<line x1="701.5" y1="14" x2="701.5" y2="216" stroke="#828282"/>
<line x1="943.5" y1="14" x2="943.5" y2="216" stroke="#828282"/>
</svg>
