<svg width="35" height="35" viewBox="0 0 35 35" fill="none" xmlns="http://www.w3.org/2000/svg">
<rect width="35" height="35" rx="5" fill="#BDBDBD"/>
<path d="M26.8292 26.5254C24.7775 24.4594 22.0504 23.3179 19.1626 23.3179H17.4968H15.831C12.9431 23.3179 10.2225 24.4594 8.16439 26.5254C6.12555 28.5851 5 32.1241 5 35H5.83612H17.5032H29.1703H30.0064C30 32.1241 28.8744 28.5851 26.8292 26.5254Z" fill="white"/>
<path d="M17.5032 7C13.3676 7 9.99744 10.335 9.99744 14.4352C9.99744 18.5354 13.3612 21.8704 17.4968 21.8704C21.6324 21.8704 25.0026 18.5354 25.0026 14.4352C25.0026 10.335 21.6388 7 17.5032 7Z" fill="white"/>
</svg>
