<svg width="326" height="45" viewBox="0 0 326 45" fill="none" xmlns="http://www.w3.org/2000/svg">
<path d="M0.572 42H6.565V40.973H3.926C3.445 40.973 2.86 41.025 2.366 41.064C4.602 38.945 6.097 37.008 6.097 35.11C6.097 33.407 5.031 32.289 3.328 32.289C2.119 32.289 1.3 32.848 0.52 33.693L1.209 34.369C1.729 33.745 2.405 33.264 3.185 33.264C4.368 33.264 4.94 34.057 4.94 35.149C4.94 36.787 3.562 38.685 0.572 41.298V42ZM10.5649 42.169C12.3719 42.169 13.5289 40.518 13.5289 37.203C13.5289 33.901 12.3719 32.289 10.5649 32.289C8.74494 32.289 7.58794 33.888 7.58794 37.203C7.58794 40.518 8.74494 42.169 10.5649 42.169ZM10.5649 41.22C9.47294 41.22 8.74494 40.011 8.74494 37.203C8.74494 34.421 9.47294 33.251 10.5649 33.251C11.6439 33.251 12.3719 34.421 12.3719 37.203C12.3719 40.011 11.6439 41.22 10.5649 41.22ZM14.4739 42H20.4669V40.973H17.8279C17.3469 40.973 16.7619 41.025 16.2679 41.064C18.5039 38.945 19.9989 37.008 19.9989 35.11C19.9989 33.407 18.9329 32.289 17.2299 32.289C16.0209 32.289 15.2019 32.848 14.4219 33.693L15.1109 34.369C15.6309 33.745 16.3069 33.264 17.0869 33.264C18.2699 33.264 18.8419 34.057 18.8419 35.149C18.8419 36.787 17.4639 38.685 14.4739 41.298V42ZM24.4668 42.169C26.2738 42.169 27.4308 40.518 27.4308 37.203C27.4308 33.901 26.2738 32.289 24.4668 32.289C22.6468 32.289 21.4898 33.888 21.4898 37.203C21.4898 40.518 22.6468 42.169 24.4668 42.169ZM24.4668 41.22C23.3748 41.22 22.6468 40.011 22.6468 37.203C22.6468 34.421 23.3748 33.251 24.4668 33.251C25.5458 33.251 26.2738 34.421 26.2738 37.203C26.2738 40.011 25.5458 41.22 24.4668 41.22ZM29.6107 42.169C30.0787 42.169 30.4687 41.805 30.4687 41.272C30.4687 40.739 30.0787 40.349 29.6107 40.349C29.1427 40.349 28.7527 40.739 28.7527 41.272C28.7527 41.805 29.1427 42.169 29.6107 42.169ZM34.7759 42.169C36.5829 42.169 37.7399 40.518 37.7399 37.203C37.7399 33.901 36.5829 32.289 34.7759 32.289C32.9559 32.289 31.7989 33.888 31.7989 37.203C31.7989 40.518 32.9559 42.169 34.7759 42.169ZM34.7759 41.22C33.6839 41.22 32.9559 40.011 32.9559 37.203C32.9559 34.421 33.6839 33.251 34.7759 33.251C35.8549 33.251 36.5829 34.421 36.5829 37.203C36.5829 40.011 35.8549 41.22 34.7759 41.22ZM39.6079 38.425L41.7789 35.175C42.0519 34.707 42.3119 34.239 42.5459 33.771H42.5979C42.5719 34.265 42.5199 35.032 42.5199 35.5V38.425H39.6079ZM44.9119 38.425H43.6509V32.471H42.3379L38.3729 38.594V39.374H42.5199V42H43.6509V39.374H44.9119V38.425Z" fill="#4F4F4F"/>
<path d="M65.572 42H71.565V40.973H68.926C68.445 40.973 67.86 41.025 67.366 41.064C69.602 38.945 71.097 37.008 71.097 35.11C71.097 33.407 70.031 32.289 68.328 32.289C67.119 32.289 66.3 32.848 65.52 33.693L66.209 34.369C66.729 33.745 67.405 33.264 68.185 33.264C69.368 33.264 69.94 34.057 69.94 35.149C69.94 36.787 68.562 38.685 65.572 41.298V42ZM75.5649 42.169C77.3719 42.169 78.5289 40.518 78.5289 37.203C78.5289 33.901 77.3719 32.289 75.5649 32.289C73.7449 32.289 72.5879 33.888 72.5879 37.203C72.5879 40.518 73.7449 42.169 75.5649 42.169ZM75.5649 41.22C74.4729 41.22 73.7449 40.011 73.7449 37.203C73.7449 34.421 74.4729 33.251 75.5649 33.251C76.6439 33.251 77.3719 34.421 77.3719 37.203C77.3719 40.011 76.6439 41.22 75.5649 41.22ZM79.4739 42H85.4669V40.973H82.8279C82.3469 40.973 81.7619 41.025 81.2679 41.064C83.5039 38.945 84.9989 37.008 84.9989 35.11C84.9989 33.407 83.9329 32.289 82.2299 32.289C81.0209 32.289 80.2019 32.848 79.4219 33.693L80.1109 34.369C80.6309 33.745 81.3069 33.264 82.0869 33.264C83.2699 33.264 83.8419 34.057 83.8419 35.149C83.8419 36.787 82.4639 38.685 79.4739 41.298V42ZM89.4668 42.169C91.2738 42.169 92.4308 40.518 92.4308 37.203C92.4308 33.901 91.2738 32.289 89.4668 32.289C87.6468 32.289 86.4898 33.888 86.4898 37.203C86.4898 40.518 87.6468 42.169 89.4668 42.169ZM89.4668 41.22C88.3748 41.22 87.6468 40.011 87.6468 37.203C87.6468 34.421 88.3748 33.251 89.4668 33.251C90.5458 33.251 91.2738 34.421 91.2738 37.203C91.2738 40.011 90.5458 41.22 89.4668 41.22ZM94.6107 42.169C95.0787 42.169 95.4687 41.805 95.4687 41.272C95.4687 40.739 95.0787 40.349 94.6107 40.349C94.1427 40.349 93.7527 40.739 93.7527 41.272C93.7527 41.805 94.1427 42.169 94.6107 42.169ZM99.7759 42.169C101.583 42.169 102.74 40.518 102.74 37.203C102.74 33.901 101.583 32.289 99.7759 32.289C97.9559 32.289 96.7989 33.888 96.7989 37.203C96.7989 40.518 97.9559 42.169 99.7759 42.169ZM99.7759 41.22C98.6839 41.22 97.9559 40.011 97.9559 37.203C97.9559 34.421 98.6839 33.251 99.7759 33.251C100.855 33.251 101.583 34.421 101.583 37.203C101.583 40.011 100.855 41.22 99.7759 41.22ZM106.506 37.502C105.375 37.502 104.803 36.67 104.803 35.383C104.803 34.083 105.505 33.225 106.415 33.225C107.637 33.225 108.365 34.265 108.495 36.228C107.858 37.138 107.143 37.502 106.506 37.502ZM103.867 41.194C104.4 41.753 105.128 42.169 106.155 42.169C107.949 42.169 109.613 40.687 109.613 36.826C109.613 33.797 108.248 32.289 106.415 32.289C104.933 32.289 103.685 33.537 103.685 35.383C103.685 37.359 104.725 38.386 106.311 38.386C107.117 38.386 107.936 37.918 108.508 37.203C108.417 40.167 107.351 41.181 106.116 41.181C105.505 41.181 104.92 40.908 104.517 40.453L103.867 41.194Z" fill="#4F4F4F"/>
<path fill-rule="evenodd" clip-rule="evenodd" d="M208.007 28.8758L217.919 14.9143L208.003 0.125283C208.322 0.0434926 208.656 0 209 0H322C324.209 0 326 1.79086 326 4V25C326 27.2091 324.209 29 322 29H209C208.657 29 208.325 28.9569 208.007 28.8758Z" fill="#333333"/>
<path fill-rule="evenodd" clip-rule="evenodd" d="M4 0C1.79086 0 0 1.79086 0 4V25C0 27.2091 1.79086 29 4 29H87L97 14.9143L87 0H4Z" fill="#BDBDBD"/>
<path d="M43.152 13.61H41.388C41.71 11.818 41.71 10.502 41.71 9.312V8.206H33.086V9.368H40.296C40.296 10.53 40.296 11.846 39.932 13.61H31.714V14.8H36.656V20.078H38.112V14.8H43.152V13.61ZM45.3349 13.148C47.5329 12.966 49.2269 12.238 50.0109 11.104C50.7949 12.238 52.4889 12.966 54.6869 13.148L55.1349 12.056C52.5589 11.86 50.9769 10.922 50.8369 9.774H54.5889V8.64H50.7389V7.394H49.2969V8.64H45.4329V9.774H49.1989C49.0589 10.922 47.4629 11.86 44.9009 12.056L45.3349 13.148ZM55.7369 14.898V13.736H44.2989V14.898H49.2969V16.172H45.5729V17.32H52.8949V20.064H54.3369V16.172H50.7389V14.898H55.7369Z" fill="white"/>
<path fill-rule="evenodd" clip-rule="evenodd" d="M99 14.9143L89 0H206L216 14.9143L206 29H89L99 14.9143Z" fill="#828282"/>
<path d="M142.376 8.486H140.934V10.558C140.934 12.994 139.618 15.416 137.602 16.326L138.456 17.53C139.982 16.788 141.102 15.29 141.676 13.456C142.25 15.164 143.356 16.564 144.812 17.25L145.652 16.102C143.664 15.206 142.376 12.882 142.376 10.558V8.486ZM146.66 7.422V20.106H148.116V7.422H146.66ZM156.025 8.878C157.803 8.878 158.965 9.396 158.965 10.292C158.965 11.188 157.803 11.706 156.025 11.706C154.233 11.706 153.071 11.188 153.071 10.292C153.071 9.396 154.233 8.878 156.025 8.878ZM156.025 12.868C158.727 12.868 160.505 11.874 160.505 10.292C160.505 8.71 158.727 7.716 156.025 7.716C153.309 7.716 151.545 8.71 151.545 10.292C151.545 11.874 153.309 12.868 156.025 12.868ZM153.169 16.102H151.713V19.84H160.505V18.664H153.169V16.102ZM150.299 13.722V14.898H155.395V17.292H156.865V14.898H161.765V13.722H150.299ZM169.646 10.824V12.014H171.942V16.69H173.384V7.45H171.942V10.824H169.646ZM170.43 13.778C168.54 13.12 167.462 11.538 167.462 9.984V9.55H170.094V8.388H163.332V9.55H166.006V9.984C166.006 11.692 164.858 13.358 162.898 14.044L163.64 15.178C165.138 14.66 166.202 13.554 166.762 12.182C167.294 13.428 168.316 14.422 169.716 14.898L170.43 13.778ZM166.636 18.664V15.892H165.194V19.84H173.706V18.664H166.636Z" fill="white"/>
<path d="M253.292 8.458H251.836V10.544C251.836 12.91 250.604 15.346 248.63 16.312L249.54 17.46C250.982 16.718 252.018 15.248 252.578 13.456C253.124 15.15 254.146 16.536 255.574 17.25L256.428 16.088C254.496 15.192 253.292 12.896 253.292 10.544V8.458ZM257.758 7.408V11.566H255.056V12.742H257.758V20.092H259.214V7.408H257.758ZM270.259 7.422V20.106H271.715V7.422H270.259ZM261.985 8.472V17.096H268.061V8.472H266.619V11.692H263.413V8.472H261.985ZM263.413 12.84H266.619V15.934H263.413V12.84ZM284.874 13.61C282.382 13.162 280.352 11.216 280.352 9.2V8.248H278.826V9.2C278.826 11.202 276.796 13.148 274.304 13.61L274.92 14.8C276.978 14.38 278.756 13.064 279.582 11.328C280.408 13.064 282.186 14.38 284.244 14.8L284.874 13.61ZM273.912 17.264V18.454H285.364V17.264H273.912Z" fill="white"/>
</svg>
