<svg width="326" height="45" viewBox="0 0 326 45" fill="none" xmlns="http://www.w3.org/2000/svg">
<path d="M0.572 43H6.565V41.973H3.926C3.445 41.973 2.86 42.025 2.366 42.064C4.602 39.945 6.097 38.008 6.097 36.11C6.097 34.407 5.031 33.289 3.328 33.289C2.119 33.289 1.3 33.848 0.52 34.693L1.209 35.369C1.729 34.745 2.405 34.264 3.185 34.264C4.368 34.264 4.94 35.057 4.94 36.149C4.94 37.787 3.562 39.685 0.572 42.298V43ZM10.5649 43.169C12.3719 43.169 13.5289 41.518 13.5289 38.203C13.5289 34.901 12.3719 33.289 10.5649 33.289C8.74494 33.289 7.58794 34.888 7.58794 38.203C7.58794 41.518 8.74494 43.169 10.5649 43.169ZM10.5649 42.22C9.47294 42.22 8.74494 41.011 8.74494 38.203C8.74494 35.421 9.47294 34.238 10.5649 34.238C11.6439 34.238 12.3719 35.421 12.3719 38.203C12.3719 41.011 11.6439 42.22 10.5649 42.22ZM15.0459 43H20.2719V42.012H18.3609V33.458H17.4509C16.9309 33.77 16.3199 33.991 15.4749 34.147V34.901H17.1649V42.012H15.0459V43ZM24.4798 43.169C26.2738 43.169 27.4698 42.09 27.4698 40.699C27.4698 39.399 26.6898 38.684 25.8578 38.203V38.138C26.4298 37.696 27.1318 36.838 27.1318 35.837C27.1318 34.368 26.1438 33.328 24.5188 33.328C23.0368 33.328 21.9058 34.29 21.9058 35.746C21.9058 36.747 22.4908 37.462 23.1928 37.943V38.008C22.3218 38.476 21.4378 39.36 21.4378 40.634C21.4378 42.103 22.7248 43.169 24.4798 43.169ZM25.1298 37.826C24.0118 37.384 22.9848 36.89 22.9848 35.746C22.9848 34.823 23.6218 34.199 24.5058 34.199C25.5328 34.199 26.1178 34.966 26.1178 35.902C26.1178 36.604 25.7798 37.254 25.1298 37.826ZM24.5058 42.285C23.3618 42.285 22.5168 41.544 22.5168 40.53C22.5168 39.62 23.0498 38.866 23.8168 38.372C25.1688 38.918 26.3388 39.399 26.3388 40.673C26.3388 41.622 25.5978 42.285 24.5058 42.285ZM29.6107 43.169C30.0787 43.169 30.4687 42.805 30.4687 42.272C30.4687 41.726 30.0787 41.349 29.6107 41.349C29.1427 41.349 28.7527 41.726 28.7527 42.272C28.7527 42.805 29.1427 43.169 29.6107 43.169ZM34.7759 43.169C36.5829 43.169 37.7399 41.518 37.7399 38.203C37.7399 34.901 36.5829 33.289 34.7759 33.289C32.9559 33.289 31.7989 34.888 31.7989 38.203C31.7989 41.518 32.9559 43.169 34.7759 43.169ZM34.7759 42.22C33.6839 42.22 32.9559 41.011 32.9559 38.203C32.9559 35.421 33.6839 34.238 34.7759 34.238C35.8549 34.238 36.5829 35.421 36.5829 38.203C36.5829 41.011 35.8549 42.22 34.7759 42.22ZM41.5449 43.169C43.2349 43.169 44.5999 42.155 44.5999 40.452C44.5999 39.152 43.7029 38.294 42.5849 38.034V37.982C43.5859 37.605 44.2749 36.838 44.2749 35.681C44.2749 34.173 43.1049 33.289 41.5059 33.289C40.4009 33.289 39.5559 33.77 38.8409 34.433L39.4779 35.187C40.0109 34.641 40.6869 34.264 41.4539 34.264C42.4419 34.264 43.0659 34.862 43.0659 35.772C43.0659 36.799 42.3899 37.592 40.4269 37.592V38.502C42.6239 38.502 43.3909 39.269 43.3909 40.4C43.3909 41.505 42.5849 42.181 41.4539 42.181C40.3749 42.181 39.6469 41.674 39.0879 41.089L38.4899 41.869C39.1139 42.545 40.0499 43.169 41.5449 43.169Z" fill="#4F4F4F"/>
<path d="M65.572 43H71.565V41.973H68.926C68.445 41.973 67.86 42.025 67.366 42.064C69.602 39.945 71.097 38.008 71.097 36.11C71.097 34.407 70.031 33.289 68.328 33.289C67.119 33.289 66.3 33.848 65.52 34.693L66.209 35.369C66.729 34.745 67.405 34.264 68.185 34.264C69.368 34.264 69.94 35.057 69.94 36.149C69.94 37.787 68.562 39.685 65.572 42.298V43ZM75.5649 43.169C77.3719 43.169 78.5289 41.518 78.5289 38.203C78.5289 34.901 77.3719 33.289 75.5649 33.289C73.7449 33.289 72.5879 34.888 72.5879 38.203C72.5879 41.518 73.7449 43.169 75.5649 43.169ZM75.5649 42.22C74.4729 42.22 73.7449 41.011 73.7449 38.203C73.7449 35.421 74.4729 34.238 75.5649 34.238C76.6439 34.238 77.3719 35.421 77.3719 38.203C77.3719 41.011 76.6439 42.22 75.5649 42.22ZM80.0459 43H85.2719V42.012H83.3609V33.458H82.4509C81.9309 33.77 81.3199 33.991 80.4749 34.147V34.901H82.1649V42.012H80.0459V43ZM87.5428 36.383C87.5428 35.083 88.2448 34.225 89.1548 34.225C90.3768 34.225 91.1048 35.265 91.2348 37.228C90.6238 38.125 89.8958 38.502 89.2458 38.502C88.1148 38.502 87.5428 37.67 87.5428 36.383ZM88.8948 43.169C90.6888 43.169 92.3528 41.687 92.3528 37.826C92.3528 34.797 90.9878 33.289 89.1548 33.289C87.6728 33.289 86.4248 34.537 86.4248 36.383C86.4248 38.359 87.4648 39.386 89.0508 39.386C89.8438 39.386 90.6628 38.931 91.2478 38.216C91.1568 41.167 90.0908 42.181 88.8558 42.181C88.2448 42.181 87.6598 41.908 87.2698 41.453L86.6068 42.194C87.1398 42.753 87.8678 43.169 88.8948 43.169ZM94.6107 43.169C95.0787 43.169 95.4687 42.805 95.4687 42.272C95.4687 41.726 95.0787 41.349 94.6107 41.349C94.1427 41.349 93.7527 41.726 93.7527 42.272C93.7527 42.805 94.1427 43.169 94.6107 43.169ZM99.7759 43.169C101.583 43.169 102.74 41.518 102.74 38.203C102.74 34.901 101.583 33.289 99.7759 33.289C97.9559 33.289 96.7989 34.888 96.7989 38.203C96.7989 41.518 97.9559 43.169 99.7759 43.169ZM99.7759 42.22C98.6839 42.22 97.9559 41.011 97.9559 38.203C97.9559 35.421 98.6839 34.238 99.7759 34.238C100.855 34.238 101.583 35.421 101.583 38.203C101.583 41.011 100.855 42.22 99.7759 42.22ZM106.545 43.169C108.235 43.169 109.6 42.155 109.6 40.452C109.6 39.152 108.703 38.294 107.585 38.034V37.982C108.586 37.605 109.275 36.838 109.275 35.681C109.275 34.173 108.105 33.289 106.506 33.289C105.401 33.289 104.556 33.77 103.841 34.433L104.478 35.187C105.011 34.641 105.687 34.264 106.454 34.264C107.442 34.264 108.066 34.862 108.066 35.772C108.066 36.799 107.39 37.592 105.427 37.592V38.502C107.624 38.502 108.391 39.269 108.391 40.4C108.391 41.505 107.585 42.181 106.454 42.181C105.375 42.181 104.647 41.674 104.088 41.089L103.49 41.869C104.114 42.545 105.05 43.169 106.545 43.169Z" fill="#4F4F4F"/>
<path d="M195.572 43H201.565V41.973H198.926C198.445 41.973 197.86 42.025 197.366 42.064C199.602 39.945 201.097 38.008 201.097 36.11C201.097 34.407 200.031 33.289 198.328 33.289C197.119 33.289 196.3 33.848 195.52 34.693L196.209 35.369C196.729 34.745 197.405 34.264 198.185 34.264C199.368 34.264 199.94 35.057 199.94 36.149C199.94 37.787 198.562 39.685 195.572 42.298V43ZM205.565 43.169C207.372 43.169 208.529 41.518 208.529 38.203C208.529 34.901 207.372 33.289 205.565 33.289C203.745 33.289 202.588 34.888 202.588 38.203C202.588 41.518 203.745 43.169 205.565 43.169ZM205.565 42.22C204.473 42.22 203.745 41.011 203.745 38.203C203.745 35.421 204.473 34.238 205.565 34.238C206.644 34.238 207.372 35.421 207.372 38.203C207.372 41.011 206.644 42.22 205.565 42.22ZM209.474 43H215.467V41.973H212.828C212.347 41.973 211.762 42.025 211.268 42.064C213.504 39.945 214.999 38.008 214.999 36.11C214.999 34.407 213.933 33.289 212.23 33.289C211.021 33.289 210.202 33.848 209.422 34.693L210.111 35.369C210.631 34.745 211.307 34.264 212.087 34.264C213.27 34.264 213.842 35.057 213.842 36.149C213.842 37.787 212.464 39.685 209.474 42.298V43ZM219.467 43.169C221.274 43.169 222.431 41.518 222.431 38.203C222.431 34.901 221.274 33.289 219.467 33.289C217.647 33.289 216.49 34.888 216.49 38.203C216.49 41.518 217.647 43.169 219.467 43.169ZM219.467 42.22C218.375 42.22 217.647 41.011 217.647 38.203C217.647 35.421 218.375 34.238 219.467 34.238C220.546 34.238 221.274 35.421 221.274 38.203C221.274 41.011 220.546 42.22 219.467 42.22ZM224.611 43.169C225.079 43.169 225.469 42.805 225.469 42.272C225.469 41.726 225.079 41.349 224.611 41.349C224.143 41.349 223.753 41.726 223.753 42.272C223.753 42.805 224.143 43.169 224.611 43.169ZM229.776 43.169C231.583 43.169 232.74 41.518 232.74 38.203C232.74 34.901 231.583 33.289 229.776 33.289C227.956 33.289 226.799 34.888 226.799 38.203C226.799 41.518 227.956 43.169 229.776 43.169ZM229.776 42.22C228.684 42.22 227.956 41.011 227.956 38.203C227.956 35.421 228.684 34.238 229.776 34.238C230.855 34.238 231.583 35.421 231.583 38.203C231.583 41.011 230.855 42.22 229.776 42.22ZM236.545 43.169C238.235 43.169 239.6 42.155 239.6 40.452C239.6 39.152 238.703 38.294 237.585 38.034V37.982C238.586 37.605 239.275 36.838 239.275 35.681C239.275 34.173 238.105 33.289 236.506 33.289C235.401 33.289 234.556 33.77 233.841 34.433L234.478 35.187C235.011 34.641 235.687 34.264 236.454 34.264C237.442 34.264 238.066 34.862 238.066 35.772C238.066 36.799 237.39 37.592 235.427 37.592V38.502C237.624 38.502 238.391 39.269 238.391 40.4C238.391 41.505 237.585 42.181 236.454 42.181C235.375 42.181 234.647 41.674 234.088 41.089L233.49 41.869C234.114 42.545 235.05 43.169 236.545 43.169Z" fill="#4F4F4F"/>
<path fill-rule="evenodd" clip-rule="evenodd" d="M208.007 28.8758L217.919 14.9143L208.003 0.125283C208.322 0.0434926 208.656 0 209 0H322C324.209 0 326 1.79086 326 4V25C326 27.2091 324.209 29 322 29H209C208.657 29 208.325 28.9569 208.007 28.8758Z" fill="#333333"/>
<path fill-rule="evenodd" clip-rule="evenodd" d="M4 0C1.79086 0 0 1.79086 0 4V25C0 27.2091 1.79086 29 4 29H87L97 14.9143L87 0H4Z" fill="#BDBDBD"/>
<path d="M32.358 19H33.982V14.842H35.648L37.986 19H39.82L37.3 14.632C38.602 14.226 39.456 13.274 39.456 11.678C39.456 9.452 37.86 8.682 35.732 8.682H32.358V19ZM33.982 13.54V9.998H35.536C37.034 9.998 37.846 10.432 37.846 11.678C37.846 12.924 37.034 13.54 35.536 13.54H33.982ZM43.0575 11.006C43.0575 10.194 43.5335 9.606 44.2335 9.606C44.8495 9.606 45.1155 10.082 45.1155 10.642C45.1155 11.482 44.3875 12.056 43.5055 12.63C43.2255 12.056 43.0575 11.51 43.0575 11.006ZM43.6035 19.182C44.8495 19.182 45.8575 18.748 46.6695 18.048C47.5095 18.608 48.3635 19 49.1195 19.182L49.5395 17.866C48.9795 17.726 48.3215 17.418 47.6495 16.998C48.4615 15.92 49.0355 14.688 49.4275 13.358H47.9435C47.6355 14.464 47.1735 15.43 46.5715 16.214C45.6615 15.486 44.7655 14.576 44.1075 13.652C45.2415 12.84 46.3895 11.986 46.3895 10.628C46.3895 9.368 45.5775 8.5 44.2055 8.5C42.6935 8.5 41.6995 9.62 41.6995 11.02C41.6995 11.734 41.9515 12.532 42.3715 13.344C41.3215 14.044 40.3835 14.898 40.3835 16.312C40.3835 17.936 41.6295 19.182 43.6035 19.182ZM41.9235 16.214C41.9235 15.514 42.3995 14.968 43.0295 14.436C43.7295 15.444 44.6255 16.41 45.5775 17.222C45.0315 17.656 44.4295 17.922 43.7995 17.922C42.7355 17.922 41.9235 17.236 41.9235 16.214ZM50.8703 19H53.6283C56.7083 19 58.5143 17.152 58.5143 13.806C58.5143 10.446 56.7083 8.682 53.5443 8.682H50.8703V19ZM52.4943 17.67V10.012H53.4323C55.6443 10.012 56.8343 11.23 56.8343 13.806C56.8343 16.368 55.6443 17.67 53.4323 17.67H52.4943Z" fill="white"/>
<path fill-rule="evenodd" clip-rule="evenodd" d="M99 14.9143L89 0H206L216 14.9143L206 29H89L99 14.9143Z" fill="#828282"/>
<path d="M148.13 7.436H146.674V13.918H148.13V7.436ZM145.4 12.504C143.454 11.902 142.32 10.362 142.32 8.724V7.772H140.85V8.724C140.85 10.432 139.716 12.07 137.714 12.728L138.428 13.876C139.954 13.358 141.032 12.308 141.606 10.95C142.18 12.196 143.244 13.162 144.7 13.638L145.4 12.504ZM141.284 18.832V17.726H148.13V14.52H139.842V15.64H146.702V16.676H139.87V19.966H148.508V18.832H141.284ZM151.391 12.728C153.603 12.49 155.339 11.58 156.025 10.278C156.697 11.58 158.419 12.49 160.659 12.728L161.163 11.608C158.811 11.37 157.173 10.362 156.991 9.214H160.701V8.052H151.363V9.214H155.045C154.863 10.362 153.225 11.37 150.873 11.608L151.391 12.728ZM155.997 18.944C154.149 18.944 153.113 18.538 153.113 17.768C153.113 16.984 154.149 16.578 155.997 16.578C157.845 16.578 158.895 16.984 158.895 17.768C158.895 18.538 157.845 18.944 155.997 18.944ZM155.997 15.444C153.295 15.444 151.643 16.298 151.643 17.768C151.643 19.238 153.295 20.078 155.997 20.078C158.713 20.078 160.351 19.238 160.351 17.768C160.351 16.298 158.713 15.444 155.997 15.444ZM150.299 13.372V14.534H161.737V13.372H150.299Z" fill="white"/>
<path d="M253.292 8.458H251.836V10.544C251.836 12.91 250.604 15.346 248.63 16.312L249.54 17.46C250.982 16.718 252.018 15.248 252.578 13.456C253.124 15.15 254.146 16.536 255.574 17.25L256.428 16.088C254.496 15.192 253.292 12.896 253.292 10.544V8.458ZM257.758 7.408V11.566H255.056V12.742H257.758V20.092H259.214V7.408H257.758ZM270.259 7.422V20.106H271.715V7.422H270.259ZM261.985 8.472V17.096H268.061V8.472H266.619V11.692H263.413V8.472H261.985ZM263.413 12.84H266.619V15.934H263.413V12.84ZM284.874 13.61C282.382 13.162 280.352 11.216 280.352 9.2V8.248H278.826V9.2C278.826 11.202 276.796 13.148 274.304 13.61L274.92 14.8C276.978 14.38 278.756 13.064 279.582 11.328C280.408 13.064 282.186 14.38 284.244 14.8L284.874 13.61ZM273.912 17.264V18.454H285.364V17.264H273.912Z" fill="white"/>
<path d="M309.241 35.408V36.279H311.204V37.852H309.241V38.723H311.204V41.193H312.283V32.314H311.204V35.408H309.241ZM309.241 33.731H306.563V32.288H305.497V33.731H302.715V34.589H309.241V33.731ZM304.392 37.449C304.392 36.63 305.055 36.071 306.017 36.071C306.979 36.071 307.642 36.63 307.642 37.449C307.642 38.281 306.979 38.853 306.017 38.853C305.055 38.853 304.392 38.281 304.392 37.449ZM308.656 37.449C308.656 36.123 307.564 35.239 306.017 35.239C304.47 35.239 303.378 36.123 303.378 37.449C303.378 38.788 304.47 39.685 306.017 39.685C307.564 39.685 308.656 38.788 308.656 37.449ZM305.861 42.831V40.439H304.795V43.702H312.556V42.831H305.861ZM317.833 34.55H319.952V33.679H314.544V34.55H316.806V35.46C316.806 37.826 315.935 39.815 314.271 40.751L314.921 41.557C316.13 40.855 316.949 39.594 317.339 38.008C317.755 39.386 318.561 40.517 319.705 41.154L320.329 40.335C318.678 39.477 317.833 37.592 317.833 35.46V34.55ZM323.306 32.288V37.007H321.772V32.561H320.771V43.39H321.772V37.891H323.306V43.962H324.333V32.288H323.306Z" fill="#4F4F4F"/>
</svg>
