<svg width="45" height="43" viewBox="0 0 45 43" fill="none" xmlns="http://www.w3.org/2000/svg">
<g filter="url(#filter0_d)">
<rect x="4" y="4" width="37" height="35" rx="3" fill="white"/>
</g>
<path d="M23 18.3636C20.9909 18.3636 19.3636 19.9909 19.3636 22C19.3636 24.0091 20.9909 25.6364 23 25.6364C25.0091 25.6364 26.6364 24.0091 26.6364 22C26.6364 19.9909 25.0091 18.3636 23 18.3636ZM31.1273 21.0909C30.9214 19.2474 30.0947 17.5287 28.783 16.217C27.4713 14.9053 25.7526 14.0786 23.9091 13.8727V12.9091C23.9091 12.4091 23.5 12 23 12C22.5 12 22.0909 12.4091 22.0909 12.9091V13.8727C20.2474 14.0786 18.5287 14.9053 17.217 16.217C15.9053 17.5287 15.0786 19.2474 14.8727 21.0909H13.9091C13.4091 21.0909 13 21.5 13 22C13 22.5 13.4091 22.9091 13.9091 22.9091H14.8727C15.0786 24.7526 15.9053 26.4713 17.217 27.783C18.5287 29.0947 20.2474 29.9214 22.0909 30.1273V31.0909C22.0909 31.5909 22.5 32 23 32C23.5 32 23.9091 31.5909 23.9091 31.0909V30.1273C25.7526 29.9214 27.4713 29.0947 28.783 27.783C30.0947 26.4713 30.9214 24.7526 31.1273 22.9091H32.0909C32.5909 22.9091 33 22.5 33 22C33 21.5 32.5909 21.0909 32.0909 21.0909H31.1273V21.0909ZM23 28.3636C19.4818 28.3636 16.6364 25.5182 16.6364 22C16.6364 18.4818 19.4818 15.6364 23 15.6364C26.5182 15.6364 29.3636 18.4818 29.3636 22C29.3636 25.5182 26.5182 28.3636 23 28.3636Z" fill="#333333"/>
<defs>
<filter id="filter0_d" x="0" y="0" width="45" height="43" filterUnits="userSpaceOnUse" color-interpolation-filters="sRGB">
<feFlood flood-opacity="0" result="BackgroundImageFix"/>
<feColorMatrix in="SourceAlpha" type="matrix" values="0 0 0 0 0 0 0 0 0 0 0 0 0 0 0 0 0 0 127 0"/>
<feOffset/>
<feGaussianBlur stdDeviation="2"/>
<feColorMatrix type="matrix" values="0 0 0 0 0 0 0 0 0 0 0 0 0 0 0 0 0 0 0.2 0"/>
<feBlend mode="normal" in2="BackgroundImageFix" result="effect1_dropShadow"/>
<feBlend mode="normal" in="SourceGraphic" in2="effect1_dropShadow" result="shape"/>
</filter>
</defs>
</svg>
