<svg width="37" height="35" viewBox="0 0 37 35" fill="none" xmlns="http://www.w3.org/2000/svg">
<g clip-path="url(#clip0)">
<path d="M7.86 8.12274C7.86 8.12274 10.12 -0.425185 19 -0.000819663C26.9 0.362922 28.8 7.31442 28.8 7.31442C28.8 7.31442 36.26 9.39583 37 17.0546C37.04 18.7723 36.96 19.7827 36.96 20.3889C35.52 28.1689 29.36 28.6135 29.36 28.6135C29.36 28.6135 28.02 28.7752 27.02 28.755C25.16 28.6943 23.08 27.2798 23.08 27.2798L23.02 12.3866L20.86 13.8618L20.76 26.2896L19.22 25.9259V14.5286L17.12 15.9432L17.02 25.5015L15.58 25.4611L15.52 16.4686L13.26 17.7215C13.26 17.7215 13.3 25.0973 13.26 25.6025C10.9 25.8652 8.76 26.4513 5.52 29.0783C0.86 25.8854 0 20.0858 0 20.0858C0 20.0858 0 19.0148 0.04 17.6002C1.04 10.386 6.24 8.95126 7.14 8.95126C7.9 8.85022 8.94 8.7896 8.94 8.7896C8.94 8.7896 12.04 9.25438 12.9 11.1135C13.04 11.1741 13.16 11.0731 13.16 11.0731C13.16 11.0731 14.56 8.40565 17.96 7.88024C18.1 7.81962 18.06 7.47609 18.06 7.47609C18.06 7.47609 15.26 7.17297 13.26 9.0523C12.96 9.0523 13.16 9.0523 12.96 9.0523C11.26 7.79941 7.86 8.12274 7.86 8.12274Z" fill="#2E3990"/>
<path d="M6.56 30.5944C6.56 30.5944 8.62 26.3508 15.2 26.3104C21.76 26.2699 22.9 30.3519 27.74 30.1094C31.34 29.9074 32.78 28.6545 32.78 28.6545C32.78 28.6545 30.32 32.595 25.42 32.6354C20.52 32.6758 19.38 29.2001 14.76 28.9374C10.14 28.6747 6.56 30.5944 6.56 30.5944Z" fill="#12A64E"/>
<path d="M7.86002 31.0591C7.86002 31.0591 8.86002 29.9072 12.5 29.887C18 29.8466 19.84 33.7265 25.14 33.868C26.58 33.868 27.3 33.8276 27.3 33.8276C27.3 33.8276 24.46 34.9996 19.96 34.9996C12.36 34.9996 7.86002 31.0591 7.86002 31.0591Z" fill="#12A64E"/>
</g>
<defs>
<clipPath id="clip0">
<rect width="37" height="35" fill="white"/>
</clipPath>
</defs>
</svg>
