<svg width="48" height="36" viewBox="0 0 48 36" fill="none" xmlns="http://www.w3.org/2000/svg">
<path d="M34.5919 6.39626C32.9223 2.72982 29.1476 0.144096 24.732 0C24.6925 0 24.6529 0 24.6133 0C24.5342 0 24.4472 0 24.368 0C24.3601 0 24.3601 0 24.3522 0C24.3522 0 24.3443 0 24.3364 0C24.2493 0 24.1702 0 24.0832 0.00800534C24.0436 0.00800534 24.004 0.00800534 23.9645 0.00800534C19.541 0.144096 15.7742 2.73783 14.1046 6.40427H14.0966C14.0729 6.40427 14.0571 6.39626 14.0333 6.39626C13.5823 6.31621 13.1233 6.27618 12.6564 6.27618C8.43866 6.27618 4.9964 9.4463 4.80648 13.4169C4.59283 17.7078 8.26457 21.2702 12.7672 21.2702H15.5289C15.6002 21.2702 15.6635 21.2702 15.7268 21.2622H25.3255C26.5046 14.4817 31.1972 7.61308 34.5919 6.39626Z" fill="#3BBAE2"/>
<path d="M36.0479 6.27612C35.5573 6.27612 35.0746 6.32415 34.6077 6.40421H34.5998C30.4849 8.0373 26.2672 15.4903 25.3413 21.2701H29.472H32.9697C33.033 21.2781 33.1042 21.2781 33.1675 21.2781H35.9292C40.4319 21.2781 44.1036 17.7158 43.89 13.4249C43.7 9.43823 40.2578 6.27612 36.0479 6.27612Z" fill="#EF4460"/>
<path d="M12.0707 34.3669C12.0707 34.8312 11.6988 35.2075 11.2398 35.2075C10.7809 35.2075 10.4089 34.8312 10.4089 34.3669C10.4089 33.9106 10.7809 33.5264 11.2398 33.5264C11.6988 33.5264 12.0707 33.9106 12.0707 34.3669Z" fill="#3BBAE2"/>
<path d="M4.77477 34.1349H4.7352C4.50571 34.5031 4.21292 34.7673 3.85683 34.9354C3.50073 35.1035 3.11298 35.1836 2.69358 35.1836C2.40079 35.1836 2.11591 35.1435 1.83895 35.0635C1.56199 34.9834 1.30876 34.8633 1.09511 34.7032C0.881448 34.5431 0.707356 34.343 0.572831 34.1028C0.446219 33.8547 0.375 33.5745 0.375 33.2543C0.375 32.91 0.438306 32.6058 0.564918 32.3657C0.683617 32.1175 0.857708 31.9174 1.06345 31.7493C1.2692 31.5812 1.51451 31.4531 1.78356 31.357C2.06052 31.2609 2.3454 31.1889 2.63819 31.1329C2.93889 31.0848 3.23168 31.0528 3.53239 31.0368C3.83309 31.0208 4.11797 31.0208 4.3791 31.0208H4.60067C4.69563 31.0208 4.77477 30.9407 4.77477 30.8447C4.77477 30.4444 4.64024 30.1402 4.36328 29.9401C4.08631 29.7399 3.73813 29.6359 3.31873 29.6359C2.98637 29.6359 2.66984 29.6999 2.37705 29.82C2.13965 29.9241 1.926 30.0521 1.73608 30.2042C1.66486 30.2603 1.5699 30.2523 1.50659 30.1962L0.913101 29.5958C0.841882 29.5238 0.841882 29.4117 0.921014 29.3397C1.24546 29.0355 1.61738 28.8193 2.02887 28.6752C2.50366 28.5151 2.98637 28.4351 3.49282 28.4351C3.94387 28.4351 4.32371 28.4831 4.63233 28.5872C4.94094 28.6912 5.19417 28.8193 5.39991 28.9794C5.60566 29.1395 5.76392 29.3237 5.86679 29.5398C5.97758 29.7479 6.05671 29.9641 6.10419 30.1722C6.15167 30.3884 6.18332 30.5965 6.19124 30.7966C6.19915 30.9968 6.20706 31.1729 6.20706 31.325V34.8553C6.20706 34.9514 6.12793 35.0315 6.03297 35.0315H4.94886C4.8539 35.0315 4.77477 34.9514 4.77477 34.8553V34.1349ZM4.60859 32.3176C4.60859 32.2216 4.52945 32.1415 4.4345 32.1415H4.27623C4.05466 32.1415 3.80935 32.1495 3.53239 32.1735C3.25542 32.1896 3.0022 32.2296 2.75689 32.3016C2.51158 32.3657 2.30583 32.4697 2.13965 32.5978C1.97348 32.7259 1.88643 32.91 1.88643 33.1422C1.88643 33.2943 1.91808 33.4224 1.9893 33.5265C2.05261 33.6305 2.13965 33.7186 2.25044 33.7826C2.35331 33.8547 2.47992 33.9027 2.60654 33.9347C2.74106 33.9667 2.86767 33.9828 3.0022 33.9828C3.54821 33.9828 3.95179 33.8547 4.21292 33.5905C4.47406 33.3263 4.60067 32.9661 4.60067 32.5098V32.3176H4.60859Z" fill="#3BBAE2"/>
<path d="M7.42578 26.5858C7.42578 26.3297 7.52074 26.0975 7.71066 25.9054C7.90058 25.7133 8.13797 25.6172 8.43076 25.6172C8.72355 25.6172 8.96886 25.7133 9.1667 25.8894C9.36453 26.0735 9.4674 26.3056 9.4674 26.5778C9.4674 26.85 9.36453 27.0822 9.1667 27.2663C8.96886 27.4504 8.72355 27.5385 8.43076 27.5385C8.13797 27.5385 7.90058 27.4424 7.71066 27.2503C7.52074 27.0662 7.42578 26.842 7.42578 26.5858ZM7.64735 28.7713H9.23792V35.2076H7.64735V28.7713Z" fill="#3BBAE2"/>
<path d="M13.9225 35.1274V34.1507H17.3647V31.8372H18.5122V34.1507H21.9149V35.1274H13.9225ZM15.0699 28.2588H20.8228V32.3415H15.0699V28.2588ZM16.1619 31.4129H19.7229V29.1954H16.1619V31.4129Z" fill="#3BBAE2"/>
<path d="M23.3076 31.6452V27.8827H24.3759V28.8834H26.5362V27.8827H27.6045V31.6452H23.3076ZM24.2256 35.896V33.6626H29.0368V33.1262H24.1939V32.2216H30.1288V34.4311H25.3255V35.0075H30.3029V35.896H24.2256ZM24.3759 30.7566H26.5362V29.7479H24.3759V30.7566ZM29.021 27.6746H30.1368V31.9174H29.021V27.6746Z" fill="#3BBAE2"/>
<path d="M32.2416 34.4711V30.9167H35.2012V29.2996H32.21V28.355H36.2457V31.8373H33.2862V33.5105H33.4998C34.7422 33.5105 35.9925 33.4384 37.2428 33.2943V34.1749C36.491 34.279 35.6443 34.351 34.7105 34.399C33.7768 34.4471 33.0646 34.4631 32.5819 34.4631H32.2416V34.4711ZM37.7018 27.6746H38.8254V36.0001H37.7018V27.6746Z" fill="#3BBAE2"/>
<path d="M41.1598 34.383V28.4511H45.2905V29.3877H42.236V30.9247H45.1639V31.8534H42.236V33.4624H42.4576C43.5654 33.4624 44.6812 33.3904 45.8207 33.2383V34.1109C45.1243 34.2069 44.3409 34.279 43.4863 34.327C42.6237 34.375 41.9669 34.399 41.5159 34.399H41.1598V34.383ZM46.5012 27.6746H47.6249V36.0001H46.5012V27.6746Z" fill="#3BBAE2"/>
</svg>
