<svg width="41" height="23" viewBox="0 0 41 23" fill="none" xmlns="http://www.w3.org/2000/svg">
<g clip-path="url(#clip0)">
<path d="M13.7603 15.6946C15.7601 15.6946 17.3799 17.4371 17.3799 19.5844C17.3799 20.0213 17.3092 20.4412 17.1848 20.8341H23.8252C23.6856 20.4209 23.6049 19.9789 23.6049 19.5132C23.6049 17.3863 25.2095 15.6641 27.1875 15.6641C28.1563 15.6641 29.036 16.0773 29.6802 16.7496C30.3513 17.449 30.2134 18.4294 30.2134 19.5149C30.2134 19.9789 30.4068 20.4243 30.4304 20.8358H31.5287L36.1491 20.8493C36.4351 20.8019 40.7746 19.9857 40.7746 14.7073C40.7746 12.0063 38.7141 9.3324 35.9843 8.48739C35.0491 8.19951 34.0635 8.12669 33.103 8.27571L32.9618 8.29773L32.9786 8.15209C33.1249 6.83461 32.548 5.80671 31.3555 5.25804C31.0645 5.12426 30.7516 5.05652 30.4253 5.05652C29.5288 5.05652 28.6172 5.56624 28.1042 6.35538L27.904 6.66188L27.899 6.29441C27.8536 2.94653 24.3366 0.223511 20.0576 0.223511H20.0071C15.7332 0.245525 12.2936 2.88048 12.1792 6.22329L12.1758 6.34352L12.0564 6.32997C11.8865 6.31135 11.7066 6.30288 11.5232 6.30288C8.28541 6.30288 3.79956 8.84131 3.79956 13.6083C3.79956 18.6123 6.98019 20.514 7.27622 20.6783L10.3021 20.7291C10.1978 20.3667 10.1423 19.9823 10.1423 19.5827C10.1406 17.4354 11.7604 15.6946 13.7603 15.6946Z" fill="#00CFFF"/>
<path d="M17.1865 20.8341C17.163 20.9103 17.1377 20.9848 17.1091 21.0593H23.9077C23.8774 20.9865 23.8522 20.9103 23.827 20.8341H17.1865Z" fill="#C4C6C6"/>
<path d="M36.0516 8.27234C35.1316 7.98785 34.1611 7.90657 33.2124 8.03357C33.3133 6.68053 32.691 5.62723 31.4463 5.05485C31.1268 4.90752 30.782 4.83301 30.4237 4.83301C29.5575 4.83301 28.6778 5.27161 28.1059 5.97268C27.8503 2.6502 24.3215 0 20.0576 0H20.0055C15.6609 0.0220144 12.1557 2.68915 11.9606 6.0963C11.8193 6.08445 11.6713 6.07937 11.5216 6.07937C9.82446 6.07937 7.85486 6.79568 6.38313 7.9489C5.10146 8.9531 3.57422 10.7498 3.57422 13.61C3.57422 18.968 7.15852 20.8731 7.19384 20.8917L7.21739 20.9035L10.3762 20.956C10.3492 20.8815 10.3223 20.807 10.3005 20.7308L7.27458 20.68C6.97855 20.5141 3.79792 18.614 3.79792 13.61C3.79792 8.84303 8.28377 6.30459 11.5216 6.30459C11.7066 6.30459 11.8849 6.31306 12.0548 6.33169L12.1742 6.34524L12.1776 6.225C12.2919 2.8822 15.7316 0.247239 20.0055 0.226918H20.056C24.3349 0.226918 27.8519 2.94993 27.8974 6.29782L27.9024 6.66529L28.1026 6.35878C28.6156 5.56965 29.5272 5.05993 30.4237 5.05993C30.75 5.05993 31.0629 5.12767 31.3538 5.26145C32.5464 5.81012 33.1233 6.83802 32.9769 8.1555L32.9601 8.30113L33.1048 8.27912C34.0635 8.1301 35.0508 8.20291 35.986 8.4908C38.7159 9.33581 40.7763 12.008 40.7763 14.7107C40.7763 19.9891 36.4368 20.8053 36.1508 20.8527L31.5304 20.8392H30.4321C30.4372 20.9154 30.4338 20.9899 30.4254 21.0644H31.5304L36.1593 21.078H36.1677L36.1761 21.0763C36.2249 21.0678 40.9983 20.2482 40.9983 14.7107C41 11.9098 38.8723 9.14445 36.0516 8.27234Z" fill="#C4C6C6"/>
<path d="M6.68757 8.35025C6.55974 8.2622 6.4134 8.19107 6.25025 8.14196C6.09551 8.09455 5.93909 8.05221 5.7793 8.01157C5.66492 7.98448 5.55391 7.95399 5.44795 7.92182C5.35039 7.89134 5.26293 7.85408 5.1906 7.80836C5.12332 7.76772 5.07118 7.71353 5.0325 7.65087C4.99549 7.5916 4.97699 7.51032 4.97699 7.4121C4.97699 7.31896 4.99213 7.23429 5.0224 7.16147C5.05268 7.08866 5.09641 7.02939 5.15696 6.97858C5.22088 6.92609 5.30161 6.88545 5.39917 6.85666C5.50177 6.82618 5.62455 6.81094 5.76752 6.81094C5.96095 6.81263 6.14597 6.83464 6.31585 6.87867C6.48909 6.92101 6.65729 6.97859 6.81876 7.04632L6.9735 7.11237V6.4079L6.90623 6.37911C6.74476 6.30968 6.56646 6.25211 6.37304 6.20977C6.00468 6.12849 5.55055 6.11494 5.17715 6.21824C4.99717 6.26904 4.83402 6.34694 4.69442 6.45363C4.55313 6.562 4.43876 6.69917 4.35634 6.86343C4.27392 7.02769 4.23187 7.22582 4.23187 7.44936C4.23187 7.66781 4.27224 7.85239 4.35466 7.99633C4.43371 8.13858 4.54136 8.25712 4.67423 8.34856C4.80206 8.43662 4.94672 8.50435 5.10819 8.55346C5.26125 8.59919 5.41935 8.64152 5.57746 8.67878C5.6952 8.70756 5.80621 8.73635 5.91217 8.76853C6.01141 8.79901 6.09719 8.83626 6.1712 8.88368C6.24016 8.92602 6.29398 8.9802 6.33435 9.04455C6.37304 9.10552 6.39154 9.1868 6.39154 9.28671C6.39154 9.41541 6.36799 9.52041 6.32258 9.60169C6.27548 9.68467 6.21325 9.74732 6.13251 9.79474C6.04673 9.84554 5.94581 9.8811 5.82976 9.90312C5.63296 9.94037 5.42776 9.95053 5.18051 9.92005C5.08464 9.9082 4.99045 9.89126 4.89626 9.87094C4.80375 9.85062 4.71124 9.82522 4.62546 9.79643C4.53968 9.76764 4.4623 9.73547 4.39502 9.7016L4.23355 9.62032V10.3197L4.28738 10.3519C4.3412 10.384 4.41016 10.4162 4.49931 10.4467C4.58341 10.4772 4.67928 10.5043 4.78356 10.5263C4.88616 10.55 4.99717 10.5686 5.10987 10.5822C5.22256 10.5957 5.33694 10.6025 5.44626 10.6025C5.68174 10.6025 5.90376 10.5771 6.10392 10.528C6.30912 10.4772 6.48909 10.3976 6.64047 10.2909C6.79521 10.1825 6.918 10.042 7.00546 9.87264C7.09293 9.70329 7.13666 9.50178 7.13666 9.27317C7.13666 9.04794 7.09461 8.85659 7.01219 8.70756C6.92809 8.56362 6.81876 8.4417 6.68757 8.35025Z" fill="#5A5F60"/>
<path d="M10.0852 7.70673C9.95902 7.57465 9.81101 7.47812 9.64449 7.41716C9.3636 7.31555 9.04234 7.29693 8.78332 7.38329C8.67735 7.41885 8.58484 7.46119 8.50747 7.5086C8.44019 7.55094 8.38469 7.59158 8.33927 7.63053L8.27031 7.40531H7.72198V11.9487H8.40655V10.3925C8.47047 10.4399 8.53775 10.4789 8.60839 10.5093C8.82032 10.6042 9.08776 10.6414 9.4107 10.572C9.51666 10.5483 9.62094 10.5093 9.72186 10.4585C9.82278 10.4077 9.92202 10.3383 10.0162 10.2536C10.1121 10.1673 10.1962 10.0606 10.2668 9.93358C10.3358 9.80996 10.393 9.66263 10.435 9.49837C10.4771 9.33411 10.4973 9.14444 10.4973 8.93446C10.4973 8.65335 10.4603 8.4095 10.3862 8.20968C10.3122 8.00647 10.2113 7.83713 10.0852 7.70673ZM9.7841 8.93954C9.7841 9.15461 9.75887 9.33241 9.70841 9.46789C9.65963 9.60167 9.5974 9.70666 9.52507 9.78117C9.45275 9.85399 9.37537 9.90648 9.29296 9.93358C9.05916 10.0132 8.85901 9.98269 8.6824 9.89971C8.58148 9.85229 8.48897 9.78964 8.40655 9.71343V8.28419C8.42842 8.25879 8.45533 8.23 8.48561 8.19782C8.52597 8.15718 8.57643 8.11823 8.63362 8.08267C8.69081 8.04711 8.75472 8.01663 8.82705 7.99292C8.9902 7.93873 9.21895 7.95059 9.37033 8.0234C9.45947 8.06743 9.5318 8.1267 9.59235 8.20799C9.65458 8.29096 9.70168 8.39426 9.73364 8.5128C9.76896 8.63811 9.7841 8.78036 9.7841 8.93954Z" fill="#5A5F60"/>
<path d="M12.6586 7.33076C12.5056 7.3223 12.3727 7.33923 12.2432 7.37479C12.1338 7.40527 12.0312 7.44761 11.9387 7.5001C11.8462 7.5526 11.7621 7.61695 11.6881 7.68638C11.6747 7.69993 11.6612 7.71178 11.6494 7.72533L11.5855 7.40358H11.0187V10.5279H11.7117V8.4281C11.752 8.36713 11.8025 8.31294 11.8597 8.26553C11.9269 8.21134 12.0043 8.16392 12.0901 8.12667C12.1759 8.08772 12.2701 8.05893 12.3676 8.0403C12.4685 8.02168 12.5711 8.01152 12.6737 8.01152H12.8218V7.34431L12.7242 7.33246C12.704 7.33246 12.6822 7.33076 12.6586 7.33076Z" fill="#5A5F60"/>
<path d="M13.8208 7.40369H13.1279V10.528H13.8208V7.40369Z" fill="#5A5F60"/>
<path d="M13.8091 6.20129H13.1161V6.95317H13.8091V6.20129Z" fill="#5A5F60"/>
<path d="M16.8148 7.59155C16.7172 7.49841 16.6029 7.43068 16.4717 7.38834C16.2396 7.31383 15.9553 7.31044 15.7333 7.36802C15.6307 7.39511 15.5348 7.43237 15.4473 7.47978C15.3616 7.5272 15.2825 7.58308 15.2119 7.64743C15.1967 7.66098 15.1816 7.67622 15.1664 7.68977L15.1009 7.40189H14.5357V10.5262H15.2287V8.39254C15.3246 8.26045 15.4372 8.15546 15.5651 8.07925C15.6996 7.99797 15.8359 7.95902 15.9788 7.95902C16.1302 7.95902 16.2412 7.99966 16.3152 8.08603C16.3926 8.17409 16.4313 8.33157 16.4313 8.55172V10.5279H17.1243V8.47551C17.1243 8.27061 17.0974 8.09449 17.0435 7.95225C16.988 7.80492 16.9123 7.68299 16.8148 7.59155Z" fill="#5A5F60"/>
<path d="M19.8709 7.4036L19.807 7.62205C19.7683 7.58479 19.7229 7.54754 19.6691 7.51028C19.5934 7.45948 19.5043 7.41545 19.4016 7.38158C19.299 7.34771 19.1779 7.32909 19.04 7.32739C18.8617 7.32739 18.6885 7.36295 18.522 7.43238C18.3538 7.50181 18.2041 7.61019 18.0729 7.75075C17.9434 7.8913 17.8391 8.06911 17.7634 8.28079C17.686 8.49077 17.6473 8.7414 17.6473 9.0225C17.6473 9.22741 17.6692 9.4103 17.7096 9.56778C17.7516 9.72697 17.8088 9.86583 17.8778 9.98267C17.9484 10.1012 18.0325 10.2028 18.125 10.2824C18.2175 10.3603 18.3151 10.4247 18.416 10.4721C18.5169 10.5195 18.6195 10.5534 18.7204 10.5737C19.0383 10.6363 19.2957 10.5991 19.5143 10.5076C19.59 10.4755 19.6607 10.4348 19.728 10.3874V10.533C19.728 10.8277 19.6523 11.0377 19.4958 11.1748C19.3377 11.3137 19.1023 11.3848 18.7928 11.3848C18.7087 11.3848 18.633 11.3814 18.564 11.3764C18.4967 11.3696 18.4295 11.3611 18.3655 11.3493C18.2999 11.3374 18.2377 11.3205 18.1755 11.3035C18.1149 11.2849 18.051 11.2629 17.9871 11.2358L17.8324 11.1715V11.8065L17.8912 11.8387C17.9854 11.8912 18.1116 11.9335 18.2714 11.9707C18.4278 12.0063 18.6078 12.0232 18.8045 12.0232C19.0383 12.0232 19.2553 11.9945 19.4504 11.9386C19.6489 11.881 19.8221 11.7912 19.9651 11.671C20.1098 11.5508 20.2225 11.3984 20.3015 11.2172C20.3806 11.0377 20.4209 10.826 20.4209 10.5872V7.4036H19.8709ZM19.728 8.28079V9.71342C19.6489 9.78962 19.5564 9.85228 19.4572 9.89969C19.2772 9.98267 19.0787 10.0081 18.8449 9.93864C18.7625 9.91493 18.6868 9.86752 18.6162 9.79978C18.5438 9.73205 18.4833 9.63213 18.4362 9.50343C18.3857 9.37304 18.3622 9.19693 18.3622 8.98525C18.3622 8.82776 18.379 8.68043 18.4126 8.55173C18.4446 8.42642 18.4934 8.31804 18.5573 8.22998C18.6178 8.14531 18.6952 8.07758 18.786 8.03016C18.8752 7.98274 18.9828 7.95904 19.1023 7.95904C19.1813 7.95904 19.257 7.97089 19.3226 7.9946C19.3932 8.01831 19.4555 8.04879 19.5093 8.08435C19.5631 8.11991 19.6119 8.15886 19.6523 8.1995C19.6809 8.22829 19.7061 8.25539 19.728 8.28079Z" fill="#5A5F60"/>
<path d="M13.7603 16.1704C12.0211 16.1704 10.6049 17.703 10.6049 19.586C10.6049 21.4691 12.0211 23.0017 13.7603 23.0017C15.4995 23.0017 16.9157 21.4691 16.9157 19.586C16.9157 17.7013 15.4995 16.1704 13.7603 16.1704ZM13.7603 22.1008C12.5106 22.1008 11.4981 20.9746 11.4981 19.5843C11.4981 18.194 12.5106 17.0679 13.7603 17.0679C15.01 17.0679 16.0226 18.194 16.0226 19.5843C16.0226 20.9746 15.01 22.1008 13.7603 22.1008Z" fill="#5A5F60"/>
<path d="M6.18296 21.4878C6.03327 21.5234 5.87853 21.5555 5.71874 21.5826C5.56231 21.6097 5.40253 21.63 5.24778 21.6453C5.09304 21.6605 4.94503 21.6673 4.8071 21.6673C4.30083 21.6673 3.8366 21.5996 3.4262 21.4675C3.02084 21.3371 2.6693 21.1322 2.38337 20.8612C2.09743 20.5903 1.87204 20.2431 1.71562 19.8266C1.55751 19.4083 1.47846 18.9053 1.47846 18.3313C1.47846 17.7538 1.56424 17.2441 1.73412 16.8123C1.904 16.3821 2.1378 16.0181 2.43046 15.7302C2.72313 15.4423 3.07298 15.2222 3.46993 15.0765C4.13095 14.8344 4.91643 14.7988 5.66996 14.941C5.96935 14.9969 6.24856 15.0681 6.50086 15.1527L6.64719 15.2018V14.0503L6.57991 14.0215C6.47899 13.9775 6.35621 13.9352 6.21492 13.8945C6.077 13.8556 5.92394 13.8217 5.76079 13.7929C5.59932 13.7641 5.42775 13.7438 5.25115 13.7286C5.07454 13.7133 4.89457 13.7065 4.71291 13.7065C4.02666 13.7065 3.39928 13.8217 2.84591 14.052C2.29254 14.2806 1.81486 14.6057 1.42632 15.0172C1.03778 15.4287 0.735024 15.9266 0.529822 16.499C0.32462 17.068 0.220337 17.6996 0.220337 18.377C0.220337 19.0662 0.319574 19.6928 0.513002 20.2381C0.708112 20.7884 1.00078 21.2592 1.38259 21.6419C1.7644 22.0229 2.24208 22.321 2.80218 22.5242C3.35892 22.7257 4.0048 22.829 4.72469 22.829C5.0779 22.829 5.42607 22.8019 5.76079 22.7477C6.09887 22.6935 6.39994 22.6139 6.6556 22.514L6.72625 22.4869V21.3286L6.57823 21.3811C6.46386 21.415 6.3293 21.4522 6.18296 21.4878Z" fill="#5A5F60"/>
<path d="M9.37029 13.1561H8.16095V22.6613H9.37029V13.1561Z" fill="#5A5F60"/>
<path d="M21.9869 20.1906C21.9869 20.4836 21.9532 20.7325 21.886 20.9273C21.7968 21.1779 21.6471 21.3794 21.4402 21.5267C21.2334 21.6741 20.9525 21.7486 20.6043 21.7486C20.2746 21.7486 20.0038 21.6808 19.7953 21.5454C19.5867 21.4099 19.4387 21.2287 19.3462 20.9933C19.2621 20.7816 19.22 20.5107 19.22 20.1889V16.3483H18.0107V20.1974C18.0107 20.4192 18.0241 20.6258 18.0494 20.8155C18.0763 21.0069 18.1217 21.1864 18.1822 21.3455C18.263 21.5606 18.3723 21.7604 18.5102 21.9416C18.6498 22.1245 18.8197 22.2837 19.0182 22.4124C19.2167 22.5428 19.4488 22.6444 19.7095 22.7155C19.9685 22.7866 20.2629 22.8222 20.5858 22.8222C20.9171 22.8222 21.2199 22.7849 21.484 22.7121C21.7497 22.6393 21.9886 22.5343 22.1938 22.4005C22.399 22.2651 22.5739 22.1025 22.7152 21.9162C22.8548 21.7316 22.9658 21.5267 23.0465 21.3049C23.0987 21.1491 23.1391 20.9781 23.1626 20.7935C23.1861 20.6123 23.1979 20.4142 23.1979 20.2059V16.3483H21.9886V20.1906H21.9869Z" fill="#5A5F60"/>
<path d="M29.2463 13.1561V16.7936C29.0445 16.6209 28.8208 16.482 28.5803 16.3821C28.4844 16.3414 28.3818 16.3093 28.2742 16.2788C27.9512 16.1586 27.6064 16.0891 27.2465 16.0891C25.5073 16.0891 24.0911 17.6217 24.0911 19.5048C24.0911 21.3878 25.5073 22.9187 27.2465 22.9187C27.6518 22.9187 28.0404 22.8323 28.3969 22.6799C28.5197 22.6393 28.6375 22.5935 28.7401 22.5377C28.8982 22.453 29.0378 22.3565 29.1538 22.2498C29.2228 22.1871 29.2867 22.1262 29.3456 22.0635L29.5407 22.6596H30.5465V13.1561H29.2463Z" fill="#5A5F60"/>
<path d="M27.2078 16.9884C25.958 16.9884 24.9455 18.1145 24.9455 19.5048C24.9455 20.8951 25.958 22.0212 27.2078 22.0212C28.4575 22.0212 29.47 20.8951 29.47 19.5048C29.47 18.1145 28.4575 16.9884 27.2078 16.9884Z" fill="#00CFFF"/>
<path d="M13.7603 17.068C12.5106 17.068 11.498 18.1941 11.498 19.5844C11.498 20.9747 12.5106 22.1008 13.7603 22.1008C15.01 22.1008 16.0226 20.9747 16.0226 19.5844C16.0226 18.1941 15.01 17.068 13.7603 17.068Z" fill="#00CFFF"/>
</g>
<defs>
<clipPath id="clip0">
<rect width="41" height="23" fill="white"/>
</clipPath>
</defs>
</svg>
