<svg width="116" height="76" viewBox="0 0 116 76" fill="none" xmlns="http://www.w3.org/2000/svg">
<path d="M16.63 67.0001H15.35C7.94 67.0001 1.87 60.7501 1.87 53.1001" fill="white"/>
<path d="M16.63 67.0001H15.35C7.94 67.0001 1.87 60.7501 1.87 53.1001" stroke="#828282" stroke-width="0.5" stroke-miterlimit="10" stroke-linecap="round" stroke-linejoin="round"/>
<path d="M83.86 67H34H83.86Z" fill="white"/>
<path d="M83.86 67H34" stroke="#828282" stroke-width="0.5" stroke-miterlimit="10" stroke-linecap="round" stroke-linejoin="round"/>
<path d="M114.77 53.1101C114.77 60.7501 108.78 67.0101 101.46 67.0101H101.11" fill="white"/>
<path d="M114.77 53.1101C114.77 60.7501 108.78 67.0101 101.46 67.0101H101.11" stroke="#828282" stroke-width="0.5" stroke-miterlimit="10" stroke-linecap="round" stroke-linejoin="round"/>
<path d="M1.87 52.23L3.07 16.34C3.07 8.85999 9.10999 2.73999 16.49 2.73999H100.14C107.52 2.73999 113.57 8.85999 113.57 16.34L114.77 52.24" fill="white"/>
<path d="M1.87 52.23L3.07 16.34C3.07 8.85999 9.10999 2.73999 16.49 2.73999H100.14C107.52 2.73999 113.57 8.85999 113.57 16.34L114.77 52.24" stroke="#828282" stroke-width="0.5" stroke-miterlimit="10" stroke-linecap="round" stroke-linejoin="round"/>
<path d="M4.46997 11.4199H112.16H4.46997Z" fill="white"/>
<path d="M4.46997 11.4199H112.16" stroke="#828282" stroke-width="0.5" stroke-miterlimit="10" stroke-linecap="round" stroke-linejoin="round"/>
<path d="M92.5 75.3201C97.19 75.3201 101 71.5101 101 66.8201C101 62.1301 97.19 58.3201 92.5 58.3201C87.81 58.3201 84 62.1301 84 66.8201C84 71.5101 87.81 75.3201 92.5 75.3201Z" fill="white" stroke="#828282" stroke-width="0.5" stroke-miterlimit="10" stroke-linecap="round" stroke-linejoin="round"/>
<path d="M15.76 52.24H1V53.11H15.76V52.24Z" fill="white" stroke="#828282" stroke-width="0.5" stroke-miterlimit="10" stroke-linecap="round" stroke-linejoin="round"/>
<path d="M115.64 52.24H100.88V53.11H115.64V52.24Z" fill="white" stroke="#828282" stroke-width="0.5" stroke-miterlimit="10" stroke-linecap="round" stroke-linejoin="round"/>
<path d="M27.05 46.1599H21.84V47.0299H27.05V46.1599Z" fill="white" stroke="#828282" stroke-width="0.5" stroke-miterlimit="10" stroke-linecap="round" stroke-linejoin="round"/>
<path d="M94.79 46.1599H89.58V47.0299H94.79V46.1599Z" fill="white" stroke="#828282" stroke-width="0.5" stroke-miterlimit="10" stroke-linecap="round" stroke-linejoin="round"/>
<path d="M2.73999 40.0801H39.21H2.73999Z" fill="white"/>
<path d="M2.73999 40.0801H39.21" stroke="#828282" stroke-width="0.5" stroke-miterlimit="10" stroke-linecap="round" stroke-linejoin="round"/>
<path d="M77.42 40.0801H113.89H77.42Z" fill="white"/>
<path d="M77.42 40.0801H113.89" stroke="#828282" stroke-width="0.5" stroke-miterlimit="10" stroke-linecap="round" stroke-linejoin="round"/>
<path d="M27.92 1H21.84V2.74H27.92V1Z" fill="white" stroke="#828282" stroke-width="0.5" stroke-miterlimit="10" stroke-linecap="round" stroke-linejoin="round"/>
<path d="M94.79 1H89.58V2.74H94.79V1Z" fill="white" stroke="#828282" stroke-width="0.5" stroke-miterlimit="10" stroke-linecap="round" stroke-linejoin="round"/>
<path d="M8.82002 11.4199H6.21002V40.0799H8.82002V11.4199Z" fill="white" stroke="#828282" stroke-width="0.5" stroke-miterlimit="10" stroke-linecap="round" stroke-linejoin="round"/>
<path d="M110.43 11.4199H107.82V40.0799H110.43V11.4199Z" fill="white" stroke="#828282" stroke-width="0.5" stroke-miterlimit="10" stroke-linecap="round" stroke-linejoin="round"/>
<path d="M92.5 71.5801C95.13 71.5801 97.26 69.4501 97.26 66.8201C97.26 64.1901 95.13 62.0601 92.5 62.0601C89.87 62.0601 87.74 64.1901 87.74 66.8201C87.74 69.4501 89.87 71.5801 92.5 71.5801Z" fill="white" stroke="#828282" stroke-width="0.5" stroke-miterlimit="10" stroke-linecap="round" stroke-linejoin="round"/>
<path d="M25.32 75.3201C30.01 75.3201 33.82 71.5101 33.82 66.8201C33.82 62.1301 30.01 58.3201 25.32 58.3201C20.63 58.3201 16.82 62.1301 16.82 66.8201C16.82 71.5101 20.62 75.3201 25.32 75.3201Z" fill="white" stroke="#828282" stroke-width="0.5" stroke-miterlimit="10" stroke-linecap="round" stroke-linejoin="round"/>
<path d="M25.32 71.5801C27.95 71.5801 30.08 69.4501 30.08 66.8201C30.08 64.1901 27.95 62.0601 25.32 62.0601C22.69 62.0601 20.56 64.1901 20.56 66.8201C20.56 69.4501 22.69 71.5801 25.32 71.5801Z" fill="white" stroke="#828282" stroke-width="0.5" stroke-miterlimit="10" stroke-linecap="round" stroke-linejoin="round"/>
<path d="M59.4113 4H37.5513V67.87H59.4113V4Z" fill="white" stroke="#BDBDBD" stroke-miterlimit="10" stroke-linecap="round" stroke-linejoin="round"/>
<path d="M59.4113 37.3999H37.5513V67.8699H59.4113V37.3999Z" fill="white" stroke="#BDBDBD" stroke-miterlimit="10" stroke-linecap="round" stroke-linejoin="round"/>
<path d="M57.1313 5.95996H39.8213V35.94H57.1313V5.95996Z" fill="white" stroke="#BDBDBD" stroke-miterlimit="10" stroke-linecap="round" stroke-linejoin="round"/>
<path d="M81.4213 4H59.5613V67.87H81.4213V4Z" fill="white" stroke="#BDBDBD" stroke-miterlimit="10" stroke-linecap="round" stroke-linejoin="round"/>
<path d="M81.4213 37.3999H59.5613V67.8699H81.4213V37.3999Z" fill="white" stroke="#BDBDBD" stroke-miterlimit="10" stroke-linecap="round" stroke-linejoin="round"/>
<path d="M79.1413 5.95996H61.8313V35.94H79.1413V5.95996Z" fill="white" stroke="#BDBDBD" stroke-miterlimit="10" stroke-linecap="round" stroke-linejoin="round"/>
<rect x="29.5" y="46.5326" width="57.0425" height="16.9071" rx="0.5" fill="white" stroke="#BDBDBD"/>
<path d="M43.6783 56.2227C43.5923 57.1328 43.2564 57.8438 42.6705 58.3555C42.0845 58.8633 41.3052 59.1172 40.3326 59.1172C39.6529 59.1172 39.0533 58.957 38.5338 58.6367C38.0181 58.3125 37.6197 57.8535 37.3384 57.2598C37.0572 56.666 36.9107 55.9766 36.899 55.1914V54.3945C36.899 53.5898 37.0416 52.8809 37.3267 52.2676C37.6119 51.6543 38.0201 51.1816 38.5513 50.8496C39.0865 50.5176 39.7037 50.3516 40.4029 50.3516C41.3443 50.3516 42.1021 50.6074 42.6763 51.1191C43.2505 51.6309 43.5845 52.3535 43.6783 53.2871H42.2017C42.1314 52.6738 41.9517 52.2324 41.6627 51.9629C41.3775 51.6895 40.9576 51.5527 40.4029 51.5527C39.7584 51.5527 39.2623 51.7891 38.9146 52.2617C38.5709 52.7305 38.3951 53.4199 38.3873 54.3301V55.0859C38.3873 56.0078 38.5513 56.7109 38.8795 57.1953C39.2115 57.6797 39.6959 57.9219 40.3326 57.9219C40.9146 57.9219 41.3521 57.791 41.6451 57.5293C41.938 57.2676 42.1236 56.832 42.2017 56.2227H43.6783ZM46.4908 57.8164H50.3638V59H45.0084V50.4688H46.4908V57.8164ZM57.9341 54.957C57.9341 55.793 57.7896 56.5273 57.5005 57.1602C57.2115 57.7891 56.7974 58.2734 56.2584 58.6133C55.7232 58.9492 55.106 59.1172 54.4068 59.1172C53.7154 59.1172 53.0982 58.9492 52.5552 58.6133C52.0162 58.2734 51.5982 57.791 51.3013 57.166C51.0084 56.541 50.8599 55.8203 50.856 55.0039V54.5234C50.856 53.6914 51.0025 52.957 51.2955 52.3203C51.5923 51.6836 52.0084 51.1973 52.5435 50.8613C53.0826 50.5215 53.6998 50.3516 54.3951 50.3516C55.0904 50.3516 55.7056 50.5195 56.2408 50.8555C56.7798 51.1875 57.1959 51.668 57.4888 52.2969C57.7818 52.9219 57.9302 53.6504 57.9341 54.4824V54.957ZM56.4517 54.5117C56.4517 53.5664 56.272 52.8418 55.9127 52.3379C55.5572 51.834 55.0513 51.582 54.3951 51.582C53.7545 51.582 53.2525 51.834 52.8892 52.3379C52.5298 52.8379 52.3463 53.5469 52.3384 54.4648V54.957C52.3384 55.8945 52.5201 56.6191 52.8834 57.1309C53.2505 57.6426 53.7584 57.8984 54.4068 57.8984C55.063 57.8984 55.567 57.6484 55.9185 57.1484C56.274 56.6484 56.4517 55.918 56.4517 54.957V54.5117ZM63.8697 56.8027C63.8697 56.4277 63.7369 56.1387 63.4713 55.9355C63.2095 55.7324 62.7349 55.5273 62.0474 55.3203C61.3599 55.1133 60.813 54.8828 60.4068 54.6289C59.6295 54.1406 59.2408 53.5039 59.2408 52.7188C59.2408 52.0312 59.5201 51.4648 60.0787 51.0195C60.6412 50.5742 61.3697 50.3516 62.2642 50.3516C62.858 50.3516 63.3873 50.4609 63.8521 50.6797C64.317 50.8984 64.6822 51.2109 64.9478 51.6172C65.2134 52.0195 65.3463 52.4668 65.3463 52.959H63.8697C63.8697 52.5137 63.7291 52.166 63.4478 51.916C63.1705 51.6621 62.772 51.5352 62.2525 51.5352C61.7681 51.5352 61.3912 51.6387 61.1216 51.8457C60.856 52.0527 60.7232 52.3418 60.7232 52.7129C60.7232 53.0254 60.8677 53.2871 61.1568 53.498C61.4459 53.7051 61.9224 53.9082 62.5865 54.1074C63.2505 54.3027 63.7838 54.5273 64.1861 54.7812C64.5884 55.0312 64.8834 55.3203 65.0709 55.6484C65.2584 55.9727 65.3521 56.3535 65.3521 56.791C65.3521 57.502 65.0787 58.0684 64.5318 58.4902C63.9888 58.9082 63.2505 59.1172 62.317 59.1172C61.6998 59.1172 61.1314 59.0039 60.6119 58.7773C60.0963 58.5469 59.6939 58.2305 59.4048 57.8281C59.1197 57.4258 58.9771 56.957 58.9771 56.4219H60.4595C60.4595 56.9062 60.6197 57.2812 60.94 57.5469C61.2603 57.8125 61.7193 57.9453 62.317 57.9453C62.8326 57.9453 63.2193 57.8418 63.4771 57.6348C63.7388 57.4238 63.8697 57.1465 63.8697 56.8027ZM71.6392 55.1914H68.1353V57.8164H72.231V59H66.6529V50.4688H72.19V51.6641H68.1353V54.0195H71.6392V55.1914ZM73.438 59V50.4688H75.9576C76.7115 50.4688 77.3795 50.6367 77.9615 50.9727C78.5474 51.3086 79.0005 51.7852 79.3209 52.4023C79.6412 53.0195 79.8013 53.7266 79.8013 54.5234V54.9512C79.8013 55.7598 79.6392 56.4707 79.315 57.084C78.9947 57.6973 78.5357 58.1699 77.938 58.502C77.3443 58.834 76.6627 59 75.8931 59H73.438ZM74.9205 51.6641V57.8164H75.8873C76.6646 57.8164 77.2603 57.5742 77.6744 57.0898C78.0923 56.6016 78.3052 55.9023 78.313 54.9922V54.5176C78.313 53.5918 78.1119 52.8848 77.7095 52.3965C77.3072 51.9082 76.7232 51.6641 75.9576 51.6641H74.9205Z" fill="#BDBDBD"/>
</svg>
