<svg width="170" height="111" viewBox="0 0 170 111" fill="none" xmlns="http://www.w3.org/2000/svg">
<path d="M24.0164 97.8478H22.1602C11.4043 97.8478 2.59241 89.0221 2.59241 78.2275" stroke="#BDBDBD" stroke-miterlimit="10" stroke-linecap="round" stroke-linejoin="round"/>
<path d="M123.282 97.8477H47.5604" stroke="#BDBDBD" stroke-miterlimit="10" stroke-linecap="round" stroke-linejoin="round"/>
<path d="M167.253 78.2275C167.253 89.0123 158.451 97.8478 147.685 97.8478H146.826" stroke="#BDBDBD" stroke-miterlimit="10" stroke-linecap="round" stroke-linejoin="round"/>
<path d="M2.67053 75.9938L4.41923 24.215C4.41923 13.4204 13.2213 4.59473 23.9773 4.59473H145.868C156.624 4.59473 165.436 13.4204 165.436 24.215L167.185 76.0036" stroke="#BDBDBD" stroke-miterlimit="10" stroke-linecap="round" stroke-linejoin="round"/>
<path d="M5.99207 16.5256H163.863" stroke="#BDBDBD" stroke-miterlimit="10" stroke-linecap="round" stroke-linejoin="round"/>
<path d="M35.7884 109.651C42.2899 109.651 47.5604 104.367 47.5604 97.8477C47.5604 91.3288 42.2899 86.0442 35.7884 86.0442C29.287 86.0442 24.0165 91.3288 24.0165 97.8477C24.0165 104.367 29.287 109.651 35.7884 109.651Z" stroke="#BDBDBD" stroke-miterlimit="10" stroke-linecap="round" stroke-linejoin="round"/>
<path d="M35.7883 105.331C39.9104 105.331 43.252 101.981 43.252 97.8477C43.252 93.7146 39.9104 90.364 35.7883 90.364C31.6662 90.364 28.3246 93.7146 28.3246 97.8477C28.3246 101.981 31.6662 105.331 35.7883 105.331Z" stroke="#BDBDBD" stroke-miterlimit="10" stroke-linecap="round" stroke-linejoin="round"/>
<path d="M135.054 105.331C139.176 105.331 142.518 101.981 142.518 97.8477C142.518 93.7146 139.176 90.364 135.054 90.364C130.932 90.364 127.59 93.7146 127.59 97.8477C127.59 101.981 130.932 105.331 135.054 105.331Z" stroke="#BDBDBD" stroke-miterlimit="10" stroke-linecap="round" stroke-linejoin="round"/>
<path d="M135.054 109.651C141.555 109.651 146.826 104.367 146.826 97.8477C146.826 91.3288 141.555 86.0442 135.054 86.0442C128.552 86.0442 123.282 91.3288 123.282 97.8477C123.282 104.367 128.552 109.651 135.054 109.651Z" stroke="#BDBDBD" stroke-miterlimit="10" stroke-linecap="round" stroke-linejoin="round"/>
<path d="M23.0297 75.9941H1V78.2275H23.0297V75.9941Z" stroke="#BDBDBD" stroke-miterlimit="10" stroke-linecap="round" stroke-linejoin="round"/>
<path d="M168.855 75.9941H146.826V78.2275H168.855V75.9941Z" stroke="#BDBDBD" stroke-miterlimit="10" stroke-linecap="round" stroke-linejoin="round"/>
<path d="M39.7156 67.0115H31.8708V69.0685H39.7156V67.0115Z" stroke="#BDBDBD" stroke-miterlimit="10" stroke-linecap="round" stroke-linejoin="round"/>
<path d="M138.981 67.0115H131.136V69.0685H138.981V67.0115Z" stroke="#BDBDBD" stroke-miterlimit="10" stroke-linecap="round" stroke-linejoin="round"/>
<path d="M3.23718 59.0476H57.0072" stroke="#BDBDBD" stroke-miterlimit="10" stroke-linecap="round" stroke-linejoin="round"/>
<path d="M112.848 59.0476H166.609" stroke="#BDBDBD" stroke-miterlimit="10" stroke-linecap="round" stroke-linejoin="round"/>
<path d="M39.8621 1H32.0173V4.59493H39.8621V1Z" stroke="#BDBDBD" stroke-miterlimit="10" stroke-linecap="round" stroke-linejoin="round"/>
<path d="M138.981 1H131.136V4.59493H138.981V1Z" stroke="#BDBDBD" stroke-miterlimit="10" stroke-linecap="round" stroke-linejoin="round"/>
<path d="M12.0197 16.5256H8.94238V59.0477H12.0197V16.5256Z" stroke="#BDBDBD" stroke-miterlimit="10" stroke-linecap="round" stroke-linejoin="round"/>
<path d="M160.923 16.5256H157.846V59.0477H160.923V16.5256Z" stroke="#BDBDBD" stroke-miterlimit="10" stroke-linecap="round" stroke-linejoin="round"/>
<path d="M84.8299 16.5256H57.0071V97.8377H84.8299V16.5256Z" fill="white" stroke="#57AE66" stroke-miterlimit="10" stroke-linecap="round" stroke-linejoin="round"/>
<path d="M84.8299 59.0476H57.0071V97.8376H84.8299V59.0476Z" fill="white" stroke="#57AE66" stroke-miterlimit="10" stroke-linecap="round" stroke-linejoin="round"/>
<path d="M81.9285 19.0234H59.8988V57.1865H81.9285V19.0234Z" fill="white" stroke="#57AE66" stroke-miterlimit="10" stroke-linecap="round" stroke-linejoin="round"/>
<path d="M112.848 16.5256H85.0255V97.8377H112.848V16.5256Z" fill="white" stroke="#57AE66" stroke-miterlimit="10" stroke-linecap="round" stroke-linejoin="round"/>
<path d="M112.848 59.0476H85.0255V97.8376H112.848V59.0476Z" fill="white" stroke="#57AE66" stroke-miterlimit="10" stroke-linecap="round" stroke-linejoin="round"/>
<path d="M109.947 19.0234H87.9171V57.1865H109.947V19.0234Z" fill="white" stroke="#57AE66" stroke-miterlimit="10" stroke-linecap="round" stroke-linejoin="round"/>
<rect x="56.1938" y="67.5325" width="57.0425" height="16.9071" rx="0.5" fill="white" stroke="#57AE66"/>
<path d="M69.4472 71.74C69.9072 71.74 70.3039 71.79 70.6372 71.89C70.9772 71.99 71.2639 72.12 71.4972 72.28C71.6172 72.36 71.6839 72.46 71.6972 72.58C71.7106 72.6933 71.6806 72.8067 71.6072 72.92C71.5339 73.02 71.4439 73.0867 71.3372 73.12C71.2306 73.1533 71.1206 73.1333 71.0072 73.06C70.7806 72.9267 70.5472 72.8267 70.3072 72.76C70.0672 72.6933 69.7739 72.66 69.4272 72.66C68.7872 72.66 68.3039 72.87 67.9772 73.29C67.6572 73.7033 67.4972 74.3567 67.4972 75.25V75.56C67.4972 76.44 67.6539 77.09 67.9672 77.51C68.2806 77.93 68.7706 78.14 69.4372 78.14C69.8039 78.14 70.1272 78.0967 70.4072 78.01C70.6872 77.9167 70.9439 77.7833 71.1772 77.61C71.2839 77.5367 71.3939 77.51 71.5072 77.53C71.6272 77.5433 71.7272 77.6067 71.8072 77.72C71.8872 77.8333 71.9206 77.9567 71.9072 78.09C71.8939 78.2167 71.8239 78.3267 71.6972 78.42C71.4172 78.6267 71.0872 78.7867 70.7072 78.9C70.3272 79.0133 69.8972 79.07 69.4172 79.07C68.4706 79.07 67.7439 78.79 67.2372 78.23C66.7372 77.67 66.4872 76.8067 66.4872 75.64V75.17C66.4872 74.0033 66.7406 73.14 67.2472 72.58C67.7606 72.02 68.4939 71.74 69.4472 71.74ZM73.7807 71.8C73.914 71.8 74.0307 71.8333 74.1307 71.9C74.2373 71.9667 74.2907 72.0733 74.2907 72.22V78.1H77.4207C77.5407 78.1 77.6273 78.1433 77.6807 78.23C77.7407 78.3167 77.7707 78.4167 77.7707 78.53C77.7707 78.6433 77.7407 78.7433 77.6807 78.83C77.6273 78.9167 77.5407 78.96 77.4207 78.96H74.0507C73.7573 78.96 73.554 78.9067 73.4407 78.8C73.334 78.6933 73.2807 78.5 73.2807 78.22V72.22C73.2807 72.0733 73.3307 71.9667 73.4307 71.9C73.5307 71.8333 73.6473 71.8 73.7807 71.8ZM81.3322 71.74C82.2922 71.74 83.0256 72.02 83.5322 72.58C84.0456 73.14 84.3022 74.0033 84.3022 75.17V75.64C84.3022 76.8067 84.0456 77.67 83.5322 78.23C83.0256 78.79 82.2922 79.07 81.3322 79.07C80.3722 79.07 79.6356 78.79 79.1222 78.23C78.6156 77.67 78.3622 76.8067 78.3622 75.64V75.17C78.3622 74.0033 78.6156 73.14 79.1222 72.58C79.6356 72.02 80.3722 71.74 81.3322 71.74ZM81.3322 72.65C80.6722 72.65 80.1789 72.8533 79.8522 73.26C79.5322 73.66 79.3722 74.3233 79.3722 75.25V75.56C79.3722 76.4867 79.5322 77.15 79.8522 77.55C80.1789 77.95 80.6722 78.15 81.3322 78.15C81.9922 78.15 82.4822 77.95 82.8022 77.55C83.1289 77.15 83.2922 76.4867 83.2922 75.56V75.25C83.2922 74.3233 83.1289 73.66 82.8022 73.26C82.4822 72.8533 81.9922 72.65 81.3322 72.65ZM88.0414 71.74C88.8014 71.74 89.4247 71.8767 89.9114 72.15C90.0247 72.21 90.098 72.3 90.1314 72.42C90.1647 72.5333 90.148 72.6467 90.0814 72.76C90.0147 72.88 89.9314 72.9567 89.8314 72.99C89.7314 73.0167 89.6247 73.0033 89.5114 72.95C89.298 72.8433 89.0747 72.7667 88.8414 72.72C88.6147 72.6667 88.3547 72.64 88.0614 72.64C87.828 72.64 87.618 72.6667 87.4314 72.72C87.2514 72.7733 87.098 72.8467 86.9714 72.94C86.8447 73.0333 86.7447 73.1433 86.6714 73.27C86.6047 73.39 86.5714 73.52 86.5714 73.66V73.76C86.5714 73.9067 86.5947 74.0367 86.6414 74.15C86.688 74.2567 86.7714 74.3567 86.8914 74.45C87.0114 74.5367 87.1714 74.6167 87.3714 74.69C87.578 74.7567 87.838 74.8233 88.1514 74.89C88.5914 74.9833 88.9614 75.09 89.2614 75.21C89.5614 75.33 89.8047 75.4733 89.9914 75.64C90.178 75.8 90.3114 75.9867 90.3914 76.2C90.4714 76.4133 90.5114 76.6533 90.5114 76.92V77.06C90.5114 77.6867 90.2914 78.18 89.8514 78.54C89.4114 78.8933 88.778 79.07 87.9514 79.07C87.5314 79.07 87.1247 79.0167 86.7314 78.91C86.3447 78.7967 86.0147 78.65 85.7414 78.47C85.6147 78.3967 85.5414 78.3 85.5214 78.18C85.508 78.0533 85.538 77.9333 85.6114 77.82C85.6847 77.7067 85.7747 77.6367 85.8814 77.61C85.988 77.5767 86.098 77.5967 86.2114 77.67C86.4647 77.8233 86.7414 77.9467 87.0414 78.04C87.3414 78.1267 87.6614 78.17 88.0014 78.17C88.5014 78.17 88.878 78.07 89.1314 77.87C89.3847 77.67 89.5114 77.42 89.5114 77.12V77.01C89.5114 76.8433 89.4847 76.7 89.4314 76.58C89.378 76.4533 89.288 76.3433 89.1614 76.25C89.0347 76.1567 88.868 76.0767 88.6614 76.01C88.4547 75.9367 88.198 75.8667 87.8914 75.8C87.498 75.72 87.1547 75.63 86.8614 75.53C86.5747 75.4233 86.3347 75.2933 86.1414 75.14C85.9547 74.9867 85.8147 74.8033 85.7214 74.59C85.628 74.37 85.5814 74.1033 85.5814 73.79V73.67C85.5814 73.3967 85.6347 73.1433 85.7414 72.91C85.8547 72.67 86.0147 72.4633 86.2214 72.29C86.4347 72.1167 86.6947 71.9833 87.0014 71.89C87.308 71.79 87.6547 71.74 88.0414 71.74ZM96.1232 71.85C96.2432 71.85 96.3299 71.8933 96.3832 71.98C96.4432 72.06 96.4732 72.1567 96.4732 72.27C96.4732 72.3833 96.4432 72.4833 96.3832 72.57C96.3299 72.65 96.2432 72.69 96.1232 72.69H92.9232V74.9H95.9232C96.0366 74.9 96.1199 74.94 96.1732 75.02C96.2332 75.1 96.2632 75.1967 96.2632 75.31C96.2632 75.4233 96.2332 75.5233 96.1732 75.61C96.1199 75.69 96.0366 75.73 95.9232 75.73H92.9232V78.12H96.1932C96.3132 78.12 96.3999 78.1633 96.4532 78.25C96.5132 78.33 96.5432 78.4267 96.5432 78.54C96.5432 78.6533 96.5132 78.7533 96.4532 78.84C96.3999 78.92 96.3132 78.96 96.1932 78.96H92.6932C92.3999 78.96 92.1966 78.9067 92.0832 78.8C91.9766 78.6933 91.9232 78.5 91.9232 78.22V72.59C91.9232 72.31 91.9766 72.1167 92.0832 72.01C92.1966 71.9033 92.3999 71.85 92.6932 71.85H96.1232ZM100.397 71.85C101.411 71.85 102.174 72.1133 102.687 72.64C103.207 73.1667 103.467 73.9933 103.467 75.12V75.69C103.467 76.8167 103.201 77.6433 102.667 78.17C102.141 78.6967 101.384 78.96 100.397 78.96H98.7675C98.4741 78.96 98.2708 78.9067 98.1575 78.8C98.0508 78.6933 97.9975 78.5 97.9975 78.22V72.59C97.9975 72.31 98.0508 72.1167 98.1575 72.01C98.2708 71.9033 98.4741 71.85 98.7675 71.85H100.397ZM100.267 78.1C101.014 78.1 101.564 77.9067 101.917 77.52C102.277 77.1267 102.457 76.4933 102.457 75.62V75.21C102.457 74.77 102.414 74.3933 102.327 74.08C102.247 73.76 102.121 73.5 101.947 73.3C101.774 73.0933 101.547 72.9433 101.267 72.85C100.987 72.7567 100.654 72.71 100.267 72.71H98.9975V78.1H100.267Z" fill="#57AE66"/>
</svg>
