<svg width="116" height="75" viewBox="0 0 116 75" fill="none" xmlns="http://www.w3.org/2000/svg">
<path d="M15.88 66.2501H14.6C7.19 66.2501 1.12 60.0001 1.12 52.3501" fill="white"/>
<path d="M15.88 66.2501H14.6C7.19 66.2501 1.12 60.0001 1.12 52.3501" stroke="#828282" stroke-width="0.5" stroke-miterlimit="10" stroke-linecap="round" stroke-linejoin="round"/>
<path d="M83.11 66.25H33.25H83.11Z" fill="white"/>
<path d="M83.11 66.25H33.25" stroke="#828282" stroke-width="0.5" stroke-miterlimit="10" stroke-linecap="round" stroke-linejoin="round"/>
<path d="M114.02 52.3604C114.02 60.0004 108.03 66.2604 100.71 66.2604H100.36" fill="white"/>
<path d="M114.02 52.3604C114.02 60.0004 108.03 66.2604 100.71 66.2604H100.36" stroke="#828282" stroke-width="0.5" stroke-miterlimit="10" stroke-linecap="round" stroke-linejoin="round"/>
<path d="M1.12 51.4802L2.32 15.5902C2.32 8.11023 8.35999 1.99023 15.74 1.99023H99.39C106.77 1.99023 112.82 8.11023 112.82 15.5902L114.02 51.4902" fill="white"/>
<path d="M1.12 51.4802L2.32 15.5902C2.32 8.11023 8.35999 1.99023 15.74 1.99023H99.39C106.77 1.99023 112.82 8.11023 112.82 15.5902L114.02 51.4902" stroke="#828282" stroke-width="0.5" stroke-miterlimit="10" stroke-linecap="round" stroke-linejoin="round"/>
<path d="M3.71997 10.6699H111.41H3.71997Z" fill="white"/>
<path d="M3.71997 10.6699H111.41" stroke="#828282" stroke-width="0.5" stroke-miterlimit="10" stroke-linecap="round" stroke-linejoin="round"/>
<path d="M91.75 74.5703C96.44 74.5703 100.25 70.7603 100.25 66.0703C100.25 61.3803 96.44 57.5703 91.75 57.5703C87.06 57.5703 83.25 61.3803 83.25 66.0703C83.25 70.7603 87.06 74.5703 91.75 74.5703Z" fill="white" stroke="#828282" stroke-width="0.5" stroke-miterlimit="10" stroke-linecap="round" stroke-linejoin="round"/>
<path d="M15.01 51.4902H0.25V52.3602H15.01V51.4902Z" fill="white" stroke="#828282" stroke-width="0.5" stroke-miterlimit="10" stroke-linecap="round" stroke-linejoin="round"/>
<path d="M114.89 51.4902H100.13V52.3602H114.89V51.4902Z" fill="white" stroke="#828282" stroke-width="0.5" stroke-miterlimit="10" stroke-linecap="round" stroke-linejoin="round"/>
<path d="M26.3 45.4102H21.09V46.2802H26.3V45.4102Z" fill="white" stroke="#828282" stroke-width="0.5" stroke-miterlimit="10" stroke-linecap="round" stroke-linejoin="round"/>
<path d="M94.04 45.4102H88.83V46.2802H94.04V45.4102Z" fill="white" stroke="#828282" stroke-width="0.5" stroke-miterlimit="10" stroke-linecap="round" stroke-linejoin="round"/>
<path d="M1.98999 39.3301H38.46H1.98999Z" fill="white"/>
<path d="M1.98999 39.3301H38.46" stroke="#828282" stroke-width="0.5" stroke-miterlimit="10" stroke-linecap="round" stroke-linejoin="round"/>
<path d="M76.67 39.3301H113.14H76.67Z" fill="white"/>
<path d="M76.67 39.3301H113.14" stroke="#828282" stroke-width="0.5" stroke-miterlimit="10" stroke-linecap="round" stroke-linejoin="round"/>
<path d="M27.17 0.25H21.09V1.99H27.17V0.25Z" fill="white" stroke="#828282" stroke-width="0.5" stroke-miterlimit="10" stroke-linecap="round" stroke-linejoin="round"/>
<path d="M94.04 0.25H88.83V1.99H94.04V0.25Z" fill="white" stroke="#828282" stroke-width="0.5" stroke-miterlimit="10" stroke-linecap="round" stroke-linejoin="round"/>
<path d="M8.07002 10.6699H5.46002V39.3299H8.07002V10.6699Z" fill="white" stroke="#828282" stroke-width="0.5" stroke-miterlimit="10" stroke-linecap="round" stroke-linejoin="round"/>
<path d="M109.68 10.6699H107.07V39.3299H109.68V10.6699Z" fill="white" stroke="#828282" stroke-width="0.5" stroke-miterlimit="10" stroke-linecap="round" stroke-linejoin="round"/>
<path d="M57.11 3.25H35.25V67.12H57.11V3.25Z" fill="white" stroke="#57AF66" stroke-miterlimit="10" stroke-linecap="round" stroke-linejoin="round"/>
<path d="M57.11 36.6499H35.25V67.1199H57.11V36.6499Z" fill="white" stroke="#57AF66" stroke-miterlimit="10" stroke-linecap="round" stroke-linejoin="round"/>
<path d="M54.83 5.20996H37.52V35.19H54.83V5.20996Z" fill="white" stroke="#57AF66" stroke-miterlimit="10" stroke-linecap="round" stroke-linejoin="round"/>
<path d="M79.12 3.25H57.26V67.12H79.12V3.25Z" fill="white" stroke="#57AF66" stroke-miterlimit="10" stroke-linecap="round" stroke-linejoin="round"/>
<path d="M79.12 36.6499H57.26V67.1199H79.12V36.6499Z" fill="white" stroke="#57AF66" stroke-miterlimit="10" stroke-linecap="round" stroke-linejoin="round"/>
<path d="M76.84 5.20996H59.53V35.19H76.84V5.20996Z" fill="white" stroke="#57AF66" stroke-miterlimit="10" stroke-linecap="round" stroke-linejoin="round"/>
<path d="M91.75 70.8301C94.38 70.8301 96.51 68.7001 96.51 66.0701C96.51 63.4401 94.38 61.3101 91.75 61.3101C89.12 61.3101 86.99 63.4401 86.99 66.0701C86.99 68.7001 89.12 70.8301 91.75 70.8301Z" fill="white" stroke="#828282" stroke-width="0.5" stroke-miterlimit="10" stroke-linecap="round" stroke-linejoin="round"/>
<path d="M24.57 74.5703C29.26 74.5703 33.07 70.7603 33.07 66.0703C33.07 61.3803 29.26 57.5703 24.57 57.5703C19.88 57.5703 16.07 61.3803 16.07 66.0703C16.07 70.7603 19.87 74.5703 24.57 74.5703Z" fill="white" stroke="#828282" stroke-width="0.5" stroke-miterlimit="10" stroke-linecap="round" stroke-linejoin="round"/>
<path d="M24.57 70.8301C27.2 70.8301 29.33 68.7001 29.33 66.0701C29.33 63.4401 27.2 61.3101 24.57 61.3101C21.94 61.3101 19.81 63.4401 19.81 66.0701C19.81 68.7001 21.94 70.8301 24.57 70.8301Z" fill="white" stroke="#828282" stroke-width="0.5" stroke-miterlimit="10" stroke-linecap="round" stroke-linejoin="round"/>
<rect x="28.1987" y="45.6855" width="57.0425" height="16.9071" rx="0.5" fill="white" stroke="#57AE66"/>
<path d="M42.377 55.3755C42.291 56.2856 41.9551 56.9966 41.3691 57.5083C40.7832 58.0161 40.0039 58.27 39.0312 58.27C38.3516 58.27 37.752 58.1099 37.2324 57.7896C36.7168 57.4653 36.3184 57.0063 36.0371 56.4126C35.7559 55.8188 35.6094 55.1294 35.5977 54.3442V53.5474C35.5977 52.7427 35.7402 52.0337 36.0254 51.4204C36.3105 50.8071 36.7188 50.3345 37.25 50.0024C37.7852 49.6704 38.4023 49.5044 39.1016 49.5044C40.043 49.5044 40.8008 49.7603 41.375 50.272C41.9492 50.7837 42.2832 51.5063 42.377 52.4399H40.9004C40.8301 51.8267 40.6504 51.3853 40.3613 51.1157C40.0762 50.8423 39.6562 50.7056 39.1016 50.7056C38.457 50.7056 37.9609 50.9419 37.6133 51.4146C37.2695 51.8833 37.0938 52.5728 37.0859 53.4829V54.2388C37.0859 55.1606 37.25 55.8638 37.5781 56.3481C37.9102 56.8325 38.3945 57.0747 39.0312 57.0747C39.6133 57.0747 40.0508 56.9438 40.3438 56.6821C40.6367 56.4204 40.8223 55.9849 40.9004 55.3755H42.377ZM45.1895 56.9692H49.0625V58.1528H43.707V49.6216H45.1895V56.9692ZM56.6328 54.1099C56.6328 54.9458 56.4883 55.6802 56.1992 56.313C55.9102 56.9419 55.4961 57.4263 54.957 57.7661C54.4219 58.1021 53.8047 58.27 53.1055 58.27C52.4141 58.27 51.7969 58.1021 51.2539 57.7661C50.7148 57.4263 50.2969 56.9438 50 56.3188C49.707 55.6938 49.5586 54.9731 49.5547 54.1567V53.6763C49.5547 52.8442 49.7012 52.1099 49.9941 51.4731C50.291 50.8364 50.707 50.3501 51.2422 50.0142C51.7812 49.6743 52.3984 49.5044 53.0938 49.5044C53.7891 49.5044 54.4043 49.6724 54.9395 50.0083C55.4785 50.3403 55.8945 50.8208 56.1875 51.4497C56.4805 52.0747 56.6289 52.8032 56.6328 53.6353V54.1099ZM55.1504 53.6646C55.1504 52.7192 54.9707 51.9946 54.6113 51.4907C54.2559 50.9868 53.75 50.7349 53.0938 50.7349C52.4531 50.7349 51.9512 50.9868 51.5879 51.4907C51.2285 51.9907 51.0449 52.6997 51.0371 53.6177V54.1099C51.0371 55.0474 51.2188 55.772 51.582 56.2837C51.9492 56.7954 52.457 57.0513 53.1055 57.0513C53.7617 57.0513 54.2656 56.8013 54.6172 56.3013C54.9727 55.8013 55.1504 55.0708 55.1504 54.1099V53.6646ZM62.5684 55.9556C62.5684 55.5806 62.4355 55.2915 62.1699 55.0884C61.9082 54.8853 61.4336 54.6802 60.7461 54.4731C60.0586 54.2661 59.5117 54.0356 59.1055 53.7817C58.3281 53.2935 57.9395 52.6567 57.9395 51.8716C57.9395 51.1841 58.2188 50.6177 58.7773 50.1724C59.3398 49.7271 60.0684 49.5044 60.9629 49.5044C61.5566 49.5044 62.0859 49.6138 62.5508 49.8325C63.0156 50.0513 63.3809 50.3638 63.6465 50.77C63.9121 51.1724 64.0449 51.6196 64.0449 52.1118H62.5684C62.5684 51.6665 62.4277 51.3188 62.1465 51.0688C61.8691 50.8149 61.4707 50.688 60.9512 50.688C60.4668 50.688 60.0898 50.7915 59.8203 50.9985C59.5547 51.2056 59.4219 51.4946 59.4219 51.8657C59.4219 52.1782 59.5664 52.4399 59.8555 52.6509C60.1445 52.8579 60.6211 53.061 61.2852 53.2603C61.9492 53.4556 62.4824 53.6802 62.8848 53.9341C63.2871 54.1841 63.582 54.4731 63.7695 54.8013C63.957 55.1255 64.0508 55.5063 64.0508 55.9438C64.0508 56.6548 63.7773 57.2212 63.2305 57.6431C62.6875 58.061 61.9492 58.27 61.0156 58.27C60.3984 58.27 59.8301 58.1567 59.3105 57.9302C58.7949 57.6997 58.3926 57.3833 58.1035 56.981C57.8184 56.5786 57.6758 56.1099 57.6758 55.5747H59.1582C59.1582 56.0591 59.3184 56.4341 59.6387 56.6997C59.959 56.9653 60.418 57.0981 61.0156 57.0981C61.5312 57.0981 61.918 56.9946 62.1758 56.7876C62.4375 56.5767 62.5684 56.2993 62.5684 55.9556ZM70.3379 54.3442H66.834V56.9692H70.9297V58.1528H65.3516V49.6216H70.8887V50.8169H66.834V53.1724H70.3379V54.3442ZM72.1367 58.1528V49.6216H74.6562C75.4102 49.6216 76.0781 49.7896 76.6602 50.1255C77.2461 50.4614 77.6992 50.938 78.0195 51.5552C78.3398 52.1724 78.5 52.8794 78.5 53.6763V54.104C78.5 54.9126 78.3379 55.6235 78.0137 56.2368C77.6934 56.8501 77.2344 57.3228 76.6367 57.6548C76.043 57.9868 75.3613 58.1528 74.5918 58.1528H72.1367ZM73.6191 50.8169V56.9692H74.5859C75.3633 56.9692 75.959 56.7271 76.373 56.2427C76.791 55.7544 77.0039 55.0552 77.0117 54.145V53.6704C77.0117 52.7446 76.8105 52.0376 76.4082 51.5493C76.0059 51.061 75.4219 50.8169 74.6562 50.8169H73.6191Z" fill="#57AE66"/>
</svg>
