<svg width="116" height="76" viewBox="0 0 116 76" fill="none" xmlns="http://www.w3.org/2000/svg">
<path d="M16.6301 67.0001H15.3501C7.94012 67.0001 1.87012 60.7501 1.87012 53.1001" fill="white"/>
<path fill-rule="evenodd" clip-rule="evenodd" d="M1.87012 52.8501C2.00819 52.8501 2.12012 52.962 2.12012 53.1001C2.12012 60.6192 8.08526 66.7501 15.3501 66.7501H16.6301C16.7682 66.7501 16.8801 66.862 16.8801 67.0001C16.8801 67.1382 16.7682 67.2501 16.6301 67.2501H15.3501C7.79498 67.2501 1.62012 60.881 1.62012 53.1001C1.62012 52.962 1.73205 52.8501 1.87012 52.8501Z" fill="#828282"/>
<path fill-rule="evenodd" clip-rule="evenodd" d="M33.75 67C33.75 66.8619 33.8619 66.75 34 66.75H83.86C83.9981 66.75 84.11 66.8619 84.11 67C84.11 67.1381 83.9981 67.25 83.86 67.25H34C33.8619 67.25 33.75 67.1381 33.75 67Z" fill="#828282"/>
<path d="M114.77 53.1104C114.77 60.7504 108.78 67.0104 101.46 67.0104H101.11" fill="white"/>
<path fill-rule="evenodd" clip-rule="evenodd" d="M114.77 52.8604C114.908 52.8604 115.02 52.9723 115.02 53.1104C115.02 60.878 108.928 67.2604 101.46 67.2604H101.11C100.972 67.2604 100.86 67.1484 100.86 67.0104C100.86 66.8723 100.972 66.7604 101.11 66.7604H101.46C108.632 66.7604 114.52 60.6227 114.52 53.1104C114.52 52.9723 114.632 52.8604 114.77 52.8604Z" fill="#828282"/>
<path d="M1.87012 52.2302L3.07012 16.3402C3.07012 8.86023 9.11012 2.74023 16.4901 2.74023H100.14C107.52 2.74023 113.57 8.86023 113.57 16.3402L114.77 52.2402" fill="white"/>
<path fill-rule="evenodd" clip-rule="evenodd" d="M16.4901 2.99023C9.25131 2.99023 3.32012 8.99517 3.32012 16.3402V16.3486L2.11998 52.2386C2.11537 52.3766 1.99976 52.4847 1.86177 52.4801C1.72377 52.4755 1.61565 52.3599 1.62026 52.2219L2.82012 16.336C2.82238 8.72301 8.97031 2.49023 16.4901 2.49023H100.14C107.66 2.49023 113.818 8.72273 113.82 16.336L115.02 52.2319C115.025 52.3699 114.916 52.4855 114.778 52.4901C114.64 52.4947 114.525 52.3866 114.52 52.2486L113.32 16.3402C113.32 8.99541 107.379 2.99023 100.14 2.99023H16.4901Z" fill="#828282"/>
<path fill-rule="evenodd" clip-rule="evenodd" d="M4.21973 11.4199C4.21973 11.2819 4.33166 11.1699 4.46973 11.1699H112.16C112.298 11.1699 112.41 11.2819 112.41 11.4199C112.41 11.558 112.298 11.6699 112.16 11.6699H4.46973C4.33166 11.6699 4.21973 11.558 4.21973 11.4199Z" fill="#828282"/>
<path d="M92.5 75.3203C97.19 75.3203 101 71.5103 101 66.8203C101 62.1303 97.19 58.3203 92.5 58.3203C87.81 58.3203 84 62.1303 84 66.8203C84 71.5103 87.81 75.3203 92.5 75.3203Z" fill="white"/>
<path fill-rule="evenodd" clip-rule="evenodd" d="M83.75 66.8203C83.75 61.9922 87.6719 58.0703 92.5 58.0703C97.3281 58.0703 101.25 61.9922 101.25 66.8203C101.25 71.6484 97.3281 75.5703 92.5 75.5703C87.6719 75.5703 83.75 71.6484 83.75 66.8203ZM92.5 58.5703C87.9481 58.5703 84.25 62.2684 84.25 66.8203C84.25 71.3722 87.9481 75.0703 92.5 75.0703C97.0519 75.0703 100.75 71.3722 100.75 66.8203C100.75 62.2684 97.0519 58.5703 92.5 58.5703Z" fill="#828282"/>
<path d="M15.76 52.2402H1V53.1102H15.76V52.2402Z" fill="white"/>
<path fill-rule="evenodd" clip-rule="evenodd" d="M0.75 52.2402C0.75 52.1022 0.861929 51.9902 1 51.9902H15.76C15.8981 51.9902 16.01 52.1022 16.01 52.2402V53.1102C16.01 53.2483 15.8981 53.3602 15.76 53.3602H1C0.861929 53.3602 0.75 53.2483 0.75 53.1102V52.2402ZM1.25 52.4902V52.8602H15.51V52.4902H1.25Z" fill="#828282"/>
<path d="M115.64 52.2402H100.88V53.1102H115.64V52.2402Z" fill="white"/>
<path fill-rule="evenodd" clip-rule="evenodd" d="M100.63 52.2402C100.63 52.1022 100.742 51.9902 100.88 51.9902H115.64C115.778 51.9902 115.89 52.1022 115.89 52.2402V53.1102C115.89 53.2483 115.778 53.3602 115.64 53.3602H100.88C100.742 53.3602 100.63 53.2483 100.63 53.1102V52.2402ZM101.13 52.4902V52.8602H115.39V52.4902H101.13Z" fill="#828282"/>
<path d="M27.0498 46.1602H21.8398V47.0302H27.0498V46.1602Z" fill="white"/>
<path fill-rule="evenodd" clip-rule="evenodd" d="M21.5898 46.1602C21.5898 46.0221 21.7018 45.9102 21.8398 45.9102H27.0498C27.1879 45.9102 27.2998 46.0221 27.2998 46.1602V47.0302C27.2998 47.1682 27.1879 47.2802 27.0498 47.2802H21.8398C21.7018 47.2802 21.5898 47.1682 21.5898 47.0302V46.1602ZM22.0898 46.4102V46.7802H26.7998V46.4102H22.0898Z" fill="#828282"/>
<path d="M94.7901 46.1602H89.5801V47.0302H94.7901V46.1602Z" fill="white"/>
<path fill-rule="evenodd" clip-rule="evenodd" d="M89.3301 46.1602C89.3301 46.0221 89.442 45.9102 89.5801 45.9102H94.7901C94.9281 45.9102 95.0401 46.0221 95.0401 46.1602V47.0302C95.0401 47.1682 94.9281 47.2802 94.7901 47.2802H89.5801C89.442 47.2802 89.3301 47.1682 89.3301 47.0302V46.1602ZM89.8301 46.4102V46.7802H94.5401V46.4102H89.8301Z" fill="#828282"/>
<path fill-rule="evenodd" clip-rule="evenodd" d="M2.49023 40.0801C2.49023 39.942 2.60216 39.8301 2.74023 39.8301H39.2102C39.3483 39.8301 39.4602 39.942 39.4602 40.0801C39.4602 40.2181 39.3483 40.3301 39.2102 40.3301H2.74023C2.60216 40.3301 2.49023 40.2181 2.49023 40.0801Z" fill="#828282"/>
<path fill-rule="evenodd" clip-rule="evenodd" d="M77.1699 40.0801C77.1699 39.942 77.2819 39.8301 77.4199 39.8301H113.89C114.028 39.8301 114.14 39.942 114.14 40.0801C114.14 40.2181 114.028 40.3301 113.89 40.3301H77.4199C77.2819 40.3301 77.1699 40.2181 77.1699 40.0801Z" fill="#828282"/>
<path d="M27.9198 1H21.8398V2.74H27.9198V1Z" fill="white"/>
<path fill-rule="evenodd" clip-rule="evenodd" d="M21.5898 1C21.5898 0.861929 21.7018 0.75 21.8398 0.75H27.9198C28.0579 0.75 28.1698 0.861929 28.1698 1V2.74C28.1698 2.87807 28.0579 2.99 27.9198 2.99H21.8398C21.7018 2.99 21.5898 2.87807 21.5898 2.74V1ZM22.0898 1.25V2.49H27.6698V1.25H22.0898Z" fill="#828282"/>
<path d="M94.7901 1H89.5801V2.74H94.7901V1Z" fill="white"/>
<path fill-rule="evenodd" clip-rule="evenodd" d="M89.3301 1C89.3301 0.861929 89.442 0.75 89.5801 0.75H94.7901C94.9281 0.75 95.0401 0.861929 95.0401 1V2.74C95.0401 2.87807 94.9281 2.99 94.7901 2.99H89.5801C89.442 2.99 89.3301 2.87807 89.3301 2.74V1ZM89.8301 1.25V2.49H94.5401V1.25H89.8301Z" fill="#828282"/>
<path d="M8.81996 11.4199H6.20996V40.0799H8.81996V11.4199Z" fill="white"/>
<path fill-rule="evenodd" clip-rule="evenodd" d="M5.95996 11.4199C5.95996 11.2819 6.07189 11.1699 6.20996 11.1699H8.81996C8.95803 11.1699 9.06996 11.2819 9.06996 11.4199V40.0799C9.06996 40.218 8.95803 40.3299 8.81996 40.3299H6.20996C6.07189 40.3299 5.95996 40.218 5.95996 40.0799V11.4199ZM6.45996 11.6699V39.8299H8.56996V11.6699H6.45996Z" fill="#828282"/>
<path d="M110.43 11.4199H107.82V40.0799H110.43V11.4199Z" fill="white"/>
<path fill-rule="evenodd" clip-rule="evenodd" d="M107.57 11.4199C107.57 11.2819 107.682 11.1699 107.82 11.1699H110.43C110.568 11.1699 110.68 11.2819 110.68 11.4199V40.0799C110.68 40.218 110.568 40.3299 110.43 40.3299H107.82C107.682 40.3299 107.57 40.218 107.57 40.0799V11.4199ZM108.07 11.6699V39.8299H110.18V11.6699H108.07Z" fill="#828282"/>
<path d="M57.86 4H36V67.87H57.86V4Z" fill="white"/>
<path fill-rule="evenodd" clip-rule="evenodd" d="M35.5 4C35.5 3.72386 35.7239 3.5 36 3.5H57.86C58.1361 3.5 58.36 3.72386 58.36 4V67.87C58.36 68.1461 58.1361 68.37 57.86 68.37H36C35.7239 68.37 35.5 68.1461 35.5 67.87V4ZM36.5 4.5V67.37H57.36V4.5H36.5Z" fill="#57AF66"/>
<path d="M57.86 37.3999H36V67.8699H57.86V37.3999Z" fill="white"/>
<path fill-rule="evenodd" clip-rule="evenodd" d="M35.5 37.3999C35.5 37.1238 35.7239 36.8999 36 36.8999H57.86C58.1361 36.8999 58.36 37.1238 58.36 37.3999V67.8699C58.36 68.146 58.1361 68.3699 57.86 68.3699H36C35.7239 68.3699 35.5 68.146 35.5 67.8699V37.3999ZM36.5 37.8999V67.3699H57.36V37.8999H36.5Z" fill="#57AF66"/>
<path d="M55.58 5.95996H38.27V35.94H55.58V5.95996Z" fill="white"/>
<path fill-rule="evenodd" clip-rule="evenodd" d="M37.77 5.95996C37.77 5.68382 37.9939 5.45996 38.27 5.45996H55.58C55.8562 5.45996 56.08 5.68382 56.08 5.95996V35.94C56.08 36.2161 55.8562 36.44 55.58 36.44H38.27C37.9939 36.44 37.77 36.2161 37.77 35.94V5.95996ZM38.77 6.45996V35.44H55.08V6.45996H38.77Z" fill="#57AF66"/>
<path d="M79.8698 4H58.0098V67.87H79.8698V4Z" fill="white"/>
<path fill-rule="evenodd" clip-rule="evenodd" d="M57.5098 4C57.5098 3.72386 57.7336 3.5 58.0098 3.5H79.8698C80.1459 3.5 80.3698 3.72386 80.3698 4V67.87C80.3698 68.1461 80.1459 68.37 79.8698 68.37H58.0098C57.7336 68.37 57.5098 68.1461 57.5098 67.87V4ZM58.5098 4.5V67.37H79.3698V4.5H58.5098Z" fill="#57AF66"/>
<path d="M79.8698 37.3999H58.0098V67.8699H79.8698V37.3999Z" fill="white"/>
<path fill-rule="evenodd" clip-rule="evenodd" d="M57.5098 37.3999C57.5098 37.1238 57.7336 36.8999 58.0098 36.8999H79.8698C80.1459 36.8999 80.3698 37.1238 80.3698 37.3999V67.8699C80.3698 68.146 80.1459 68.3699 79.8698 68.3699H58.0098C57.7336 68.3699 57.5098 68.146 57.5098 67.8699V37.3999ZM58.5098 37.8999V67.3699H79.3698V37.8999H58.5098Z" fill="#57AF66"/>
<path d="M77.5903 5.95996H60.2803V35.94H77.5903V5.95996Z" fill="white"/>
<path fill-rule="evenodd" clip-rule="evenodd" d="M59.7803 5.95996C59.7803 5.68382 60.0041 5.45996 60.2803 5.45996H77.5903C77.8664 5.45996 78.0903 5.68382 78.0903 5.95996V35.94C78.0903 36.2161 77.8664 36.44 77.5903 36.44H60.2803C60.0041 36.44 59.7803 36.2161 59.7803 35.94V5.95996ZM60.7803 6.45996V35.44H77.0903V6.45996H60.7803Z" fill="#57AF66"/>
<path d="M92.5002 71.5801C95.1302 71.5801 97.2602 69.4501 97.2602 66.8201C97.2602 64.1901 95.1302 62.0601 92.5002 62.0601C89.8702 62.0601 87.7402 64.1901 87.7402 66.8201C87.7402 69.4501 89.8702 71.5801 92.5002 71.5801Z" fill="white"/>
<path fill-rule="evenodd" clip-rule="evenodd" d="M87.4902 66.8201C87.4902 64.052 89.7322 61.8101 92.5002 61.8101C95.2683 61.8101 97.5102 64.052 97.5102 66.8201C97.5102 69.5881 95.2683 71.8301 92.5002 71.8301C89.7322 71.8301 87.4902 69.5881 87.4902 66.8201ZM92.5002 62.3101C90.0083 62.3101 87.9902 64.3281 87.9902 66.8201C87.9902 69.312 90.0083 71.3301 92.5002 71.3301C94.9922 71.3301 97.0102 69.312 97.0102 66.8201C97.0102 64.3281 94.9922 62.3101 92.5002 62.3101Z" fill="#828282"/>
<path d="M25.3198 75.3203C30.0098 75.3203 33.8198 71.5103 33.8198 66.8203C33.8198 62.1303 30.0098 58.3203 25.3198 58.3203C20.6298 58.3203 16.8198 62.1303 16.8198 66.8203C16.8198 71.5103 20.6198 75.3203 25.3198 75.3203Z" fill="white"/>
<path fill-rule="evenodd" clip-rule="evenodd" d="M16.5698 66.8203C16.5698 61.9922 20.4918 58.0703 25.3198 58.0703C30.1479 58.0703 34.0698 61.9922 34.0698 66.8203C34.0698 71.6484 30.1479 75.5703 25.3198 75.5703C20.4816 75.5703 16.5698 71.6482 16.5698 66.8203ZM25.3198 58.5703C20.7679 58.5703 17.0698 62.2684 17.0698 66.8203C17.0698 71.3724 20.7581 75.0703 25.3198 75.0703C29.8718 75.0703 33.5698 71.3722 33.5698 66.8203C33.5698 62.2684 29.8718 58.5703 25.3198 58.5703Z" fill="#828282"/>
<path d="M25.3201 71.5801C27.9501 71.5801 30.0801 69.4501 30.0801 66.8201C30.0801 64.1901 27.9501 62.0601 25.3201 62.0601C22.6901 62.0601 20.5601 64.1901 20.5601 66.8201C20.5601 69.4501 22.6901 71.5801 25.3201 71.5801Z" fill="white"/>
<path fill-rule="evenodd" clip-rule="evenodd" d="M20.3101 66.8201C20.3101 64.052 22.552 61.8101 25.3201 61.8101C28.0881 61.8101 30.3301 64.052 30.3301 66.8201C30.3301 69.5881 28.0881 71.8301 25.3201 71.8301C22.552 71.8301 20.3101 69.5881 20.3101 66.8201ZM25.3201 62.3101C22.8281 62.3101 20.8101 64.3281 20.8101 66.8201C20.8101 69.312 22.8281 71.3301 25.3201 71.3301C27.812 71.3301 29.8301 69.312 29.8301 66.8201C29.8301 64.3281 27.812 62.3101 25.3201 62.3101Z" fill="#828282"/>
<path d="M28.4487 47.9355C28.4487 47.3833 28.8964 46.9355 29.4487 46.9355H85.4912C86.0435 46.9355 86.4912 47.3833 86.4912 47.9355V63.8426C86.4912 64.3949 86.0435 64.8426 85.4912 64.8426H29.4487C28.8964 64.8426 28.4487 64.3949 28.4487 63.8426V47.9355Z" fill="white"/>
<path fill-rule="evenodd" clip-rule="evenodd" d="M85.4912 47.9355H29.4487V63.8426H85.4912V47.9355ZM29.4487 46.9355C28.8964 46.9355 28.4487 47.3833 28.4487 47.9355V63.8426C28.4487 64.3949 28.8964 64.8426 29.4487 64.8426H85.4912C86.0435 64.8426 86.4912 64.3949 86.4912 63.8426V47.9355C86.4912 47.3833 86.0435 46.9355 85.4912 46.9355H29.4487Z" fill="#57AE66"/>
<path d="M43.127 57.1255C43.041 58.0356 42.7051 58.7466 42.1191 59.2583C41.5332 59.7661 40.7539 60.02 39.7812 60.02C39.1016 60.02 38.502 59.8599 37.9824 59.5396C37.4668 59.2153 37.0684 58.7563 36.7871 58.1626C36.5059 57.5688 36.3594 56.8794 36.3477 56.0942V55.2974C36.3477 54.4927 36.4902 53.7837 36.7754 53.1704C37.0605 52.5571 37.4688 52.0845 38 51.7524C38.5352 51.4204 39.1523 51.2544 39.8516 51.2544C40.793 51.2544 41.5508 51.5103 42.125 52.022C42.6992 52.5337 43.0332 53.2563 43.127 54.1899H41.6504C41.5801 53.5767 41.4004 53.1353 41.1113 52.8657C40.8262 52.5923 40.4062 52.4556 39.8516 52.4556C39.207 52.4556 38.7109 52.6919 38.3633 53.1646C38.0195 53.6333 37.8438 54.3228 37.8359 55.2329V55.9888C37.8359 56.9106 38 57.6138 38.3281 58.0981C38.6602 58.5825 39.1445 58.8247 39.7812 58.8247C40.3633 58.8247 40.8008 58.6938 41.0938 58.4321C41.3867 58.1704 41.5723 57.7349 41.6504 57.1255H43.127Z" fill="#57AE66"/>
<path d="M45.9395 58.7192H49.8125V59.9028H44.457V51.3716H45.9395V58.7192Z" fill="#57AE66"/>
<path d="M57.3828 55.8599C57.3828 56.6958 57.2383 57.4302 56.9492 58.063C56.6602 58.6919 56.2461 59.1763 55.707 59.5161C55.1719 59.8521 54.5547 60.02 53.8555 60.02C53.1641 60.02 52.5469 59.8521 52.0039 59.5161C51.4648 59.1763 51.0469 58.6938 50.75 58.0688C50.457 57.4438 50.3086 56.7231 50.3047 55.9067V55.4263C50.3047 54.5942 50.4512 53.8599 50.7441 53.2231C51.041 52.5864 51.457 52.1001 51.9922 51.7642C52.5312 51.4243 53.1484 51.2544 53.8438 51.2544C54.5391 51.2544 55.1543 51.4224 55.6895 51.7583C56.2285 52.0903 56.6445 52.5708 56.9375 53.1997C57.2305 53.8247 57.3789 54.5532 57.3828 55.3853V55.8599ZM55.9004 55.4146C55.9004 54.4692 55.7207 53.7446 55.3613 53.2407C55.0059 52.7368 54.5 52.4849 53.8438 52.4849C53.2031 52.4849 52.7012 52.7368 52.3379 53.2407C51.9785 53.7407 51.7949 54.4497 51.7871 55.3677V55.8599C51.7871 56.7974 51.9688 57.522 52.332 58.0337C52.6992 58.5454 53.207 58.8013 53.8555 58.8013C54.5117 58.8013 55.0156 58.5513 55.3672 58.0513C55.7227 57.5513 55.9004 56.8208 55.9004 55.8599V55.4146Z" fill="#57AE66"/>
<path d="M63.3184 57.7056C63.3184 57.3306 63.1855 57.0415 62.9199 56.8384C62.6582 56.6353 62.1836 56.4302 61.4961 56.2231C60.8086 56.0161 60.2617 55.7856 59.8555 55.5317C59.0781 55.0435 58.6895 54.4067 58.6895 53.6216C58.6895 52.9341 58.9688 52.3677 59.5273 51.9224C60.0898 51.4771 60.8184 51.2544 61.7129 51.2544C62.3066 51.2544 62.8359 51.3638 63.3008 51.5825C63.7656 51.8013 64.1309 52.1138 64.3965 52.52C64.6621 52.9224 64.7949 53.3696 64.7949 53.8618H63.3184C63.3184 53.4165 63.1777 53.0688 62.8965 52.8188C62.6191 52.5649 62.2207 52.438 61.7012 52.438C61.2168 52.438 60.8398 52.5415 60.5703 52.7485C60.3047 52.9556 60.1719 53.2446 60.1719 53.6157C60.1719 53.9282 60.3164 54.1899 60.6055 54.4009C60.8945 54.6079 61.3711 54.811 62.0352 55.0103C62.6992 55.2056 63.2324 55.4302 63.6348 55.6841C64.0371 55.9341 64.332 56.2231 64.5195 56.5513C64.707 56.8755 64.8008 57.2563 64.8008 57.6938C64.8008 58.4048 64.5273 58.9712 63.9805 59.3931C63.4375 59.811 62.6992 60.02 61.7656 60.02C61.1484 60.02 60.5801 59.9067 60.0605 59.6802C59.5449 59.4497 59.1426 59.1333 58.8535 58.731C58.5684 58.3286 58.4258 57.8599 58.4258 57.3247H59.9082C59.9082 57.8091 60.0684 58.1841 60.3887 58.4497C60.709 58.7153 61.168 58.8481 61.7656 58.8481C62.2812 58.8481 62.668 58.7446 62.9258 58.5376C63.1875 58.3267 63.3184 58.0493 63.3184 57.7056Z" fill="#57AE66"/>
<path d="M71.0879 56.0942H67.584V58.7192H71.6797V59.9028H66.1016V51.3716H71.6387V52.5669H67.584V54.9224H71.0879V56.0942Z" fill="#57AE66"/>
<path d="M72.8867 59.9028V51.3716H75.4062C76.1602 51.3716 76.8281 51.5396 77.4102 51.8755C77.9961 52.2114 78.4492 52.688 78.7695 53.3052C79.0898 53.9224 79.25 54.6294 79.25 55.4263V55.854C79.25 56.6626 79.0879 57.3735 78.7637 57.9868C78.4434 58.6001 77.9844 59.0728 77.3867 59.4048C76.793 59.7368 76.1113 59.9028 75.3418 59.9028H72.8867ZM74.3691 52.5669V58.7192H75.3359C76.1133 58.7192 76.709 58.4771 77.123 57.9927C77.541 57.5044 77.7539 56.8052 77.7617 55.895V55.4204C77.7617 54.4946 77.5605 53.7876 77.1582 53.2993C76.7559 52.811 76.1719 52.5669 75.4062 52.5669H74.3691Z" fill="#57AE66"/>
</svg>
