<svg width="170" height="111" viewBox="0 0 170 111" fill="none" xmlns="http://www.w3.org/2000/svg">
<path d="M24.017 97.8466H22.1608C11.4045 97.8466 2.59241 89.021 2.59241 78.2266" stroke="#BDBDBD" stroke-miterlimit="10" stroke-linecap="round" stroke-linejoin="round"/>
<path d="M123.285 97.8467H47.5616" stroke="#BDBDBD" stroke-miterlimit="10" stroke-linecap="round" stroke-linejoin="round"/>
<path d="M167.258 78.2266C167.258 89.0112 158.455 97.8466 147.689 97.8466H146.83" stroke="#BDBDBD" stroke-miterlimit="10" stroke-linecap="round" stroke-linejoin="round"/>
<path d="M2.67053 75.993L4.41928 24.2148C4.41928 13.4203 13.2216 4.59473 23.9779 4.59473H145.872C156.628 4.59473 165.441 13.4203 165.441 24.2148L167.189 76.0028" stroke="#BDBDBD" stroke-miterlimit="10" stroke-linecap="round" stroke-linejoin="round"/>
<path d="M5.99219 16.5256H163.868" stroke="#BDBDBD" stroke-miterlimit="10" stroke-linecap="round" stroke-linejoin="round"/>
<path d="M35.7894 109.65C42.291 109.65 47.5616 104.365 47.5616 97.8466C47.5616 91.3278 42.291 86.0432 35.7894 86.0432C29.2877 86.0432 24.0171 91.3278 24.0171 97.8466C24.0171 104.365 29.2877 109.65 35.7894 109.65Z" stroke="#BDBDBD" stroke-miterlimit="10" stroke-linecap="round" stroke-linejoin="round"/>
<path d="M35.7892 105.33C39.9114 105.33 43.2532 101.98 43.2532 97.8464C43.2532 93.7133 39.9114 90.3628 35.7892 90.3628C31.667 90.3628 28.3253 93.7133 28.3253 97.8464C28.3253 101.98 31.667 105.33 35.7892 105.33Z" stroke="#BDBDBD" stroke-miterlimit="10" stroke-linecap="round" stroke-linejoin="round"/>
<path d="M135.057 105.33C139.18 105.33 142.521 101.98 142.521 97.8464C142.521 93.7133 139.18 90.3628 135.057 90.3628C130.935 90.3628 127.593 93.7133 127.593 97.8464C127.593 101.98 130.935 105.33 135.057 105.33Z" stroke="#BDBDBD" stroke-miterlimit="10" stroke-linecap="round" stroke-linejoin="round"/>
<path d="M135.057 109.65C141.559 109.65 146.83 104.365 146.83 97.8466C146.83 91.3278 141.559 86.0432 135.057 86.0432C128.556 86.0432 123.285 91.3278 123.285 97.8466C123.285 104.365 128.556 109.65 135.057 109.65Z" stroke="#BDBDBD" stroke-miterlimit="10" stroke-linecap="round" stroke-linejoin="round"/>
<path d="M23.0303 75.9934H1V78.2267H23.0303V75.9934Z" stroke="#BDBDBD" stroke-miterlimit="10" stroke-linecap="round" stroke-linejoin="round"/>
<path d="M168.86 75.9934H146.83V78.2267H168.86V75.9934Z" stroke="#BDBDBD" stroke-miterlimit="10" stroke-linecap="round" stroke-linejoin="round"/>
<path d="M39.7166 67.0107H31.8717V69.0678H39.7166V67.0107Z" stroke="#BDBDBD" stroke-miterlimit="10" stroke-linecap="round" stroke-linejoin="round"/>
<path d="M138.985 67.0107H131.14V69.0678H138.985V67.0107Z" stroke="#BDBDBD" stroke-miterlimit="10" stroke-linecap="round" stroke-linejoin="round"/>
<path d="M3.23718 59.0471H57.0086" stroke="#BDBDBD" stroke-miterlimit="10" stroke-linecap="round" stroke-linejoin="round"/>
<path d="M112.851 59.0471H166.613" stroke="#BDBDBD" stroke-miterlimit="10" stroke-linecap="round" stroke-linejoin="round"/>
<path d="M39.8631 1H32.0182V4.59489H39.8631V1Z" stroke="#BDBDBD" stroke-miterlimit="10" stroke-linecap="round" stroke-linejoin="round"/>
<path d="M138.985 1H131.14V4.59489H138.985V1Z" stroke="#BDBDBD" stroke-miterlimit="10" stroke-linecap="round" stroke-linejoin="round"/>
<path d="M12.02 16.5256H8.94263V59.0472H12.02V16.5256Z" stroke="#BDBDBD" stroke-miterlimit="10" stroke-linecap="round" stroke-linejoin="round"/>
<path d="M160.927 16.5256H157.85V59.0472H160.927V16.5256Z" stroke="#BDBDBD" stroke-miterlimit="10" stroke-linecap="round" stroke-linejoin="round"/>
<path d="M65.2932 16.5256H37.4696V97.8368H65.2932V16.5256Z" fill="white" stroke="#CA4040" stroke-miterlimit="10" stroke-linecap="round" stroke-linejoin="round"/>
<path d="M65.2932 59.0471H37.4696V97.8367H65.2932V59.0471Z" fill="white" stroke="#CA4040" stroke-miterlimit="10" stroke-linecap="round" stroke-linejoin="round"/>
<path d="M62.3916 19.0232H40.3613V57.1858H62.3916V19.0232Z" fill="white" stroke="#CA4040" stroke-miterlimit="10" stroke-linecap="round" stroke-linejoin="round"/>
<path d="M132.39 16.5256H104.567V97.8368H132.39V16.5256Z" fill="white" stroke="#CA4040" stroke-miterlimit="10" stroke-linecap="round" stroke-linejoin="round"/>
<path d="M132.39 59.0471H104.567V97.8367H132.39V59.0471Z" fill="white" stroke="#CA4040" stroke-miterlimit="10" stroke-linecap="round" stroke-linejoin="round"/>
<path d="M129.489 19.0232H107.458V57.1858H129.489V19.0232Z" fill="white" stroke="#CA4040" stroke-miterlimit="10" stroke-linecap="round" stroke-linejoin="round"/>
<rect x="56.1953" y="67.5317" width="57.044" height="16.9069" rx="0.5" fill="white" stroke="#CA4040"/>
<path d="M75.7983 71.74C76.7583 71.74 77.4916 72.02 77.9983 72.58C78.5116 73.14 78.7683 74.0033 78.7683 75.17V75.64C78.7683 76.8067 78.5116 77.67 77.9983 78.23C77.4916 78.79 76.7583 79.07 75.7983 79.07C74.8383 79.07 74.1016 78.79 73.5883 78.23C73.0816 77.67 72.8283 76.8067 72.8283 75.64V75.17C72.8283 74.0033 73.0816 73.14 73.5883 72.58C74.1016 72.02 74.8383 71.74 75.7983 71.74ZM75.7983 72.65C75.1383 72.65 74.6449 72.8533 74.3183 73.26C73.9983 73.66 73.8383 74.3233 73.8383 75.25V75.56C73.8383 76.4867 73.9983 77.15 74.3183 77.55C74.6449 77.95 75.1383 78.15 75.7983 78.15C76.4583 78.15 76.9483 77.95 77.2683 77.55C77.5949 77.15 77.7583 76.4867 77.7583 75.56V75.25C77.7583 74.3233 77.5949 73.66 77.2683 73.26C76.9483 72.8533 76.4583 72.65 75.7983 72.65ZM82.7774 71.85C83.1908 71.85 83.5474 71.9 83.8474 72C84.1541 72.0933 84.4074 72.23 84.6074 72.41C84.8074 72.59 84.9541 72.8067 85.0474 73.06C85.1474 73.3133 85.1974 73.5933 85.1974 73.9V74.05C85.1974 74.3567 85.1474 74.64 85.0474 74.9C84.9474 75.16 84.7941 75.3867 84.5874 75.58C84.3874 75.7667 84.1341 75.9133 83.8274 76.02C83.5274 76.1267 83.1741 76.18 82.7674 76.18H81.2274V78.59C81.2274 78.7367 81.1741 78.8433 81.0674 78.91C80.9674 78.9767 80.8508 79.01 80.7174 79.01C80.5841 79.01 80.4674 78.9767 80.3674 78.91C80.2674 78.8433 80.2174 78.7367 80.2174 78.59V72.59C80.2174 72.31 80.2708 72.1167 80.3774 72.01C80.4908 71.9033 80.6941 71.85 80.9874 71.85H82.7774ZM82.6474 75.33C83.1674 75.33 83.5541 75.2267 83.8074 75.02C84.0674 74.8133 84.1974 74.4867 84.1974 74.04V73.92C84.1974 73.4867 84.0741 73.1767 83.8274 72.99C83.5808 72.7967 83.2208 72.7 82.7474 72.7H81.2274V75.33H82.6474ZM90.6479 71.85C90.7679 71.85 90.8546 71.8933 90.9079 71.98C90.9679 72.06 90.9979 72.1567 90.9979 72.27C90.9979 72.3833 90.9679 72.4833 90.9079 72.57C90.8546 72.65 90.7679 72.69 90.6479 72.69H87.4479V74.9H90.4479C90.5612 74.9 90.6446 74.94 90.6979 75.02C90.7579 75.1 90.7879 75.1967 90.7879 75.31C90.7879 75.4233 90.7579 75.5233 90.6979 75.61C90.6446 75.69 90.5612 75.73 90.4479 75.73H87.4479V78.12H90.7179C90.8379 78.12 90.9246 78.1633 90.9779 78.25C91.0379 78.33 91.0679 78.4267 91.0679 78.54C91.0679 78.6533 91.0379 78.7533 90.9779 78.84C90.9246 78.92 90.8379 78.96 90.7179 78.96H87.2179C86.9246 78.96 86.7212 78.9067 86.6079 78.8C86.5012 78.6933 86.4479 78.5 86.4479 78.22V72.59C86.4479 72.31 86.5012 72.1167 86.6079 72.01C86.7212 71.9033 86.9246 71.85 87.2179 71.85H90.6479ZM97.4321 71.8C97.5521 71.8 97.6588 71.8333 97.7521 71.9C97.8521 71.96 97.9021 72.06 97.9021 72.2V78.25C97.9021 78.53 97.8488 78.7233 97.7421 78.83C97.6354 78.93 97.4554 78.98 97.2021 78.98C97.1088 78.98 97.0254 78.9733 96.9521 78.96C96.8854 78.94 96.8188 78.9033 96.7521 78.85C96.6854 78.7967 96.6154 78.72 96.5421 78.62C96.4688 78.52 96.3854 78.3867 96.2921 78.22L93.8721 74.03C93.7921 73.8833 93.7154 73.7333 93.6421 73.58C93.5754 73.4267 93.5154 73.2567 93.4621 73.07V78.61C93.4621 78.75 93.4121 78.8533 93.3121 78.92C93.2188 78.98 93.1121 79.01 92.9921 79.01C92.8721 79.01 92.7621 78.98 92.6621 78.92C92.5688 78.8533 92.5221 78.75 92.5221 78.61V72.56C92.5221 72.28 92.5754 72.09 92.6821 71.99C92.7888 71.8833 92.9688 71.83 93.2221 71.83C93.3154 71.83 93.3988 71.84 93.4721 71.86C93.5454 71.8733 93.6121 71.9067 93.6721 71.96C93.7388 72.0133 93.8088 72.09 93.8821 72.19C93.9554 72.29 94.0388 72.4233 94.1321 72.59L96.5521 76.78C96.6388 76.9267 96.7154 77.0767 96.7821 77.23C96.8554 77.3833 96.9188 77.5533 96.9721 77.74V72.2C96.9721 72.06 97.0188 71.96 97.1121 71.9C97.2054 71.8333 97.3121 71.8 97.4321 71.8Z" fill="#CA4040"/>
</svg>
