<svg width="116" height="76" viewBox="0 0 116 76" fill="none" xmlns="http://www.w3.org/2000/svg">
<path d="M16.63 67.0001H15.35C7.94 67.0001 1.87 60.7501 1.87 53.1001" fill="white"/>
<path d="M16.63 67.0001H15.35C7.94 67.0001 1.87 60.7501 1.87 53.1001" stroke="#828282" stroke-width="0.5" stroke-miterlimit="10" stroke-linecap="round" stroke-linejoin="round"/>
<path d="M83.86 67H34H83.86Z" fill="white"/>
<path d="M83.86 67H34" stroke="#828282" stroke-width="0.5" stroke-miterlimit="10" stroke-linecap="round" stroke-linejoin="round"/>
<path d="M114.77 53.1101C114.77 60.7501 108.78 67.0101 101.46 67.0101H101.11" fill="white"/>
<path d="M114.77 53.1101C114.77 60.7501 108.78 67.0101 101.46 67.0101H101.11" stroke="#828282" stroke-width="0.5" stroke-miterlimit="10" stroke-linecap="round" stroke-linejoin="round"/>
<path d="M1.87 52.23L3.07 16.34C3.07 8.85999 9.10999 2.73999 16.49 2.73999H100.14C107.52 2.73999 113.57 8.85999 113.57 16.34L114.77 52.24" fill="white"/>
<path d="M1.87 52.23L3.07 16.34C3.07 8.85999 9.10999 2.73999 16.49 2.73999H100.14C107.52 2.73999 113.57 8.85999 113.57 16.34L114.77 52.24" stroke="#828282" stroke-width="0.5" stroke-miterlimit="10" stroke-linecap="round" stroke-linejoin="round"/>
<path d="M4.46997 11.4199H112.16H4.46997Z" fill="white"/>
<path d="M4.46997 11.4199H112.16" stroke="#828282" stroke-width="0.5" stroke-miterlimit="10" stroke-linecap="round" stroke-linejoin="round"/>
<path d="M92.5 75.3201C97.19 75.3201 101 71.5101 101 66.8201C101 62.1301 97.19 58.3201 92.5 58.3201C87.81 58.3201 84 62.1301 84 66.8201C84 71.5101 87.81 75.3201 92.5 75.3201Z" fill="white" stroke="#828282" stroke-width="0.5" stroke-miterlimit="10" stroke-linecap="round" stroke-linejoin="round"/>
<path d="M15.76 52.24H1V53.11H15.76V52.24Z" fill="white" stroke="#828282" stroke-width="0.5" stroke-miterlimit="10" stroke-linecap="round" stroke-linejoin="round"/>
<path d="M115.64 52.24H100.88V53.11H115.64V52.24Z" fill="white" stroke="#828282" stroke-width="0.5" stroke-miterlimit="10" stroke-linecap="round" stroke-linejoin="round"/>
<path d="M27.0501 46.1599H21.8401V47.0299H27.0501V46.1599Z" fill="white" stroke="#828282" stroke-width="0.5" stroke-miterlimit="10" stroke-linecap="round" stroke-linejoin="round"/>
<path d="M94.7901 46.1599H89.5801V47.0299H94.7901V46.1599Z" fill="white" stroke="#828282" stroke-width="0.5" stroke-miterlimit="10" stroke-linecap="round" stroke-linejoin="round"/>
<path d="M2.73999 40.0801H39.21H2.73999Z" fill="white"/>
<path d="M2.73999 40.0801H39.21" stroke="#828282" stroke-width="0.5" stroke-miterlimit="10" stroke-linecap="round" stroke-linejoin="round"/>
<path d="M77.4199 40.0801H113.89H77.4199Z" fill="white"/>
<path d="M77.4199 40.0801H113.89" stroke="#828282" stroke-width="0.5" stroke-miterlimit="10" stroke-linecap="round" stroke-linejoin="round"/>
<path d="M27.9201 1H21.8401V2.74H27.9201V1Z" fill="white" stroke="#828282" stroke-width="0.5" stroke-miterlimit="10" stroke-linecap="round" stroke-linejoin="round"/>
<path d="M94.7901 1H89.5801V2.74H94.7901V1Z" fill="white" stroke="#828282" stroke-width="0.5" stroke-miterlimit="10" stroke-linecap="round" stroke-linejoin="round"/>
<path d="M8.81996 11.4199H6.20996V40.0799H8.81996V11.4199Z" fill="white" stroke="#828282" stroke-width="0.5" stroke-miterlimit="10" stroke-linecap="round" stroke-linejoin="round"/>
<path d="M110.43 11.4199H107.82V40.0799H110.43V11.4199Z" fill="white" stroke="#828282" stroke-width="0.5" stroke-miterlimit="10" stroke-linecap="round" stroke-linejoin="round"/>
<path d="M92.5 71.5801C95.13 71.5801 97.26 69.4501 97.26 66.8201C97.26 64.1901 95.13 62.0601 92.5 62.0601C89.87 62.0601 87.74 64.1901 87.74 66.8201C87.74 69.4501 89.87 71.5801 92.5 71.5801Z" fill="white" stroke="#828282" stroke-width="0.5" stroke-miterlimit="10" stroke-linecap="round" stroke-linejoin="round"/>
<path d="M25.3201 75.3201C30.0101 75.3201 33.8201 71.5101 33.8201 66.8201C33.8201 62.1301 30.0101 58.3201 25.3201 58.3201C20.6301 58.3201 16.8201 62.1301 16.8201 66.8201C16.8201 71.5101 20.6201 75.3201 25.3201 75.3201Z" fill="white" stroke="#828282" stroke-width="0.5" stroke-miterlimit="10" stroke-linecap="round" stroke-linejoin="round"/>
<path d="M25.3201 71.5801C27.9501 71.5801 30.0801 69.4501 30.0801 66.8201C30.0801 64.1901 27.9501 62.0601 25.3201 62.0601C22.6901 62.0601 20.5601 64.1901 20.5601 66.8201C20.5601 69.4501 22.6901 71.5801 25.3201 71.5801Z" fill="white" stroke="#828282" stroke-width="0.5" stroke-miterlimit="10" stroke-linecap="round" stroke-linejoin="round"/>
<path d="M47.86 4H26V67.87H47.86V4Z" fill="white" stroke="#BDBDBD" stroke-miterlimit="10" stroke-linecap="round" stroke-linejoin="round"/>
<path d="M47.86 37.3999H26V67.8699H47.86V37.3999Z" fill="white" stroke="#BDBDBD" stroke-miterlimit="10" stroke-linecap="round" stroke-linejoin="round"/>
<path d="M45.58 5.95996H28.27V35.94H45.58V5.95996Z" fill="white" stroke="#BDBDBD" stroke-miterlimit="10" stroke-linecap="round" stroke-linejoin="round"/>
<path d="M89.87 4H68.01V67.87H89.87V4Z" fill="white" stroke="#BDBDBD" stroke-miterlimit="10" stroke-linecap="round" stroke-linejoin="round"/>
<path d="M89.87 37.3999H68.01V67.8699H89.87V37.3999Z" fill="white" stroke="#BDBDBD" stroke-miterlimit="10" stroke-linecap="round" stroke-linejoin="round"/>
<path d="M87.59 5.95996H70.28V35.94H87.59V5.95996Z" fill="white" stroke="#BDBDBD" stroke-miterlimit="10" stroke-linecap="round" stroke-linejoin="round"/>
<rect x="29.1987" y="46.6855" width="57.0425" height="16.9071" rx="0.5" fill="white" stroke="#BDBDBD"/>
<path d="M49.3745 55.1101C49.3745 55.946 49.23 56.6804 48.9409 57.3132C48.6519 57.9421 48.2378 58.4265 47.6987 58.7664C47.1636 59.1023 46.5464 59.2703 45.8472 59.2703C45.1558 59.2703 44.5386 59.1023 43.9956 58.7664C43.4565 58.4265 43.0386 57.9441 42.7417 57.3191C42.4487 56.6941 42.3003 55.9734 42.2964 55.157V54.6765C42.2964 53.8445 42.4429 53.1101 42.7358 52.4734C43.0327 51.8367 43.4487 51.3503 43.9839 51.0144C44.5229 50.6746 45.1401 50.5046 45.8354 50.5046C46.5308 50.5046 47.146 50.6726 47.6812 51.0085C48.2202 51.3406 48.6362 51.821 48.9292 52.45C49.2222 53.075 49.3706 53.8035 49.3745 54.6355V55.1101ZM47.8921 54.6648C47.8921 53.7195 47.7124 52.9949 47.353 52.491C46.9976 51.9871 46.4917 51.7351 45.8354 51.7351C45.1948 51.7351 44.6929 51.9871 44.3296 52.491C43.9702 52.991 43.7866 53.7 43.7788 54.6179V55.1101C43.7788 56.0476 43.9604 56.7722 44.3237 57.2839C44.6909 57.7957 45.1987 58.0515 45.8472 58.0515C46.5034 58.0515 47.0073 57.8015 47.3589 57.3015C47.7144 56.8015 47.8921 56.071 47.8921 55.1101V54.6648ZM52.3335 55.9832V59.1531H50.8511V50.6218H54.1147C55.0679 50.6218 55.8237 50.8699 56.3823 51.366C56.9448 51.8621 57.2261 52.5183 57.2261 53.3347C57.2261 54.1707 56.9507 54.821 56.3999 55.2859C55.853 55.7507 55.0854 55.9832 54.0972 55.9832H52.3335ZM52.3335 54.7937H54.1147C54.6421 54.7937 55.0444 54.6707 55.3218 54.4246C55.5991 54.1746 55.7378 53.8152 55.7378 53.3464C55.7378 52.8855 55.5972 52.5183 55.3159 52.2449C55.0347 51.9675 54.6479 51.825 54.1558 51.8171H52.3335V54.7937ZM63.5132 55.3445H60.0093V57.9695H64.105V59.1531H58.5269V50.6218H64.064V51.8171H60.0093V54.1726H63.5132V55.3445ZM72.0796 59.1531H70.5972L66.7944 53.1003V59.1531H65.312V50.6218H66.7944L70.6089 56.698V50.6218H72.0796V59.1531Z" fill="#BDBDBD"/>
</svg>
