<svg width="116" height="76" viewBox="0 0 116 76" fill="none" xmlns="http://www.w3.org/2000/svg">
<path d="M16.6301 67.0001H15.3501C7.94012 67.0001 1.87012 60.7501 1.87012 53.1001" fill="white"/>
<path fill-rule="evenodd" clip-rule="evenodd" d="M1.87012 52.8501C2.00819 52.8501 2.12012 52.962 2.12012 53.1001C2.12012 60.6192 8.08526 66.7501 15.3501 66.7501H16.6301C16.7682 66.7501 16.8801 66.862 16.8801 67.0001C16.8801 67.1382 16.7682 67.2501 16.6301 67.2501H15.3501C7.79498 67.2501 1.62012 60.881 1.62012 53.1001C1.62012 52.962 1.73205 52.8501 1.87012 52.8501Z" fill="#828282"/>
<path fill-rule="evenodd" clip-rule="evenodd" d="M33.75 67C33.75 66.8619 33.8619 66.75 34 66.75H83.86C83.9981 66.75 84.11 66.8619 84.11 67C84.11 67.1381 83.9981 67.25 83.86 67.25H34C33.8619 67.25 33.75 67.1381 33.75 67Z" fill="#828282"/>
<path d="M114.77 53.1104C114.77 60.7504 108.78 67.0104 101.46 67.0104H101.11" fill="white"/>
<path fill-rule="evenodd" clip-rule="evenodd" d="M114.77 52.8604C114.908 52.8604 115.02 52.9723 115.02 53.1104C115.02 60.878 108.928 67.2604 101.46 67.2604H101.11C100.972 67.2604 100.86 67.1484 100.86 67.0104C100.86 66.8723 100.972 66.7604 101.11 66.7604H101.46C108.632 66.7604 114.52 60.6227 114.52 53.1104C114.52 52.9723 114.632 52.8604 114.77 52.8604Z" fill="#828282"/>
<path d="M1.87012 52.2302L3.07012 16.3402C3.07012 8.86023 9.11012 2.74023 16.4901 2.74023H100.14C107.52 2.74023 113.57 8.86023 113.57 16.3402L114.77 52.2402" fill="white"/>
<path fill-rule="evenodd" clip-rule="evenodd" d="M16.4901 2.99023C9.25131 2.99023 3.32012 8.99517 3.32012 16.3402V16.3486L2.11998 52.2386C2.11537 52.3766 1.99976 52.4847 1.86177 52.4801C1.72377 52.4755 1.61565 52.3599 1.62026 52.2219L2.82012 16.336C2.82238 8.72301 8.97031 2.49023 16.4901 2.49023H100.14C107.66 2.49023 113.818 8.72273 113.82 16.336L115.02 52.2319C115.025 52.3699 114.916 52.4855 114.778 52.4901C114.64 52.4947 114.525 52.3866 114.52 52.2486L113.32 16.3402C113.32 8.99541 107.379 2.99023 100.14 2.99023H16.4901Z" fill="#828282"/>
<path fill-rule="evenodd" clip-rule="evenodd" d="M4.21973 11.4199C4.21973 11.2819 4.33166 11.1699 4.46973 11.1699H112.16C112.298 11.1699 112.41 11.2819 112.41 11.4199C112.41 11.558 112.298 11.6699 112.16 11.6699H4.46973C4.33166 11.6699 4.21973 11.558 4.21973 11.4199Z" fill="#828282"/>
<path d="M92.5 75.3203C97.19 75.3203 101 71.5103 101 66.8203C101 62.1303 97.19 58.3203 92.5 58.3203C87.81 58.3203 84 62.1303 84 66.8203C84 71.5103 87.81 75.3203 92.5 75.3203Z" fill="white"/>
<path fill-rule="evenodd" clip-rule="evenodd" d="M83.75 66.8203C83.75 61.9922 87.6719 58.0703 92.5 58.0703C97.3281 58.0703 101.25 61.9922 101.25 66.8203C101.25 71.6484 97.3281 75.5703 92.5 75.5703C87.6719 75.5703 83.75 71.6484 83.75 66.8203ZM92.5 58.5703C87.9481 58.5703 84.25 62.2684 84.25 66.8203C84.25 71.3722 87.9481 75.0703 92.5 75.0703C97.0519 75.0703 100.75 71.3722 100.75 66.8203C100.75 62.2684 97.0519 58.5703 92.5 58.5703Z" fill="#828282"/>
<path d="M15.76 52.2402H1V53.1102H15.76V52.2402Z" fill="white"/>
<path fill-rule="evenodd" clip-rule="evenodd" d="M0.75 52.2402C0.75 52.1022 0.861929 51.9902 1 51.9902H15.76C15.8981 51.9902 16.01 52.1022 16.01 52.2402V53.1102C16.01 53.2483 15.8981 53.3602 15.76 53.3602H1C0.861929 53.3602 0.75 53.2483 0.75 53.1102V52.2402ZM1.25 52.4902V52.8602H15.51V52.4902H1.25Z" fill="#828282"/>
<path d="M115.64 52.2402H100.88V53.1102H115.64V52.2402Z" fill="white"/>
<path fill-rule="evenodd" clip-rule="evenodd" d="M100.63 52.2402C100.63 52.1022 100.742 51.9902 100.88 51.9902H115.64C115.778 51.9902 115.89 52.1022 115.89 52.2402V53.1102C115.89 53.2483 115.778 53.3602 115.64 53.3602H100.88C100.742 53.3602 100.63 53.2483 100.63 53.1102V52.2402ZM101.13 52.4902V52.8602H115.39V52.4902H101.13Z" fill="#828282"/>
<path d="M27.0498 46.1602H21.8398V47.0302H27.0498V46.1602Z" fill="white"/>
<path fill-rule="evenodd" clip-rule="evenodd" d="M21.5898 46.1602C21.5898 46.0221 21.7018 45.9102 21.8398 45.9102H27.0498C27.1879 45.9102 27.2998 46.0221 27.2998 46.1602V47.0302C27.2998 47.1682 27.1879 47.2802 27.0498 47.2802H21.8398C21.7018 47.2802 21.5898 47.1682 21.5898 47.0302V46.1602ZM22.0898 46.4102V46.7802H26.7998V46.4102H22.0898Z" fill="#828282"/>
<path d="M94.7901 46.1602H89.5801V47.0302H94.7901V46.1602Z" fill="white"/>
<path fill-rule="evenodd" clip-rule="evenodd" d="M89.3301 46.1602C89.3301 46.0221 89.442 45.9102 89.5801 45.9102H94.7901C94.9281 45.9102 95.0401 46.0221 95.0401 46.1602V47.0302C95.0401 47.1682 94.9281 47.2802 94.7901 47.2802H89.5801C89.442 47.2802 89.3301 47.1682 89.3301 47.0302V46.1602ZM89.8301 46.4102V46.7802H94.5401V46.4102H89.8301Z" fill="#828282"/>
<path fill-rule="evenodd" clip-rule="evenodd" d="M2.49023 40.0801C2.49023 39.942 2.60216 39.8301 2.74023 39.8301H39.2102C39.3483 39.8301 39.4602 39.942 39.4602 40.0801C39.4602 40.2181 39.3483 40.3301 39.2102 40.3301H2.74023C2.60216 40.3301 2.49023 40.2181 2.49023 40.0801Z" fill="#828282"/>
<path fill-rule="evenodd" clip-rule="evenodd" d="M77.1699 40.0801C77.1699 39.942 77.2819 39.8301 77.4199 39.8301H113.89C114.028 39.8301 114.14 39.942 114.14 40.0801C114.14 40.2181 114.028 40.3301 113.89 40.3301H77.4199C77.2819 40.3301 77.1699 40.2181 77.1699 40.0801Z" fill="#828282"/>
<path d="M27.9198 1H21.8398V2.74H27.9198V1Z" fill="white"/>
<path fill-rule="evenodd" clip-rule="evenodd" d="M21.5898 1C21.5898 0.861929 21.7018 0.75 21.8398 0.75H27.9198C28.0579 0.75 28.1698 0.861929 28.1698 1V2.74C28.1698 2.87807 28.0579 2.99 27.9198 2.99H21.8398C21.7018 2.99 21.5898 2.87807 21.5898 2.74V1ZM22.0898 1.25V2.49H27.6698V1.25H22.0898Z" fill="#828282"/>
<path d="M94.7901 1H89.5801V2.74H94.7901V1Z" fill="white"/>
<path fill-rule="evenodd" clip-rule="evenodd" d="M89.3301 1C89.3301 0.861929 89.442 0.75 89.5801 0.75H94.7901C94.9281 0.75 95.0401 0.861929 95.0401 1V2.74C95.0401 2.87807 94.9281 2.99 94.7901 2.99H89.5801C89.442 2.99 89.3301 2.87807 89.3301 2.74V1ZM89.8301 1.25V2.49H94.5401V1.25H89.8301Z" fill="#828282"/>
<path d="M8.81996 11.4199H6.20996V40.0799H8.81996V11.4199Z" fill="white"/>
<path fill-rule="evenodd" clip-rule="evenodd" d="M5.95996 11.4199C5.95996 11.2819 6.07189 11.1699 6.20996 11.1699H8.81996C8.95803 11.1699 9.06996 11.2819 9.06996 11.4199V40.0799C9.06996 40.218 8.95803 40.3299 8.81996 40.3299H6.20996C6.07189 40.3299 5.95996 40.218 5.95996 40.0799V11.4199ZM6.45996 11.6699V39.8299H8.56996V11.6699H6.45996Z" fill="#828282"/>
<path d="M110.43 11.4199H107.82V40.0799H110.43V11.4199Z" fill="white"/>
<path fill-rule="evenodd" clip-rule="evenodd" d="M107.57 11.4199C107.57 11.2819 107.682 11.1699 107.82 11.1699H110.43C110.568 11.1699 110.68 11.2819 110.68 11.4199V40.0799C110.68 40.218 110.568 40.3299 110.43 40.3299H107.82C107.682 40.3299 107.57 40.218 107.57 40.0799V11.4199ZM108.07 11.6699V39.8299H110.18V11.6699H108.07Z" fill="#828282"/>
<path d="M92.5002 71.5801C95.1302 71.5801 97.2602 69.4501 97.2602 66.8201C97.2602 64.1901 95.1302 62.0601 92.5002 62.0601C89.8702 62.0601 87.7402 64.1901 87.7402 66.8201C87.7402 69.4501 89.8702 71.5801 92.5002 71.5801Z" fill="white"/>
<path fill-rule="evenodd" clip-rule="evenodd" d="M87.4902 66.8201C87.4902 64.052 89.7322 61.8101 92.5002 61.8101C95.2683 61.8101 97.5102 64.052 97.5102 66.8201C97.5102 69.5881 95.2683 71.8301 92.5002 71.8301C89.7322 71.8301 87.4902 69.5881 87.4902 66.8201ZM92.5002 62.3101C90.0083 62.3101 87.9902 64.3281 87.9902 66.8201C87.9902 69.312 90.0083 71.3301 92.5002 71.3301C94.9922 71.3301 97.0102 69.312 97.0102 66.8201C97.0102 64.3281 94.9922 62.3101 92.5002 62.3101Z" fill="#828282"/>
<path d="M25.3198 75.3203C30.0098 75.3203 33.8198 71.5103 33.8198 66.8203C33.8198 62.1303 30.0098 58.3203 25.3198 58.3203C20.6298 58.3203 16.8198 62.1303 16.8198 66.8203C16.8198 71.5103 20.6198 75.3203 25.3198 75.3203Z" fill="white"/>
<path fill-rule="evenodd" clip-rule="evenodd" d="M16.5698 66.8203C16.5698 61.9922 20.4918 58.0703 25.3198 58.0703C30.1479 58.0703 34.0698 61.9922 34.0698 66.8203C34.0698 71.6484 30.1479 75.5703 25.3198 75.5703C20.4816 75.5703 16.5698 71.6482 16.5698 66.8203ZM25.3198 58.5703C20.7679 58.5703 17.0698 62.2684 17.0698 66.8203C17.0698 71.3724 20.7581 75.0703 25.3198 75.0703C29.8718 75.0703 33.5698 71.3722 33.5698 66.8203C33.5698 62.2684 29.8718 58.5703 25.3198 58.5703Z" fill="#828282"/>
<path d="M25.3201 71.5801C27.9501 71.5801 30.0801 69.4501 30.0801 66.8201C30.0801 64.1901 27.9501 62.0601 25.3201 62.0601C22.6901 62.0601 20.5601 64.1901 20.5601 66.8201C20.5601 69.4501 22.6901 71.5801 25.3201 71.5801Z" fill="white"/>
<path fill-rule="evenodd" clip-rule="evenodd" d="M20.3101 66.8201C20.3101 64.052 22.552 61.8101 25.3201 61.8101C28.0881 61.8101 30.3301 64.052 30.3301 66.8201C30.3301 69.5881 28.0881 71.8301 25.3201 71.8301C22.552 71.8301 20.3101 69.5881 20.3101 66.8201ZM25.3201 62.3101C22.8281 62.3101 20.8101 64.3281 20.8101 66.8201C20.8101 69.312 22.8281 71.3301 25.3201 71.3301C27.812 71.3301 29.8301 69.312 29.8301 66.8201C29.8301 64.3281 27.812 62.3101 25.3201 62.3101Z" fill="#828282"/>
<path d="M47.86 4H26V67.87H47.86V4Z" fill="white"/>
<path fill-rule="evenodd" clip-rule="evenodd" d="M25.5 4C25.5 3.72386 25.7239 3.5 26 3.5H47.86C48.1361 3.5 48.36 3.72386 48.36 4V67.87C48.36 68.1461 48.1361 68.37 47.86 68.37H26C25.7239 68.37 25.5 68.1461 25.5 67.87V4ZM26.5 4.5V67.37H47.36V4.5H26.5Z" fill="#CB4040"/>
<path d="M47.86 37.3999H26V67.8699H47.86V37.3999Z" fill="white"/>
<path fill-rule="evenodd" clip-rule="evenodd" d="M25.5 37.3999C25.5 37.1238 25.7239 36.8999 26 36.8999H47.86C48.1361 36.8999 48.36 37.1238 48.36 37.3999V67.8699C48.36 68.146 48.1361 68.3699 47.86 68.3699H26C25.7239 68.3699 25.5 68.146 25.5 67.8699V37.3999ZM26.5 37.8999V67.3699H47.36V37.8999H26.5Z" fill="#CB4040"/>
<path d="M45.58 5.95996H28.27V35.94H45.58V5.95996Z" fill="white"/>
<path fill-rule="evenodd" clip-rule="evenodd" d="M27.77 5.95996C27.77 5.68382 27.9939 5.45996 28.27 5.45996H45.58C45.8562 5.45996 46.08 5.68382 46.08 5.95996V35.94C46.08 36.2161 45.8562 36.44 45.58 36.44H28.27C27.9939 36.44 27.77 36.2161 27.77 35.94V5.95996ZM28.77 6.45996V35.44H45.08V6.45996H28.77Z" fill="#CB4040"/>
<path d="M89.8698 4H68.0098V67.87H89.8698V4Z" fill="white"/>
<path fill-rule="evenodd" clip-rule="evenodd" d="M67.5098 4C67.5098 3.72386 67.7336 3.5 68.0098 3.5H89.8698C90.1459 3.5 90.3698 3.72386 90.3698 4V67.87C90.3698 68.1461 90.1459 68.37 89.8698 68.37H68.0098C67.7336 68.37 67.5098 68.1461 67.5098 67.87V4ZM68.5098 4.5V67.37H89.3698V4.5H68.5098Z" fill="#CB4040"/>
<path d="M89.8698 37.3999H68.0098V67.8699H89.8698V37.3999Z" fill="white"/>
<path fill-rule="evenodd" clip-rule="evenodd" d="M67.5098 37.3999C67.5098 37.1238 67.7336 36.8999 68.0098 36.8999H89.8698C90.1459 36.8999 90.3698 37.1238 90.3698 37.3999V67.8699C90.3698 68.146 90.1459 68.3699 89.8698 68.3699H68.0098C67.7336 68.3699 67.5098 68.146 67.5098 67.8699V37.3999ZM68.5098 37.8999V67.3699H89.3698V37.8999H68.5098Z" fill="#CB4040"/>
<path d="M87.5898 5.95996H70.2798V35.94H87.5898V5.95996Z" fill="white"/>
<path fill-rule="evenodd" clip-rule="evenodd" d="M69.7798 5.95996C69.7798 5.68382 70.0036 5.45996 70.2798 5.45996H87.5898C87.8659 5.45996 88.0898 5.68382 88.0898 5.95996V35.94C88.0898 36.2161 87.8659 36.44 87.5898 36.44H70.2798C70.0036 36.44 69.7798 36.2161 69.7798 35.94V5.95996ZM70.7798 6.45996V35.44H87.0898V6.45996H70.7798Z" fill="#CB4040"/>
<path d="M28.6987 47.1855C28.6987 46.6333 29.1464 46.1855 29.6987 46.1855H85.7412C86.2935 46.1855 86.7412 46.6333 86.7412 47.1855V63.0926C86.7412 63.6449 86.2935 64.0926 85.7412 64.0926H29.6987C29.1464 64.0926 28.6987 63.6449 28.6987 63.0926V47.1855Z" fill="white"/>
<path fill-rule="evenodd" clip-rule="evenodd" d="M85.7412 47.1855H29.6987V63.0926H85.7412V47.1855ZM29.6987 46.1855C29.1464 46.1855 28.6987 46.6333 28.6987 47.1855V63.0926C28.6987 63.6449 29.1464 64.0926 29.6987 64.0926H85.7412C86.2935 64.0926 86.7412 63.6449 86.7412 63.0926V47.1855C86.7412 46.6333 86.2935 46.1855 85.7412 46.1855H29.6987Z" fill="#CA4040"/>
<path d="M49.3745 55.1104C49.3745 55.9463 49.23 56.6807 48.9409 57.3135C48.6519 57.9424 48.2378 58.4268 47.6987 58.7666C47.1636 59.1025 46.5464 59.2705 45.8472 59.2705C45.1558 59.2705 44.5386 59.1025 43.9956 58.7666C43.4565 58.4268 43.0386 57.9443 42.7417 57.3193C42.4487 56.6943 42.3003 55.9736 42.2964 55.1572V54.6768C42.2964 53.8447 42.4429 53.1104 42.7358 52.4736C43.0327 51.8369 43.4487 51.3506 43.9839 51.0146C44.5229 50.6748 45.1401 50.5049 45.8354 50.5049C46.5308 50.5049 47.146 50.6729 47.6812 51.0088C48.2202 51.3408 48.6362 51.8213 48.9292 52.4502C49.2222 53.0752 49.3706 53.8037 49.3745 54.6357V55.1104ZM47.8921 54.665C47.8921 53.7197 47.7124 52.9951 47.353 52.4912C46.9976 51.9873 46.4917 51.7354 45.8354 51.7354C45.1948 51.7354 44.6929 51.9873 44.3296 52.4912C43.9702 52.9912 43.7866 53.7002 43.7788 54.6182V55.1104C43.7788 56.0479 43.9604 56.7725 44.3237 57.2842C44.6909 57.7959 45.1987 58.0518 45.8472 58.0518C46.5034 58.0518 47.0073 57.8018 47.3589 57.3018C47.7144 56.8018 47.8921 56.0713 47.8921 55.1104V54.665Z" fill="#CA4040"/>
<path d="M52.3335 55.9834V59.1533H50.8511V50.6221H54.1147C55.0679 50.6221 55.8237 50.8701 56.3823 51.3662C56.9448 51.8623 57.2261 52.5186 57.2261 53.335C57.2261 54.1709 56.9507 54.8213 56.3999 55.2861C55.853 55.751 55.0854 55.9834 54.0972 55.9834H52.3335ZM52.3335 54.7939H54.1147C54.6421 54.7939 55.0444 54.6709 55.3218 54.4248C55.5991 54.1748 55.7378 53.8154 55.7378 53.3467C55.7378 52.8857 55.5972 52.5186 55.3159 52.2451C55.0347 51.9678 54.6479 51.8252 54.1558 51.8174H52.3335V54.7939Z" fill="#CA4040"/>
<path d="M63.5132 55.3447H60.0093V57.9697H64.105V59.1533H58.5269V50.6221H64.064V51.8174H60.0093V54.1729H63.5132V55.3447Z" fill="#CA4040"/>
<path d="M72.0796 59.1533H70.5972L66.7944 53.1006V59.1533H65.312V50.6221H66.7944L70.6089 56.6982V50.6221H72.0796V59.1533Z" fill="#CA4040"/>
</svg>
