<svg width="16" height="12" viewBox="0 0 16 12" fill="none" xmlns="http://www.w3.org/2000/svg">
<path d="M11.7692 3.99375V2.40709C11.7692 1.98629 11.6039 1.58271 11.3096 1.28516C11.0153 0.9876 10.6162 0.820435 10.2 0.820435H1.56923C1.15304 0.820435 0.753905 0.9876 0.459617 1.28516C0.165329 1.58271 0 1.98629 0 2.40709V10.3404C0 10.7612 0.165329 11.1648 0.459617 11.4623C0.753905 11.7599 1.15304 11.9271 1.56923 11.9271H10.2C10.6162 11.9271 11.0153 11.7599 11.3096 11.4623C11.6039 11.1648 11.7692 10.7612 11.7692 10.3404V8.75373L15.6923 11.9271V0.820435L11.7692 3.99375Z" fill="#A1A8AA"/>
</svg>
