<svg width="58" height="25" viewBox="0 0 58 25" fill="none" xmlns="http://www.w3.org/2000/svg">
<g filter="url(#filter0_d)">
<rect x="2.00006" y="2.80957" width="54" height="20.0536" rx="2" fill="white"/>
</g>
<path d="M20.7693 9.99363V8.40697C20.7693 7.98616 20.604 7.58259 20.3097 7.28503C20.0154 6.98748 19.6162 6.82031 19.2001 6.82031H10.5693C10.1531 6.82031 9.75397 6.98748 9.45968 7.28503C9.16539 7.58259 9.00006 7.98616 9.00006 8.40697V16.3403C9.00006 16.7611 9.16539 17.1647 9.45968 17.4622C9.75397 17.7598 10.1531 17.9269 10.5693 17.9269H19.2001C19.6162 17.9269 20.0154 17.7598 20.3097 17.4622C20.604 17.1647 20.7693 16.7611 20.7693 16.3403V14.7536L24.6924 17.9269V6.82031L20.7693 9.99363Z" fill="#43B9DF"/>
<path d="M35.32 8.82C35.44 8.82 35.5267 8.86333 35.58 8.95C35.64 9.03667 35.67 9.13667 35.67 9.25C35.67 9.36333 35.64 9.46333 35.58 9.55C35.5267 9.63667 35.44 9.68 35.32 9.68H33.72V10.31C33.72 10.6433 33.7733 10.93 33.88 11.17C33.9933 11.4033 34.17 11.6233 34.41 11.83C34.63 12.0167 34.84 12.19 35.04 12.35C35.2467 12.51 35.4267 12.6467 35.58 12.76C35.6933 12.84 35.75 12.9367 35.75 13.05C35.7567 13.1633 35.7233 13.27 35.65 13.37C35.5833 13.4567 35.49 13.52 35.37 13.56C35.2567 13.5933 35.1433 13.5667 35.03 13.48C34.8967 13.38 34.74 13.26 34.56 13.12C34.38 12.9733 34.1833 12.8133 33.97 12.64C33.7167 12.4333 33.5367 12.2667 33.43 12.14C33.33 12.0067 33.2667 11.8833 33.24 11.77H33.23C33.2033 11.89 33.1333 12.0233 33.02 12.17C32.9133 12.31 32.7333 12.4833 32.48 12.69C32.2667 12.8633 32.0567 13.03 31.85 13.19C31.6433 13.35 31.4433 13.5 31.25 13.64C31.1367 13.7267 31.02 13.7533 30.9 13.72C30.7867 13.68 30.7 13.6167 30.64 13.53C30.5667 13.43 30.53 13.32 30.53 13.2C30.53 13.08 30.59 12.9767 30.71 12.89C30.9233 12.73 31.14 12.5667 31.36 12.4C31.5867 12.2267 31.81 12.0433 32.03 11.85C32.27 11.6433 32.4433 11.4233 32.55 11.19C32.6633 10.9567 32.72 10.6733 32.72 10.34V9.68H31.05C30.9233 9.68 30.83 9.63667 30.77 9.55C30.7167 9.46333 30.69 9.36333 30.69 9.25C30.69 9.13667 30.7167 9.03667 30.77 8.95C30.83 8.86333 30.9233 8.82 31.05 8.82H35.32ZM37.46 8.22C37.5867 8.22 37.7 8.25333 37.8 8.32C37.9 8.38667 37.95 8.49333 37.95 8.64V14.56C37.95 14.7067 37.9 14.8133 37.8 14.88C37.7 14.9467 37.5867 14.98 37.46 14.98C37.3267 14.98 37.21 14.9467 37.11 14.88C37.01 14.8133 36.96 14.7067 36.96 14.56V11.53H35.52C35.3933 11.53 35.3 11.4867 35.24 11.4C35.1867 11.3133 35.16 11.2133 35.16 11.1C35.16 10.98 35.1867 10.88 35.24 10.8C35.3 10.7133 35.3933 10.67 35.52 10.67H36.96V8.64C36.96 8.49333 37.01 8.38667 37.11 8.32C37.21 8.25333 37.3267 8.22 37.46 8.22ZM32.58 14.14C32.7067 14.14 32.82 14.1733 32.92 14.24C33.0267 14.3067 33.08 14.4133 33.08 14.56V16.25C33.08 16.3233 33.0933 16.3733 33.12 16.4C33.1533 16.4333 33.21 16.45 33.29 16.45H37.83C37.9567 16.45 38.0467 16.4933 38.1 16.58C38.16 16.6667 38.19 16.77 38.19 16.89C38.19 17.0033 38.16 17.1033 38.1 17.19C38.0467 17.2767 37.9567 17.32 37.83 17.32H32.84C32.5467 17.32 32.3433 17.2667 32.23 17.16C32.1233 17.0533 32.07 16.8567 32.07 16.57V14.56C32.07 14.4133 32.12 14.3067 32.22 14.24C32.3267 14.1733 32.4467 14.14 32.58 14.14ZM40.2816 8.63C40.4082 8.63 40.5216 8.66333 40.6216 8.73C40.7282 8.79667 40.7816 8.90333 40.7816 9.05V10.16H43.0816V9.05C43.0816 8.90333 43.1316 8.79667 43.2316 8.73C43.3316 8.66333 43.4449 8.63 43.5716 8.63C43.6982 8.63 43.8116 8.66333 43.9116 8.73C44.0182 8.79667 44.0716 8.90333 44.0716 9.05V12.29C44.0716 12.5767 44.0149 12.7733 43.9016 12.88C43.7949 12.9867 43.5949 13.04 43.3016 13.04H40.5616C40.2682 13.04 40.0649 12.9867 39.9516 12.88C39.8449 12.7733 39.7916 12.5767 39.7916 12.29V9.05C39.7916 8.90333 39.8416 8.79667 39.9416 8.73C40.0416 8.66333 40.1549 8.63 40.2816 8.63ZM40.7816 12.01C40.7816 12.0833 40.7949 12.1367 40.8216 12.17C40.8549 12.1967 40.9116 12.21 40.9916 12.21H42.8716C43.0116 12.21 43.0816 12.1433 43.0816 12.01V10.99H40.7816V12.01ZM46.0616 8.22C46.1949 8.22 46.3116 8.25333 46.4116 8.32C46.5116 8.38667 46.5616 8.49333 46.5616 8.64V10.46H47.6616C47.7949 10.46 47.8882 10.5033 47.9416 10.59C48.0016 10.6767 48.0316 10.7767 48.0316 10.89C48.0316 11.0167 48.0016 11.1233 47.9416 11.21C47.8882 11.29 47.7949 11.33 47.6616 11.33H46.5616V13.35C46.5616 13.49 46.5116 13.5933 46.4116 13.66C46.3116 13.7267 46.1949 13.76 46.0616 13.76C45.9282 13.76 45.8116 13.7267 45.7116 13.66C45.6116 13.5933 45.5616 13.49 45.5616 13.35V8.64C45.5616 8.49333 45.6116 8.38667 45.7116 8.32C45.8116 8.25333 45.9282 8.22 46.0616 8.22ZM43.7516 13.85C44.6649 13.85 45.3682 14.0067 45.8616 14.32C46.3616 14.6267 46.6116 15.09 46.6116 15.71C46.6116 16.33 46.3616 16.7933 45.8616 17.1C45.3682 17.4133 44.6649 17.57 43.7516 17.57C42.8382 17.57 42.1316 17.4133 41.6316 17.1C41.1382 16.7933 40.8916 16.33 40.8916 15.71C40.8916 15.09 41.1382 14.6267 41.6316 14.32C42.1316 14.0067 42.8382 13.85 43.7516 13.85ZM43.7516 14.66C43.0916 14.66 42.6149 14.7567 42.3216 14.95C42.0282 15.1367 41.8816 15.39 41.8816 15.71C41.8816 16.03 42.0282 16.2833 42.3216 16.47C42.6149 16.6633 43.0916 16.76 43.7516 16.76C44.4116 16.76 44.8882 16.6633 45.1816 16.47C45.4749 16.2833 45.6216 16.03 45.6216 15.71C45.6216 15.39 45.4749 15.1367 45.1816 14.95C44.8882 14.7567 44.4116 14.66 43.7516 14.66Z" fill="#43B9DF"/>
<defs>
<filter id="filter0_d" x="6.10352e-05" y="0.80957" width="58" height="24.0536" filterUnits="userSpaceOnUse" color-interpolation-filters="sRGB">
<feFlood flood-opacity="0" result="BackgroundImageFix"/>
<feColorMatrix in="SourceAlpha" type="matrix" values="0 0 0 0 0 0 0 0 0 0 0 0 0 0 0 0 0 0 127 0"/>
<feOffset/>
<feGaussianBlur stdDeviation="1"/>
<feColorMatrix type="matrix" values="0 0 0 0 0 0 0 0 0 0 0 0 0 0 0 0 0 0 0.25 0"/>
<feBlend mode="normal" in2="BackgroundImageFix" result="effect1_dropShadow"/>
<feBlend mode="normal" in="SourceGraphic" in2="effect1_dropShadow" result="shape"/>
</filter>
</defs>
</svg>
