<svg width="58" height="25" viewBox="0 0 58 25" fill="none" xmlns="http://www.w3.org/2000/svg">
<g filter="url(#filter0_d)">
<rect x="2.00006" y="2.88745" width="54" height="20.0536" rx="2" fill="white"/>
</g>
<path d="M20.7693 10.0715V8.48485C20.7693 8.06404 20.604 7.66047 20.3097 7.36292C20.0154 7.06536 19.6162 6.89819 19.2001 6.89819H10.5693C10.1531 6.89819 9.75397 7.06536 9.45968 7.36292C9.16539 7.66047 9.00006 8.06404 9.00006 8.48485V16.4182C9.00006 16.839 9.16539 17.2425 9.45968 17.5401C9.75397 17.8376 10.1531 18.0048 10.5693 18.0048H19.2001C19.6162 18.0048 20.0154 17.8376 20.3097 17.5401C20.604 17.2425 20.7693 16.839 20.7693 16.4182V14.8315L24.6924 18.0048V6.89819L20.7693 10.0715Z" fill="#43B9DF"/>
<path d="M33.29 8.42C33.4233 8.42 33.54 8.45333 33.64 8.52C33.7467 8.58667 33.8 8.69333 33.8 8.84V9.64C33.8 9.94667 33.8533 10.2067 33.96 10.42C34.0733 10.6333 34.2467 10.8267 34.48 11C34.7133 11.1733 34.9267 11.33 35.12 11.47C35.3133 11.6033 35.5 11.7267 35.68 11.84C35.7933 11.9133 35.8533 12.01 35.86 12.13C35.8667 12.25 35.8367 12.3567 35.77 12.45C35.71 12.5433 35.6233 12.61 35.51 12.65C35.3967 12.6833 35.2833 12.6633 35.17 12.59C35.0167 12.49 34.8467 12.3767 34.66 12.25C34.4733 12.1167 34.2667 11.97 34.04 11.81C33.7933 11.63 33.6133 11.4767 33.5 11.35C33.3933 11.2233 33.33 11.11 33.31 11.01H33.3C33.2733 11.1233 33.2033 11.2467 33.09 11.38C32.9767 11.5133 32.7933 11.6733 32.54 11.86C32.3133 12.02 32.0933 12.1733 31.88 12.32C31.6733 12.4667 31.46 12.61 31.24 12.75C31.1267 12.8233 31.0133 12.8367 30.9 12.79C30.7933 12.7433 30.7067 12.6733 30.64 12.58C30.58 12.4867 30.5533 12.38 30.56 12.26C30.5667 12.14 30.6267 12.0433 30.74 11.97C30.98 11.8167 31.21 11.6667 31.43 11.52C31.65 11.3667 31.8767 11.2033 32.11 11.03C32.3433 10.8567 32.5133 10.6633 32.62 10.45C32.7267 10.23 32.78 9.97 32.78 9.67V8.84C32.78 8.69333 32.83 8.58667 32.93 8.52C33.0367 8.45333 33.1567 8.42 33.29 8.42ZM37.39 8.22C37.5233 8.22 37.64 8.25333 37.74 8.32C37.84 8.38667 37.89 8.49333 37.89 8.64V12.52C37.89 12.6667 37.84 12.7733 37.74 12.84C37.64 12.9067 37.5233 12.94 37.39 12.94C37.2567 12.94 37.14 12.9067 37.04 12.84C36.94 12.7733 36.89 12.6667 36.89 12.52V8.64C36.89 8.49333 36.94 8.38667 37.04 8.32C37.14 8.25333 37.2567 8.22 37.39 8.22ZM37.12 13.37C37.4133 13.37 37.6133 13.4233 37.72 13.53C37.8333 13.6367 37.89 13.8333 37.89 14.12V15.04C37.89 15.3267 37.8333 15.5233 37.72 15.63C37.6133 15.7367 37.4133 15.79 37.12 15.79H33.25C33.1767 15.79 33.1233 15.8067 33.09 15.84C33.0567 15.8667 33.04 15.92 33.04 16V16.43C33.04 16.57 33.11 16.64 33.25 16.64H37.78C37.8933 16.64 37.9767 16.68 38.03 16.76C38.0833 16.84 38.11 16.9333 38.11 17.04C38.11 17.1467 38.0833 17.24 38.03 17.32C37.9767 17.4 37.8933 17.44 37.78 17.44H32.84C32.5467 17.44 32.3433 17.3867 32.23 17.28C32.1233 17.1733 32.07 16.9767 32.07 16.69V15.77C32.07 15.4833 32.1233 15.2867 32.23 15.18C32.3433 15.0733 32.5467 15.02 32.84 15.02H36.7C36.78 15.02 36.8333 15.0067 36.86 14.98C36.8933 14.9467 36.91 14.89 36.91 14.81V14.38C36.91 14.3067 36.8933 14.2567 36.86 14.23C36.8333 14.1967 36.78 14.18 36.7 14.18H32.38C32.2667 14.18 32.1833 14.14 32.13 14.06C32.0767 13.98 32.05 13.8833 32.05 13.77C32.05 13.6633 32.0767 13.57 32.13 13.49C32.1833 13.41 32.2667 13.37 32.38 13.37H37.12ZM40.2416 8.87C40.3749 8.87 40.4916 8.90333 40.5916 8.97C40.6982 9.03667 40.7516 9.14667 40.7516 9.3V13.4C40.7516 13.54 40.8216 13.61 40.9616 13.61C41.1416 13.61 41.3349 13.6067 41.5416 13.6C41.7549 13.5933 41.9682 13.5833 42.1816 13.57C42.3949 13.5567 42.6049 13.54 42.8116 13.52C43.0182 13.5 43.2082 13.4767 43.3816 13.45C43.4949 13.4367 43.5849 13.4667 43.6516 13.54C43.7182 13.6067 43.7582 13.7 43.7716 13.82C43.7849 13.94 43.7682 14.0467 43.7216 14.14C43.6816 14.2333 43.6049 14.29 43.4916 14.31C43.2382 14.35 42.8516 14.3867 42.3316 14.42C41.8116 14.4533 41.2049 14.47 40.5116 14.47C40.2182 14.47 40.0149 14.4167 39.9016 14.31C39.7949 14.2033 39.7416 14.0067 39.7416 13.72V9.3C39.7416 9.14667 39.7916 9.03667 39.8916 8.97C39.9916 8.90333 40.1082 8.87 40.2416 8.87ZM46.8116 8.22C46.9316 8.22 47.0382 8.25333 47.1316 8.32C47.2316 8.38 47.2816 8.47667 47.2816 8.61V16.47C47.2816 16.6033 47.2316 16.7 47.1316 16.76C47.0382 16.8267 46.9316 16.86 46.8116 16.86C46.6982 16.86 46.5916 16.8267 46.4916 16.76C46.3982 16.7 46.3516 16.6033 46.3516 16.47V12.14H45.2216V16.05C45.2216 16.1833 45.1716 16.28 45.0716 16.34C44.9782 16.4067 44.8716 16.44 44.7516 16.44C44.6382 16.44 44.5316 16.4067 44.4316 16.34C44.3382 16.28 44.2916 16.1833 44.2916 16.05V8.71C44.2916 8.57667 44.3382 8.48 44.4316 8.42C44.5316 8.35333 44.6382 8.32 44.7516 8.32C44.8716 8.32 44.9782 8.35333 45.0716 8.42C45.1716 8.48 45.2216 8.57667 45.2216 8.71V11.29H46.3516V8.61C46.3516 8.47667 46.3982 8.38 46.4916 8.32C46.5916 8.25333 46.6982 8.22 46.8116 8.22Z" fill="#43B9DF"/>
<defs>
<filter id="filter0_d" x="6.10352e-05" y="0.887451" width="58" height="24.0536" filterUnits="userSpaceOnUse" color-interpolation-filters="sRGB">
<feFlood flood-opacity="0" result="BackgroundImageFix"/>
<feColorMatrix in="SourceAlpha" type="matrix" values="0 0 0 0 0 0 0 0 0 0 0 0 0 0 0 0 0 0 127 0"/>
<feOffset/>
<feGaussianBlur stdDeviation="1"/>
<feColorMatrix type="matrix" values="0 0 0 0 0 0 0 0 0 0 0 0 0 0 0 0 0 0 0.25 0"/>
<feBlend mode="normal" in2="BackgroundImageFix" result="effect1_dropShadow"/>
<feBlend mode="normal" in="SourceGraphic" in2="effect1_dropShadow" result="shape"/>
</filter>
</defs>
</svg>
