<svg width="36" height="25" viewBox="0 0 36 25" fill="none" xmlns="http://www.w3.org/2000/svg">
<path d="M27.4829 23.53H6.57894C5.22594 23.53 3.95394 23.003 2.99694 22.046C2.03994 21.089 1.51294 19.816 1.51294 18.463C1.51294 17.11 2.03994 15.838 2.99694 14.881C3.95394 13.924 5.22594 13.397 6.57994 13.397C6.74794 13.397 6.90594 13.332 7.02494 13.213C7.14394 13.094 7.20894 12.936 7.20894 12.768C7.22094 10.224 8.13294 7.763 9.77794 5.831C11.4229 3.9 13.7069 2.608 16.2099 2.192C18.7129 1.777 21.2929 2.26299 23.4719 3.55999C25.6529 4.85699 27.3099 6.892 28.1399 9.289C28.1819 9.416 28.2469 9.51199 28.3329 9.58599C28.4199 9.66099 28.5239 9.70999 28.6359 9.72899C30.3589 10.051 31.8699 10.983 32.9169 12.357C33.9629 13.731 34.4599 15.436 34.3149 17.157C34.1699 18.878 33.3949 20.476 32.1319 21.655C30.8699 22.834 29.2239 23.499 27.4969 23.528L27.4829 23.53Z" fill="white"/>
<path d="M27.5069 24.78H6.57894C4.89194 24.78 3.30694 24.123 2.11294 22.931C0.919939 21.737 0.262939 20.151 0.262939 18.464C0.262939 16.777 0.919939 15.192 2.11194 13.998C3.16194 12.948 4.51594 12.313 5.97494 12.176C6.11694 9.54599 7.11694 7.027 8.82494 5.022C10.6609 2.866 13.2099 1.42399 16.0039 0.959991C18.7979 0.497991 21.6759 1.03899 24.1099 2.48699C26.4499 3.87899 28.2509 6.03199 29.2089 8.57499C31.0969 9.01299 32.7499 10.077 33.9109 11.601C35.1449 13.222 35.7309 15.233 35.5599 17.264C35.3889 19.295 34.4749 21.179 32.9849 22.571C31.4969 23.962 29.5549 24.747 27.5169 24.78H27.5069ZM17.9659 3.29799C17.4479 3.29799 16.9289 3.33999 16.4129 3.42599C14.2009 3.79299 12.1819 4.93499 10.7279 6.64199C9.27394 8.34899 8.46794 10.526 8.45694 12.774C8.45694 13.27 8.26194 13.742 7.90694 14.097C7.54994 14.452 7.07894 14.647 6.57794 14.647C5.55794 14.647 4.59994 15.044 3.87894 15.765C3.15894 16.486 2.76194 17.445 2.76194 18.464C2.76194 19.483 3.15894 20.442 3.87994 21.163C4.59994 21.883 5.55894 22.28 6.57794 22.28H27.4959C28.8919 22.257 30.2429 21.711 31.2779 20.744C32.3139 19.776 32.9489 18.466 33.0689 17.054C33.1879 15.642 32.7809 14.243 31.9229 13.116C31.0649 11.989 29.8159 11.223 28.4059 10.959C28.0909 10.906 27.7769 10.758 27.5179 10.536C27.2559 10.309 27.0669 10.025 26.9539 9.68699C26.2249 7.58099 24.7599 5.78199 22.8319 4.63499C21.3539 3.75599 19.6689 3.29799 17.9659 3.29799ZM5.95794 12.763C5.95794 12.765 5.95794 12.767 5.95794 12.769C5.95794 12.767 5.95794 12.765 5.95794 12.763ZM29.3179 8.87499C29.3179 8.87699 29.3189 8.879 29.3199 8.882C29.3199 8.879 29.3189 8.87699 29.3179 8.87499ZM28.8449 8.49799C28.8519 8.49899 28.8599 8.50099 28.8669 8.50199C28.8599 8.49999 28.8519 8.49999 28.8449 8.49799Z" fill="#535353"/>
</svg>
