<svg width="17" height="25" viewBox="0 0 17 25" fill="none" xmlns="http://www.w3.org/2000/svg">
<path d="M15.063 14.991C15.063 21.19 11.998 23.697 8.21602 23.697C4.43402 23.697 1.36902 21.19 1.36902 14.991C1.36902 8.792 8.21602 1.25 8.21602 1.25C8.21602 1.25 15.063 8.793 15.063 14.991Z" fill="white"/>
<path d="M8.21602 24.948C3.14602 24.948 0.119019 21.226 0.119019 14.991C0.119019 8.386 6.99702 0.732 7.29002 0.409C7.52802 0.149 7.86402 0 8.21602 0C8.56902 0 8.90402 0.149 9.14202 0.41C9.43402 0.733 16.312 8.386 16.312 14.992C16.312 21.226 13.286 24.948 8.21602 24.948ZM8.21602 3.192C6.41602 5.432 2.61902 10.669 2.61902 14.991C2.61902 19.8 4.60702 22.448 8.21602 22.448C11.825 22.448 13.812 19.8 13.812 14.991C13.812 10.668 10.017 5.432 8.21602 3.192Z" fill="#535353"/>
</svg>
