<svg width="36" height="33" viewBox="0 0 36 33" fill="none" xmlns="http://www.w3.org/2000/svg">
<path d="M27.4829 22.976H6.57894C5.22594 22.976 3.95394 22.449 2.99694 21.492C2.03994 20.535 1.51294 19.262 1.51294 17.909C1.51294 16.556 2.03994 15.284 2.99694 14.327C3.95394 13.37 5.22594 12.843 6.57994 12.843C6.74794 12.843 6.90594 12.778 7.02494 12.659C7.14394 12.54 7.20894 12.382 7.20894 12.214C7.22094 9.67 8.13294 7.20899 9.77794 5.27699C11.4229 3.34599 13.7069 2.054 16.2099 1.638C18.7129 1.223 21.2929 1.70899 23.4719 3.00599C25.6529 4.30299 27.3099 6.338 28.1399 8.735C28.1819 8.862 28.2469 8.95799 28.3329 9.03199C28.4199 9.10699 28.5239 9.156 28.6359 9.175C30.3589 9.497 31.8699 10.429 32.9169 11.803C33.9629 13.177 34.4599 14.882 34.3149 16.603C34.1699 18.324 33.3949 19.922 32.1319 21.101C30.8699 22.28 29.2239 22.945 27.4969 22.974L27.4829 22.976Z" fill="white"/>
<path d="M27.4829 24.226H6.57894C4.89194 24.226 3.30594 23.569 2.11294 22.376C0.919939 21.183 0.262939 19.597 0.262939 17.91C0.262939 16.223 0.919939 14.638 2.11194 13.444C3.16194 12.394 4.51594 11.759 5.97494 11.622C6.11694 8.99199 7.11694 6.47299 8.82494 4.46699C10.6599 2.31199 13.2099 0.869005 16.0039 0.406005C18.7959 -0.057995 21.6759 0.484998 24.1099 1.933C26.4499 3.325 28.2509 5.478 29.2089 8.02C31.0969 8.458 32.7499 9.522 33.9109 11.046C35.1449 12.667 35.7309 14.678 35.5599 16.709C35.3889 18.74 34.4749 20.625 32.9849 22.016C31.4959 23.407 29.5539 24.191 27.5169 24.225L27.4829 24.226ZM17.9659 2.744C17.4479 2.744 16.9289 2.78599 16.4129 2.87199C14.2009 3.23999 12.1819 4.382 10.7279 6.088C9.27394 7.795 8.46794 9.973 8.45694 12.22C8.45694 12.715 8.26194 13.186 7.90894 13.541C7.54994 13.898 7.07894 14.093 6.57794 14.093C5.55794 14.093 4.59994 14.49 3.87894 15.211C3.15894 15.932 2.76194 16.89 2.76194 17.909C2.76194 18.929 3.15894 19.887 3.87994 20.608C4.60094 21.329 5.55894 21.726 6.57794 21.726H27.4689C28.9039 21.698 30.2469 21.153 31.2779 20.19C32.3139 19.222 32.9489 17.912 33.0689 16.5C33.1889 15.088 32.7809 13.689 31.9229 12.562C31.0639 11.435 29.8159 10.669 28.4069 10.406C28.0919 10.352 27.7779 10.205 27.5179 9.98199C27.2579 9.75899 27.0679 9.47399 26.9549 9.13499C26.2259 7.02699 24.7599 5.228 22.8329 4.082C21.3539 3.202 19.6689 2.744 17.9659 2.744ZM5.95794 12.208C5.95794 12.21 5.95794 12.212 5.95794 12.214C5.95794 12.212 5.95794 12.21 5.95794 12.208ZM29.3179 8.32201C29.3179 8.32401 29.3189 8.326 29.3199 8.328C29.3199 8.326 29.3189 8.32401 29.3179 8.32201ZM28.8449 7.944C28.8519 7.945 28.8599 7.947 28.8669 7.948C28.8599 7.947 28.8519 7.946 28.8449 7.944Z" fill="#535353"/>
<path d="M9.02104 32.457C8.87304 32.457 8.72304 32.431 8.57704 32.375C7.93104 32.13 7.60704 31.408 7.85204 30.763L9.75204 25.758C9.99704 25.113 10.721 24.789 11.364 25.033C12.01 25.278 12.334 26 12.089 26.645L10.189 31.65C10 32.149 9.52504 32.457 9.02104 32.457Z" fill="#535353"/>
<path d="M16.0249 32.457C15.8769 32.457 15.7269 32.431 15.5809 32.375C14.9349 32.13 14.6109 31.408 14.8559 30.763L16.7559 25.758C17.0009 25.113 17.7249 24.789 18.3679 25.033C19.0139 25.278 19.3379 26 19.0929 26.645L17.1929 31.65C17.0039 32.149 16.5289 32.457 16.0249 32.457Z" fill="#535353"/>
<path d="M23.03 32.457C22.882 32.457 22.7319 32.431 22.5859 32.375C21.9399 32.13 21.6159 31.408 21.8609 30.763L23.7609 25.758C24.0069 25.113 24.7299 24.789 25.3729 25.033C26.0189 25.278 26.3429 26 26.0979 26.645L24.1979 31.65C24.0089 32.149 23.534 32.457 23.03 32.457Z" fill="#535353"/>
</svg>
