<svg width="29" height="31" viewBox="0 0 29 31" fill="none" xmlns="http://www.w3.org/2000/svg">
<path d="M14.717 30.305C14.027 30.305 13.467 29.745 13.467 29.055V1.578C13.467 0.888003 14.027 0.328003 14.717 0.328003C15.407 0.328003 15.967 0.888003 15.967 1.578V29.055C15.967 29.745 15.408 30.305 14.717 30.305Z" fill="#535353"/>
<path d="M2.82094 23.436C2.38894 23.436 1.96894 23.212 1.73794 22.811C1.39294 22.213 1.59794 21.449 2.19594 21.103L25.9909 7.365C26.5869 7.021 27.3529 7.22401 27.6989 7.82301C28.0439 8.42101 27.8389 9.18502 27.2409 9.53102L3.44594 23.269C3.24794 23.382 3.03294 23.436 2.82094 23.436Z" fill="#535353"/>
<path d="M26.614 23.436C26.402 23.436 26.187 23.382 25.99 23.269L2.19497 9.52999C1.59697 9.18499 1.39197 8.41998 1.73697 7.82198C2.08197 7.22298 2.84797 7.02 3.44497 7.364L27.24 21.102C27.838 21.447 28.043 22.212 27.698 22.81C27.466 23.211 27.045 23.436 26.614 23.436Z" fill="#535353"/>
<path d="M14.717 6.804C14.479 6.804 14.241 6.73602 14.033 6.60002L9.91696 3.91102C9.33896 3.53402 9.17696 2.75901 9.55396 2.18101C9.93196 1.60201 10.706 1.441 11.284 1.818L14.717 4.06101L18.15 1.818C18.727 1.441 19.502 1.60201 19.88 2.18101C20.257 2.75901 20.095 3.53402 19.517 3.91102L15.401 6.60002C15.193 6.73602 14.955 6.804 14.717 6.804Z" fill="#535353"/>
<path d="M1.87606 13.905C1.41906 13.905 0.980059 13.654 0.760059 13.219C0.448059 12.603 0.695059 11.851 1.31106 11.539L4.97006 9.68799L4.74306 5.59399C4.70506 4.90499 5.23306 4.31501 5.92206 4.27701C6.61606 4.23001 7.20106 4.76699 7.23906 5.45599L7.51006 10.365C7.53706 10.861 7.26906 11.325 6.82606 11.549L2.43806 13.769C2.25806 13.862 2.06606 13.905 1.87606 13.905Z" fill="#535353"/>
<path d="M5.99206 26.357C5.96906 26.357 5.94606 26.357 5.92206 26.355C5.23306 26.317 4.70506 25.727 4.74306 25.038L4.97006 20.944L1.31106 19.093C0.695059 18.781 0.448059 18.03 0.760059 17.413C1.07206 16.798 1.82406 16.551 2.44006 16.862L6.82806 19.082C7.27106 19.306 7.53906 19.77 7.51206 20.266L7.24106 25.176C7.20306 25.842 6.65106 26.357 5.99206 26.357Z" fill="#535353"/>
<path d="M18.833 29.019C18.598 29.019 18.361 28.953 18.15 28.815L14.717 26.572L11.284 28.815C10.706 29.191 9.93196 29.031 9.55396 28.452C9.17696 27.874 9.33896 27.099 9.91696 26.722L14.033 24.033C14.448 23.762 14.985 23.762 15.4 24.033L19.516 26.722C20.094 27.099 20.256 27.874 19.879 28.452C19.64 28.82 19.24 29.019 18.833 29.019Z" fill="#535353"/>
<path d="M23.442 26.357C22.783 26.357 22.232 25.842 22.195 25.176L21.924 20.266C21.897 19.77 22.165 19.306 22.608 19.082L26.995 16.862C27.612 16.551 28.364 16.798 28.675 17.413C28.987 18.029 28.74 18.781 28.124 19.093L24.465 20.944L24.691 25.038C24.729 25.727 24.201 26.317 23.512 26.355C23.489 26.357 23.465 26.357 23.442 26.357Z" fill="#535353"/>
<path d="M27.559 13.905C27.369 13.905 27.177 13.862 26.996 13.77L22.609 11.55C22.166 11.326 21.898 10.862 21.925 10.366L22.196 5.45701C22.234 4.76801 22.816 4.22903 23.513 4.27803C24.202 4.31603 24.73 4.90501 24.692 5.59501L24.466 9.68901L28.125 11.54C28.741 11.852 28.988 12.603 28.676 13.22C28.455 13.654 28.015 13.905 27.559 13.905Z" fill="#535353"/>
</svg>
