<svg width="31" height="31" viewBox="0 0 31 31" fill="none" xmlns="http://www.w3.org/2000/svg">
<circle cx="15.5" cy="15.5" r="5.5" fill="white"/>
<path d="M15.3418 23.0919C11.1537 23.0919 7.75 19.6882 7.75 15.5C7.75 11.3119 11.1537 7.9082 15.3418 7.9082C19.53 7.9082 22.9337 11.3119 22.9337 15.5C22.9337 19.6882 19.53 23.0919 15.3418 23.0919ZM15.3418 10.4388C12.5518 10.4388 10.2806 12.71 10.2806 15.5C10.2806 18.29 12.5518 20.5613 15.3418 20.5613C18.1318 20.5613 20.4031 18.29 20.4031 15.5C20.4031 12.71 18.1318 10.4388 15.3418 10.4388Z" fill="#555555"/>
<path d="M15.4999 6.32653C14.804 6.32653 14.2346 5.75714 14.2346 5.06122V1.26531C14.2346 0.569388 14.804 0 15.4999 0C16.1958 0 16.7652 0.569388 16.7652 1.26531V5.06122C16.7652 5.75714 16.2022 6.32653 15.4999 6.32653Z" fill="#555555"/>
<path d="M8.11696 9.38224C7.7943 9.38224 7.47165 9.25571 7.22491 9.00897L4.54247 6.32653C4.049 5.83306 4.049 5.02959 4.54247 4.53612C5.03593 4.04265 5.8394 4.04265 6.33287 4.53612L9.01532 7.21857C9.50879 7.71204 9.50879 8.51551 9.01532 9.00897C8.76859 9.26204 8.44594 9.38224 8.11696 9.38224Z" fill="#555555"/>
<path d="M5.06122 16.7652H1.26531C0.569388 16.7652 0 16.1958 0 15.4999C0 14.804 0.569388 14.2346 1.26531 14.2346H5.06122C5.75714 14.2346 6.32653 14.804 6.32653 15.4999C6.32653 16.1958 5.75714 16.7652 5.06122 16.7652Z" fill="#555555"/>
<path d="M5.43451 26.8307C5.11185 26.8307 4.7892 26.7042 4.54247 26.4575C4.049 25.964 4.049 25.1605 4.54247 24.6671L7.22491 21.9846C7.71838 21.4911 8.52185 21.4911 9.01532 21.9846C9.50879 22.4781 9.50879 23.2815 9.01532 23.775L6.32655 26.4575C6.07981 26.7042 5.75716 26.8307 5.43451 26.8307Z" fill="#555555"/>
<path d="M15.4999 30.9999C14.804 30.9999 14.2346 30.4305 14.2346 29.7346V25.9386C14.2346 25.2427 14.804 24.6733 15.4999 24.6733C16.1958 24.6733 16.7652 25.2427 16.7652 25.9386V29.7346C16.7652 30.4305 16.1958 30.9999 15.4999 30.9999Z" fill="#555555"/>
<path d="M25.5654 26.8307C25.2428 26.8307 24.9201 26.7042 24.6734 26.4575L21.991 23.775C21.4975 23.2815 21.4975 22.4781 21.991 21.9846C22.4844 21.4911 23.2879 21.4911 23.7814 21.9846L26.4575 24.6734C26.951 25.1668 26.951 25.9703 26.4575 26.4638C26.2107 26.7105 25.8881 26.8307 25.5654 26.8307Z" fill="#555555"/>
<path d="M29.7347 16.7652H25.9388C25.2428 16.7652 24.6735 16.1958 24.6735 15.4999C24.6735 14.804 25.2428 14.2346 25.9388 14.2346H29.7347C30.4306 14.2346 31 14.804 31 15.4999C31 16.1958 30.4306 16.7652 29.7347 16.7652Z" fill="#555555"/>
<path d="M22.883 9.38226C22.5603 9.38226 22.2377 9.25573 21.991 9.009C21.4975 8.51553 21.4975 7.71206 21.991 7.21859L24.6734 4.54247C25.1669 4.049 25.9703 4.049 26.4638 4.54247C26.9573 5.03593 26.9573 5.8394 26.4638 6.33287L23.7814 9.01532C23.5283 9.26206 23.2056 9.38226 22.883 9.38226Z" fill="#555555"/>
</svg>
