<svg width="25" height="40" viewBox="0 0 25 40" fill="none" xmlns="http://www.w3.org/2000/svg">
<path d="M9.15195 1.33899H21.6669L16.3309 14.461H22.7829L3.49095 38.75L8.54495 18.781H1.37195L9.15195 1.33899Z" fill="white"/>
<path d="M3.49099 40C3.30299 40 3.11399 39.958 2.93699 39.87C2.40899 39.609 2.13499 39.015 2.27899 38.443L6.93899 20.031H1.37199C0.948988 20.031 0.553988 19.817 0.323988 19.462C0.0929884 19.107 0.0579884 18.659 0.230988 18.272L8.00999 0.829987C8.21099 0.378987 8.65799 0.0889893 9.15199 0.0889893H21.668C22.084 0.0889893 22.473 0.295991 22.705 0.640991C22.937 0.985991 22.982 1.42399 22.826 1.80899L18.19 13.211H22.784C23.263 13.211 23.701 13.485 23.909 13.918C24.118 14.35 24.061 14.863 23.763 15.239L4.46999 39.527C4.22699 39.834 3.86199 40 3.49099 40ZM3.29799 17.531H8.54499C8.93099 17.531 9.29499 17.709 9.53099 18.013C9.76799 18.318 9.85099 18.714 9.75699 19.088L6.12999 33.418L20.193 15.711H16.331C15.915 15.711 15.526 15.504 15.294 15.159C15.062 14.814 15.017 14.376 15.173 13.991L19.809 2.58899H9.96199L3.29799 17.531Z" fill="#535353"/>
</svg>
