<svg width="33" height="30" viewBox="0 0 33 30" fill="none" xmlns="http://www.w3.org/2000/svg">
<path d="M26.919 17.001H1.573C0.882998 17.001 0.322998 16.441 0.322998 15.751C0.322998 15.061 0.882998 14.501 1.573 14.501H26.92C28.078 14.501 30.069 14.245 30.397 12.533C30.669 11.108 30.205 9.64399 29.186 8.71399C28.652 8.22599 27.509 7.47999 25.842 7.95999C24.902 8.23099 23.619 9.44898 23.666 10.819C23.69 11.509 23.15 12.088 22.46 12.111C21.771 12.144 21.191 11.594 21.168 10.904C21.08 8.33499 23.166 6.12799 25.15 5.55699C27.219 4.95899 29.305 5.43799 30.871 6.86699C32.527 8.37799 33.287 10.729 32.852 13.002C32.373 15.506 30.155 17.001 26.919 17.001Z" fill="#535353"/>
<path d="M14.76 11.024H1.27502C0.585024 11.024 0.0250244 10.464 0.0250244 9.774C0.0250244 9.084 0.585024 8.524 1.27502 8.524H14.76C15.739 8.524 17.423 8.313 17.692 6.901C17.924 5.689 17.531 4.446 16.666 3.657C16.215 3.246 15.249 2.61701 13.847 3.02201C13.06 3.24901 11.988 4.26501 12.027 5.40601C12.051 6.09601 11.511 6.675 10.821 6.698C10.125 6.732 9.55202 6.18201 9.52902 5.49201C9.44802 3.15101 11.348 1.14001 13.155 0.619005C15.034 0.0770052 16.929 0.511008 18.352 1.80901C19.853 3.17901 20.542 5.30901 20.148 7.36901C19.71 9.658 17.696 11.024 14.76 11.024Z" fill="#535353"/>
<path d="M14.738 29.64C14.216 29.64 13.685 29.565 13.154 29.412C11.347 28.891 9.44702 26.88 9.52802 24.539C9.55102 23.849 10.125 23.289 10.82 23.333C11.51 23.356 12.05 23.935 12.026 24.625C11.987 25.766 13.06 26.783 13.846 27.009C15.254 27.415 16.215 26.785 16.665 26.374C17.53 25.585 17.923 24.342 17.691 23.131C17.421 21.718 15.738 21.507 14.758 21.507H1.27502C0.585024 21.507 0.0250244 20.947 0.0250244 20.257C0.0250244 19.567 0.585024 19.007 1.27502 19.007H14.76C17.697 19.007 19.711 20.373 20.148 22.661C20.541 24.72 19.853 26.85 18.351 28.22C17.33 29.153 16.065 29.64 14.738 29.64Z" fill="#535353"/>
</svg>
